%TF.GenerationSoftware,KiCad,Pcbnew,9.0.6*%
%TF.CreationDate,2026-01-25T13:50:40+09:00*%
%TF.ProjectId,xiaozhi-with-ken-interface,7869616f-7a68-4692-9d77-6974682d6b65,rev?*%
%TF.SameCoordinates,Original*%
%TF.FileFunction,Copper,L1,Top*%
%TF.FilePolarity,Positive*%
%FSLAX46Y46*%
G04 Gerber Fmt 4.6, Leading zero omitted, Abs format (unit mm)*
G04 Created by KiCad (PCBNEW 9.0.6) date 2026-01-25 13:50:40*
%MOMM*%
%LPD*%
G01*
G04 APERTURE LIST*
%TA.AperFunction,ComponentPad*%
%ADD10C,5.600000*%
%TD*%
%TA.AperFunction,SMDPad,CuDef*%
%ADD11R,1.800000X3.500000*%
%TD*%
%TA.AperFunction,ComponentPad*%
%ADD12R,1.524000X1.524000*%
%TD*%
%TA.AperFunction,ComponentPad*%
%ADD13O,1.524000X1.524000*%
%TD*%
%TA.AperFunction,ComponentPad*%
%ADD14O,1.750000X3.000000*%
%TD*%
%TA.AperFunction,ComponentPad*%
%ADD15O,2.500000X4.000000*%
%TD*%
%TA.AperFunction,ComponentPad*%
%ADD16R,1.700000X1.700000*%
%TD*%
%TA.AperFunction,ComponentPad*%
%ADD17C,1.700000*%
%TD*%
%TA.AperFunction,SMDPad,CuDef*%
%ADD18R,1.100000X1.400000*%
%TD*%
%TA.AperFunction,ComponentPad*%
%ADD19O,1.700000X1.700000*%
%TD*%
%TA.AperFunction,ViaPad*%
%ADD20C,0.800000*%
%TD*%
%TA.AperFunction,Conductor*%
%ADD21C,0.150000*%
%TD*%
G04 APERTURE END LIST*
D10*
%TO.P,H1,1,1*%
%TO.N,unconnected-(H1-Pad1)*%
X105410000Y-116840000D03*
%TD*%
%TO.P,H2,1,1*%
%TO.N,unconnected-(H2-Pad1)*%
X62230000Y-116840000D03*
%TD*%
%TO.P,H4,1,1*%
%TO.N,unconnected-(H4-Pad1)*%
X105410000Y-43180000D03*
%TD*%
D11*
%TO.P,SPK1,1,+*%
%TO.N,Net-(SPK1-+)*%
X90670000Y-84154001D03*
%TO.P,SPK1,2,2*%
%TO.N,Net-(U6-OUTN)*%
X76970000Y-84154001D03*
%TO.P,SPK1,3,3*%
%TO.N,unconnected-(SPK1-Pad3)*%
X76970000Y-94153999D03*
%TO.P,SPK1,4,4*%
%TO.N,unconnected-(SPK1-Pad4)*%
X90670000Y-94153999D03*
%TD*%
D12*
%TO.P,M1,GND*%
%TO.N,GND*%
X87511900Y-63119000D03*
D13*
%TO.P,M1,L/R*%
X79891900Y-63119000D03*
%TO.P,M1,SCK*%
%TO.N,/I2S_A_SCK*%
X79891900Y-68199000D03*
%TO.P,M1,SD*%
%TO.N,/I2S_A_SD*%
X87511900Y-68199000D03*
%TO.P,M1,VDD*%
%TO.N,+3V3*%
X87511900Y-65659000D03*
%TO.P,M1,WS*%
%TO.N,/I2S_A_WS*%
X79891900Y-65659000D03*
%TD*%
D14*
%TO.P,U6,1,Vin*%
%TO.N,+3V3*%
X76200000Y-104386000D03*
%TO.P,U6,2,GND*%
%TO.N,GND*%
X78740000Y-104386000D03*
%TO.P,U6,3,~{SD_MODE}*%
%TO.N,+3V3*%
X81280000Y-104386000D03*
%TO.P,U6,4,GAIN*%
%TO.N,GND*%
X83820000Y-104386000D03*
%TO.P,U6,5,DIN*%
%TO.N,/I2S_B_DIN*%
X86360000Y-104386000D03*
%TO.P,U6,6,BCLK*%
%TO.N,/I2S_B_BCLK*%
X88900000Y-104386000D03*
%TO.P,U6,7,LRC*%
%TO.N,/I2S_B_LRC*%
X91440000Y-104386000D03*
D15*
%TO.P,U6,8,OUTP*%
%TO.N,Net-(SPK1-+)*%
X85620000Y-116840000D03*
%TO.P,U6,9,OUTN*%
%TO.N,Net-(U6-OUTN)*%
X82120000Y-116840000D03*
%TD*%
D10*
%TO.P,H3,1,1*%
%TO.N,unconnected-(H3-Pad1)*%
X62230000Y-43180000D03*
%TD*%
D16*
%TO.P,U3,1,1*%
%TO.N,/ADC_A*%
X62865000Y-71374000D03*
D17*
%TO.P,U3,2,2*%
%TO.N,/IO17*%
X65405000Y-71374000D03*
%TO.P,U3,3,3*%
%TO.N,/ADC_B*%
X62865000Y-73914000D03*
%TO.P,U3,4,4*%
%TO.N,/IO18*%
X65405000Y-73914000D03*
%TO.P,U3,5,5*%
%TO.N,GND*%
X62865000Y-76454000D03*
%TO.P,U3,6,6*%
%TO.N,/IO19*%
X65405000Y-76454000D03*
%TO.P,U3,7,7*%
%TO.N,/I2S_A_WS*%
X62865000Y-78994000D03*
%TO.P,U3,8,8*%
%TO.N,/IO20*%
X65405000Y-78994000D03*
%TO.P,U3,9,9*%
%TO.N,/I2S_A_SCK*%
X62865000Y-81534000D03*
%TO.P,U3,10,10*%
%TO.N,+3V3*%
X65405000Y-81534000D03*
%TO.P,U3,11,11*%
%TO.N,/I2S_A_SD*%
X62865000Y-84074000D03*
%TO.P,U3,12,12*%
%TO.N,/I2C_A_SDA*%
X65405000Y-84074000D03*
%TO.P,U3,13,13*%
%TO.N,+5V*%
X62865000Y-86614000D03*
%TO.P,U3,14,14*%
%TO.N,/I2C_A_SCL*%
X65405000Y-86614000D03*
%TO.P,U3,15,15*%
%TO.N,/I2S_B_DIN*%
X62865000Y-89154000D03*
%TO.P,U3,16,16*%
%TO.N,GND*%
X65405000Y-89154000D03*
%TO.P,U3,17,17*%
%TO.N,/I2S_B_BCLK*%
X62865000Y-91694000D03*
%TO.P,U3,18,18*%
%TO.N,/IO11*%
X65405000Y-91694000D03*
%TO.P,U3,19,19*%
%TO.N,/I2S_B_LRC*%
X62865000Y-94234000D03*
%TO.P,U3,20,20*%
%TO.N,/IO13*%
X65405000Y-94234000D03*
%TO.P,U3,21,21*%
%TO.N,+3V3*%
X62865000Y-96774000D03*
%TO.P,U3,22,22*%
%TO.N,/IO12*%
X65405000Y-96774000D03*
%TO.P,U3,23,23*%
%TO.N,/I2C_B_SDA*%
X62865000Y-99314000D03*
%TO.P,U3,24,24*%
%TO.N,/IO10*%
X65405000Y-99314000D03*
%TO.P,U3,25,25*%
%TO.N,/I2C_B_SCL*%
X62865000Y-101854000D03*
%TO.P,U3,26,26*%
%TO.N,/BTN_A*%
X65405000Y-101854000D03*
%TO.P,U3,27,27*%
%TO.N,/BTN_C*%
X62865000Y-104394000D03*
%TO.P,U3,28,28*%
%TO.N,/BTN_B*%
X65405000Y-104394000D03*
%TO.P,U3,29,29*%
%TO.N,/BTN_D*%
X62865000Y-106934000D03*
%TO.P,U3,30,30*%
%TO.N,GND*%
X65405000Y-106934000D03*
%TD*%
D18*
%TO.P,SW2,1,1*%
%TO.N,unconnected-(SW2-Pad1)*%
X66270000Y-58980000D03*
%TO.P,SW2,2,2*%
%TO.N,/BTN_C*%
X66270000Y-65480000D03*
%TO.P,SW2,3,3*%
%TO.N,GND*%
X63270000Y-58980000D03*
%TO.P,SW2,4,4*%
X63270000Y-65480000D03*
%TD*%
%TO.P,SW1,1,1*%
%TO.N,unconnected-(SW1-Pad1)*%
X104370000Y-58980000D03*
%TO.P,SW1,2,2*%
%TO.N,/BTN_D*%
X104370000Y-65480000D03*
%TO.P,SW1,3,3*%
%TO.N,GND*%
X101370000Y-58980000D03*
%TO.P,SW1,4,4*%
X101370000Y-65480000D03*
%TD*%
D16*
%TO.P,U5,1,1*%
%TO.N,/BTN_D*%
X99060000Y-106934000D03*
D17*
%TO.P,U5,2,2*%
%TO.N,GND*%
X96520000Y-106934000D03*
%TO.P,U5,3,3*%
%TO.N,/BTN_C*%
X99060000Y-104394000D03*
%TO.P,U5,4,4*%
%TO.N,/BTN_B*%
X96520000Y-104394000D03*
%TO.P,U5,5,5*%
%TO.N,/I2C_B_SCL*%
X99060000Y-101854000D03*
%TO.P,U5,6,6*%
%TO.N,/BTN_A*%
X96520000Y-101854000D03*
%TO.P,U5,7,7*%
%TO.N,/I2C_B_SDA*%
X99060000Y-99314000D03*
%TO.P,U5,8,8*%
%TO.N,/IO10*%
X96520000Y-99314000D03*
%TO.P,U5,9,9*%
%TO.N,+3V3*%
X99060000Y-96774000D03*
%TO.P,U5,10,10*%
%TO.N,/IO12*%
X96520000Y-96774000D03*
%TO.P,U5,11,11*%
%TO.N,/I2S_B_LRC*%
X99060000Y-94234000D03*
%TO.P,U5,12,12*%
%TO.N,/IO13*%
X96520000Y-94234000D03*
%TO.P,U5,13,13*%
%TO.N,/I2S_B_BCLK*%
X99060000Y-91694000D03*
%TO.P,U5,14,14*%
%TO.N,/IO11*%
X96520000Y-91694000D03*
%TO.P,U5,15,15*%
%TO.N,/I2S_B_DIN*%
X99060000Y-89154000D03*
%TO.P,U5,16,16*%
%TO.N,GND*%
X96520000Y-89154000D03*
%TO.P,U5,17,17*%
%TO.N,+5V*%
X99060000Y-86614000D03*
%TO.P,U5,18,18*%
%TO.N,/I2C_A_SCL*%
X96520000Y-86614000D03*
%TO.P,U5,19,19*%
%TO.N,/I2S_A_SD*%
X99060000Y-84074000D03*
%TO.P,U5,20,20*%
%TO.N,/I2C_A_SDA*%
X96520000Y-84074000D03*
%TO.P,U5,21,21*%
%TO.N,/I2S_A_SCK*%
X99060000Y-81534000D03*
%TO.P,U5,22,22*%
%TO.N,+3V3*%
X96520000Y-81534000D03*
%TO.P,U5,23,23*%
%TO.N,/I2S_A_WS*%
X99060000Y-78994000D03*
%TO.P,U5,24,24*%
%TO.N,/IO20*%
X96520000Y-78994000D03*
%TO.P,U5,25,25*%
%TO.N,GND*%
X99060000Y-76454000D03*
%TO.P,U5,26,26*%
%TO.N,/IO19*%
X96520000Y-76454000D03*
%TO.P,U5,27,27*%
%TO.N,/ADC_B*%
X99060000Y-73914000D03*
%TO.P,U5,28,28*%
%TO.N,/IO18*%
X96520000Y-73914000D03*
%TO.P,U5,29,29*%
%TO.N,/ADC_A*%
X99060000Y-71374000D03*
%TO.P,U5,30,30*%
%TO.N,/IO17*%
X96520000Y-71374000D03*
%TD*%
D16*
%TO.P,J1,1,Pin_1*%
%TO.N,GND*%
X66205000Y-55511000D03*
D19*
%TO.P,J1,2,Pin_2*%
%TO.N,+3V3*%
X66205000Y-52971000D03*
%TO.P,J1,3,Pin_3*%
%TO.N,/I2C_B_SCL*%
X66205000Y-50431000D03*
%TO.P,J1,4,Pin_4*%
%TO.N,/I2C_B_SDA*%
X66205000Y-47891000D03*
%TD*%
D20*
%TO.N,GND*%
X67818000Y-106934000D03*
X103124000Y-99314000D03*
X72644000Y-89154000D03*
X83820000Y-77724000D03*
X59436000Y-101981000D03*
X81280000Y-109601000D03*
X91059000Y-77724000D03*
X70358000Y-106934000D03*
X100711000Y-103124000D03*
X62230000Y-47879000D03*
X103124000Y-106934000D03*
X74930000Y-89154000D03*
X103124000Y-92964000D03*
X83820000Y-109601000D03*
X97790000Y-69596000D03*
X76200000Y-109601000D03*
X100711000Y-92964000D03*
X72644000Y-103124000D03*
X69850000Y-89154000D03*
X103124000Y-82804000D03*
X88900000Y-109601000D03*
X89535000Y-89154000D03*
X83820000Y-65786000D03*
X94615000Y-77724000D03*
X92456000Y-89154000D03*
X72644000Y-104521000D03*
X100711000Y-106934000D03*
X100711000Y-82804000D03*
X78359000Y-89154000D03*
X64135000Y-69596000D03*
X103124000Y-104394000D03*
X83820000Y-89154000D03*
%TO.N,+3V3*%
X81280000Y-98044000D03*
%TD*%
D21*
%TO.N,+3V3*%
X60706000Y-58470000D02*
X60706000Y-94615000D01*
X60706000Y-94615000D02*
X62865000Y-96774000D01*
X66205000Y-52971000D02*
X60706000Y-58470000D01*
%TO.N,/I2C_B_SDA*%
X59436000Y-95885000D02*
X62865000Y-99314000D01*
X66205000Y-47891000D02*
X59436000Y-54660000D01*
X59436000Y-54660000D02*
X59436000Y-95885000D01*
%TO.N,/BTN_C*%
X66270000Y-65480000D02*
X67818000Y-67028000D01*
X67818000Y-102108000D02*
X66802000Y-103124000D01*
X67818000Y-67028000D02*
X67818000Y-102108000D01*
X64135000Y-103124000D02*
X62865000Y-104394000D01*
X66802000Y-103124000D02*
X64135000Y-103124000D01*
%TO.N,/BTN_D*%
X104370000Y-101624000D02*
X99060000Y-106934000D01*
X104370000Y-65480000D02*
X104370000Y-101624000D01*
%TO.N,Net-(U6-OUTN)*%
X82120000Y-114378000D02*
X73787000Y-106045000D01*
X73787000Y-106045000D02*
X73787000Y-87337001D01*
X82120000Y-116840000D02*
X82120000Y-114378000D01*
X73787000Y-87337001D02*
X76970000Y-84154001D01*
%TO.N,Net-(SPK1-+)*%
X93853000Y-87337001D02*
X90670000Y-84154001D01*
X85620000Y-114278000D02*
X93853000Y-106045000D01*
X85620000Y-116840000D02*
X85620000Y-114278000D01*
X93853000Y-106045000D02*
X93853000Y-87337001D01*
%TD*%
%TA.AperFunction,Conductor*%
%TO.N,GND*%
G36*
X106612627Y-39590185D02*
G01*
X106633269Y-39606819D01*
X108983181Y-41956730D01*
X109016666Y-42018053D01*
X109019500Y-42044411D01*
X109019500Y-117975588D01*
X108999815Y-118042627D01*
X108983181Y-118063269D01*
X106633269Y-120413181D01*
X106571946Y-120446666D01*
X106545588Y-120449500D01*
X61094411Y-120449500D01*
X61027372Y-120429815D01*
X61006730Y-120413181D01*
X58656819Y-118063269D01*
X58623334Y-118001946D01*
X58620500Y-117975588D01*
X58620500Y-116671491D01*
X59229500Y-116671491D01*
X59229500Y-117008508D01*
X59267231Y-117343381D01*
X59267233Y-117343397D01*
X59342223Y-117671953D01*
X59342227Y-117671965D01*
X59453532Y-117990054D01*
X59599752Y-118293683D01*
X59599754Y-118293686D01*
X59779054Y-118579039D01*
X59989175Y-118842523D01*
X60227477Y-119080825D01*
X60490961Y-119290946D01*
X60776314Y-119470246D01*
X61079949Y-119616469D01*
X61318848Y-119700063D01*
X61398034Y-119727772D01*
X61398046Y-119727776D01*
X61726606Y-119802767D01*
X62061492Y-119840499D01*
X62061493Y-119840500D01*
X62061496Y-119840500D01*
X62398507Y-119840500D01*
X62398507Y-119840499D01*
X62733394Y-119802767D01*
X63061954Y-119727776D01*
X63380051Y-119616469D01*
X63683686Y-119470246D01*
X63969039Y-119290946D01*
X64232523Y-119080825D01*
X64470825Y-118842523D01*
X64680946Y-118579039D01*
X64860246Y-118293686D01*
X65006469Y-117990051D01*
X65103841Y-117711778D01*
X75269500Y-117711778D01*
X75269500Y-118000221D01*
X75269501Y-118000238D01*
X75307149Y-118286206D01*
X75307150Y-118286211D01*
X75307151Y-118286217D01*
X75381809Y-118564844D01*
X75381814Y-118564860D01*
X75492191Y-118831336D01*
X75492199Y-118831352D01*
X75636420Y-119081148D01*
X75636431Y-119081164D01*
X75812024Y-119310002D01*
X75812030Y-119310009D01*
X76015990Y-119513969D01*
X76015997Y-119513975D01*
X76149568Y-119616467D01*
X76244844Y-119689575D01*
X76244851Y-119689579D01*
X76494647Y-119833800D01*
X76494663Y-119833808D01*
X76761139Y-119944185D01*
X76761145Y-119944186D01*
X76761155Y-119944191D01*
X77039783Y-120018849D01*
X77325772Y-120056500D01*
X77325779Y-120056500D01*
X77614221Y-120056500D01*
X77614228Y-120056500D01*
X77900217Y-120018849D01*
X78178845Y-119944191D01*
X78178857Y-119944185D01*
X78178860Y-119944185D01*
X78445336Y-119833808D01*
X78445339Y-119833806D01*
X78445345Y-119833804D01*
X78695156Y-119689575D01*
X78924004Y-119513974D01*
X79127974Y-119310004D01*
X79303575Y-119081156D01*
X79447804Y-118831345D01*
X79448122Y-118830579D01*
X79558185Y-118564860D01*
X79558185Y-118564857D01*
X79558191Y-118564845D01*
X79632849Y-118286217D01*
X79670500Y-118000228D01*
X79670500Y-117711772D01*
X79632849Y-117425783D01*
X79558191Y-117147155D01*
X79558186Y-117147145D01*
X79558185Y-117147139D01*
X79447808Y-116880663D01*
X79447800Y-116880647D01*
X79303579Y-116630851D01*
X79303575Y-116630844D01*
X79127974Y-116401996D01*
X79127969Y-116401990D01*
X78924009Y-116198030D01*
X78924002Y-116198024D01*
X78695164Y-116022431D01*
X78695162Y-116022429D01*
X78695156Y-116022425D01*
X78695151Y-116022422D01*
X78695148Y-116022420D01*
X78445352Y-115878199D01*
X78445336Y-115878191D01*
X78178860Y-115767814D01*
X78178848Y-115767810D01*
X78178845Y-115767809D01*
X77900217Y-115693151D01*
X77900211Y-115693150D01*
X77900206Y-115693149D01*
X77614238Y-115655501D01*
X77614233Y-115655500D01*
X77614228Y-115655500D01*
X77325772Y-115655500D01*
X77325766Y-115655500D01*
X77325761Y-115655501D01*
X77039793Y-115693149D01*
X77039786Y-115693150D01*
X77039783Y-115693151D01*
X76826354Y-115750339D01*
X76761155Y-115767809D01*
X76761139Y-115767814D01*
X76494663Y-115878191D01*
X76494647Y-115878199D01*
X76244851Y-116022420D01*
X76244835Y-116022431D01*
X76015997Y-116198024D01*
X76015990Y-116198030D01*
X75812030Y-116401990D01*
X75812024Y-116401997D01*
X75636431Y-116630835D01*
X75636420Y-116630851D01*
X75492199Y-116880647D01*
X75492191Y-116880663D01*
X75381814Y-117147139D01*
X75381809Y-117147155D01*
X75346865Y-117277570D01*
X75307152Y-117425780D01*
X75307149Y-117425793D01*
X75269501Y-117711761D01*
X75269500Y-117711778D01*
X65103841Y-117711778D01*
X65106508Y-117704157D01*
X65117774Y-117671961D01*
X65117775Y-117671957D01*
X65155897Y-117504935D01*
X65192767Y-117343394D01*
X65230500Y-117008504D01*
X65230500Y-116671496D01*
X65192767Y-116336606D01*
X65117776Y-116008046D01*
X65006469Y-115689949D01*
X64860246Y-115386314D01*
X64680946Y-115100961D01*
X64470825Y-114837477D01*
X64232523Y-114599175D01*
X63969039Y-114389054D01*
X63705085Y-114223200D01*
X63683683Y-114209752D01*
X63380054Y-114063532D01*
X63061965Y-113952227D01*
X63061953Y-113952223D01*
X62733397Y-113877233D01*
X62733381Y-113877231D01*
X62398508Y-113839500D01*
X62398504Y-113839500D01*
X62061496Y-113839500D01*
X62061491Y-113839500D01*
X61726618Y-113877231D01*
X61726602Y-113877233D01*
X61398046Y-113952223D01*
X61398034Y-113952227D01*
X61079945Y-114063532D01*
X60776316Y-114209752D01*
X60490962Y-114389053D01*
X60227477Y-114599174D01*
X59989174Y-114837477D01*
X59779053Y-115100962D01*
X59599752Y-115386316D01*
X59453532Y-115689945D01*
X59342227Y-116008034D01*
X59342223Y-116008046D01*
X59267233Y-116336602D01*
X59267231Y-116336618D01*
X59229500Y-116671491D01*
X58620500Y-116671491D01*
X58620500Y-106830530D01*
X61814500Y-106830530D01*
X61814500Y-107037469D01*
X61854868Y-107240412D01*
X61854870Y-107240420D01*
X61934058Y-107431596D01*
X62049024Y-107603657D01*
X62195342Y-107749975D01*
X62195345Y-107749977D01*
X62367402Y-107864941D01*
X62558580Y-107944130D01*
X62703052Y-107972867D01*
X62761530Y-107984499D01*
X62761534Y-107984500D01*
X62761535Y-107984500D01*
X62968466Y-107984500D01*
X62968467Y-107984499D01*
X63171420Y-107944130D01*
X63362598Y-107864941D01*
X63534655Y-107749977D01*
X63680977Y-107603655D01*
X63795941Y-107431598D01*
X63875130Y-107240420D01*
X63915500Y-107037465D01*
X63915500Y-106830535D01*
X63875130Y-106627580D01*
X63795941Y-106436402D01*
X63680977Y-106264345D01*
X63680975Y-106264342D01*
X63534657Y-106118024D01*
X63366655Y-106005770D01*
X63362598Y-106003059D01*
X63276034Y-105967203D01*
X63171420Y-105923870D01*
X63171412Y-105923868D01*
X62968469Y-105883500D01*
X62968465Y-105883500D01*
X62761535Y-105883500D01*
X62761530Y-105883500D01*
X62558587Y-105923868D01*
X62558579Y-105923870D01*
X62367403Y-106003058D01*
X62195342Y-106118024D01*
X62049024Y-106264342D01*
X61934058Y-106436403D01*
X61854870Y-106627579D01*
X61854868Y-106627587D01*
X61814500Y-106830530D01*
X58620500Y-106830530D01*
X58620500Y-104290530D01*
X61814500Y-104290530D01*
X61814500Y-104497469D01*
X61854868Y-104700412D01*
X61854870Y-104700420D01*
X61934058Y-104891596D01*
X62049024Y-105063657D01*
X62195342Y-105209975D01*
X62195345Y-105209977D01*
X62367402Y-105324941D01*
X62558580Y-105404130D01*
X62761530Y-105444499D01*
X62761534Y-105444500D01*
X62761535Y-105444500D01*
X62968466Y-105444500D01*
X62968467Y-105444499D01*
X63171420Y-105404130D01*
X63362598Y-105324941D01*
X63534655Y-105209977D01*
X63680977Y-105063655D01*
X63795941Y-104891598D01*
X63875130Y-104700420D01*
X63894333Y-104603876D01*
X63903809Y-104577115D01*
X63914962Y-104500165D01*
X63915500Y-104497465D01*
X63915500Y-104497449D01*
X63915531Y-104497145D01*
X63916216Y-104491524D01*
X63945349Y-104290534D01*
X63945491Y-104289554D01*
X63946489Y-104281564D01*
X63946585Y-104280651D01*
X63947273Y-104272591D01*
X63960809Y-104065879D01*
X63960885Y-104064795D01*
X63974465Y-103882397D01*
X63976009Y-103870070D01*
X63985993Y-103813521D01*
X63989331Y-103799463D01*
X64004554Y-103748731D01*
X64010410Y-103733117D01*
X64034273Y-103680558D01*
X64041858Y-103666380D01*
X64081462Y-103602677D01*
X64089260Y-103591549D01*
X64152292Y-103511359D01*
X64159141Y-103503370D01*
X64219436Y-103438840D01*
X64279589Y-103403297D01*
X64310039Y-103399500D01*
X64614505Y-103399500D01*
X64681544Y-103419185D01*
X64727299Y-103471989D01*
X64737243Y-103541147D01*
X64708218Y-103604703D01*
X64702186Y-103611181D01*
X64589025Y-103724341D01*
X64589024Y-103724342D01*
X64474058Y-103896403D01*
X64394870Y-104087579D01*
X64394868Y-104087587D01*
X64354500Y-104290530D01*
X64354500Y-104497469D01*
X64394868Y-104700412D01*
X64394870Y-104700420D01*
X64474058Y-104891596D01*
X64589024Y-105063657D01*
X64735342Y-105209975D01*
X64735345Y-105209977D01*
X64907402Y-105324941D01*
X65098580Y-105404130D01*
X65301530Y-105444499D01*
X65301534Y-105444500D01*
X65301535Y-105444500D01*
X65508466Y-105444500D01*
X65508467Y-105444499D01*
X65711420Y-105404130D01*
X65902598Y-105324941D01*
X66074655Y-105209977D01*
X66220977Y-105063655D01*
X66335941Y-104891598D01*
X66415130Y-104700420D01*
X66455500Y-104497465D01*
X66455500Y-104290535D01*
X66415130Y-104087580D01*
X66335941Y-103896402D01*
X66220977Y-103724345D01*
X66220975Y-103724342D01*
X66107814Y-103611181D01*
X66074329Y-103549858D01*
X66079313Y-103480166D01*
X66121185Y-103424233D01*
X66186649Y-103399816D01*
X66195495Y-103399500D01*
X66856799Y-103399500D01*
X66856800Y-103399500D01*
X66958058Y-103357557D01*
X67035557Y-103280058D01*
X68051557Y-102264058D01*
X68093500Y-102162800D01*
X68093500Y-87282200D01*
X73511500Y-87282200D01*
X73511500Y-106099802D01*
X73544102Y-106178509D01*
X73553442Y-106201057D01*
X73553444Y-106201060D01*
X81317909Y-113965525D01*
X81323484Y-113974127D01*
X81328915Y-113978127D01*
X81346070Y-114008972D01*
X81359614Y-114044443D01*
X81366824Y-114063323D01*
X81373528Y-114088624D01*
X81393129Y-114215492D01*
X81394559Y-114236884D01*
X81390979Y-114417400D01*
X81389161Y-114436235D01*
X81350863Y-114655944D01*
X81347801Y-114669178D01*
X81317744Y-114772853D01*
X81314852Y-114781600D01*
X81276619Y-114884264D01*
X81234775Y-114940219D01*
X81233303Y-114941305D01*
X81175066Y-114983618D01*
X81175060Y-114983623D01*
X81013622Y-115145061D01*
X80879421Y-115329771D01*
X80775770Y-115533196D01*
X80705215Y-115750339D01*
X80669500Y-115975837D01*
X80669500Y-117704162D01*
X80705215Y-117929660D01*
X80775770Y-118146803D01*
X80843626Y-118279976D01*
X80879421Y-118350228D01*
X81013621Y-118534937D01*
X81175063Y-118696379D01*
X81359772Y-118830579D01*
X81409171Y-118855749D01*
X81563196Y-118934229D01*
X81563198Y-118934229D01*
X81563201Y-118934231D01*
X81679592Y-118972049D01*
X81780339Y-119004784D01*
X82005838Y-119040500D01*
X82005843Y-119040500D01*
X82234162Y-119040500D01*
X82459660Y-119004784D01*
X82676799Y-118934231D01*
X82880228Y-118830579D01*
X83064937Y-118696379D01*
X83226379Y-118534937D01*
X83360579Y-118350228D01*
X83464231Y-118146799D01*
X83534784Y-117929660D01*
X83570500Y-117704162D01*
X83570500Y-115975837D01*
X84169500Y-115975837D01*
X84169500Y-117704162D01*
X84205215Y-117929660D01*
X84275770Y-118146803D01*
X84343626Y-118279976D01*
X84379421Y-118350228D01*
X84513621Y-118534937D01*
X84675063Y-118696379D01*
X84859772Y-118830579D01*
X84909171Y-118855749D01*
X85063196Y-118934229D01*
X85063198Y-118934229D01*
X85063201Y-118934231D01*
X85179592Y-118972049D01*
X85280339Y-119004784D01*
X85505838Y-119040500D01*
X85505843Y-119040500D01*
X85734162Y-119040500D01*
X85959660Y-119004784D01*
X86176799Y-118934231D01*
X86380228Y-118830579D01*
X86564937Y-118696379D01*
X86726379Y-118534937D01*
X86860579Y-118350228D01*
X86964231Y-118146799D01*
X87034784Y-117929660D01*
X87069294Y-117711778D01*
X87969500Y-117711778D01*
X87969500Y-118000221D01*
X87969501Y-118000238D01*
X88007149Y-118286206D01*
X88007150Y-118286211D01*
X88007151Y-118286217D01*
X88081809Y-118564844D01*
X88081814Y-118564860D01*
X88192191Y-118831336D01*
X88192199Y-118831352D01*
X88336420Y-119081148D01*
X88336431Y-119081164D01*
X88512024Y-119310002D01*
X88512030Y-119310009D01*
X88715990Y-119513969D01*
X88715997Y-119513975D01*
X88849568Y-119616467D01*
X88944844Y-119689575D01*
X88944851Y-119689579D01*
X89194647Y-119833800D01*
X89194663Y-119833808D01*
X89461139Y-119944185D01*
X89461145Y-119944186D01*
X89461155Y-119944191D01*
X89739783Y-120018849D01*
X90025772Y-120056500D01*
X90025779Y-120056500D01*
X90314221Y-120056500D01*
X90314228Y-120056500D01*
X90600217Y-120018849D01*
X90878845Y-119944191D01*
X90878857Y-119944185D01*
X90878860Y-119944185D01*
X91145336Y-119833808D01*
X91145339Y-119833806D01*
X91145345Y-119833804D01*
X91395156Y-119689575D01*
X91624004Y-119513974D01*
X91827974Y-119310004D01*
X92003575Y-119081156D01*
X92147804Y-118831345D01*
X92148122Y-118830579D01*
X92258185Y-118564860D01*
X92258185Y-118564857D01*
X92258191Y-118564845D01*
X92332849Y-118286217D01*
X92370500Y-118000228D01*
X92370500Y-117711772D01*
X92332849Y-117425783D01*
X92258191Y-117147155D01*
X92258186Y-117147145D01*
X92258185Y-117147139D01*
X92147808Y-116880663D01*
X92147800Y-116880647D01*
X92060833Y-116730017D01*
X92027043Y-116671491D01*
X102409500Y-116671491D01*
X102409500Y-117008508D01*
X102447231Y-117343381D01*
X102447233Y-117343397D01*
X102522223Y-117671953D01*
X102522227Y-117671965D01*
X102633532Y-117990054D01*
X102779752Y-118293683D01*
X102779754Y-118293686D01*
X102959054Y-118579039D01*
X103169175Y-118842523D01*
X103407477Y-119080825D01*
X103670961Y-119290946D01*
X103956314Y-119470246D01*
X104259949Y-119616469D01*
X104498848Y-119700063D01*
X104578034Y-119727772D01*
X104578046Y-119727776D01*
X104906606Y-119802767D01*
X105241492Y-119840499D01*
X105241493Y-119840500D01*
X105241496Y-119840500D01*
X105578507Y-119840500D01*
X105578507Y-119840499D01*
X105913394Y-119802767D01*
X106241954Y-119727776D01*
X106560051Y-119616469D01*
X106863686Y-119470246D01*
X107149039Y-119290946D01*
X107412523Y-119080825D01*
X107650825Y-118842523D01*
X107860946Y-118579039D01*
X108040246Y-118293686D01*
X108186469Y-117990051D01*
X108297776Y-117671954D01*
X108372767Y-117343394D01*
X108410500Y-117008504D01*
X108410500Y-116671496D01*
X108372767Y-116336606D01*
X108297776Y-116008046D01*
X108186469Y-115689949D01*
X108040246Y-115386314D01*
X107860946Y-115100961D01*
X107650825Y-114837477D01*
X107412523Y-114599175D01*
X107149039Y-114389054D01*
X106885085Y-114223200D01*
X106863683Y-114209752D01*
X106560054Y-114063532D01*
X106241965Y-113952227D01*
X106241953Y-113952223D01*
X105913397Y-113877233D01*
X105913381Y-113877231D01*
X105578508Y-113839500D01*
X105578504Y-113839500D01*
X105241496Y-113839500D01*
X105241491Y-113839500D01*
X104906618Y-113877231D01*
X104906602Y-113877233D01*
X104578046Y-113952223D01*
X104578034Y-113952227D01*
X104259945Y-114063532D01*
X103956316Y-114209752D01*
X103670962Y-114389053D01*
X103407477Y-114599174D01*
X103169174Y-114837477D01*
X102959053Y-115100962D01*
X102779752Y-115386316D01*
X102633532Y-115689945D01*
X102522227Y-116008034D01*
X102522223Y-116008046D01*
X102447233Y-116336602D01*
X102447231Y-116336618D01*
X102409500Y-116671491D01*
X92027043Y-116671491D01*
X92003579Y-116630851D01*
X92003575Y-116630844D01*
X91827974Y-116401996D01*
X91827969Y-116401990D01*
X91624009Y-116198030D01*
X91624002Y-116198024D01*
X91395164Y-116022431D01*
X91395162Y-116022429D01*
X91395156Y-116022425D01*
X91395151Y-116022422D01*
X91395148Y-116022420D01*
X91145352Y-115878199D01*
X91145336Y-115878191D01*
X90878860Y-115767814D01*
X90878848Y-115767810D01*
X90878845Y-115767809D01*
X90600217Y-115693151D01*
X90600211Y-115693150D01*
X90600206Y-115693149D01*
X90314238Y-115655501D01*
X90314233Y-115655500D01*
X90314228Y-115655500D01*
X90025772Y-115655500D01*
X90025766Y-115655500D01*
X90025761Y-115655501D01*
X89739793Y-115693149D01*
X89739786Y-115693150D01*
X89739783Y-115693151D01*
X89526354Y-115750339D01*
X89461155Y-115767809D01*
X89461139Y-115767814D01*
X89194663Y-115878191D01*
X89194647Y-115878199D01*
X88944851Y-116022420D01*
X88944835Y-116022431D01*
X88715997Y-116198024D01*
X88715990Y-116198030D01*
X88512030Y-116401990D01*
X88512024Y-116401997D01*
X88336431Y-116630835D01*
X88336420Y-116630851D01*
X88192199Y-116880647D01*
X88192191Y-116880663D01*
X88081814Y-117147139D01*
X88081809Y-117147155D01*
X88046865Y-117277570D01*
X88007152Y-117425780D01*
X88007149Y-117425793D01*
X87969501Y-117711761D01*
X87969500Y-117711778D01*
X87069294Y-117711778D01*
X87070500Y-117704162D01*
X87070500Y-115975837D01*
X87034784Y-115750339D01*
X86964229Y-115533196D01*
X86909550Y-115425884D01*
X86860579Y-115329772D01*
X86726379Y-115145063D01*
X86564937Y-114983621D01*
X86557594Y-114978286D01*
X86488956Y-114928416D01*
X86479120Y-114916407D01*
X86468262Y-114909454D01*
X86449132Y-114879794D01*
X86406697Y-114787274D01*
X86400673Y-114771332D01*
X86331624Y-114542020D01*
X86328508Y-114529254D01*
X86308603Y-114423721D01*
X86307219Y-114414488D01*
X86295464Y-114309029D01*
X86294757Y-114299010D01*
X86293622Y-114261153D01*
X86291947Y-114205284D01*
X86292116Y-114194131D01*
X86297134Y-114111074D01*
X86298523Y-114098610D01*
X86308691Y-114036280D01*
X86311840Y-114022198D01*
X86321585Y-113988092D01*
X86353129Y-113934484D01*
X94086557Y-106201059D01*
X94098841Y-106171400D01*
X94128500Y-106099800D01*
X94128500Y-106064247D01*
X98009500Y-106064247D01*
X98009500Y-107803752D01*
X98021131Y-107862229D01*
X98021132Y-107862230D01*
X98065447Y-107928552D01*
X98131769Y-107972867D01*
X98131770Y-107972868D01*
X98190247Y-107984499D01*
X98190250Y-107984500D01*
X98190252Y-107984500D01*
X99929750Y-107984500D01*
X99929751Y-107984499D01*
X99944568Y-107981552D01*
X99988229Y-107972868D01*
X99988229Y-107972867D01*
X99988231Y-107972867D01*
X100054552Y-107928552D01*
X100098867Y-107862231D01*
X100098867Y-107862229D01*
X100098868Y-107862229D01*
X100110499Y-107803752D01*
X100110500Y-107803750D01*
X100110500Y-107321612D01*
X100114888Y-107288916D01*
X100116132Y-107284366D01*
X100132647Y-107050365D01*
X100134603Y-107035508D01*
X100174322Y-106830530D01*
X100188972Y-106754926D01*
X100192191Y-106742052D01*
X100289608Y-106425664D01*
X100292820Y-106416524D01*
X100353163Y-106264225D01*
X100355827Y-106258008D01*
X100423492Y-106111336D01*
X100426723Y-106104841D01*
X100496164Y-105975015D01*
X100500256Y-105967942D01*
X100571064Y-105854421D01*
X100576352Y-105846625D01*
X100638112Y-105762632D01*
X100645205Y-105753855D01*
X100710349Y-105680377D01*
X100713445Y-105675258D01*
X100731868Y-105651745D01*
X104603557Y-101780058D01*
X104615786Y-101750535D01*
X104645500Y-101678800D01*
X104645500Y-66784762D01*
X104647318Y-66763608D01*
X104648641Y-66755963D01*
X104649311Y-66754198D01*
X104660281Y-66688731D01*
X104660340Y-66688394D01*
X104660548Y-66687969D01*
X104668814Y-66660087D01*
X104708977Y-66567754D01*
X104718844Y-66549443D01*
X104741842Y-66514205D01*
X104751026Y-66501880D01*
X104781940Y-66465354D01*
X104793689Y-66453248D01*
X104816043Y-66433152D01*
X104831102Y-66421572D01*
X104850088Y-66409164D01*
X104868630Y-66399182D01*
X104873183Y-66397210D01*
X104894582Y-66390172D01*
X104904289Y-66387932D01*
X104906505Y-66387523D01*
X104906501Y-66387501D01*
X104911081Y-66386502D01*
X104911084Y-66386502D01*
X104930606Y-66382244D01*
X104933784Y-66381743D01*
X104933774Y-66381689D01*
X104998229Y-66368868D01*
X104998229Y-66368867D01*
X104998231Y-66368867D01*
X105064552Y-66324552D01*
X105108867Y-66258231D01*
X105108867Y-66258229D01*
X105108868Y-66258229D01*
X105120499Y-66199752D01*
X105120500Y-66199750D01*
X105120500Y-64760249D01*
X105120499Y-64760247D01*
X105108868Y-64701770D01*
X105108867Y-64701769D01*
X105064552Y-64635447D01*
X104998230Y-64591132D01*
X104998229Y-64591131D01*
X104939752Y-64579500D01*
X104939748Y-64579500D01*
X103800252Y-64579500D01*
X103800247Y-64579500D01*
X103741770Y-64591131D01*
X103741769Y-64591132D01*
X103675447Y-64635447D01*
X103631132Y-64701769D01*
X103631131Y-64701770D01*
X103619500Y-64760247D01*
X103619500Y-66199752D01*
X103631131Y-66258229D01*
X103631132Y-66258230D01*
X103675447Y-66324552D01*
X103702012Y-66342301D01*
X103741769Y-66368867D01*
X103768997Y-66374282D01*
X103774877Y-66375602D01*
X103782367Y-66377475D01*
X103803848Y-66385795D01*
X103843054Y-66392652D01*
X103847386Y-66393736D01*
X103852265Y-66396599D01*
X103876113Y-66404865D01*
X103895230Y-66415164D01*
X103922040Y-66434637D01*
X103965341Y-66475973D01*
X103983211Y-66497364D01*
X103992842Y-66511957D01*
X104038439Y-66581050D01*
X104048053Y-66598533D01*
X104064492Y-66635124D01*
X104069725Y-66648911D01*
X104079017Y-66678608D01*
X104083587Y-66699251D01*
X104089302Y-66742136D01*
X104089950Y-66746997D01*
X104091023Y-66751930D01*
X104090284Y-66752090D01*
X104094500Y-66780395D01*
X104094500Y-101458522D01*
X104074815Y-101525561D01*
X104058181Y-101546203D01*
X100346869Y-105257514D01*
X100337386Y-105266067D01*
X100328481Y-105273302D01*
X100318317Y-105278828D01*
X100181355Y-105392855D01*
X100180739Y-105393356D01*
X100180341Y-105393522D01*
X100167468Y-105402765D01*
X99963895Y-105527878D01*
X99951183Y-105534705D01*
X99668119Y-105666120D01*
X99658994Y-105669922D01*
X99503970Y-105727373D01*
X99497675Y-105729516D01*
X99334614Y-105780184D01*
X99328028Y-105782033D01*
X99169088Y-105821957D01*
X99161929Y-105823531D01*
X99039783Y-105846614D01*
X99006275Y-105852946D01*
X98998390Y-105854174D01*
X98862905Y-105870841D01*
X98854025Y-105871611D01*
X98759543Y-105876386D01*
X98725603Y-105878102D01*
X98725584Y-105878103D01*
X98714384Y-105878670D01*
X98685629Y-105882599D01*
X98683876Y-105882788D01*
X98683107Y-105882649D01*
X98670604Y-105883500D01*
X98190247Y-105883500D01*
X98131770Y-105895131D01*
X98131769Y-105895132D01*
X98065447Y-105939447D01*
X98021132Y-106005769D01*
X98021131Y-106005770D01*
X98009500Y-106064247D01*
X94128500Y-106064247D01*
X94128500Y-104290530D01*
X95469500Y-104290530D01*
X95469500Y-104497469D01*
X95509868Y-104700412D01*
X95509870Y-104700420D01*
X95589058Y-104891596D01*
X95704024Y-105063657D01*
X95850342Y-105209975D01*
X95850345Y-105209977D01*
X96022402Y-105324941D01*
X96213580Y-105404130D01*
X96416530Y-105444499D01*
X96416534Y-105444500D01*
X96416535Y-105444500D01*
X96623466Y-105444500D01*
X96623467Y-105444499D01*
X96826420Y-105404130D01*
X97017598Y-105324941D01*
X97189655Y-105209977D01*
X97335977Y-105063655D01*
X97450941Y-104891598D01*
X97530130Y-104700420D01*
X97570500Y-104497465D01*
X97570500Y-104290535D01*
X97570499Y-104290530D01*
X98009500Y-104290530D01*
X98009500Y-104497469D01*
X98049868Y-104700412D01*
X98049870Y-104700420D01*
X98129058Y-104891596D01*
X98244024Y-105063657D01*
X98390342Y-105209975D01*
X98390345Y-105209977D01*
X98562402Y-105324941D01*
X98753580Y-105404130D01*
X98956530Y-105444499D01*
X98956534Y-105444500D01*
X98956535Y-105444500D01*
X99163466Y-105444500D01*
X99163467Y-105444499D01*
X99366420Y-105404130D01*
X99557598Y-105324941D01*
X99729655Y-105209977D01*
X99875977Y-105063655D01*
X99990941Y-104891598D01*
X100070130Y-104700420D01*
X100110500Y-104497465D01*
X100110500Y-104290535D01*
X100070130Y-104087580D01*
X99990941Y-103896402D01*
X99875977Y-103724345D01*
X99875975Y-103724342D01*
X99729657Y-103578024D01*
X99643626Y-103520541D01*
X99557598Y-103463059D01*
X99463864Y-103424233D01*
X99366420Y-103383870D01*
X99366412Y-103383868D01*
X99163469Y-103343500D01*
X99163465Y-103343500D01*
X98956535Y-103343500D01*
X98956530Y-103343500D01*
X98753587Y-103383868D01*
X98753579Y-103383870D01*
X98562403Y-103463058D01*
X98390342Y-103578024D01*
X98244024Y-103724342D01*
X98129058Y-103896403D01*
X98049870Y-104087579D01*
X98049868Y-104087587D01*
X98009500Y-104290530D01*
X97570499Y-104290530D01*
X97530130Y-104087580D01*
X97450941Y-103896402D01*
X97335977Y-103724345D01*
X97335975Y-103724342D01*
X97189657Y-103578024D01*
X97103626Y-103520541D01*
X97017598Y-103463059D01*
X96923864Y-103424233D01*
X96826420Y-103383870D01*
X96826412Y-103383868D01*
X96623469Y-103343500D01*
X96623465Y-103343500D01*
X96416535Y-103343500D01*
X96416530Y-103343500D01*
X96213587Y-103383868D01*
X96213579Y-103383870D01*
X96022403Y-103463058D01*
X95850342Y-103578024D01*
X95704024Y-103724342D01*
X95589058Y-103896403D01*
X95509870Y-104087579D01*
X95509868Y-104087587D01*
X95469500Y-104290530D01*
X94128500Y-104290530D01*
X94128500Y-101750530D01*
X95469500Y-101750530D01*
X95469500Y-101957469D01*
X95509868Y-102160412D01*
X95509870Y-102160420D01*
X95589058Y-102351596D01*
X95704024Y-102523657D01*
X95850342Y-102669975D01*
X95850345Y-102669977D01*
X96022402Y-102784941D01*
X96213580Y-102864130D01*
X96416530Y-102904499D01*
X96416534Y-102904500D01*
X96416535Y-102904500D01*
X96623466Y-102904500D01*
X96623467Y-102904499D01*
X96826420Y-102864130D01*
X97017598Y-102784941D01*
X97189655Y-102669977D01*
X97335977Y-102523655D01*
X97450941Y-102351598D01*
X97530130Y-102160420D01*
X97570500Y-101957465D01*
X97570500Y-101750535D01*
X97570499Y-101750530D01*
X98009500Y-101750530D01*
X98009500Y-101957469D01*
X98049868Y-102160412D01*
X98049870Y-102160420D01*
X98129058Y-102351596D01*
X98244024Y-102523657D01*
X98390342Y-102669975D01*
X98390345Y-102669977D01*
X98562402Y-102784941D01*
X98753580Y-102864130D01*
X98956530Y-102904499D01*
X98956534Y-102904500D01*
X98956535Y-102904500D01*
X99163466Y-102904500D01*
X99163467Y-102904499D01*
X99366420Y-102864130D01*
X99557598Y-102784941D01*
X99729655Y-102669977D01*
X99875977Y-102523655D01*
X99990941Y-102351598D01*
X100070130Y-102160420D01*
X100110500Y-101957465D01*
X100110500Y-101750535D01*
X100070130Y-101547580D01*
X99990941Y-101356402D01*
X99875977Y-101184345D01*
X99875975Y-101184342D01*
X99729657Y-101038024D01*
X99643626Y-100980541D01*
X99557598Y-100923059D01*
X99366420Y-100843870D01*
X99366412Y-100843868D01*
X99163469Y-100803500D01*
X99163465Y-100803500D01*
X98956535Y-100803500D01*
X98956530Y-100803500D01*
X98753587Y-100843868D01*
X98753579Y-100843870D01*
X98562403Y-100923058D01*
X98390342Y-101038024D01*
X98244024Y-101184342D01*
X98129058Y-101356403D01*
X98049870Y-101547579D01*
X98049868Y-101547587D01*
X98009500Y-101750530D01*
X97570499Y-101750530D01*
X97530130Y-101547580D01*
X97450941Y-101356402D01*
X97335977Y-101184345D01*
X97335975Y-101184342D01*
X97189657Y-101038024D01*
X97103626Y-100980541D01*
X97017598Y-100923059D01*
X96826420Y-100843870D01*
X96826412Y-100843868D01*
X96623469Y-100803500D01*
X96623465Y-100803500D01*
X96416535Y-100803500D01*
X96416530Y-100803500D01*
X96213587Y-100843868D01*
X96213579Y-100843870D01*
X96022403Y-100923058D01*
X95850342Y-101038024D01*
X95704024Y-101184342D01*
X95589058Y-101356403D01*
X95509870Y-101547579D01*
X95509868Y-101547587D01*
X95469500Y-101750530D01*
X94128500Y-101750530D01*
X94128500Y-99210530D01*
X95469500Y-99210530D01*
X95469500Y-99417469D01*
X95509868Y-99620412D01*
X95509870Y-99620420D01*
X95589058Y-99811596D01*
X95704024Y-99983657D01*
X95850342Y-100129975D01*
X95850345Y-100129977D01*
X96022402Y-100244941D01*
X96213580Y-100324130D01*
X96416530Y-100364499D01*
X96416534Y-100364500D01*
X96416535Y-100364500D01*
X96623466Y-100364500D01*
X96623467Y-100364499D01*
X96826420Y-100324130D01*
X97017598Y-100244941D01*
X97189655Y-100129977D01*
X97335977Y-99983655D01*
X97450941Y-99811598D01*
X97530130Y-99620420D01*
X97570500Y-99417465D01*
X97570500Y-99210535D01*
X97570499Y-99210530D01*
X98009500Y-99210530D01*
X98009500Y-99417469D01*
X98049868Y-99620412D01*
X98049870Y-99620420D01*
X98129058Y-99811596D01*
X98244024Y-99983657D01*
X98390342Y-100129975D01*
X98390345Y-100129977D01*
X98562402Y-100244941D01*
X98753580Y-100324130D01*
X98956530Y-100364499D01*
X98956534Y-100364500D01*
X98956535Y-100364500D01*
X99163466Y-100364500D01*
X99163467Y-100364499D01*
X99366420Y-100324130D01*
X99557598Y-100244941D01*
X99729655Y-100129977D01*
X99875977Y-99983655D01*
X99990941Y-99811598D01*
X100070130Y-99620420D01*
X100110500Y-99417465D01*
X100110500Y-99210535D01*
X100070130Y-99007580D01*
X99990941Y-98816402D01*
X99875977Y-98644345D01*
X99875975Y-98644342D01*
X99729657Y-98498024D01*
X99614960Y-98421387D01*
X99557598Y-98383059D01*
X99366420Y-98303870D01*
X99366412Y-98303868D01*
X99163469Y-98263500D01*
X99163465Y-98263500D01*
X98956535Y-98263500D01*
X98956530Y-98263500D01*
X98753587Y-98303868D01*
X98753579Y-98303870D01*
X98562403Y-98383058D01*
X98390342Y-98498024D01*
X98244024Y-98644342D01*
X98129058Y-98816403D01*
X98049870Y-99007579D01*
X98049868Y-99007587D01*
X98009500Y-99210530D01*
X97570499Y-99210530D01*
X97530130Y-99007580D01*
X97450941Y-98816402D01*
X97335977Y-98644345D01*
X97335975Y-98644342D01*
X97189657Y-98498024D01*
X97074960Y-98421387D01*
X97017598Y-98383059D01*
X96826420Y-98303870D01*
X96826412Y-98303868D01*
X96623469Y-98263500D01*
X96623465Y-98263500D01*
X96416535Y-98263500D01*
X96416530Y-98263500D01*
X96213587Y-98303868D01*
X96213579Y-98303870D01*
X96022403Y-98383058D01*
X95850342Y-98498024D01*
X95704024Y-98644342D01*
X95589058Y-98816403D01*
X95509870Y-99007579D01*
X95509868Y-99007587D01*
X95469500Y-99210530D01*
X94128500Y-99210530D01*
X94128500Y-96670530D01*
X95469500Y-96670530D01*
X95469500Y-96877469D01*
X95509868Y-97080412D01*
X95509870Y-97080420D01*
X95589058Y-97271596D01*
X95704024Y-97443657D01*
X95850342Y-97589975D01*
X95850345Y-97589977D01*
X96022402Y-97704941D01*
X96213580Y-97784130D01*
X96354744Y-97812209D01*
X96416530Y-97824499D01*
X96416534Y-97824500D01*
X96416535Y-97824500D01*
X96623466Y-97824500D01*
X96623467Y-97824499D01*
X96826420Y-97784130D01*
X97017598Y-97704941D01*
X97189655Y-97589977D01*
X97335977Y-97443655D01*
X97450941Y-97271598D01*
X97530130Y-97080420D01*
X97570500Y-96877465D01*
X97570500Y-96670535D01*
X97570499Y-96670530D01*
X98009500Y-96670530D01*
X98009500Y-96877469D01*
X98049868Y-97080412D01*
X98049870Y-97080420D01*
X98129058Y-97271596D01*
X98244024Y-97443657D01*
X98390342Y-97589975D01*
X98390345Y-97589977D01*
X98562402Y-97704941D01*
X98753580Y-97784130D01*
X98894744Y-97812209D01*
X98956530Y-97824499D01*
X98956534Y-97824500D01*
X98956535Y-97824500D01*
X99163466Y-97824500D01*
X99163467Y-97824499D01*
X99366420Y-97784130D01*
X99557598Y-97704941D01*
X99729655Y-97589977D01*
X99875977Y-97443655D01*
X99990941Y-97271598D01*
X100070130Y-97080420D01*
X100110500Y-96877465D01*
X100110500Y-96670535D01*
X100070130Y-96467580D01*
X99990941Y-96276402D01*
X99875977Y-96104345D01*
X99875975Y-96104342D01*
X99729657Y-95958024D01*
X99614960Y-95881387D01*
X99557598Y-95843059D01*
X99471034Y-95807203D01*
X99366420Y-95763870D01*
X99366412Y-95763868D01*
X99163469Y-95723500D01*
X99163465Y-95723500D01*
X98956535Y-95723500D01*
X98956530Y-95723500D01*
X98753587Y-95763868D01*
X98753579Y-95763870D01*
X98562403Y-95843058D01*
X98390342Y-95958024D01*
X98244024Y-96104342D01*
X98129058Y-96276403D01*
X98049870Y-96467579D01*
X98049868Y-96467587D01*
X98009500Y-96670530D01*
X97570499Y-96670530D01*
X97530130Y-96467580D01*
X97450941Y-96276402D01*
X97335977Y-96104345D01*
X97335975Y-96104342D01*
X97189657Y-95958024D01*
X97074960Y-95881387D01*
X97017598Y-95843059D01*
X96931034Y-95807203D01*
X96826420Y-95763870D01*
X96826412Y-95763868D01*
X96623469Y-95723500D01*
X96623465Y-95723500D01*
X96416535Y-95723500D01*
X96416530Y-95723500D01*
X96213587Y-95763868D01*
X96213579Y-95763870D01*
X96022403Y-95843058D01*
X95850342Y-95958024D01*
X95704024Y-96104342D01*
X95589058Y-96276403D01*
X95509870Y-96467579D01*
X95509868Y-96467587D01*
X95469500Y-96670530D01*
X94128500Y-96670530D01*
X94128500Y-94130530D01*
X95469500Y-94130530D01*
X95469500Y-94337469D01*
X95509868Y-94540412D01*
X95509870Y-94540420D01*
X95589058Y-94731596D01*
X95704024Y-94903657D01*
X95850342Y-95049975D01*
X95850345Y-95049977D01*
X96022402Y-95164941D01*
X96213580Y-95244130D01*
X96416530Y-95284499D01*
X96416534Y-95284500D01*
X96416535Y-95284500D01*
X96623466Y-95284500D01*
X96623467Y-95284499D01*
X96826420Y-95244130D01*
X97017598Y-95164941D01*
X97189655Y-95049977D01*
X97335977Y-94903655D01*
X97450941Y-94731598D01*
X97530130Y-94540420D01*
X97570500Y-94337465D01*
X97570500Y-94130535D01*
X97570499Y-94130530D01*
X98009500Y-94130530D01*
X98009500Y-94337469D01*
X98049868Y-94540412D01*
X98049870Y-94540420D01*
X98129058Y-94731596D01*
X98244024Y-94903657D01*
X98390342Y-95049975D01*
X98390345Y-95049977D01*
X98562402Y-95164941D01*
X98753580Y-95244130D01*
X98956530Y-95284499D01*
X98956534Y-95284500D01*
X98956535Y-95284500D01*
X99163466Y-95284500D01*
X99163467Y-95284499D01*
X99366420Y-95244130D01*
X99557598Y-95164941D01*
X99729655Y-95049977D01*
X99875977Y-94903655D01*
X99990941Y-94731598D01*
X100070130Y-94540420D01*
X100110500Y-94337465D01*
X100110500Y-94130535D01*
X100070130Y-93927580D01*
X99990941Y-93736402D01*
X99875977Y-93564345D01*
X99875975Y-93564342D01*
X99729657Y-93418024D01*
X99643626Y-93360541D01*
X99557598Y-93303059D01*
X99366420Y-93223870D01*
X99366412Y-93223868D01*
X99163469Y-93183500D01*
X99163465Y-93183500D01*
X98956535Y-93183500D01*
X98956530Y-93183500D01*
X98753587Y-93223868D01*
X98753579Y-93223870D01*
X98562403Y-93303058D01*
X98390342Y-93418024D01*
X98244024Y-93564342D01*
X98129058Y-93736403D01*
X98049870Y-93927579D01*
X98049868Y-93927587D01*
X98009500Y-94130530D01*
X97570499Y-94130530D01*
X97530130Y-93927580D01*
X97450941Y-93736402D01*
X97335977Y-93564345D01*
X97335975Y-93564342D01*
X97189657Y-93418024D01*
X97103626Y-93360541D01*
X97017598Y-93303059D01*
X96826420Y-93223870D01*
X96826412Y-93223868D01*
X96623469Y-93183500D01*
X96623465Y-93183500D01*
X96416535Y-93183500D01*
X96416530Y-93183500D01*
X96213587Y-93223868D01*
X96213579Y-93223870D01*
X96022403Y-93303058D01*
X95850342Y-93418024D01*
X95704024Y-93564342D01*
X95589058Y-93736403D01*
X95509870Y-93927579D01*
X95509868Y-93927587D01*
X95469500Y-94130530D01*
X94128500Y-94130530D01*
X94128500Y-91590530D01*
X95469500Y-91590530D01*
X95469500Y-91797469D01*
X95509868Y-92000412D01*
X95509870Y-92000420D01*
X95589059Y-92191598D01*
X95604783Y-92215131D01*
X95704024Y-92363657D01*
X95850342Y-92509975D01*
X95850345Y-92509977D01*
X96022402Y-92624941D01*
X96213580Y-92704130D01*
X96416530Y-92744499D01*
X96416534Y-92744500D01*
X96416535Y-92744500D01*
X96623466Y-92744500D01*
X96623467Y-92744499D01*
X96826420Y-92704130D01*
X97017598Y-92624941D01*
X97189655Y-92509977D01*
X97335977Y-92363655D01*
X97450941Y-92191598D01*
X97530130Y-92000420D01*
X97570500Y-91797465D01*
X97570500Y-91590535D01*
X97570499Y-91590530D01*
X98009500Y-91590530D01*
X98009500Y-91797469D01*
X98049868Y-92000412D01*
X98049870Y-92000420D01*
X98129059Y-92191598D01*
X98144783Y-92215131D01*
X98244024Y-92363657D01*
X98390342Y-92509975D01*
X98390345Y-92509977D01*
X98562402Y-92624941D01*
X98753580Y-92704130D01*
X98956530Y-92744499D01*
X98956534Y-92744500D01*
X98956535Y-92744500D01*
X99163466Y-92744500D01*
X99163467Y-92744499D01*
X99366420Y-92704130D01*
X99557598Y-92624941D01*
X99729655Y-92509977D01*
X99875977Y-92363655D01*
X99990941Y-92191598D01*
X100070130Y-92000420D01*
X100110500Y-91797465D01*
X100110500Y-91590535D01*
X100070130Y-91387580D01*
X99990941Y-91196402D01*
X99875977Y-91024345D01*
X99875975Y-91024342D01*
X99729657Y-90878024D01*
X99643626Y-90820541D01*
X99557598Y-90763059D01*
X99366420Y-90683870D01*
X99366412Y-90683868D01*
X99163469Y-90643500D01*
X99163465Y-90643500D01*
X98956535Y-90643500D01*
X98956530Y-90643500D01*
X98753587Y-90683868D01*
X98753579Y-90683870D01*
X98562403Y-90763058D01*
X98390342Y-90878024D01*
X98244024Y-91024342D01*
X98129058Y-91196403D01*
X98049870Y-91387579D01*
X98049868Y-91387587D01*
X98009500Y-91590530D01*
X97570499Y-91590530D01*
X97530130Y-91387580D01*
X97450941Y-91196402D01*
X97335977Y-91024345D01*
X97335975Y-91024342D01*
X97189657Y-90878024D01*
X97103626Y-90820541D01*
X97017598Y-90763059D01*
X96826420Y-90683870D01*
X96826412Y-90683868D01*
X96623469Y-90643500D01*
X96623465Y-90643500D01*
X96416535Y-90643500D01*
X96416530Y-90643500D01*
X96213587Y-90683868D01*
X96213579Y-90683870D01*
X96022403Y-90763058D01*
X95850342Y-90878024D01*
X95704024Y-91024342D01*
X95589058Y-91196403D01*
X95509870Y-91387579D01*
X95509868Y-91387587D01*
X95469500Y-91590530D01*
X94128500Y-91590530D01*
X94128500Y-89050530D01*
X98009500Y-89050530D01*
X98009500Y-89257469D01*
X98049868Y-89460412D01*
X98049870Y-89460420D01*
X98129058Y-89651596D01*
X98244024Y-89823657D01*
X98390342Y-89969975D01*
X98390345Y-89969977D01*
X98562402Y-90084941D01*
X98753580Y-90164130D01*
X98956530Y-90204499D01*
X98956534Y-90204500D01*
X98956535Y-90204500D01*
X99163466Y-90204500D01*
X99163467Y-90204499D01*
X99366420Y-90164130D01*
X99557598Y-90084941D01*
X99729655Y-89969977D01*
X99875977Y-89823655D01*
X99990941Y-89651598D01*
X100070130Y-89460420D01*
X100110500Y-89257465D01*
X100110500Y-89050535D01*
X100070130Y-88847580D01*
X99990941Y-88656402D01*
X99875977Y-88484345D01*
X99875975Y-88484342D01*
X99729657Y-88338024D01*
X99643626Y-88280541D01*
X99557598Y-88223059D01*
X99366420Y-88143870D01*
X99366412Y-88143868D01*
X99163469Y-88103500D01*
X99163465Y-88103500D01*
X98956535Y-88103500D01*
X98956530Y-88103500D01*
X98753587Y-88143868D01*
X98753579Y-88143870D01*
X98562403Y-88223058D01*
X98390342Y-88338024D01*
X98244024Y-88484342D01*
X98129058Y-88656403D01*
X98049870Y-88847579D01*
X98049868Y-88847587D01*
X98009500Y-89050530D01*
X94128500Y-89050530D01*
X94128500Y-87282201D01*
X94093192Y-87196960D01*
X94086558Y-87180943D01*
X94086557Y-87180942D01*
X94086557Y-87180941D01*
X93497739Y-86592124D01*
X93416145Y-86510530D01*
X95469500Y-86510530D01*
X95469500Y-86717469D01*
X95509868Y-86920412D01*
X95509870Y-86920420D01*
X95589058Y-87111596D01*
X95704024Y-87283657D01*
X95850342Y-87429975D01*
X95850345Y-87429977D01*
X96022402Y-87544941D01*
X96213580Y-87624130D01*
X96416530Y-87664499D01*
X96416534Y-87664500D01*
X96416535Y-87664500D01*
X96623466Y-87664500D01*
X96623467Y-87664499D01*
X96826420Y-87624130D01*
X97017598Y-87544941D01*
X97189655Y-87429977D01*
X97335977Y-87283655D01*
X97450941Y-87111598D01*
X97530130Y-86920420D01*
X97570500Y-86717465D01*
X97570500Y-86510535D01*
X97570499Y-86510530D01*
X98009500Y-86510530D01*
X98009500Y-86717469D01*
X98049868Y-86920412D01*
X98049870Y-86920420D01*
X98129058Y-87111596D01*
X98244024Y-87283657D01*
X98390342Y-87429975D01*
X98390345Y-87429977D01*
X98562402Y-87544941D01*
X98753580Y-87624130D01*
X98956530Y-87664499D01*
X98956534Y-87664500D01*
X98956535Y-87664500D01*
X99163466Y-87664500D01*
X99163467Y-87664499D01*
X99366420Y-87624130D01*
X99557598Y-87544941D01*
X99729655Y-87429977D01*
X99875977Y-87283655D01*
X99990941Y-87111598D01*
X100070130Y-86920420D01*
X100110500Y-86717465D01*
X100110500Y-86510535D01*
X100070130Y-86307580D01*
X99990941Y-86116402D01*
X99875977Y-85944345D01*
X99875975Y-85944342D01*
X99729657Y-85798024D01*
X99643626Y-85740541D01*
X99557598Y-85683059D01*
X99366420Y-85603870D01*
X99366412Y-85603868D01*
X99163469Y-85563500D01*
X99163465Y-85563500D01*
X98956535Y-85563500D01*
X98956530Y-85563500D01*
X98753587Y-85603868D01*
X98753579Y-85603870D01*
X98562403Y-85683058D01*
X98390342Y-85798024D01*
X98244024Y-85944342D01*
X98129058Y-86116403D01*
X98049870Y-86307579D01*
X98049868Y-86307587D01*
X98009500Y-86510530D01*
X97570499Y-86510530D01*
X97530130Y-86307580D01*
X97450941Y-86116402D01*
X97335977Y-85944345D01*
X97335975Y-85944342D01*
X97189657Y-85798024D01*
X97103626Y-85740541D01*
X97017598Y-85683059D01*
X96826420Y-85603870D01*
X96826412Y-85603868D01*
X96623469Y-85563500D01*
X96623465Y-85563500D01*
X96416535Y-85563500D01*
X96416530Y-85563500D01*
X96213587Y-85603868D01*
X96213579Y-85603870D01*
X96022403Y-85683058D01*
X95850342Y-85798024D01*
X95704024Y-85944342D01*
X95589058Y-86116403D01*
X95509870Y-86307579D01*
X95509868Y-86307587D01*
X95469500Y-86510530D01*
X93416145Y-86510530D01*
X92431604Y-85525990D01*
X92423194Y-85516683D01*
X92415943Y-85507793D01*
X92410261Y-85497384D01*
X92292908Y-85356945D01*
X92292449Y-85356382D01*
X92292284Y-85355991D01*
X92283157Y-85343357D01*
X92154711Y-85136186D01*
X92147946Y-85123735D01*
X92012245Y-84835833D01*
X92008480Y-84826966D01*
X91947925Y-84667386D01*
X91945811Y-84661345D01*
X91891732Y-84493056D01*
X91889895Y-84486778D01*
X91845829Y-84319897D01*
X91844254Y-84313172D01*
X91810552Y-84148606D01*
X91809279Y-84141264D01*
X91788400Y-83994789D01*
X91787508Y-83986573D01*
X91786308Y-83970530D01*
X95469500Y-83970530D01*
X95469500Y-84177469D01*
X95509868Y-84380412D01*
X95509870Y-84380420D01*
X95589058Y-84571596D01*
X95704024Y-84743657D01*
X95850342Y-84889975D01*
X95850345Y-84889977D01*
X96022402Y-85004941D01*
X96213580Y-85084130D01*
X96412634Y-85123724D01*
X96416530Y-85124499D01*
X96416534Y-85124500D01*
X96416535Y-85124500D01*
X96623466Y-85124500D01*
X96623467Y-85124499D01*
X96826420Y-85084130D01*
X97017598Y-85004941D01*
X97189655Y-84889977D01*
X97335977Y-84743655D01*
X97450941Y-84571598D01*
X97530130Y-84380420D01*
X97570500Y-84177465D01*
X97570500Y-83970535D01*
X97570499Y-83970530D01*
X98009500Y-83970530D01*
X98009500Y-84177469D01*
X98049868Y-84380412D01*
X98049870Y-84380420D01*
X98129058Y-84571596D01*
X98244024Y-84743657D01*
X98390342Y-84889975D01*
X98390345Y-84889977D01*
X98562402Y-85004941D01*
X98753580Y-85084130D01*
X98952634Y-85123724D01*
X98956530Y-85124499D01*
X98956534Y-85124500D01*
X98956535Y-85124500D01*
X99163466Y-85124500D01*
X99163467Y-85124499D01*
X99366420Y-85084130D01*
X99557598Y-85004941D01*
X99729655Y-84889977D01*
X99875977Y-84743655D01*
X99990941Y-84571598D01*
X100070130Y-84380420D01*
X100110500Y-84177465D01*
X100110500Y-83970535D01*
X100070130Y-83767580D01*
X99990941Y-83576402D01*
X99875977Y-83404345D01*
X99875975Y-83404342D01*
X99729657Y-83258024D01*
X99643626Y-83200541D01*
X99557598Y-83143059D01*
X99366420Y-83063870D01*
X99366412Y-83063868D01*
X99163469Y-83023500D01*
X99163465Y-83023500D01*
X98956535Y-83023500D01*
X98956530Y-83023500D01*
X98753587Y-83063868D01*
X98753579Y-83063870D01*
X98562403Y-83143058D01*
X98390342Y-83258024D01*
X98244024Y-83404342D01*
X98129058Y-83576403D01*
X98049870Y-83767579D01*
X98049868Y-83767587D01*
X98009500Y-83970530D01*
X97570499Y-83970530D01*
X97530130Y-83767580D01*
X97450941Y-83576402D01*
X97335977Y-83404345D01*
X97335975Y-83404342D01*
X97189657Y-83258024D01*
X97103626Y-83200541D01*
X97017598Y-83143059D01*
X96826420Y-83063870D01*
X96826412Y-83063868D01*
X96623469Y-83023500D01*
X96623465Y-83023500D01*
X96416535Y-83023500D01*
X96416530Y-83023500D01*
X96213587Y-83063868D01*
X96213579Y-83063870D01*
X96022403Y-83143058D01*
X95850342Y-83258024D01*
X95704024Y-83404342D01*
X95589058Y-83576403D01*
X95509870Y-83767579D01*
X95509868Y-83767587D01*
X95469500Y-83970530D01*
X91786308Y-83970530D01*
X91776925Y-83845044D01*
X91776841Y-83843815D01*
X91776664Y-83841049D01*
X91775786Y-83794471D01*
X91771509Y-83756460D01*
X91771155Y-83754762D01*
X91770752Y-83748440D01*
X91770905Y-83747760D01*
X91770500Y-83740540D01*
X91770500Y-82384250D01*
X91770499Y-82384248D01*
X91758868Y-82325771D01*
X91758867Y-82325770D01*
X91714552Y-82259448D01*
X91648230Y-82215133D01*
X91648229Y-82215132D01*
X91589752Y-82203501D01*
X91589748Y-82203501D01*
X89750252Y-82203501D01*
X89750247Y-82203501D01*
X89691770Y-82215132D01*
X89691769Y-82215133D01*
X89625447Y-82259448D01*
X89581132Y-82325770D01*
X89581131Y-82325771D01*
X89569500Y-82384248D01*
X89569500Y-85923753D01*
X89581131Y-85982230D01*
X89581132Y-85982231D01*
X89625447Y-86048553D01*
X89691769Y-86092868D01*
X89691770Y-86092869D01*
X89750247Y-86104500D01*
X89750250Y-86104501D01*
X89750252Y-86104501D01*
X91589750Y-86104501D01*
X91589751Y-86104500D01*
X91604568Y-86101553D01*
X91648229Y-86092869D01*
X91648229Y-86092868D01*
X91648231Y-86092868D01*
X91714552Y-86048553D01*
X91758867Y-85982232D01*
X91758867Y-85982230D01*
X91758868Y-85982230D01*
X91765824Y-85947260D01*
X91773842Y-85931930D01*
X91777069Y-85914936D01*
X91789698Y-85901617D01*
X91798208Y-85885349D01*
X91813243Y-85876787D01*
X91825145Y-85864236D01*
X91842971Y-85859859D01*
X91858924Y-85850775D01*
X91876455Y-85851637D01*
X91892999Y-85847576D01*
X91927670Y-85854158D01*
X91954715Y-85863435D01*
X91982567Y-85877093D01*
X92032547Y-85909937D01*
X92032946Y-85910199D01*
X92052528Y-85926145D01*
X93541181Y-87414797D01*
X93574666Y-87476120D01*
X93577500Y-87502478D01*
X93577500Y-105879522D01*
X93557815Y-105946561D01*
X93541181Y-105967203D01*
X85463942Y-114044443D01*
X85386444Y-114121940D01*
X85344500Y-114223199D01*
X85344500Y-114377595D01*
X85337194Y-114402475D01*
X85333714Y-114428178D01*
X85326108Y-114440228D01*
X85324815Y-114444634D01*
X85314877Y-114458025D01*
X85242063Y-114543466D01*
X85238363Y-114547615D01*
X85094972Y-114701344D01*
X85090630Y-114705772D01*
X85047524Y-114747584D01*
X85017484Y-114769062D01*
X84859771Y-114849421D01*
X84675061Y-114983622D01*
X84513622Y-115145061D01*
X84379421Y-115329771D01*
X84275770Y-115533196D01*
X84205215Y-115750339D01*
X84169500Y-115975837D01*
X83570500Y-115975837D01*
X83534784Y-115750339D01*
X83464229Y-115533196D01*
X83409550Y-115425884D01*
X83360579Y-115329772D01*
X83226379Y-115145063D01*
X83064937Y-114983621D01*
X82880228Y-114849421D01*
X82747122Y-114781600D01*
X82693720Y-114754390D01*
X82664912Y-114734091D01*
X82582097Y-114655944D01*
X82527531Y-114604453D01*
X82520568Y-114597332D01*
X82427431Y-114494096D01*
X82397140Y-114431134D01*
X82395500Y-114411034D01*
X82395500Y-114323201D01*
X82395499Y-114323197D01*
X82369800Y-114261155D01*
X82369799Y-114261153D01*
X82353558Y-114221942D01*
X81793170Y-113661554D01*
X81792134Y-113660083D01*
X81790471Y-113657988D01*
X81782748Y-113648822D01*
X81774793Y-113643177D01*
X74098819Y-105967203D01*
X74065334Y-105905880D01*
X74062500Y-105879522D01*
X74062500Y-103676350D01*
X75124500Y-103676350D01*
X75124500Y-105095649D01*
X75150981Y-105262847D01*
X75203296Y-105423853D01*
X75280152Y-105574688D01*
X75379648Y-105711634D01*
X75379652Y-105711639D01*
X75499360Y-105831347D01*
X75499365Y-105831351D01*
X75618817Y-105918137D01*
X75636315Y-105930850D01*
X75732425Y-105979820D01*
X75787146Y-106007703D01*
X75787148Y-106007703D01*
X75787151Y-106007705D01*
X75873450Y-106035745D01*
X75948152Y-106060018D01*
X76115351Y-106086500D01*
X76115356Y-106086500D01*
X76284649Y-106086500D01*
X76451847Y-106060018D01*
X76612849Y-106007705D01*
X76763685Y-105930850D01*
X76900641Y-105831346D01*
X77020346Y-105711641D01*
X77119850Y-105574685D01*
X77196705Y-105423849D01*
X77249018Y-105262847D01*
X77257392Y-105209975D01*
X77275500Y-105095649D01*
X77275500Y-103676350D01*
X80204500Y-103676350D01*
X80204500Y-105095649D01*
X80230981Y-105262847D01*
X80283296Y-105423853D01*
X80360152Y-105574688D01*
X80459648Y-105711634D01*
X80459652Y-105711639D01*
X80579360Y-105831347D01*
X80579365Y-105831351D01*
X80698817Y-105918137D01*
X80716315Y-105930850D01*
X80812425Y-105979820D01*
X80867146Y-106007703D01*
X80867148Y-106007703D01*
X80867151Y-106007705D01*
X80953450Y-106035745D01*
X81028152Y-106060018D01*
X81195351Y-106086500D01*
X81195356Y-106086500D01*
X81364649Y-106086500D01*
X81531847Y-106060018D01*
X81692849Y-106007705D01*
X81843685Y-105930850D01*
X81980641Y-105831346D01*
X82100346Y-105711641D01*
X82199850Y-105574685D01*
X82276705Y-105423849D01*
X82329018Y-105262847D01*
X82337392Y-105209975D01*
X82355500Y-105095649D01*
X82355500Y-103676350D01*
X85284500Y-103676350D01*
X85284500Y-105095649D01*
X85310981Y-105262847D01*
X85363296Y-105423853D01*
X85440152Y-105574688D01*
X85539648Y-105711634D01*
X85539652Y-105711639D01*
X85659360Y-105831347D01*
X85659365Y-105831351D01*
X85778817Y-105918137D01*
X85796315Y-105930850D01*
X85892425Y-105979820D01*
X85947146Y-106007703D01*
X85947148Y-106007703D01*
X85947151Y-106007705D01*
X86033450Y-106035745D01*
X86108152Y-106060018D01*
X86275351Y-106086500D01*
X86275356Y-106086500D01*
X86444649Y-106086500D01*
X86611847Y-106060018D01*
X86772849Y-106007705D01*
X86923685Y-105930850D01*
X87060641Y-105831346D01*
X87180346Y-105711641D01*
X87279850Y-105574685D01*
X87356705Y-105423849D01*
X87409018Y-105262847D01*
X87417392Y-105209975D01*
X87435500Y-105095649D01*
X87435500Y-103676350D01*
X87824500Y-103676350D01*
X87824500Y-105095649D01*
X87850981Y-105262847D01*
X87903296Y-105423853D01*
X87980152Y-105574688D01*
X88079648Y-105711634D01*
X88079652Y-105711639D01*
X88199360Y-105831347D01*
X88199365Y-105831351D01*
X88318817Y-105918137D01*
X88336315Y-105930850D01*
X88432425Y-105979820D01*
X88487146Y-106007703D01*
X88487148Y-106007703D01*
X88487151Y-106007705D01*
X88573450Y-106035745D01*
X88648152Y-106060018D01*
X88815351Y-106086500D01*
X88815356Y-106086500D01*
X88984649Y-106086500D01*
X89151847Y-106060018D01*
X89312849Y-106007705D01*
X89463685Y-105930850D01*
X89600641Y-105831346D01*
X89720346Y-105711641D01*
X89819850Y-105574685D01*
X89896705Y-105423849D01*
X89949018Y-105262847D01*
X89957392Y-105209975D01*
X89975500Y-105095649D01*
X89975500Y-103676350D01*
X90364500Y-103676350D01*
X90364500Y-105095649D01*
X90390981Y-105262847D01*
X90443296Y-105423853D01*
X90520152Y-105574688D01*
X90619648Y-105711634D01*
X90619652Y-105711639D01*
X90739360Y-105831347D01*
X90739365Y-105831351D01*
X90858817Y-105918137D01*
X90876315Y-105930850D01*
X90972425Y-105979820D01*
X91027146Y-106007703D01*
X91027148Y-106007703D01*
X91027151Y-106007705D01*
X91113450Y-106035745D01*
X91188152Y-106060018D01*
X91355351Y-106086500D01*
X91355356Y-106086500D01*
X91524649Y-106086500D01*
X91691847Y-106060018D01*
X91852849Y-106007705D01*
X92003685Y-105930850D01*
X92140641Y-105831346D01*
X92260346Y-105711641D01*
X92359850Y-105574685D01*
X92436705Y-105423849D01*
X92489018Y-105262847D01*
X92497392Y-105209975D01*
X92515500Y-105095649D01*
X92515500Y-103676350D01*
X92489018Y-103509152D01*
X92459785Y-103419185D01*
X92436705Y-103348151D01*
X92436703Y-103348148D01*
X92436703Y-103348146D01*
X92398380Y-103272934D01*
X92359850Y-103197315D01*
X92291075Y-103102654D01*
X92260351Y-103060365D01*
X92260347Y-103060360D01*
X92140639Y-102940652D01*
X92140634Y-102940648D01*
X92003688Y-102841152D01*
X92003687Y-102841151D01*
X92003685Y-102841150D01*
X91946830Y-102812181D01*
X91852853Y-102764296D01*
X91691847Y-102711981D01*
X91524649Y-102685500D01*
X91524644Y-102685500D01*
X91355356Y-102685500D01*
X91355351Y-102685500D01*
X91188152Y-102711981D01*
X91027146Y-102764296D01*
X90876311Y-102841152D01*
X90739365Y-102940648D01*
X90739360Y-102940652D01*
X90619652Y-103060360D01*
X90619648Y-103060365D01*
X90520152Y-103197311D01*
X90443296Y-103348146D01*
X90390981Y-103509152D01*
X90364500Y-103676350D01*
X89975500Y-103676350D01*
X89949018Y-103509152D01*
X89919785Y-103419185D01*
X89896705Y-103348151D01*
X89896703Y-103348148D01*
X89896703Y-103348146D01*
X89858380Y-103272934D01*
X89819850Y-103197315D01*
X89751075Y-103102654D01*
X89720351Y-103060365D01*
X89720347Y-103060360D01*
X89600639Y-102940652D01*
X89600634Y-102940648D01*
X89463688Y-102841152D01*
X89463687Y-102841151D01*
X89463685Y-102841150D01*
X89406830Y-102812181D01*
X89312853Y-102764296D01*
X89151847Y-102711981D01*
X88984649Y-102685500D01*
X88984644Y-102685500D01*
X88815356Y-102685500D01*
X88815351Y-102685500D01*
X88648152Y-102711981D01*
X88487146Y-102764296D01*
X88336311Y-102841152D01*
X88199365Y-102940648D01*
X88199360Y-102940652D01*
X88079652Y-103060360D01*
X88079648Y-103060365D01*
X87980152Y-103197311D01*
X87903296Y-103348146D01*
X87850981Y-103509152D01*
X87824500Y-103676350D01*
X87435500Y-103676350D01*
X87409018Y-103509152D01*
X87379785Y-103419185D01*
X87356705Y-103348151D01*
X87356703Y-103348148D01*
X87356703Y-103348146D01*
X87318380Y-103272934D01*
X87279850Y-103197315D01*
X87211075Y-103102654D01*
X87180351Y-103060365D01*
X87180347Y-103060360D01*
X87060639Y-102940652D01*
X87060634Y-102940648D01*
X86923688Y-102841152D01*
X86923687Y-102841151D01*
X86923685Y-102841150D01*
X86866830Y-102812181D01*
X86772853Y-102764296D01*
X86611847Y-102711981D01*
X86444649Y-102685500D01*
X86444644Y-102685500D01*
X86275356Y-102685500D01*
X86275351Y-102685500D01*
X86108152Y-102711981D01*
X85947146Y-102764296D01*
X85796311Y-102841152D01*
X85659365Y-102940648D01*
X85659360Y-102940652D01*
X85539652Y-103060360D01*
X85539648Y-103060365D01*
X85440152Y-103197311D01*
X85363296Y-103348146D01*
X85310981Y-103509152D01*
X85284500Y-103676350D01*
X82355500Y-103676350D01*
X82329018Y-103509152D01*
X82299785Y-103419185D01*
X82276705Y-103348151D01*
X82276703Y-103348148D01*
X82276703Y-103348146D01*
X82238380Y-103272934D01*
X82199850Y-103197315D01*
X82131075Y-103102654D01*
X82100351Y-103060365D01*
X82100347Y-103060360D01*
X81980639Y-102940652D01*
X81980634Y-102940648D01*
X81843688Y-102841152D01*
X81843687Y-102841151D01*
X81843685Y-102841150D01*
X81786830Y-102812181D01*
X81692853Y-102764296D01*
X81531847Y-102711981D01*
X81364649Y-102685500D01*
X81364644Y-102685500D01*
X81195356Y-102685500D01*
X81195351Y-102685500D01*
X81028152Y-102711981D01*
X80867146Y-102764296D01*
X80716311Y-102841152D01*
X80579365Y-102940648D01*
X80579360Y-102940652D01*
X80459652Y-103060360D01*
X80459648Y-103060365D01*
X80360152Y-103197311D01*
X80283296Y-103348146D01*
X80230981Y-103509152D01*
X80204500Y-103676350D01*
X77275500Y-103676350D01*
X77249018Y-103509152D01*
X77219785Y-103419185D01*
X77196705Y-103348151D01*
X77196703Y-103348148D01*
X77196703Y-103348146D01*
X77158380Y-103272934D01*
X77119850Y-103197315D01*
X77051075Y-103102654D01*
X77020351Y-103060365D01*
X77020347Y-103060360D01*
X76900639Y-102940652D01*
X76900634Y-102940648D01*
X76763688Y-102841152D01*
X76763687Y-102841151D01*
X76763685Y-102841150D01*
X76706830Y-102812181D01*
X76612853Y-102764296D01*
X76451847Y-102711981D01*
X76284649Y-102685500D01*
X76284644Y-102685500D01*
X76115356Y-102685500D01*
X76115351Y-102685500D01*
X75948152Y-102711981D01*
X75787146Y-102764296D01*
X75636311Y-102841152D01*
X75499365Y-102940648D01*
X75499360Y-102940652D01*
X75379652Y-103060360D01*
X75379648Y-103060365D01*
X75280152Y-103197311D01*
X75203296Y-103348146D01*
X75150981Y-103509152D01*
X75124500Y-103676350D01*
X74062500Y-103676350D01*
X74062500Y-97964943D01*
X80679500Y-97964943D01*
X80679500Y-98123057D01*
X80720265Y-98275192D01*
X80720423Y-98275783D01*
X80720426Y-98275790D01*
X80799475Y-98412709D01*
X80799479Y-98412714D01*
X80799480Y-98412716D01*
X80911284Y-98524520D01*
X80911286Y-98524521D01*
X80911290Y-98524524D01*
X81011643Y-98582462D01*
X81048216Y-98603577D01*
X81200943Y-98644500D01*
X81200945Y-98644500D01*
X81359055Y-98644500D01*
X81359057Y-98644500D01*
X81511784Y-98603577D01*
X81648716Y-98524520D01*
X81760520Y-98412716D01*
X81839577Y-98275784D01*
X81880500Y-98123057D01*
X81880500Y-97964943D01*
X81839577Y-97812216D01*
X81823361Y-97784129D01*
X81760524Y-97675290D01*
X81760518Y-97675282D01*
X81648717Y-97563481D01*
X81648709Y-97563475D01*
X81511790Y-97484426D01*
X81511786Y-97484424D01*
X81511784Y-97484423D01*
X81359057Y-97443500D01*
X81200943Y-97443500D01*
X81048216Y-97484423D01*
X81048209Y-97484426D01*
X80911290Y-97563475D01*
X80911282Y-97563481D01*
X80799481Y-97675282D01*
X80799475Y-97675290D01*
X80720426Y-97812209D01*
X80720423Y-97812216D01*
X80679500Y-97964943D01*
X74062500Y-97964943D01*
X74062500Y-92384246D01*
X75869500Y-92384246D01*
X75869500Y-95923751D01*
X75881131Y-95982228D01*
X75881132Y-95982229D01*
X75925447Y-96048551D01*
X75991769Y-96092866D01*
X75991770Y-96092867D01*
X76050247Y-96104498D01*
X76050250Y-96104499D01*
X76050252Y-96104499D01*
X77889750Y-96104499D01*
X77889751Y-96104498D01*
X77906218Y-96101223D01*
X77948229Y-96092867D01*
X77948229Y-96092866D01*
X77948231Y-96092866D01*
X78014552Y-96048551D01*
X78058867Y-95982230D01*
X78058867Y-95982228D01*
X78058868Y-95982228D01*
X78070499Y-95923751D01*
X78070500Y-95923749D01*
X78070500Y-92384248D01*
X78070499Y-92384246D01*
X89569500Y-92384246D01*
X89569500Y-95923751D01*
X89581131Y-95982228D01*
X89581132Y-95982229D01*
X89625447Y-96048551D01*
X89691769Y-96092866D01*
X89691770Y-96092867D01*
X89750247Y-96104498D01*
X89750250Y-96104499D01*
X89750252Y-96104499D01*
X91589750Y-96104499D01*
X91589751Y-96104498D01*
X91606218Y-96101223D01*
X91648229Y-96092867D01*
X91648229Y-96092866D01*
X91648231Y-96092866D01*
X91714552Y-96048551D01*
X91758867Y-95982230D01*
X91758867Y-95982228D01*
X91758868Y-95982228D01*
X91770499Y-95923751D01*
X91770500Y-95923749D01*
X91770500Y-92384248D01*
X91770499Y-92384246D01*
X91758868Y-92325769D01*
X91758867Y-92325768D01*
X91714552Y-92259446D01*
X91648230Y-92215131D01*
X91648229Y-92215130D01*
X91589752Y-92203499D01*
X91589748Y-92203499D01*
X89750252Y-92203499D01*
X89750247Y-92203499D01*
X89691770Y-92215130D01*
X89691769Y-92215131D01*
X89625447Y-92259446D01*
X89581132Y-92325768D01*
X89581131Y-92325769D01*
X89569500Y-92384246D01*
X78070499Y-92384246D01*
X78058868Y-92325769D01*
X78058867Y-92325768D01*
X78014552Y-92259446D01*
X77948230Y-92215131D01*
X77948229Y-92215130D01*
X77889752Y-92203499D01*
X77889748Y-92203499D01*
X76050252Y-92203499D01*
X76050247Y-92203499D01*
X75991770Y-92215130D01*
X75991769Y-92215131D01*
X75925447Y-92259446D01*
X75881132Y-92325768D01*
X75881131Y-92325769D01*
X75869500Y-92384246D01*
X74062500Y-92384246D01*
X74062500Y-87502477D01*
X74082185Y-87435438D01*
X74098814Y-87414801D01*
X75587793Y-85925821D01*
X75606112Y-85910718D01*
X75616561Y-85903668D01*
X75658844Y-85875137D01*
X75679788Y-85863768D01*
X75702355Y-85854198D01*
X75717631Y-85848867D01*
X75718763Y-85848554D01*
X75788622Y-85849617D01*
X75846819Y-85888280D01*
X75873499Y-85943857D01*
X75881132Y-85982230D01*
X75881132Y-85982231D01*
X75925447Y-86048553D01*
X75991769Y-86092868D01*
X75991770Y-86092869D01*
X76050247Y-86104500D01*
X76050250Y-86104501D01*
X76050252Y-86104501D01*
X77889750Y-86104501D01*
X77889751Y-86104500D01*
X77904568Y-86101553D01*
X77948229Y-86092869D01*
X77948229Y-86092868D01*
X77948231Y-86092868D01*
X78014552Y-86048553D01*
X78058867Y-85982232D01*
X78058867Y-85982230D01*
X78058868Y-85982230D01*
X78070499Y-85923753D01*
X78070500Y-85923751D01*
X78070500Y-82384250D01*
X78070499Y-82384248D01*
X78058868Y-82325771D01*
X78058867Y-82325770D01*
X78014552Y-82259448D01*
X77948230Y-82215133D01*
X77948229Y-82215132D01*
X77889752Y-82203501D01*
X77889748Y-82203501D01*
X76050252Y-82203501D01*
X76050247Y-82203501D01*
X75991770Y-82215132D01*
X75991769Y-82215133D01*
X75925447Y-82259448D01*
X75881132Y-82325770D01*
X75881131Y-82325771D01*
X75869500Y-82384248D01*
X75869500Y-83746130D01*
X75865181Y-83778572D01*
X75863869Y-83783408D01*
X75863869Y-83783412D01*
X75847206Y-84027098D01*
X75845361Y-84041544D01*
X75790540Y-84333215D01*
X75787491Y-84345786D01*
X75689423Y-84674235D01*
X75686379Y-84683172D01*
X75625243Y-84842536D01*
X75622727Y-84848609D01*
X75553981Y-85002830D01*
X75550957Y-85009131D01*
X75479613Y-85147621D01*
X75475816Y-85154453D01*
X75402367Y-85277335D01*
X75397549Y-85284778D01*
X75331694Y-85378950D01*
X75325333Y-85387274D01*
X75259339Y-85466461D01*
X75253549Y-85472933D01*
X75240241Y-85486799D01*
X75233985Y-85496483D01*
X75217516Y-85516868D01*
X73630942Y-87103444D01*
X73553444Y-87180941D01*
X73553443Y-87180942D01*
X73553443Y-87180943D01*
X73541159Y-87210597D01*
X73511500Y-87282200D01*
X68093500Y-87282200D01*
X68093500Y-81430530D01*
X95469500Y-81430530D01*
X95469500Y-81637469D01*
X95509868Y-81840412D01*
X95509870Y-81840420D01*
X95589058Y-82031596D01*
X95704024Y-82203657D01*
X95850342Y-82349975D01*
X95850345Y-82349977D01*
X96022402Y-82464941D01*
X96213580Y-82544130D01*
X96416530Y-82584499D01*
X96416534Y-82584500D01*
X96416535Y-82584500D01*
X96623466Y-82584500D01*
X96623467Y-82584499D01*
X96826420Y-82544130D01*
X97017598Y-82464941D01*
X97189655Y-82349977D01*
X97335977Y-82203655D01*
X97450941Y-82031598D01*
X97530130Y-81840420D01*
X97570500Y-81637465D01*
X97570500Y-81430535D01*
X97570499Y-81430530D01*
X98009500Y-81430530D01*
X98009500Y-81637469D01*
X98049868Y-81840412D01*
X98049870Y-81840420D01*
X98129058Y-82031596D01*
X98244024Y-82203657D01*
X98390342Y-82349975D01*
X98390345Y-82349977D01*
X98562402Y-82464941D01*
X98753580Y-82544130D01*
X98956530Y-82584499D01*
X98956534Y-82584500D01*
X98956535Y-82584500D01*
X99163466Y-82584500D01*
X99163467Y-82584499D01*
X99366420Y-82544130D01*
X99557598Y-82464941D01*
X99729655Y-82349977D01*
X99875977Y-82203655D01*
X99990941Y-82031598D01*
X100070130Y-81840420D01*
X100110500Y-81637465D01*
X100110500Y-81430535D01*
X100070130Y-81227580D01*
X99990941Y-81036402D01*
X99875977Y-80864345D01*
X99875975Y-80864342D01*
X99729657Y-80718024D01*
X99643626Y-80660541D01*
X99557598Y-80603059D01*
X99366420Y-80523870D01*
X99366412Y-80523868D01*
X99163469Y-80483500D01*
X99163465Y-80483500D01*
X98956535Y-80483500D01*
X98956530Y-80483500D01*
X98753587Y-80523868D01*
X98753579Y-80523870D01*
X98562403Y-80603058D01*
X98390342Y-80718024D01*
X98244024Y-80864342D01*
X98129058Y-81036403D01*
X98049870Y-81227579D01*
X98049868Y-81227587D01*
X98009500Y-81430530D01*
X97570499Y-81430530D01*
X97530130Y-81227580D01*
X97450941Y-81036402D01*
X97335977Y-80864345D01*
X97335975Y-80864342D01*
X97189657Y-80718024D01*
X97103626Y-80660541D01*
X97017598Y-80603059D01*
X96826420Y-80523870D01*
X96826412Y-80523868D01*
X96623469Y-80483500D01*
X96623465Y-80483500D01*
X96416535Y-80483500D01*
X96416530Y-80483500D01*
X96213587Y-80523868D01*
X96213579Y-80523870D01*
X96022403Y-80603058D01*
X95850342Y-80718024D01*
X95704024Y-80864342D01*
X95589058Y-81036403D01*
X95509870Y-81227579D01*
X95509868Y-81227587D01*
X95469500Y-81430530D01*
X68093500Y-81430530D01*
X68093500Y-78890530D01*
X95469500Y-78890530D01*
X95469500Y-79097469D01*
X95509868Y-79300412D01*
X95509870Y-79300420D01*
X95589058Y-79491596D01*
X95704024Y-79663657D01*
X95850342Y-79809975D01*
X95850345Y-79809977D01*
X96022402Y-79924941D01*
X96213580Y-80004130D01*
X96416530Y-80044499D01*
X96416534Y-80044500D01*
X96416535Y-80044500D01*
X96623466Y-80044500D01*
X96623467Y-80044499D01*
X96826420Y-80004130D01*
X97017598Y-79924941D01*
X97189655Y-79809977D01*
X97335977Y-79663655D01*
X97450941Y-79491598D01*
X97530130Y-79300420D01*
X97570500Y-79097465D01*
X97570500Y-78890535D01*
X97570499Y-78890530D01*
X98009500Y-78890530D01*
X98009500Y-79097469D01*
X98049868Y-79300412D01*
X98049870Y-79300420D01*
X98129058Y-79491596D01*
X98244024Y-79663657D01*
X98390342Y-79809975D01*
X98390345Y-79809977D01*
X98562402Y-79924941D01*
X98753580Y-80004130D01*
X98956530Y-80044499D01*
X98956534Y-80044500D01*
X98956535Y-80044500D01*
X99163466Y-80044500D01*
X99163467Y-80044499D01*
X99366420Y-80004130D01*
X99557598Y-79924941D01*
X99729655Y-79809977D01*
X99875977Y-79663655D01*
X99990941Y-79491598D01*
X100070130Y-79300420D01*
X100110500Y-79097465D01*
X100110500Y-78890535D01*
X100070130Y-78687580D01*
X99990941Y-78496402D01*
X99875977Y-78324345D01*
X99875975Y-78324342D01*
X99729657Y-78178024D01*
X99643626Y-78120541D01*
X99557598Y-78063059D01*
X99366420Y-77983870D01*
X99366412Y-77983868D01*
X99163469Y-77943500D01*
X99163465Y-77943500D01*
X98956535Y-77943500D01*
X98956530Y-77943500D01*
X98753587Y-77983868D01*
X98753579Y-77983870D01*
X98562403Y-78063058D01*
X98390342Y-78178024D01*
X98244024Y-78324342D01*
X98129058Y-78496403D01*
X98049870Y-78687579D01*
X98049868Y-78687587D01*
X98009500Y-78890530D01*
X97570499Y-78890530D01*
X97530130Y-78687580D01*
X97450941Y-78496402D01*
X97335977Y-78324345D01*
X97335975Y-78324342D01*
X97189657Y-78178024D01*
X97103626Y-78120541D01*
X97017598Y-78063059D01*
X96826420Y-77983870D01*
X96826412Y-77983868D01*
X96623469Y-77943500D01*
X96623465Y-77943500D01*
X96416535Y-77943500D01*
X96416530Y-77943500D01*
X96213587Y-77983868D01*
X96213579Y-77983870D01*
X96022403Y-78063058D01*
X95850342Y-78178024D01*
X95704024Y-78324342D01*
X95589058Y-78496403D01*
X95509870Y-78687579D01*
X95509868Y-78687587D01*
X95469500Y-78890530D01*
X68093500Y-78890530D01*
X68093500Y-76350530D01*
X95469500Y-76350530D01*
X95469500Y-76557469D01*
X95509868Y-76760412D01*
X95509870Y-76760420D01*
X95589058Y-76951596D01*
X95704024Y-77123657D01*
X95850342Y-77269975D01*
X95850345Y-77269977D01*
X96022402Y-77384941D01*
X96213580Y-77464130D01*
X96416530Y-77504499D01*
X96416534Y-77504500D01*
X96416535Y-77504500D01*
X96623466Y-77504500D01*
X96623467Y-77504499D01*
X96826420Y-77464130D01*
X97017598Y-77384941D01*
X97189655Y-77269977D01*
X97335977Y-77123655D01*
X97450941Y-76951598D01*
X97530130Y-76760420D01*
X97570500Y-76557465D01*
X97570500Y-76350535D01*
X97530130Y-76147580D01*
X97450941Y-75956402D01*
X97335977Y-75784345D01*
X97335975Y-75784342D01*
X97189657Y-75638024D01*
X97103626Y-75580541D01*
X97017598Y-75523059D01*
X96826420Y-75443870D01*
X96826412Y-75443868D01*
X96623469Y-75403500D01*
X96623465Y-75403500D01*
X96416535Y-75403500D01*
X96416530Y-75403500D01*
X96213587Y-75443868D01*
X96213579Y-75443870D01*
X96022403Y-75523058D01*
X95850342Y-75638024D01*
X95704024Y-75784342D01*
X95589058Y-75956403D01*
X95509870Y-76147579D01*
X95509868Y-76147587D01*
X95469500Y-76350530D01*
X68093500Y-76350530D01*
X68093500Y-73810530D01*
X95469500Y-73810530D01*
X95469500Y-74017469D01*
X95509868Y-74220412D01*
X95509870Y-74220420D01*
X95589058Y-74411596D01*
X95704024Y-74583657D01*
X95850342Y-74729975D01*
X95850345Y-74729977D01*
X96022402Y-74844941D01*
X96213580Y-74924130D01*
X96416530Y-74964499D01*
X96416534Y-74964500D01*
X96416535Y-74964500D01*
X96623466Y-74964500D01*
X96623467Y-74964499D01*
X96826420Y-74924130D01*
X97017598Y-74844941D01*
X97189655Y-74729977D01*
X97335977Y-74583655D01*
X97450941Y-74411598D01*
X97530130Y-74220420D01*
X97570500Y-74017465D01*
X97570500Y-73810535D01*
X97570499Y-73810530D01*
X98009500Y-73810530D01*
X98009500Y-74017469D01*
X98049868Y-74220412D01*
X98049870Y-74220420D01*
X98129058Y-74411596D01*
X98244024Y-74583657D01*
X98390342Y-74729975D01*
X98390345Y-74729977D01*
X98562402Y-74844941D01*
X98753580Y-74924130D01*
X98956530Y-74964499D01*
X98956534Y-74964500D01*
X98956535Y-74964500D01*
X99163466Y-74964500D01*
X99163467Y-74964499D01*
X99366420Y-74924130D01*
X99557598Y-74844941D01*
X99729655Y-74729977D01*
X99875977Y-74583655D01*
X99990941Y-74411598D01*
X100070130Y-74220420D01*
X100110500Y-74017465D01*
X100110500Y-73810535D01*
X100070130Y-73607580D01*
X99990941Y-73416402D01*
X99875977Y-73244345D01*
X99875975Y-73244342D01*
X99729657Y-73098024D01*
X99643626Y-73040541D01*
X99557598Y-72983059D01*
X99366420Y-72903870D01*
X99366412Y-72903868D01*
X99163469Y-72863500D01*
X99163465Y-72863500D01*
X98956535Y-72863500D01*
X98956530Y-72863500D01*
X98753587Y-72903868D01*
X98753579Y-72903870D01*
X98562403Y-72983058D01*
X98390342Y-73098024D01*
X98244024Y-73244342D01*
X98129058Y-73416403D01*
X98049870Y-73607579D01*
X98049868Y-73607587D01*
X98009500Y-73810530D01*
X97570499Y-73810530D01*
X97530130Y-73607580D01*
X97450941Y-73416402D01*
X97335977Y-73244345D01*
X97335975Y-73244342D01*
X97189657Y-73098024D01*
X97103626Y-73040541D01*
X97017598Y-72983059D01*
X96826420Y-72903870D01*
X96826412Y-72903868D01*
X96623469Y-72863500D01*
X96623465Y-72863500D01*
X96416535Y-72863500D01*
X96416530Y-72863500D01*
X96213587Y-72903868D01*
X96213579Y-72903870D01*
X96022403Y-72983058D01*
X95850342Y-73098024D01*
X95704024Y-73244342D01*
X95589058Y-73416403D01*
X95509870Y-73607579D01*
X95509868Y-73607587D01*
X95469500Y-73810530D01*
X68093500Y-73810530D01*
X68093500Y-71270530D01*
X95469500Y-71270530D01*
X95469500Y-71477469D01*
X95509868Y-71680412D01*
X95509870Y-71680420D01*
X95589058Y-71871596D01*
X95704024Y-72043657D01*
X95850342Y-72189975D01*
X95850345Y-72189977D01*
X96022402Y-72304941D01*
X96213580Y-72384130D01*
X96358052Y-72412867D01*
X96416530Y-72424499D01*
X96416534Y-72424500D01*
X96416535Y-72424500D01*
X96623466Y-72424500D01*
X96623467Y-72424499D01*
X96826420Y-72384130D01*
X97017598Y-72304941D01*
X97189655Y-72189977D01*
X97335977Y-72043655D01*
X97450941Y-71871598D01*
X97530130Y-71680420D01*
X97570500Y-71477465D01*
X97570500Y-71270535D01*
X97570499Y-71270530D01*
X98009500Y-71270530D01*
X98009500Y-71477469D01*
X98049868Y-71680412D01*
X98049870Y-71680420D01*
X98129058Y-71871596D01*
X98244024Y-72043657D01*
X98390342Y-72189975D01*
X98390345Y-72189977D01*
X98562402Y-72304941D01*
X98753580Y-72384130D01*
X98898052Y-72412867D01*
X98956530Y-72424499D01*
X98956534Y-72424500D01*
X98956535Y-72424500D01*
X99163466Y-72424500D01*
X99163467Y-72424499D01*
X99366420Y-72384130D01*
X99557598Y-72304941D01*
X99729655Y-72189977D01*
X99875977Y-72043655D01*
X99990941Y-71871598D01*
X100070130Y-71680420D01*
X100110500Y-71477465D01*
X100110500Y-71270535D01*
X100070130Y-71067580D01*
X99990941Y-70876402D01*
X99875977Y-70704345D01*
X99875975Y-70704342D01*
X99729657Y-70558024D01*
X99561655Y-70445770D01*
X99557598Y-70443059D01*
X99366420Y-70363870D01*
X99366412Y-70363868D01*
X99163469Y-70323500D01*
X99163465Y-70323500D01*
X98956535Y-70323500D01*
X98956530Y-70323500D01*
X98753587Y-70363868D01*
X98753579Y-70363870D01*
X98562403Y-70443058D01*
X98390342Y-70558024D01*
X98244024Y-70704342D01*
X98129058Y-70876403D01*
X98049870Y-71067579D01*
X98049868Y-71067587D01*
X98009500Y-71270530D01*
X97570499Y-71270530D01*
X97530130Y-71067580D01*
X97450941Y-70876402D01*
X97335977Y-70704345D01*
X97335975Y-70704342D01*
X97189657Y-70558024D01*
X97021655Y-70445770D01*
X97017598Y-70443059D01*
X96826420Y-70363870D01*
X96826412Y-70363868D01*
X96623469Y-70323500D01*
X96623465Y-70323500D01*
X96416535Y-70323500D01*
X96416530Y-70323500D01*
X96213587Y-70363868D01*
X96213579Y-70363870D01*
X96022403Y-70443058D01*
X95850342Y-70558024D01*
X95704024Y-70704342D01*
X95589058Y-70876403D01*
X95509870Y-71067579D01*
X95509868Y-71067587D01*
X95469500Y-71270530D01*
X68093500Y-71270530D01*
X68093500Y-68104197D01*
X78929400Y-68104197D01*
X78929400Y-68293802D01*
X78966386Y-68479743D01*
X78966388Y-68479751D01*
X79038942Y-68654912D01*
X79144277Y-68812558D01*
X79278341Y-68946622D01*
X79383200Y-69016686D01*
X79435985Y-69051956D01*
X79611149Y-69124512D01*
X79797097Y-69161499D01*
X79797101Y-69161500D01*
X79797102Y-69161500D01*
X79986699Y-69161500D01*
X79986700Y-69161499D01*
X80172651Y-69124512D01*
X80347815Y-69051956D01*
X80505458Y-68946622D01*
X80639522Y-68812558D01*
X80744856Y-68654915D01*
X80817412Y-68479751D01*
X80854400Y-68293798D01*
X80854400Y-68104202D01*
X80854399Y-68104197D01*
X86549400Y-68104197D01*
X86549400Y-68293802D01*
X86586386Y-68479743D01*
X86586388Y-68479751D01*
X86658942Y-68654912D01*
X86764277Y-68812558D01*
X86898341Y-68946622D01*
X87003200Y-69016686D01*
X87055985Y-69051956D01*
X87231149Y-69124512D01*
X87417097Y-69161499D01*
X87417101Y-69161500D01*
X87417102Y-69161500D01*
X87606699Y-69161500D01*
X87606700Y-69161499D01*
X87792651Y-69124512D01*
X87967815Y-69051956D01*
X88125458Y-68946622D01*
X88259522Y-68812558D01*
X88364856Y-68654915D01*
X88437412Y-68479751D01*
X88474400Y-68293798D01*
X88474400Y-68104202D01*
X88437412Y-67918249D01*
X88364856Y-67743085D01*
X88329586Y-67690300D01*
X88259522Y-67585441D01*
X88125458Y-67451377D01*
X87967812Y-67346042D01*
X87792651Y-67273488D01*
X87792643Y-67273486D01*
X87606702Y-67236500D01*
X87606698Y-67236500D01*
X87417102Y-67236500D01*
X87417097Y-67236500D01*
X87231156Y-67273486D01*
X87231148Y-67273488D01*
X87055987Y-67346042D01*
X86898341Y-67451377D01*
X86764277Y-67585441D01*
X86658942Y-67743087D01*
X86586388Y-67918248D01*
X86586386Y-67918256D01*
X86549400Y-68104197D01*
X80854399Y-68104197D01*
X80817412Y-67918249D01*
X80744856Y-67743085D01*
X80709586Y-67690300D01*
X80639522Y-67585441D01*
X80505458Y-67451377D01*
X80347812Y-67346042D01*
X80172651Y-67273488D01*
X80172643Y-67273486D01*
X79986702Y-67236500D01*
X79986698Y-67236500D01*
X79797102Y-67236500D01*
X79797097Y-67236500D01*
X79611156Y-67273486D01*
X79611148Y-67273488D01*
X79435987Y-67346042D01*
X79278341Y-67451377D01*
X79144277Y-67585441D01*
X79038942Y-67743087D01*
X78966388Y-67918248D01*
X78966386Y-67918256D01*
X78929400Y-68104197D01*
X68093500Y-68104197D01*
X68093500Y-66973200D01*
X68071404Y-66919856D01*
X68051558Y-66871942D01*
X67436074Y-66256459D01*
X67426511Y-66245717D01*
X67419387Y-66236713D01*
X67414956Y-66228297D01*
X67321254Y-66112679D01*
X67320831Y-66112145D01*
X67320645Y-66111685D01*
X67310622Y-66097091D01*
X67204407Y-65912661D01*
X67198686Y-65901446D01*
X67149866Y-65792400D01*
X67146681Y-65784583D01*
X67135345Y-65753802D01*
X67102605Y-65664900D01*
X67099875Y-65656592D01*
X67073075Y-65564197D01*
X78929400Y-65564197D01*
X78929400Y-65753802D01*
X78966386Y-65939743D01*
X78966388Y-65939751D01*
X79038942Y-66114912D01*
X79144277Y-66272558D01*
X79278341Y-66406622D01*
X79356586Y-66458903D01*
X79435985Y-66511956D01*
X79435986Y-66511956D01*
X79435987Y-66511957D01*
X79475666Y-66528392D01*
X79611149Y-66584512D01*
X79786876Y-66619466D01*
X79797097Y-66621499D01*
X79797101Y-66621500D01*
X79797102Y-66621500D01*
X79986699Y-66621500D01*
X79986700Y-66621499D01*
X80172651Y-66584512D01*
X80347815Y-66511956D01*
X80505458Y-66406622D01*
X80639522Y-66272558D01*
X80744856Y-66114915D01*
X80817412Y-65939751D01*
X80854400Y-65753798D01*
X80854400Y-65564202D01*
X80854399Y-65564197D01*
X86549400Y-65564197D01*
X86549400Y-65753802D01*
X86586386Y-65939743D01*
X86586388Y-65939751D01*
X86658942Y-66114912D01*
X86764277Y-66272558D01*
X86898341Y-66406622D01*
X86976586Y-66458903D01*
X87055985Y-66511956D01*
X87055986Y-66511956D01*
X87055987Y-66511957D01*
X87095666Y-66528392D01*
X87231149Y-66584512D01*
X87406876Y-66619466D01*
X87417097Y-66621499D01*
X87417101Y-66621500D01*
X87417102Y-66621500D01*
X87606699Y-66621500D01*
X87606700Y-66621499D01*
X87792651Y-66584512D01*
X87967815Y-66511956D01*
X88125458Y-66406622D01*
X88259522Y-66272558D01*
X88364856Y-66114915D01*
X88437412Y-65939751D01*
X88474400Y-65753798D01*
X88474400Y-65564202D01*
X88437412Y-65378249D01*
X88364856Y-65203085D01*
X88329586Y-65150300D01*
X88259522Y-65045441D01*
X88125458Y-64911377D01*
X87967812Y-64806042D01*
X87792651Y-64733488D01*
X87792643Y-64733486D01*
X87606702Y-64696500D01*
X87606698Y-64696500D01*
X87417102Y-64696500D01*
X87417097Y-64696500D01*
X87231156Y-64733486D01*
X87231148Y-64733488D01*
X87055987Y-64806042D01*
X86898341Y-64911377D01*
X86764277Y-65045441D01*
X86658942Y-65203087D01*
X86586388Y-65378248D01*
X86586386Y-65378256D01*
X86549400Y-65564197D01*
X80854399Y-65564197D01*
X80817412Y-65378249D01*
X80744856Y-65203085D01*
X80709586Y-65150300D01*
X80639522Y-65045441D01*
X80505458Y-64911377D01*
X80347812Y-64806042D01*
X80172651Y-64733488D01*
X80172643Y-64733486D01*
X79986702Y-64696500D01*
X79986698Y-64696500D01*
X79797102Y-64696500D01*
X79797097Y-64696500D01*
X79611156Y-64733486D01*
X79611148Y-64733488D01*
X79435987Y-64806042D01*
X79278341Y-64911377D01*
X79144277Y-65045441D01*
X79038942Y-65203087D01*
X78966388Y-65378248D01*
X78966386Y-65378256D01*
X78929400Y-65564197D01*
X67073075Y-65564197D01*
X67066501Y-65541532D01*
X67064187Y-65532216D01*
X67042158Y-65426008D01*
X67040036Y-65411518D01*
X67026110Y-65250377D01*
X67022133Y-65226126D01*
X67020500Y-65206064D01*
X67020500Y-64760249D01*
X67020499Y-64760247D01*
X67008868Y-64701770D01*
X67008867Y-64701769D01*
X66964552Y-64635447D01*
X66898230Y-64591132D01*
X66898229Y-64591131D01*
X66839752Y-64579500D01*
X66839748Y-64579500D01*
X65700252Y-64579500D01*
X65700247Y-64579500D01*
X65641770Y-64591131D01*
X65641769Y-64591132D01*
X65575447Y-64635447D01*
X65531132Y-64701769D01*
X65531131Y-64701770D01*
X65519500Y-64760247D01*
X65519500Y-66199752D01*
X65531131Y-66258229D01*
X65531132Y-66258230D01*
X65575447Y-66324552D01*
X65641769Y-66368867D01*
X65641770Y-66368868D01*
X65700247Y-66380499D01*
X65700250Y-66380500D01*
X66204788Y-66380500D01*
X66229493Y-66382612D01*
X66248423Y-66380500D01*
X66454097Y-66380500D01*
X66465685Y-66381043D01*
X66484328Y-66382796D01*
X66504882Y-66386496D01*
X66669980Y-66430849D01*
X66688224Y-66437315D01*
X66862396Y-66514828D01*
X66876694Y-66522343D01*
X66934950Y-66557988D01*
X66946074Y-66565659D01*
X66994816Y-66603358D01*
X67003913Y-66611124D01*
X67006798Y-66613838D01*
X67015653Y-66619466D01*
X67036820Y-66636436D01*
X67272328Y-66871944D01*
X67506181Y-67105796D01*
X67539666Y-67167119D01*
X67542500Y-67193477D01*
X67542500Y-101942523D01*
X67522815Y-102009562D01*
X67506181Y-102030204D01*
X66724204Y-102812181D01*
X66662881Y-102845666D01*
X66636523Y-102848500D01*
X66195495Y-102848500D01*
X66128456Y-102828815D01*
X66082701Y-102776011D01*
X66072757Y-102706853D01*
X66101782Y-102643297D01*
X66107814Y-102636819D01*
X66220974Y-102523658D01*
X66220975Y-102523657D01*
X66220977Y-102523655D01*
X66335941Y-102351598D01*
X66415130Y-102160420D01*
X66455500Y-101957465D01*
X66455500Y-101750535D01*
X66415130Y-101547580D01*
X66335941Y-101356402D01*
X66220977Y-101184345D01*
X66220975Y-101184342D01*
X66074657Y-101038024D01*
X65988626Y-100980541D01*
X65902598Y-100923059D01*
X65711420Y-100843870D01*
X65711412Y-100843868D01*
X65508469Y-100803500D01*
X65508465Y-100803500D01*
X65301535Y-100803500D01*
X65301530Y-100803500D01*
X65098587Y-100843868D01*
X65098579Y-100843870D01*
X64907403Y-100923058D01*
X64735342Y-101038024D01*
X64589024Y-101184342D01*
X64474058Y-101356403D01*
X64394870Y-101547579D01*
X64394868Y-101547587D01*
X64354500Y-101750530D01*
X64354500Y-101957469D01*
X64394868Y-102160412D01*
X64394870Y-102160420D01*
X64474058Y-102351596D01*
X64589024Y-102523657D01*
X64702186Y-102636819D01*
X64735671Y-102698142D01*
X64730687Y-102767834D01*
X64688815Y-102823767D01*
X64623351Y-102848184D01*
X64614505Y-102848500D01*
X64080198Y-102848500D01*
X64008599Y-102878158D01*
X64008598Y-102878157D01*
X63978943Y-102890441D01*
X63978942Y-102890442D01*
X63883444Y-102985938D01*
X63878231Y-102990857D01*
X63870305Y-102997915D01*
X63853683Y-103008264D01*
X63758809Y-103097208D01*
X63757600Y-103098286D01*
X63757307Y-103098424D01*
X63752417Y-103102654D01*
X63674079Y-103165088D01*
X63664300Y-103172133D01*
X63637152Y-103189752D01*
X63637068Y-103189805D01*
X63608219Y-103208527D01*
X63596533Y-103215237D01*
X63557399Y-103234963D01*
X63537778Y-103242835D01*
X63439147Y-103272934D01*
X63416411Y-103277602D01*
X63264145Y-103294225D01*
X63257194Y-103294786D01*
X63197350Y-103297930D01*
X63197341Y-103297930D01*
X63197294Y-103297933D01*
X63195811Y-103298021D01*
X63194115Y-103298123D01*
X62969376Y-103313324D01*
X62969347Y-103313326D01*
X62969340Y-103313327D01*
X62967135Y-103313520D01*
X62961251Y-103314035D01*
X62960488Y-103314117D01*
X62960373Y-103314130D01*
X62958696Y-103314343D01*
X62952251Y-103315165D01*
X62810621Y-103336112D01*
X62681250Y-103355247D01*
X62675875Y-103356115D01*
X62675863Y-103356117D01*
X62675845Y-103356120D01*
X62675320Y-103356212D01*
X62663907Y-103360779D01*
X62642033Y-103367270D01*
X62558587Y-103383868D01*
X62558579Y-103383870D01*
X62367403Y-103463058D01*
X62195342Y-103578024D01*
X62049024Y-103724342D01*
X61934058Y-103896403D01*
X61854870Y-104087579D01*
X61854868Y-104087587D01*
X61814500Y-104290530D01*
X58620500Y-104290530D01*
X58620500Y-101750530D01*
X61814500Y-101750530D01*
X61814500Y-101957469D01*
X61854868Y-102160412D01*
X61854870Y-102160420D01*
X61934058Y-102351596D01*
X62049024Y-102523657D01*
X62195342Y-102669975D01*
X62195345Y-102669977D01*
X62367402Y-102784941D01*
X62558580Y-102864130D01*
X62761530Y-102904499D01*
X62761534Y-102904500D01*
X62761535Y-102904500D01*
X62968466Y-102904500D01*
X62968467Y-102904499D01*
X63171420Y-102864130D01*
X63362598Y-102784941D01*
X63534655Y-102669977D01*
X63680977Y-102523655D01*
X63795941Y-102351598D01*
X63875130Y-102160420D01*
X63915500Y-101957465D01*
X63915500Y-101750535D01*
X63875130Y-101547580D01*
X63795941Y-101356402D01*
X63680977Y-101184345D01*
X63680975Y-101184342D01*
X63534657Y-101038024D01*
X63448626Y-100980541D01*
X63362598Y-100923059D01*
X63171420Y-100843870D01*
X63171412Y-100843868D01*
X62968469Y-100803500D01*
X62968465Y-100803500D01*
X62761535Y-100803500D01*
X62761530Y-100803500D01*
X62558587Y-100843868D01*
X62558579Y-100843870D01*
X62367403Y-100923058D01*
X62195342Y-101038024D01*
X62049024Y-101184342D01*
X61934058Y-101356403D01*
X61854870Y-101547579D01*
X61854868Y-101547587D01*
X61814500Y-101750530D01*
X58620500Y-101750530D01*
X58620500Y-54605199D01*
X59160500Y-54605199D01*
X59160500Y-95939802D01*
X59195164Y-96023487D01*
X59202442Y-96041057D01*
X59202444Y-96041060D01*
X61456934Y-98295550D01*
X61461854Y-98300763D01*
X61468913Y-98308689D01*
X61479266Y-98325318D01*
X61568220Y-98420199D01*
X61569278Y-98421387D01*
X61569416Y-98421679D01*
X61573647Y-98426571D01*
X61630593Y-98498023D01*
X61636088Y-98504917D01*
X61643135Y-98514700D01*
X61679524Y-98570774D01*
X61686236Y-98582462D01*
X61705965Y-98621603D01*
X61713833Y-98641214D01*
X61743048Y-98736946D01*
X61743935Y-98739852D01*
X61748602Y-98762588D01*
X61765225Y-98914853D01*
X61765786Y-98921804D01*
X61768930Y-98981649D01*
X61769123Y-98984884D01*
X61784326Y-99209653D01*
X61785032Y-99217715D01*
X61785127Y-99218596D01*
X61786168Y-99226757D01*
X61826254Y-99497788D01*
X61827056Y-99502776D01*
X61827159Y-99503372D01*
X61831754Y-99514881D01*
X61838209Y-99536663D01*
X61854868Y-99620414D01*
X61854870Y-99620420D01*
X61934058Y-99811596D01*
X62049024Y-99983657D01*
X62195342Y-100129975D01*
X62195345Y-100129977D01*
X62367402Y-100244941D01*
X62558580Y-100324130D01*
X62761530Y-100364499D01*
X62761534Y-100364500D01*
X62761535Y-100364500D01*
X62968466Y-100364500D01*
X62968467Y-100364499D01*
X63171420Y-100324130D01*
X63362598Y-100244941D01*
X63534655Y-100129977D01*
X63680977Y-99983655D01*
X63795941Y-99811598D01*
X63875130Y-99620420D01*
X63915500Y-99417465D01*
X63915500Y-99210535D01*
X63915499Y-99210530D01*
X64354500Y-99210530D01*
X64354500Y-99417469D01*
X64394868Y-99620412D01*
X64394870Y-99620420D01*
X64474058Y-99811596D01*
X64589024Y-99983657D01*
X64735342Y-100129975D01*
X64735345Y-100129977D01*
X64907402Y-100244941D01*
X65098580Y-100324130D01*
X65301530Y-100364499D01*
X65301534Y-100364500D01*
X65301535Y-100364500D01*
X65508466Y-100364500D01*
X65508467Y-100364499D01*
X65711420Y-100324130D01*
X65902598Y-100244941D01*
X66074655Y-100129977D01*
X66220977Y-99983655D01*
X66335941Y-99811598D01*
X66415130Y-99620420D01*
X66455500Y-99417465D01*
X66455500Y-99210535D01*
X66415130Y-99007580D01*
X66335941Y-98816402D01*
X66220977Y-98644345D01*
X66220975Y-98644342D01*
X66074657Y-98498024D01*
X65959960Y-98421387D01*
X65902598Y-98383059D01*
X65711420Y-98303870D01*
X65711412Y-98303868D01*
X65508469Y-98263500D01*
X65508465Y-98263500D01*
X65301535Y-98263500D01*
X65301530Y-98263500D01*
X65098587Y-98303868D01*
X65098579Y-98303870D01*
X64907403Y-98383058D01*
X64735342Y-98498024D01*
X64589024Y-98644342D01*
X64474058Y-98816403D01*
X64394870Y-99007579D01*
X64394868Y-99007587D01*
X64354500Y-99210530D01*
X63915499Y-99210530D01*
X63875130Y-99007580D01*
X63795941Y-98816402D01*
X63680977Y-98644345D01*
X63680975Y-98644342D01*
X63534657Y-98498024D01*
X63419960Y-98421387D01*
X63362598Y-98383059D01*
X63171420Y-98303870D01*
X63171414Y-98303868D01*
X63083649Y-98286410D01*
X63083649Y-98286409D01*
X63074872Y-98284663D01*
X63048118Y-98275192D01*
X62971201Y-98264042D01*
X62968471Y-98263499D01*
X62968139Y-98263467D01*
X62962512Y-98262782D01*
X62760573Y-98233509D01*
X62752539Y-98232506D01*
X62751577Y-98232405D01*
X62743607Y-98231726D01*
X62536853Y-98218186D01*
X62535750Y-98218109D01*
X62353419Y-98204533D01*
X62341068Y-98202987D01*
X62284532Y-98193006D01*
X62270454Y-98189663D01*
X62219735Y-98174445D01*
X62204107Y-98168583D01*
X62151580Y-98144734D01*
X62137373Y-98137134D01*
X62073677Y-98097533D01*
X62062517Y-98089713D01*
X61982364Y-98026708D01*
X61974338Y-98019826D01*
X61876060Y-97927999D01*
X61867495Y-97922586D01*
X61846066Y-97905450D01*
X59747819Y-95807203D01*
X59714334Y-95745880D01*
X59711500Y-95719522D01*
X59711500Y-58415200D01*
X60430500Y-58415200D01*
X60430500Y-94669800D01*
X60456098Y-94731598D01*
X60472443Y-94771058D01*
X60472444Y-94771059D01*
X61456934Y-95755549D01*
X61461855Y-95760762D01*
X61468910Y-95768684D01*
X61479266Y-95785318D01*
X61568240Y-95880220D01*
X61569279Y-95881387D01*
X61569418Y-95881681D01*
X61573647Y-95886571D01*
X61630593Y-95958023D01*
X61636088Y-95964917D01*
X61643135Y-95974700D01*
X61679524Y-96030774D01*
X61686236Y-96042462D01*
X61705965Y-96081603D01*
X61713833Y-96101214D01*
X61743048Y-96196946D01*
X61743935Y-96199852D01*
X61748602Y-96222588D01*
X61765225Y-96374853D01*
X61765786Y-96381804D01*
X61768930Y-96441649D01*
X61769123Y-96444884D01*
X61784326Y-96669653D01*
X61785032Y-96677715D01*
X61785127Y-96678596D01*
X61786168Y-96686757D01*
X61826254Y-96957788D01*
X61827056Y-96962776D01*
X61827159Y-96963372D01*
X61831754Y-96974881D01*
X61838209Y-96996663D01*
X61854868Y-97080414D01*
X61854870Y-97080420D01*
X61934058Y-97271596D01*
X62049024Y-97443657D01*
X62195342Y-97589975D01*
X62195345Y-97589977D01*
X62367402Y-97704941D01*
X62558580Y-97784130D01*
X62699744Y-97812209D01*
X62761530Y-97824499D01*
X62761534Y-97824500D01*
X62761535Y-97824500D01*
X62968466Y-97824500D01*
X62968467Y-97824499D01*
X63171420Y-97784130D01*
X63362598Y-97704941D01*
X63534655Y-97589977D01*
X63680977Y-97443655D01*
X63795941Y-97271598D01*
X63875130Y-97080420D01*
X63915500Y-96877465D01*
X63915500Y-96670535D01*
X63915499Y-96670530D01*
X64354500Y-96670530D01*
X64354500Y-96877469D01*
X64394868Y-97080412D01*
X64394870Y-97080420D01*
X64474058Y-97271596D01*
X64589024Y-97443657D01*
X64735342Y-97589975D01*
X64735345Y-97589977D01*
X64907402Y-97704941D01*
X65098580Y-97784130D01*
X65239744Y-97812209D01*
X65301530Y-97824499D01*
X65301534Y-97824500D01*
X65301535Y-97824500D01*
X65508466Y-97824500D01*
X65508467Y-97824499D01*
X65711420Y-97784130D01*
X65902598Y-97704941D01*
X66074655Y-97589977D01*
X66220977Y-97443655D01*
X66335941Y-97271598D01*
X66415130Y-97080420D01*
X66455500Y-96877465D01*
X66455500Y-96670535D01*
X66415130Y-96467580D01*
X66335941Y-96276402D01*
X66220977Y-96104345D01*
X66220975Y-96104342D01*
X66074657Y-95958024D01*
X65959960Y-95881387D01*
X65902598Y-95843059D01*
X65816034Y-95807203D01*
X65711420Y-95763870D01*
X65711412Y-95763868D01*
X65508469Y-95723500D01*
X65508465Y-95723500D01*
X65301535Y-95723500D01*
X65301530Y-95723500D01*
X65098587Y-95763868D01*
X65098579Y-95763870D01*
X64907403Y-95843058D01*
X64735342Y-95958024D01*
X64589024Y-96104342D01*
X64474058Y-96276403D01*
X64394870Y-96467579D01*
X64394868Y-96467587D01*
X64354500Y-96670530D01*
X63915499Y-96670530D01*
X63875130Y-96467580D01*
X63795941Y-96276402D01*
X63680977Y-96104345D01*
X63680975Y-96104342D01*
X63534657Y-95958024D01*
X63419960Y-95881387D01*
X63362598Y-95843059D01*
X63276034Y-95807203D01*
X63171420Y-95763870D01*
X63171414Y-95763868D01*
X63083649Y-95746410D01*
X63083649Y-95746409D01*
X63074872Y-95744663D01*
X63048118Y-95735192D01*
X62971201Y-95724042D01*
X62968471Y-95723499D01*
X62968139Y-95723467D01*
X62962512Y-95722782D01*
X62760573Y-95693509D01*
X62752539Y-95692506D01*
X62751577Y-95692405D01*
X62743607Y-95691726D01*
X62536853Y-95678186D01*
X62535750Y-95678109D01*
X62353419Y-95664533D01*
X62341068Y-95662987D01*
X62284532Y-95653006D01*
X62270454Y-95649663D01*
X62219735Y-95634445D01*
X62204107Y-95628583D01*
X62151580Y-95604734D01*
X62137373Y-95597134D01*
X62073677Y-95557533D01*
X62062517Y-95549713D01*
X61982364Y-95486708D01*
X61974338Y-95479826D01*
X61876062Y-95388001D01*
X61876059Y-95387999D01*
X61876060Y-95387999D01*
X61867499Y-95382589D01*
X61846064Y-95365449D01*
X61017819Y-94537203D01*
X60984334Y-94475880D01*
X60981500Y-94449522D01*
X60981500Y-94130530D01*
X61814500Y-94130530D01*
X61814500Y-94337469D01*
X61854868Y-94540412D01*
X61854870Y-94540420D01*
X61934058Y-94731596D01*
X62049024Y-94903657D01*
X62195342Y-95049975D01*
X62195345Y-95049977D01*
X62367402Y-95164941D01*
X62558580Y-95244130D01*
X62761530Y-95284499D01*
X62761534Y-95284500D01*
X62761535Y-95284500D01*
X62968466Y-95284500D01*
X62968467Y-95284499D01*
X63171420Y-95244130D01*
X63362598Y-95164941D01*
X63534655Y-95049977D01*
X63680977Y-94903655D01*
X63795941Y-94731598D01*
X63875130Y-94540420D01*
X63915500Y-94337465D01*
X63915500Y-94130535D01*
X63915499Y-94130530D01*
X64354500Y-94130530D01*
X64354500Y-94337469D01*
X64394868Y-94540412D01*
X64394870Y-94540420D01*
X64474058Y-94731596D01*
X64589024Y-94903657D01*
X64735342Y-95049975D01*
X64735345Y-95049977D01*
X64907402Y-95164941D01*
X65098580Y-95244130D01*
X65301530Y-95284499D01*
X65301534Y-95284500D01*
X65301535Y-95284500D01*
X65508466Y-95284500D01*
X65508467Y-95284499D01*
X65711420Y-95244130D01*
X65902598Y-95164941D01*
X66074655Y-95049977D01*
X66220977Y-94903655D01*
X66335941Y-94731598D01*
X66415130Y-94540420D01*
X66455500Y-94337465D01*
X66455500Y-94130535D01*
X66415130Y-93927580D01*
X66335941Y-93736402D01*
X66220977Y-93564345D01*
X66220975Y-93564342D01*
X66074657Y-93418024D01*
X65988626Y-93360541D01*
X65902598Y-93303059D01*
X65711420Y-93223870D01*
X65711412Y-93223868D01*
X65508469Y-93183500D01*
X65508465Y-93183500D01*
X65301535Y-93183500D01*
X65301530Y-93183500D01*
X65098587Y-93223868D01*
X65098579Y-93223870D01*
X64907403Y-93303058D01*
X64735342Y-93418024D01*
X64589024Y-93564342D01*
X64474058Y-93736403D01*
X64394870Y-93927579D01*
X64394868Y-93927587D01*
X64354500Y-94130530D01*
X63915499Y-94130530D01*
X63875130Y-93927580D01*
X63795941Y-93736402D01*
X63680977Y-93564345D01*
X63680975Y-93564342D01*
X63534657Y-93418024D01*
X63448626Y-93360541D01*
X63362598Y-93303059D01*
X63171420Y-93223870D01*
X63171412Y-93223868D01*
X62968469Y-93183500D01*
X62968465Y-93183500D01*
X62761535Y-93183500D01*
X62761530Y-93183500D01*
X62558587Y-93223868D01*
X62558579Y-93223870D01*
X62367403Y-93303058D01*
X62195342Y-93418024D01*
X62049024Y-93564342D01*
X61934058Y-93736403D01*
X61854870Y-93927579D01*
X61854868Y-93927587D01*
X61814500Y-94130530D01*
X60981500Y-94130530D01*
X60981500Y-91590530D01*
X61814500Y-91590530D01*
X61814500Y-91797469D01*
X61854868Y-92000412D01*
X61854870Y-92000420D01*
X61934059Y-92191598D01*
X61949783Y-92215131D01*
X62049024Y-92363657D01*
X62195342Y-92509975D01*
X62195345Y-92509977D01*
X62367402Y-92624941D01*
X62558580Y-92704130D01*
X62761530Y-92744499D01*
X62761534Y-92744500D01*
X62761535Y-92744500D01*
X62968466Y-92744500D01*
X62968467Y-92744499D01*
X63171420Y-92704130D01*
X63362598Y-92624941D01*
X63534655Y-92509977D01*
X63680977Y-92363655D01*
X63795941Y-92191598D01*
X63875130Y-92000420D01*
X63915500Y-91797465D01*
X63915500Y-91590535D01*
X63915499Y-91590530D01*
X64354500Y-91590530D01*
X64354500Y-91797469D01*
X64394868Y-92000412D01*
X64394870Y-92000420D01*
X64474059Y-92191598D01*
X64489783Y-92215131D01*
X64589024Y-92363657D01*
X64735342Y-92509975D01*
X64735345Y-92509977D01*
X64907402Y-92624941D01*
X65098580Y-92704130D01*
X65301530Y-92744499D01*
X65301534Y-92744500D01*
X65301535Y-92744500D01*
X65508466Y-92744500D01*
X65508467Y-92744499D01*
X65711420Y-92704130D01*
X65902598Y-92624941D01*
X66074655Y-92509977D01*
X66220977Y-92363655D01*
X66335941Y-92191598D01*
X66415130Y-92000420D01*
X66455500Y-91797465D01*
X66455500Y-91590535D01*
X66415130Y-91387580D01*
X66335941Y-91196402D01*
X66220977Y-91024345D01*
X66220975Y-91024342D01*
X66074657Y-90878024D01*
X65988626Y-90820541D01*
X65902598Y-90763059D01*
X65711420Y-90683870D01*
X65711412Y-90683868D01*
X65508469Y-90643500D01*
X65508465Y-90643500D01*
X65301535Y-90643500D01*
X65301530Y-90643500D01*
X65098587Y-90683868D01*
X65098579Y-90683870D01*
X64907403Y-90763058D01*
X64735342Y-90878024D01*
X64589024Y-91024342D01*
X64474058Y-91196403D01*
X64394870Y-91387579D01*
X64394868Y-91387587D01*
X64354500Y-91590530D01*
X63915499Y-91590530D01*
X63875130Y-91387580D01*
X63795941Y-91196402D01*
X63680977Y-91024345D01*
X63680975Y-91024342D01*
X63534657Y-90878024D01*
X63448626Y-90820541D01*
X63362598Y-90763059D01*
X63171420Y-90683870D01*
X63171412Y-90683868D01*
X62968469Y-90643500D01*
X62968465Y-90643500D01*
X62761535Y-90643500D01*
X62761530Y-90643500D01*
X62558587Y-90683868D01*
X62558579Y-90683870D01*
X62367403Y-90763058D01*
X62195342Y-90878024D01*
X62049024Y-91024342D01*
X61934058Y-91196403D01*
X61854870Y-91387579D01*
X61854868Y-91387587D01*
X61814500Y-91590530D01*
X60981500Y-91590530D01*
X60981500Y-89050530D01*
X61814500Y-89050530D01*
X61814500Y-89257469D01*
X61854868Y-89460412D01*
X61854870Y-89460420D01*
X61934058Y-89651596D01*
X62049024Y-89823657D01*
X62195342Y-89969975D01*
X62195345Y-89969977D01*
X62367402Y-90084941D01*
X62558580Y-90164130D01*
X62761530Y-90204499D01*
X62761534Y-90204500D01*
X62761535Y-90204500D01*
X62968466Y-90204500D01*
X62968467Y-90204499D01*
X63171420Y-90164130D01*
X63362598Y-90084941D01*
X63534655Y-89969977D01*
X63680977Y-89823655D01*
X63795941Y-89651598D01*
X63875130Y-89460420D01*
X63915500Y-89257465D01*
X63915500Y-89050535D01*
X63875130Y-88847580D01*
X63795941Y-88656402D01*
X63680977Y-88484345D01*
X63680975Y-88484342D01*
X63534657Y-88338024D01*
X63448626Y-88280541D01*
X63362598Y-88223059D01*
X63171420Y-88143870D01*
X63171412Y-88143868D01*
X62968469Y-88103500D01*
X62968465Y-88103500D01*
X62761535Y-88103500D01*
X62761530Y-88103500D01*
X62558587Y-88143868D01*
X62558579Y-88143870D01*
X62367403Y-88223058D01*
X62195342Y-88338024D01*
X62049024Y-88484342D01*
X61934058Y-88656403D01*
X61854870Y-88847579D01*
X61854868Y-88847587D01*
X61814500Y-89050530D01*
X60981500Y-89050530D01*
X60981500Y-86510530D01*
X61814500Y-86510530D01*
X61814500Y-86717469D01*
X61854868Y-86920412D01*
X61854870Y-86920420D01*
X61934058Y-87111596D01*
X62049024Y-87283657D01*
X62195342Y-87429975D01*
X62195345Y-87429977D01*
X62367402Y-87544941D01*
X62558580Y-87624130D01*
X62761530Y-87664499D01*
X62761534Y-87664500D01*
X62761535Y-87664500D01*
X62968466Y-87664500D01*
X62968467Y-87664499D01*
X63171420Y-87624130D01*
X63362598Y-87544941D01*
X63534655Y-87429977D01*
X63680977Y-87283655D01*
X63795941Y-87111598D01*
X63875130Y-86920420D01*
X63915500Y-86717465D01*
X63915500Y-86510535D01*
X63915499Y-86510530D01*
X64354500Y-86510530D01*
X64354500Y-86717469D01*
X64394868Y-86920412D01*
X64394870Y-86920420D01*
X64474058Y-87111596D01*
X64589024Y-87283657D01*
X64735342Y-87429975D01*
X64735345Y-87429977D01*
X64907402Y-87544941D01*
X65098580Y-87624130D01*
X65301530Y-87664499D01*
X65301534Y-87664500D01*
X65301535Y-87664500D01*
X65508466Y-87664500D01*
X65508467Y-87664499D01*
X65711420Y-87624130D01*
X65902598Y-87544941D01*
X66074655Y-87429977D01*
X66220977Y-87283655D01*
X66335941Y-87111598D01*
X66415130Y-86920420D01*
X66455500Y-86717465D01*
X66455500Y-86510535D01*
X66415130Y-86307580D01*
X66335941Y-86116402D01*
X66220977Y-85944345D01*
X66220975Y-85944342D01*
X66074657Y-85798024D01*
X65988626Y-85740541D01*
X65902598Y-85683059D01*
X65711420Y-85603870D01*
X65711412Y-85603868D01*
X65508469Y-85563500D01*
X65508465Y-85563500D01*
X65301535Y-85563500D01*
X65301530Y-85563500D01*
X65098587Y-85603868D01*
X65098579Y-85603870D01*
X64907403Y-85683058D01*
X64735342Y-85798024D01*
X64589024Y-85944342D01*
X64474058Y-86116403D01*
X64394870Y-86307579D01*
X64394868Y-86307587D01*
X64354500Y-86510530D01*
X63915499Y-86510530D01*
X63875130Y-86307580D01*
X63795941Y-86116402D01*
X63680977Y-85944345D01*
X63680975Y-85944342D01*
X63534657Y-85798024D01*
X63448626Y-85740541D01*
X63362598Y-85683059D01*
X63171420Y-85603870D01*
X63171412Y-85603868D01*
X62968469Y-85563500D01*
X62968465Y-85563500D01*
X62761535Y-85563500D01*
X62761530Y-85563500D01*
X62558587Y-85603868D01*
X62558579Y-85603870D01*
X62367403Y-85683058D01*
X62195342Y-85798024D01*
X62049024Y-85944342D01*
X61934058Y-86116403D01*
X61854870Y-86307579D01*
X61854868Y-86307587D01*
X61814500Y-86510530D01*
X60981500Y-86510530D01*
X60981500Y-83970530D01*
X61814500Y-83970530D01*
X61814500Y-84177469D01*
X61854868Y-84380412D01*
X61854870Y-84380420D01*
X61934058Y-84571596D01*
X62049024Y-84743657D01*
X62195342Y-84889975D01*
X62195345Y-84889977D01*
X62367402Y-85004941D01*
X62558580Y-85084130D01*
X62757634Y-85123724D01*
X62761530Y-85124499D01*
X62761534Y-85124500D01*
X62761535Y-85124500D01*
X62968466Y-85124500D01*
X62968467Y-85124499D01*
X63171420Y-85084130D01*
X63362598Y-85004941D01*
X63534655Y-84889977D01*
X63680977Y-84743655D01*
X63795941Y-84571598D01*
X63875130Y-84380420D01*
X63915500Y-84177465D01*
X63915500Y-83970535D01*
X63915499Y-83970530D01*
X64354500Y-83970530D01*
X64354500Y-84177469D01*
X64394868Y-84380412D01*
X64394870Y-84380420D01*
X64474058Y-84571596D01*
X64589024Y-84743657D01*
X64735342Y-84889975D01*
X64735345Y-84889977D01*
X64907402Y-85004941D01*
X65098580Y-85084130D01*
X65297634Y-85123724D01*
X65301530Y-85124499D01*
X65301534Y-85124500D01*
X65301535Y-85124500D01*
X65508466Y-85124500D01*
X65508467Y-85124499D01*
X65711420Y-85084130D01*
X65902598Y-85004941D01*
X66074655Y-84889977D01*
X66220977Y-84743655D01*
X66335941Y-84571598D01*
X66415130Y-84380420D01*
X66455500Y-84177465D01*
X66455500Y-83970535D01*
X66415130Y-83767580D01*
X66335941Y-83576402D01*
X66220977Y-83404345D01*
X66220975Y-83404342D01*
X66074657Y-83258024D01*
X65988626Y-83200541D01*
X65902598Y-83143059D01*
X65711420Y-83063870D01*
X65711412Y-83063868D01*
X65508469Y-83023500D01*
X65508465Y-83023500D01*
X65301535Y-83023500D01*
X65301530Y-83023500D01*
X65098587Y-83063868D01*
X65098579Y-83063870D01*
X64907403Y-83143058D01*
X64735342Y-83258024D01*
X64589024Y-83404342D01*
X64474058Y-83576403D01*
X64394870Y-83767579D01*
X64394868Y-83767587D01*
X64354500Y-83970530D01*
X63915499Y-83970530D01*
X63875130Y-83767580D01*
X63795941Y-83576402D01*
X63680977Y-83404345D01*
X63680975Y-83404342D01*
X63534657Y-83258024D01*
X63448626Y-83200541D01*
X63362598Y-83143059D01*
X63171420Y-83063870D01*
X63171412Y-83063868D01*
X62968469Y-83023500D01*
X62968465Y-83023500D01*
X62761535Y-83023500D01*
X62761530Y-83023500D01*
X62558587Y-83063868D01*
X62558579Y-83063870D01*
X62367403Y-83143058D01*
X62195342Y-83258024D01*
X62049024Y-83404342D01*
X61934058Y-83576403D01*
X61854870Y-83767579D01*
X61854868Y-83767587D01*
X61814500Y-83970530D01*
X60981500Y-83970530D01*
X60981500Y-81430530D01*
X61814500Y-81430530D01*
X61814500Y-81637469D01*
X61854868Y-81840412D01*
X61854870Y-81840420D01*
X61934058Y-82031596D01*
X62049024Y-82203657D01*
X62195342Y-82349975D01*
X62195345Y-82349977D01*
X62367402Y-82464941D01*
X62558580Y-82544130D01*
X62761530Y-82584499D01*
X62761534Y-82584500D01*
X62761535Y-82584500D01*
X62968466Y-82584500D01*
X62968467Y-82584499D01*
X63171420Y-82544130D01*
X63362598Y-82464941D01*
X63534655Y-82349977D01*
X63680977Y-82203655D01*
X63795941Y-82031598D01*
X63875130Y-81840420D01*
X63915500Y-81637465D01*
X63915500Y-81430535D01*
X63915499Y-81430530D01*
X64354500Y-81430530D01*
X64354500Y-81637469D01*
X64394868Y-81840412D01*
X64394870Y-81840420D01*
X64474058Y-82031596D01*
X64589024Y-82203657D01*
X64735342Y-82349975D01*
X64735345Y-82349977D01*
X64907402Y-82464941D01*
X65098580Y-82544130D01*
X65301530Y-82584499D01*
X65301534Y-82584500D01*
X65301535Y-82584500D01*
X65508466Y-82584500D01*
X65508467Y-82584499D01*
X65711420Y-82544130D01*
X65902598Y-82464941D01*
X66074655Y-82349977D01*
X66220977Y-82203655D01*
X66335941Y-82031598D01*
X66415130Y-81840420D01*
X66455500Y-81637465D01*
X66455500Y-81430535D01*
X66415130Y-81227580D01*
X66335941Y-81036402D01*
X66220977Y-80864345D01*
X66220975Y-80864342D01*
X66074657Y-80718024D01*
X65988626Y-80660541D01*
X65902598Y-80603059D01*
X65711420Y-80523870D01*
X65711412Y-80523868D01*
X65508469Y-80483500D01*
X65508465Y-80483500D01*
X65301535Y-80483500D01*
X65301530Y-80483500D01*
X65098587Y-80523868D01*
X65098579Y-80523870D01*
X64907403Y-80603058D01*
X64735342Y-80718024D01*
X64589024Y-80864342D01*
X64474058Y-81036403D01*
X64394870Y-81227579D01*
X64394868Y-81227587D01*
X64354500Y-81430530D01*
X63915499Y-81430530D01*
X63875130Y-81227580D01*
X63795941Y-81036402D01*
X63680977Y-80864345D01*
X63680975Y-80864342D01*
X63534657Y-80718024D01*
X63448626Y-80660541D01*
X63362598Y-80603059D01*
X63171420Y-80523870D01*
X63171412Y-80523868D01*
X62968469Y-80483500D01*
X62968465Y-80483500D01*
X62761535Y-80483500D01*
X62761530Y-80483500D01*
X62558587Y-80523868D01*
X62558579Y-80523870D01*
X62367403Y-80603058D01*
X62195342Y-80718024D01*
X62049024Y-80864342D01*
X61934058Y-81036403D01*
X61854870Y-81227579D01*
X61854868Y-81227587D01*
X61814500Y-81430530D01*
X60981500Y-81430530D01*
X60981500Y-78890530D01*
X61814500Y-78890530D01*
X61814500Y-79097469D01*
X61854868Y-79300412D01*
X61854870Y-79300420D01*
X61934058Y-79491596D01*
X62049024Y-79663657D01*
X62195342Y-79809975D01*
X62195345Y-79809977D01*
X62367402Y-79924941D01*
X62558580Y-80004130D01*
X62761530Y-80044499D01*
X62761534Y-80044500D01*
X62761535Y-80044500D01*
X62968466Y-80044500D01*
X62968467Y-80044499D01*
X63171420Y-80004130D01*
X63362598Y-79924941D01*
X63534655Y-79809977D01*
X63680977Y-79663655D01*
X63795941Y-79491598D01*
X63875130Y-79300420D01*
X63915500Y-79097465D01*
X63915500Y-78890535D01*
X63915499Y-78890530D01*
X64354500Y-78890530D01*
X64354500Y-79097469D01*
X64394868Y-79300412D01*
X64394870Y-79300420D01*
X64474058Y-79491596D01*
X64589024Y-79663657D01*
X64735342Y-79809975D01*
X64735345Y-79809977D01*
X64907402Y-79924941D01*
X65098580Y-80004130D01*
X65301530Y-80044499D01*
X65301534Y-80044500D01*
X65301535Y-80044500D01*
X65508466Y-80044500D01*
X65508467Y-80044499D01*
X65711420Y-80004130D01*
X65902598Y-79924941D01*
X66074655Y-79809977D01*
X66220977Y-79663655D01*
X66335941Y-79491598D01*
X66415130Y-79300420D01*
X66455500Y-79097465D01*
X66455500Y-78890535D01*
X66415130Y-78687580D01*
X66335941Y-78496402D01*
X66220977Y-78324345D01*
X66220975Y-78324342D01*
X66074657Y-78178024D01*
X65988626Y-78120541D01*
X65902598Y-78063059D01*
X65711420Y-77983870D01*
X65711412Y-77983868D01*
X65508469Y-77943500D01*
X65508465Y-77943500D01*
X65301535Y-77943500D01*
X65301530Y-77943500D01*
X65098587Y-77983868D01*
X65098579Y-77983870D01*
X64907403Y-78063058D01*
X64735342Y-78178024D01*
X64589024Y-78324342D01*
X64474058Y-78496403D01*
X64394870Y-78687579D01*
X64394868Y-78687587D01*
X64354500Y-78890530D01*
X63915499Y-78890530D01*
X63875130Y-78687580D01*
X63795941Y-78496402D01*
X63680977Y-78324345D01*
X63680975Y-78324342D01*
X63534657Y-78178024D01*
X63448626Y-78120541D01*
X63362598Y-78063059D01*
X63171420Y-77983870D01*
X63171412Y-77983868D01*
X62968469Y-77943500D01*
X62968465Y-77943500D01*
X62761535Y-77943500D01*
X62761530Y-77943500D01*
X62558587Y-77983868D01*
X62558579Y-77983870D01*
X62367403Y-78063058D01*
X62195342Y-78178024D01*
X62049024Y-78324342D01*
X61934058Y-78496403D01*
X61854870Y-78687579D01*
X61854868Y-78687587D01*
X61814500Y-78890530D01*
X60981500Y-78890530D01*
X60981500Y-76350530D01*
X64354500Y-76350530D01*
X64354500Y-76557469D01*
X64394868Y-76760412D01*
X64394870Y-76760420D01*
X64474058Y-76951596D01*
X64589024Y-77123657D01*
X64735342Y-77269975D01*
X64735345Y-77269977D01*
X64907402Y-77384941D01*
X65098580Y-77464130D01*
X65301530Y-77504499D01*
X65301534Y-77504500D01*
X65301535Y-77504500D01*
X65508466Y-77504500D01*
X65508467Y-77504499D01*
X65711420Y-77464130D01*
X65902598Y-77384941D01*
X66074655Y-77269977D01*
X66220977Y-77123655D01*
X66335941Y-76951598D01*
X66415130Y-76760420D01*
X66455500Y-76557465D01*
X66455500Y-76350535D01*
X66415130Y-76147580D01*
X66335941Y-75956402D01*
X66220977Y-75784345D01*
X66220975Y-75784342D01*
X66074657Y-75638024D01*
X65988626Y-75580541D01*
X65902598Y-75523059D01*
X65711420Y-75443870D01*
X65711412Y-75443868D01*
X65508469Y-75403500D01*
X65508465Y-75403500D01*
X65301535Y-75403500D01*
X65301530Y-75403500D01*
X65098587Y-75443868D01*
X65098579Y-75443870D01*
X64907403Y-75523058D01*
X64735342Y-75638024D01*
X64589024Y-75784342D01*
X64474058Y-75956403D01*
X64394870Y-76147579D01*
X64394868Y-76147587D01*
X64354500Y-76350530D01*
X60981500Y-76350530D01*
X60981500Y-73810530D01*
X61814500Y-73810530D01*
X61814500Y-74017469D01*
X61854868Y-74220412D01*
X61854870Y-74220420D01*
X61934058Y-74411596D01*
X62049024Y-74583657D01*
X62195342Y-74729975D01*
X62195345Y-74729977D01*
X62367402Y-74844941D01*
X62558580Y-74924130D01*
X62761530Y-74964499D01*
X62761534Y-74964500D01*
X62761535Y-74964500D01*
X62968466Y-74964500D01*
X62968467Y-74964499D01*
X63171420Y-74924130D01*
X63362598Y-74844941D01*
X63534655Y-74729977D01*
X63680977Y-74583655D01*
X63795941Y-74411598D01*
X63875130Y-74220420D01*
X63915500Y-74017465D01*
X63915500Y-73810535D01*
X63915499Y-73810530D01*
X64354500Y-73810530D01*
X64354500Y-74017469D01*
X64394868Y-74220412D01*
X64394870Y-74220420D01*
X64474058Y-74411596D01*
X64589024Y-74583657D01*
X64735342Y-74729975D01*
X64735345Y-74729977D01*
X64907402Y-74844941D01*
X65098580Y-74924130D01*
X65301530Y-74964499D01*
X65301534Y-74964500D01*
X65301535Y-74964500D01*
X65508466Y-74964500D01*
X65508467Y-74964499D01*
X65711420Y-74924130D01*
X65902598Y-74844941D01*
X66074655Y-74729977D01*
X66220977Y-74583655D01*
X66335941Y-74411598D01*
X66415130Y-74220420D01*
X66455500Y-74017465D01*
X66455500Y-73810535D01*
X66415130Y-73607580D01*
X66335941Y-73416402D01*
X66220977Y-73244345D01*
X66220975Y-73244342D01*
X66074657Y-73098024D01*
X65988626Y-73040541D01*
X65902598Y-72983059D01*
X65711420Y-72903870D01*
X65711412Y-72903868D01*
X65508469Y-72863500D01*
X65508465Y-72863500D01*
X65301535Y-72863500D01*
X65301530Y-72863500D01*
X65098587Y-72903868D01*
X65098579Y-72903870D01*
X64907403Y-72983058D01*
X64735342Y-73098024D01*
X64589024Y-73244342D01*
X64474058Y-73416403D01*
X64394870Y-73607579D01*
X64394868Y-73607587D01*
X64354500Y-73810530D01*
X63915499Y-73810530D01*
X63875130Y-73607580D01*
X63795941Y-73416402D01*
X63680977Y-73244345D01*
X63680975Y-73244342D01*
X63534657Y-73098024D01*
X63448626Y-73040541D01*
X63362598Y-72983059D01*
X63171420Y-72903870D01*
X63171412Y-72903868D01*
X62968469Y-72863500D01*
X62968465Y-72863500D01*
X62761535Y-72863500D01*
X62761530Y-72863500D01*
X62558587Y-72903868D01*
X62558579Y-72903870D01*
X62367403Y-72983058D01*
X62195342Y-73098024D01*
X62049024Y-73244342D01*
X61934058Y-73416403D01*
X61854870Y-73607579D01*
X61854868Y-73607587D01*
X61814500Y-73810530D01*
X60981500Y-73810530D01*
X60981500Y-70504247D01*
X61814500Y-70504247D01*
X61814500Y-72243752D01*
X61826131Y-72302229D01*
X61826132Y-72302230D01*
X61870447Y-72368552D01*
X61936769Y-72412867D01*
X61936770Y-72412868D01*
X61995247Y-72424499D01*
X61995250Y-72424500D01*
X61995252Y-72424500D01*
X63734750Y-72424500D01*
X63734751Y-72424499D01*
X63749568Y-72421552D01*
X63793229Y-72412868D01*
X63793229Y-72412867D01*
X63793231Y-72412867D01*
X63859552Y-72368552D01*
X63903867Y-72302231D01*
X63903867Y-72302229D01*
X63903868Y-72302229D01*
X63915499Y-72243752D01*
X63915500Y-72243750D01*
X63915500Y-71270530D01*
X64354500Y-71270530D01*
X64354500Y-71477469D01*
X64394868Y-71680412D01*
X64394870Y-71680420D01*
X64474058Y-71871596D01*
X64589024Y-72043657D01*
X64735342Y-72189975D01*
X64735345Y-72189977D01*
X64907402Y-72304941D01*
X65098580Y-72384130D01*
X65243052Y-72412867D01*
X65301530Y-72424499D01*
X65301534Y-72424500D01*
X65301535Y-72424500D01*
X65508466Y-72424500D01*
X65508467Y-72424499D01*
X65711420Y-72384130D01*
X65902598Y-72304941D01*
X66074655Y-72189977D01*
X66220977Y-72043655D01*
X66335941Y-71871598D01*
X66415130Y-71680420D01*
X66455500Y-71477465D01*
X66455500Y-71270535D01*
X66415130Y-71067580D01*
X66335941Y-70876402D01*
X66220977Y-70704345D01*
X66220975Y-70704342D01*
X66074657Y-70558024D01*
X65906655Y-70445770D01*
X65902598Y-70443059D01*
X65711420Y-70363870D01*
X65711412Y-70363868D01*
X65508469Y-70323500D01*
X65508465Y-70323500D01*
X65301535Y-70323500D01*
X65301530Y-70323500D01*
X65098587Y-70363868D01*
X65098579Y-70363870D01*
X64907403Y-70443058D01*
X64735342Y-70558024D01*
X64589024Y-70704342D01*
X64474058Y-70876403D01*
X64394870Y-71067579D01*
X64394868Y-71067587D01*
X64354500Y-71270530D01*
X63915500Y-71270530D01*
X63915500Y-70504249D01*
X63915499Y-70504247D01*
X63903868Y-70445770D01*
X63903867Y-70445769D01*
X63859552Y-70379447D01*
X63793230Y-70335132D01*
X63793229Y-70335131D01*
X63734752Y-70323500D01*
X63734748Y-70323500D01*
X61995252Y-70323500D01*
X61995247Y-70323500D01*
X61936770Y-70335131D01*
X61936769Y-70335132D01*
X61870447Y-70379447D01*
X61826132Y-70445769D01*
X61826131Y-70445770D01*
X61814500Y-70504247D01*
X60981500Y-70504247D01*
X60981500Y-58635477D01*
X61001185Y-58568438D01*
X61017819Y-58547796D01*
X61305368Y-58260247D01*
X65519500Y-58260247D01*
X65519500Y-59699752D01*
X65531131Y-59758229D01*
X65531132Y-59758230D01*
X65575447Y-59824552D01*
X65641769Y-59868867D01*
X65641770Y-59868868D01*
X65700247Y-59880499D01*
X65700250Y-59880500D01*
X65700252Y-59880500D01*
X66839750Y-59880500D01*
X66839751Y-59880499D01*
X66854568Y-59877552D01*
X66898229Y-59868868D01*
X66898229Y-59868867D01*
X66898231Y-59868867D01*
X66964552Y-59824552D01*
X67008867Y-59758231D01*
X67008867Y-59758229D01*
X67008868Y-59758229D01*
X67020499Y-59699752D01*
X67020500Y-59699750D01*
X67020500Y-58260249D01*
X67020499Y-58260247D01*
X103619500Y-58260247D01*
X103619500Y-59699752D01*
X103631131Y-59758229D01*
X103631132Y-59758230D01*
X103675447Y-59824552D01*
X103741769Y-59868867D01*
X103741770Y-59868868D01*
X103800247Y-59880499D01*
X103800250Y-59880500D01*
X103800252Y-59880500D01*
X104939750Y-59880500D01*
X104939751Y-59880499D01*
X104954568Y-59877552D01*
X104998229Y-59868868D01*
X104998229Y-59868867D01*
X104998231Y-59868867D01*
X105064552Y-59824552D01*
X105108867Y-59758231D01*
X105108867Y-59758229D01*
X105108868Y-59758229D01*
X105120499Y-59699752D01*
X105120500Y-59699750D01*
X105120500Y-58260249D01*
X105120499Y-58260247D01*
X105108868Y-58201770D01*
X105108867Y-58201769D01*
X105064552Y-58135447D01*
X104998230Y-58091132D01*
X104998229Y-58091131D01*
X104939752Y-58079500D01*
X104939748Y-58079500D01*
X103800252Y-58079500D01*
X103800247Y-58079500D01*
X103741770Y-58091131D01*
X103741769Y-58091132D01*
X103675447Y-58135447D01*
X103631132Y-58201769D01*
X103631131Y-58201770D01*
X103619500Y-58260247D01*
X67020499Y-58260247D01*
X67008868Y-58201770D01*
X67008867Y-58201769D01*
X66964552Y-58135447D01*
X66898230Y-58091132D01*
X66898229Y-58091131D01*
X66839752Y-58079500D01*
X66839748Y-58079500D01*
X65700252Y-58079500D01*
X65700247Y-58079500D01*
X65641770Y-58091131D01*
X65641769Y-58091132D01*
X65575447Y-58135447D01*
X65531132Y-58201769D01*
X65531131Y-58201770D01*
X65519500Y-58260247D01*
X61305368Y-58260247D01*
X61399136Y-58166479D01*
X61486115Y-58079500D01*
X65186568Y-54379046D01*
X65191764Y-54374143D01*
X65199688Y-54367085D01*
X65216317Y-54356735D01*
X65311226Y-54267752D01*
X65312395Y-54266712D01*
X65312686Y-54266573D01*
X65317581Y-54262342D01*
X65395930Y-54199901D01*
X65405708Y-54192857D01*
X65410260Y-54189902D01*
X65461768Y-54156475D01*
X65473434Y-54149775D01*
X65512603Y-54130032D01*
X65532211Y-54122165D01*
X65630863Y-54092060D01*
X65653592Y-54087395D01*
X65805838Y-54070773D01*
X65812786Y-54070212D01*
X65832440Y-54069180D01*
X65872553Y-54067074D01*
X65872575Y-54067072D01*
X65872646Y-54067069D01*
X65874687Y-54066952D01*
X65874863Y-54066941D01*
X65875911Y-54066873D01*
X66100644Y-54051673D01*
X66108717Y-54050966D01*
X66109639Y-54050867D01*
X66117766Y-54049830D01*
X66388744Y-54009751D01*
X66393811Y-54008937D01*
X66394370Y-54008840D01*
X66405868Y-54004248D01*
X66427646Y-53997793D01*
X66511420Y-53981130D01*
X66702598Y-53901941D01*
X66874655Y-53786977D01*
X67020977Y-53640655D01*
X67135941Y-53468598D01*
X67215130Y-53277420D01*
X67255500Y-53074465D01*
X67255500Y-52867535D01*
X67215130Y-52664580D01*
X67135941Y-52473402D01*
X67020977Y-52301345D01*
X67020975Y-52301342D01*
X66874657Y-52155024D01*
X66788626Y-52097541D01*
X66702598Y-52040059D01*
X66511420Y-51960870D01*
X66511412Y-51960868D01*
X66308469Y-51920500D01*
X66308465Y-51920500D01*
X66101535Y-51920500D01*
X66101530Y-51920500D01*
X65898587Y-51960868D01*
X65898579Y-51960870D01*
X65707403Y-52040058D01*
X65535342Y-52155024D01*
X65389024Y-52301342D01*
X65274058Y-52473403D01*
X65194870Y-52664579D01*
X65194868Y-52664585D01*
X65177410Y-52752348D01*
X65177411Y-52752349D01*
X65175666Y-52761122D01*
X65166192Y-52787880D01*
X65155036Y-52864830D01*
X65154497Y-52867545D01*
X65154468Y-52867848D01*
X65153783Y-52873486D01*
X65124504Y-53075472D01*
X65123507Y-53083447D01*
X65123409Y-53084374D01*
X65122725Y-53092408D01*
X65109190Y-53299085D01*
X65109113Y-53300188D01*
X65095533Y-53482580D01*
X65093987Y-53494930D01*
X65084008Y-53551458D01*
X65080664Y-53565539D01*
X65065442Y-53616268D01*
X65059582Y-53631891D01*
X65035735Y-53684417D01*
X65028134Y-53698627D01*
X64988540Y-53762312D01*
X64980720Y-53773472D01*
X64917708Y-53853633D01*
X64910827Y-53861658D01*
X64818999Y-53959939D01*
X64818997Y-53959942D01*
X64813586Y-53968503D01*
X64796450Y-53989932D01*
X60549942Y-58236443D01*
X60472444Y-58313940D01*
X60472443Y-58313941D01*
X60472443Y-58313942D01*
X60430500Y-58415200D01*
X59711500Y-58415200D01*
X59711500Y-54825477D01*
X59731185Y-54758438D01*
X59747819Y-54737796D01*
X61821036Y-52664579D01*
X64158084Y-50327530D01*
X65154500Y-50327530D01*
X65154500Y-50534469D01*
X65194868Y-50737412D01*
X65194870Y-50737420D01*
X65274058Y-50928596D01*
X65389024Y-51100657D01*
X65535342Y-51246975D01*
X65535345Y-51246977D01*
X65707402Y-51361941D01*
X65898580Y-51441130D01*
X66101530Y-51481499D01*
X66101534Y-51481500D01*
X66101535Y-51481500D01*
X66308466Y-51481500D01*
X66308467Y-51481499D01*
X66511420Y-51441130D01*
X66702598Y-51361941D01*
X66874655Y-51246977D01*
X67020977Y-51100655D01*
X67135941Y-50928598D01*
X67215130Y-50737420D01*
X67255500Y-50534465D01*
X67255500Y-50327535D01*
X67215130Y-50124580D01*
X67135941Y-49933402D01*
X67020977Y-49761345D01*
X67020975Y-49761342D01*
X66874657Y-49615024D01*
X66788626Y-49557541D01*
X66702598Y-49500059D01*
X66511420Y-49420870D01*
X66511412Y-49420868D01*
X66308469Y-49380500D01*
X66308465Y-49380500D01*
X66101535Y-49380500D01*
X66101530Y-49380500D01*
X65898587Y-49420868D01*
X65898579Y-49420870D01*
X65707403Y-49500058D01*
X65535342Y-49615024D01*
X65389024Y-49761342D01*
X65274058Y-49933403D01*
X65194870Y-50124579D01*
X65194868Y-50124587D01*
X65154500Y-50327530D01*
X64158084Y-50327530D01*
X65186568Y-49299046D01*
X65191764Y-49294143D01*
X65199688Y-49287085D01*
X65216317Y-49276735D01*
X65311226Y-49187752D01*
X65312395Y-49186712D01*
X65312686Y-49186573D01*
X65317581Y-49182342D01*
X65395930Y-49119901D01*
X65405708Y-49112857D01*
X65410260Y-49109902D01*
X65461768Y-49076475D01*
X65473434Y-49069775D01*
X65512603Y-49050032D01*
X65532211Y-49042165D01*
X65630863Y-49012060D01*
X65653592Y-49007395D01*
X65805838Y-48990773D01*
X65812786Y-48990212D01*
X65832440Y-48989180D01*
X65872553Y-48987074D01*
X65872575Y-48987072D01*
X65872646Y-48987069D01*
X65874687Y-48986952D01*
X65874863Y-48986941D01*
X65875911Y-48986873D01*
X66100644Y-48971673D01*
X66108717Y-48970966D01*
X66109639Y-48970867D01*
X66117766Y-48969830D01*
X66388744Y-48929751D01*
X66393811Y-48928937D01*
X66394370Y-48928840D01*
X66405868Y-48924248D01*
X66427646Y-48917793D01*
X66511420Y-48901130D01*
X66702598Y-48821941D01*
X66874655Y-48706977D01*
X67020977Y-48560655D01*
X67135941Y-48388598D01*
X67215130Y-48197420D01*
X67255500Y-47994465D01*
X67255500Y-47787535D01*
X67215130Y-47584580D01*
X67135941Y-47393402D01*
X67020977Y-47221345D01*
X67020975Y-47221342D01*
X66874657Y-47075024D01*
X66788626Y-47017541D01*
X66702598Y-46960059D01*
X66511420Y-46880870D01*
X66511412Y-46880868D01*
X66308469Y-46840500D01*
X66308465Y-46840500D01*
X66101535Y-46840500D01*
X66101530Y-46840500D01*
X65898587Y-46880868D01*
X65898579Y-46880870D01*
X65707403Y-46960058D01*
X65535342Y-47075024D01*
X65389024Y-47221342D01*
X65274058Y-47393403D01*
X65194870Y-47584579D01*
X65194868Y-47584585D01*
X65177410Y-47672348D01*
X65177411Y-47672349D01*
X65175666Y-47681122D01*
X65166192Y-47707880D01*
X65155036Y-47784830D01*
X65154497Y-47787545D01*
X65154468Y-47787848D01*
X65153783Y-47793486D01*
X65124504Y-47995472D01*
X65123507Y-48003447D01*
X65123409Y-48004374D01*
X65122725Y-48012408D01*
X65109190Y-48219085D01*
X65109113Y-48220188D01*
X65095533Y-48402580D01*
X65093987Y-48414930D01*
X65084008Y-48471458D01*
X65080664Y-48485539D01*
X65065442Y-48536268D01*
X65059582Y-48551891D01*
X65035735Y-48604417D01*
X65028134Y-48618627D01*
X64988540Y-48682312D01*
X64980720Y-48693472D01*
X64917708Y-48773633D01*
X64910827Y-48781658D01*
X64818999Y-48879939D01*
X64818997Y-48879942D01*
X64813586Y-48888503D01*
X64796450Y-48909932D01*
X59279942Y-54426443D01*
X59202444Y-54503940D01*
X59160500Y-54605199D01*
X58620500Y-54605199D01*
X58620500Y-43011491D01*
X59229500Y-43011491D01*
X59229500Y-43348508D01*
X59267231Y-43683381D01*
X59267233Y-43683397D01*
X59342223Y-44011953D01*
X59342227Y-44011965D01*
X59453532Y-44330054D01*
X59599752Y-44633683D01*
X59599754Y-44633686D01*
X59779054Y-44919039D01*
X59989175Y-45182523D01*
X60227477Y-45420825D01*
X60490961Y-45630946D01*
X60776314Y-45810246D01*
X61079949Y-45956469D01*
X61318848Y-46040063D01*
X61398034Y-46067772D01*
X61398046Y-46067776D01*
X61726606Y-46142767D01*
X62061492Y-46180499D01*
X62061493Y-46180500D01*
X62061496Y-46180500D01*
X62398507Y-46180500D01*
X62398507Y-46180499D01*
X62733394Y-46142767D01*
X63061954Y-46067776D01*
X63380051Y-45956469D01*
X63683686Y-45810246D01*
X63969039Y-45630946D01*
X64232523Y-45420825D01*
X64470825Y-45182523D01*
X64680946Y-44919039D01*
X64860246Y-44633686D01*
X65006469Y-44330051D01*
X65117776Y-44011954D01*
X65192767Y-43683394D01*
X65230500Y-43348504D01*
X65230500Y-43011496D01*
X65230499Y-43011491D01*
X102409500Y-43011491D01*
X102409500Y-43348508D01*
X102447231Y-43683381D01*
X102447233Y-43683397D01*
X102522223Y-44011953D01*
X102522227Y-44011965D01*
X102633532Y-44330054D01*
X102779752Y-44633683D01*
X102779754Y-44633686D01*
X102959054Y-44919039D01*
X103169175Y-45182523D01*
X103407477Y-45420825D01*
X103670961Y-45630946D01*
X103956314Y-45810246D01*
X104259949Y-45956469D01*
X104498848Y-46040063D01*
X104578034Y-46067772D01*
X104578046Y-46067776D01*
X104906606Y-46142767D01*
X105241492Y-46180499D01*
X105241493Y-46180500D01*
X105241496Y-46180500D01*
X105578507Y-46180500D01*
X105578507Y-46180499D01*
X105913394Y-46142767D01*
X106241954Y-46067776D01*
X106560051Y-45956469D01*
X106863686Y-45810246D01*
X107149039Y-45630946D01*
X107412523Y-45420825D01*
X107650825Y-45182523D01*
X107860946Y-44919039D01*
X108040246Y-44633686D01*
X108186469Y-44330051D01*
X108297776Y-44011954D01*
X108372767Y-43683394D01*
X108410500Y-43348504D01*
X108410500Y-43011496D01*
X108372767Y-42676606D01*
X108297776Y-42348046D01*
X108186469Y-42029949D01*
X108040246Y-41726314D01*
X107860946Y-41440961D01*
X107650825Y-41177477D01*
X107412523Y-40939175D01*
X107149039Y-40729054D01*
X106863686Y-40549754D01*
X106863683Y-40549752D01*
X106560054Y-40403532D01*
X106241965Y-40292227D01*
X106241953Y-40292223D01*
X105913397Y-40217233D01*
X105913381Y-40217231D01*
X105578508Y-40179500D01*
X105578504Y-40179500D01*
X105241496Y-40179500D01*
X105241491Y-40179500D01*
X104906618Y-40217231D01*
X104906602Y-40217233D01*
X104578046Y-40292223D01*
X104578034Y-40292227D01*
X104259945Y-40403532D01*
X103956316Y-40549752D01*
X103670962Y-40729053D01*
X103407477Y-40939174D01*
X103169174Y-41177477D01*
X102959053Y-41440962D01*
X102779752Y-41726316D01*
X102633532Y-42029945D01*
X102522227Y-42348034D01*
X102522223Y-42348046D01*
X102447233Y-42676602D01*
X102447231Y-42676618D01*
X102409500Y-43011491D01*
X65230499Y-43011491D01*
X65192767Y-42676606D01*
X65117776Y-42348046D01*
X65006469Y-42029949D01*
X64860246Y-41726314D01*
X64680946Y-41440961D01*
X64470825Y-41177477D01*
X64232523Y-40939175D01*
X63969039Y-40729054D01*
X63683686Y-40549754D01*
X63683683Y-40549752D01*
X63380054Y-40403532D01*
X63061965Y-40292227D01*
X63061953Y-40292223D01*
X62733397Y-40217233D01*
X62733381Y-40217231D01*
X62398508Y-40179500D01*
X62398504Y-40179500D01*
X62061496Y-40179500D01*
X62061491Y-40179500D01*
X61726618Y-40217231D01*
X61726602Y-40217233D01*
X61398046Y-40292223D01*
X61398034Y-40292227D01*
X61079945Y-40403532D01*
X60776316Y-40549752D01*
X60490962Y-40729053D01*
X60227477Y-40939174D01*
X59989174Y-41177477D01*
X59779053Y-41440962D01*
X59599752Y-41726316D01*
X59453532Y-42029945D01*
X59342227Y-42348034D01*
X59342223Y-42348046D01*
X59267233Y-42676602D01*
X59267231Y-42676618D01*
X59229500Y-43011491D01*
X58620500Y-43011491D01*
X58620500Y-42044411D01*
X58640185Y-41977372D01*
X58656819Y-41956730D01*
X61006730Y-39606819D01*
X61068053Y-39573334D01*
X61094411Y-39570500D01*
X106545588Y-39570500D01*
X106612627Y-39590185D01*
G37*
%TD.AperFunction*%
%TD*%
%TA.AperFunction,Conductor*%
%TO.N,+3V3*%
G36*
X61735764Y-95538156D02*
G01*
X61770103Y-95570240D01*
X61844316Y-95639582D01*
X61844326Y-95639590D01*
X61844338Y-95639600D01*
X61949778Y-95722482D01*
X61949788Y-95722488D01*
X61949790Y-95722490D01*
X62047090Y-95782983D01*
X62139387Y-95824888D01*
X62139389Y-95824888D01*
X62139395Y-95824891D01*
X62229838Y-95852028D01*
X62229842Y-95852028D01*
X62229850Y-95852031D01*
X62321648Y-95868238D01*
X62521927Y-95883150D01*
X62708387Y-95895360D01*
X62730161Y-95896786D01*
X62731076Y-95896882D01*
X63018637Y-95938566D01*
X63026332Y-95943143D01*
X63028537Y-95951822D01*
X63028435Y-95952415D01*
X62867227Y-96767021D01*
X62862260Y-96774472D01*
X62858021Y-96776227D01*
X62043381Y-96937442D01*
X62034600Y-96935687D01*
X62029633Y-96928236D01*
X62029536Y-96927677D01*
X61989457Y-96656699D01*
X61989358Y-96655777D01*
X61974150Y-96430927D01*
X61970517Y-96361759D01*
X61949528Y-96169498D01*
X61902159Y-96014278D01*
X61861670Y-95933949D01*
X61837615Y-95896882D01*
X61806790Y-95849382D01*
X61726115Y-95748156D01*
X61726110Y-95748150D01*
X61629183Y-95644765D01*
X61626024Y-95636386D01*
X61629444Y-95628491D01*
X61719504Y-95538431D01*
X61727776Y-95535005D01*
X61735764Y-95538156D01*
G37*
%TD.AperFunction*%
%TD*%
%TA.AperFunction,Conductor*%
%TO.N,+3V3*%
G36*
X65383415Y-52807564D02*
G01*
X66198021Y-52968772D01*
X66205472Y-52973739D01*
X66207227Y-52977978D01*
X66368442Y-53792618D01*
X66366687Y-53801399D01*
X66359236Y-53806366D01*
X66358677Y-53806463D01*
X66087699Y-53846542D01*
X66086777Y-53846641D01*
X65862044Y-53861841D01*
X65861868Y-53861852D01*
X65792749Y-53865482D01*
X65600496Y-53886472D01*
X65445276Y-53933840D01*
X65364952Y-53974328D01*
X65364938Y-53974336D01*
X65280382Y-54029209D01*
X65179160Y-54109881D01*
X65075765Y-54206817D01*
X65067386Y-54209975D01*
X65059490Y-54206554D01*
X64969432Y-54116496D01*
X64966005Y-54108223D01*
X64969156Y-54100235D01*
X65070582Y-53991683D01*
X65084218Y-53974336D01*
X65153482Y-53886221D01*
X65153485Y-53886216D01*
X65153490Y-53886210D01*
X65213983Y-53788910D01*
X65255888Y-53696613D01*
X65255891Y-53696604D01*
X65283028Y-53606162D01*
X65283028Y-53606160D01*
X65283028Y-53606159D01*
X65283031Y-53606150D01*
X65299238Y-53514352D01*
X65314150Y-53314073D01*
X65314154Y-53314021D01*
X65327786Y-53105838D01*
X65327882Y-53104924D01*
X65369566Y-52817360D01*
X65374143Y-52809667D01*
X65382822Y-52807462D01*
X65383415Y-52807564D01*
G37*
%TD.AperFunction*%
%TD*%
%TA.AperFunction,Conductor*%
%TO.N,/I2C_B_SDA*%
G36*
X61735764Y-98078156D02*
G01*
X61770103Y-98110240D01*
X61844316Y-98179582D01*
X61844326Y-98179590D01*
X61844338Y-98179600D01*
X61949778Y-98262482D01*
X61949788Y-98262488D01*
X61949790Y-98262490D01*
X62047090Y-98322983D01*
X62139387Y-98364888D01*
X62139389Y-98364888D01*
X62139395Y-98364891D01*
X62229838Y-98392028D01*
X62229842Y-98392028D01*
X62229850Y-98392031D01*
X62321648Y-98408238D01*
X62521927Y-98423150D01*
X62708387Y-98435360D01*
X62730161Y-98436786D01*
X62731076Y-98436882D01*
X63018637Y-98478566D01*
X63026332Y-98483143D01*
X63028537Y-98491822D01*
X63028435Y-98492415D01*
X62867227Y-99307021D01*
X62862260Y-99314472D01*
X62858021Y-99316227D01*
X62043381Y-99477442D01*
X62034600Y-99475687D01*
X62029633Y-99468236D01*
X62029536Y-99467677D01*
X61989457Y-99196699D01*
X61989358Y-99195777D01*
X61974150Y-98970927D01*
X61970517Y-98901759D01*
X61949528Y-98709498D01*
X61902159Y-98554278D01*
X61861670Y-98473949D01*
X61837615Y-98436882D01*
X61806790Y-98389382D01*
X61726115Y-98288156D01*
X61726110Y-98288150D01*
X61629183Y-98184765D01*
X61626024Y-98176386D01*
X61629444Y-98168491D01*
X61719504Y-98078431D01*
X61727776Y-98075005D01*
X61735764Y-98078156D01*
G37*
%TD.AperFunction*%
%TD*%
%TA.AperFunction,Conductor*%
%TO.N,/I2C_B_SDA*%
G36*
X65383415Y-47727564D02*
G01*
X66198021Y-47888772D01*
X66205472Y-47893739D01*
X66207227Y-47897978D01*
X66368442Y-48712618D01*
X66366687Y-48721399D01*
X66359236Y-48726366D01*
X66358677Y-48726463D01*
X66087699Y-48766542D01*
X66086777Y-48766641D01*
X65862044Y-48781841D01*
X65861868Y-48781852D01*
X65792749Y-48785482D01*
X65600496Y-48806472D01*
X65445276Y-48853840D01*
X65364952Y-48894328D01*
X65364938Y-48894336D01*
X65280382Y-48949209D01*
X65179160Y-49029881D01*
X65075765Y-49126817D01*
X65067386Y-49129975D01*
X65059490Y-49126554D01*
X64969432Y-49036496D01*
X64966005Y-49028223D01*
X64969156Y-49020235D01*
X65070582Y-48911683D01*
X65084218Y-48894336D01*
X65153482Y-48806221D01*
X65153485Y-48806216D01*
X65153490Y-48806210D01*
X65213983Y-48708910D01*
X65255888Y-48616613D01*
X65255891Y-48616604D01*
X65283028Y-48526162D01*
X65283028Y-48526160D01*
X65283028Y-48526159D01*
X65283031Y-48526150D01*
X65299238Y-48434352D01*
X65314150Y-48234073D01*
X65314154Y-48234021D01*
X65327786Y-48025838D01*
X65327882Y-48024924D01*
X65369566Y-47737360D01*
X65374143Y-47729667D01*
X65382822Y-47727462D01*
X65383415Y-47727564D01*
G37*
%TD.AperFunction*%
%TD*%
%TA.AperFunction,Conductor*%
%TO.N,/BTN_C*%
G36*
X66814210Y-65258276D02*
G01*
X66820532Y-65264617D01*
X66821373Y-65268071D01*
X66836979Y-65448644D01*
X66836980Y-65448647D01*
X66865570Y-65586484D01*
X66865577Y-65586509D01*
X66905747Y-65724999D01*
X66905752Y-65725015D01*
X66954109Y-65856324D01*
X66957720Y-65866129D01*
X66999800Y-65960121D01*
X67017970Y-66000707D01*
X67095102Y-66134637D01*
X67145608Y-66222334D01*
X67237589Y-66335827D01*
X67255305Y-66357687D01*
X67257851Y-66366272D01*
X67254488Y-66373327D01*
X67163899Y-66463916D01*
X67155626Y-66467343D01*
X67147610Y-66464165D01*
X67133134Y-66450546D01*
X67133127Y-66450541D01*
X67133123Y-66450537D01*
X67097339Y-66422860D01*
X67057558Y-66392091D01*
X67026891Y-66373327D01*
X66965604Y-66335828D01*
X66965603Y-66335827D01*
X66748219Y-66239083D01*
X66748211Y-66239080D01*
X66531296Y-66180807D01*
X66531294Y-66180806D01*
X66343355Y-66163134D01*
X66343351Y-66163134D01*
X66206707Y-66178379D01*
X66198105Y-66175890D01*
X66193782Y-66168048D01*
X66193780Y-66165478D01*
X66268534Y-65486183D01*
X66272845Y-65478337D01*
X66275700Y-65476650D01*
X66805256Y-65258262D01*
X66814210Y-65258276D01*
G37*
%TD.AperFunction*%
%TD*%
%TA.AperFunction,Conductor*%
%TO.N,/BTN_C*%
G36*
X64010509Y-103158445D02*
G01*
X64100567Y-103248503D01*
X64103994Y-103256776D01*
X64100843Y-103264764D01*
X63999415Y-103373318D01*
X63999398Y-103373338D01*
X63916511Y-103478788D01*
X63916506Y-103478794D01*
X63856017Y-103576089D01*
X63814113Y-103668383D01*
X63814110Y-103668391D01*
X63786970Y-103758841D01*
X63770761Y-103850646D01*
X63755845Y-104050980D01*
X63742212Y-104259162D01*
X63742116Y-104260075D01*
X63700434Y-104547636D01*
X63695856Y-104555332D01*
X63687177Y-104557537D01*
X63686584Y-104557435D01*
X62871978Y-104396227D01*
X62864527Y-104391260D01*
X62862772Y-104387021D01*
X62837469Y-104259162D01*
X62701557Y-103572380D01*
X62703312Y-103563600D01*
X62710763Y-103558633D01*
X62711317Y-103558536D01*
X62982314Y-103518455D01*
X62983208Y-103518359D01*
X63208073Y-103503150D01*
X63277240Y-103499517D01*
X63469501Y-103478528D01*
X63624722Y-103431159D01*
X63705051Y-103390670D01*
X63749659Y-103361720D01*
X63789617Y-103335790D01*
X63789620Y-103335787D01*
X63789624Y-103335785D01*
X63890838Y-103255119D01*
X63994235Y-103158182D01*
X64002613Y-103155024D01*
X64010509Y-103158445D01*
G37*
%TD.AperFunction*%
%TD*%
%TA.AperFunction,Conductor*%
%TO.N,/BTN_D*%
G36*
X100465558Y-105437478D02*
G01*
X100556096Y-105528016D01*
X100559523Y-105536289D01*
X100556578Y-105544051D01*
X100481464Y-105628777D01*
X100481458Y-105628784D01*
X100403347Y-105735014D01*
X100320126Y-105868433D01*
X100320115Y-105868451D01*
X100240952Y-106016451D01*
X100240951Y-106016454D01*
X100165444Y-106180124D01*
X100097015Y-106352830D01*
X100097009Y-106352847D01*
X99990589Y-106698478D01*
X99929065Y-107015978D01*
X99929062Y-107015995D01*
X99911142Y-107269898D01*
X99907141Y-107277909D01*
X99898647Y-107280745D01*
X99895004Y-107279888D01*
X99063784Y-106936562D01*
X99057446Y-106930236D01*
X98714551Y-106100059D01*
X98714560Y-106091104D01*
X98720898Y-106084778D01*
X98724774Y-106083907D01*
X98735974Y-106083340D01*
X98876224Y-106076253D01*
X99034013Y-106056842D01*
X99209671Y-106023647D01*
X99209696Y-106023640D01*
X99209700Y-106023640D01*
X99302982Y-106000208D01*
X99386912Y-105979126D01*
X99567105Y-105923135D01*
X99742719Y-105858054D01*
X100055141Y-105713010D01*
X100295203Y-105565470D01*
X100449802Y-105436758D01*
X100458350Y-105434100D01*
X100465558Y-105437478D01*
G37*
%TD.AperFunction*%
%TD*%
%TA.AperFunction,Conductor*%
%TO.N,/BTN_D*%
G36*
X104377222Y-65488749D02*
G01*
X104379205Y-65490732D01*
X104906294Y-66162531D01*
X104908705Y-66171155D01*
X104904311Y-66178958D01*
X104897843Y-66181429D01*
X104883079Y-66182382D01*
X104880357Y-66182558D01*
X104855849Y-66188211D01*
X104819085Y-66196692D01*
X104761166Y-66221784D01*
X104697491Y-66263398D01*
X104639591Y-66315449D01*
X104580936Y-66384754D01*
X104531596Y-66460351D01*
X104464238Y-66615204D01*
X104446637Y-66720234D01*
X104441890Y-66727827D01*
X104435098Y-66730000D01*
X104305245Y-66730000D01*
X104296972Y-66726573D01*
X104293648Y-66719845D01*
X104283563Y-66644165D01*
X104283562Y-66644156D01*
X104259989Y-66568818D01*
X104224606Y-66490058D01*
X104155112Y-66384755D01*
X104134207Y-66353077D01*
X104134203Y-66353071D01*
X104031809Y-66255319D01*
X104031807Y-66255318D01*
X103926618Y-66198649D01*
X103839255Y-66183368D01*
X103831696Y-66178567D01*
X103829746Y-66169827D01*
X103832066Y-66164621D01*
X104360795Y-65490732D01*
X104368598Y-65486338D01*
X104377222Y-65488749D01*
G37*
%TD.AperFunction*%
%TD*%
%TA.AperFunction,Conductor*%
%TO.N,Net-(U6-OUTN)*%
G36*
X81629516Y-113785753D02*
G01*
X81631179Y-113787848D01*
X81688187Y-113879527D01*
X81777203Y-114022683D01*
X81780554Y-114028071D01*
X81911380Y-114207630D01*
X81911398Y-114207654D01*
X82060587Y-114394261D01*
X82060604Y-114394281D01*
X82376848Y-114744810D01*
X82376873Y-114744836D01*
X82671699Y-115023046D01*
X82765020Y-115095594D01*
X82918203Y-115214679D01*
X82918208Y-115214682D01*
X82918211Y-115214684D01*
X83101140Y-115322811D01*
X83106519Y-115329971D01*
X83105259Y-115338836D01*
X83104972Y-115339298D01*
X82128846Y-116828291D01*
X82121444Y-116833331D01*
X82112646Y-116831661D01*
X82110537Y-116829890D01*
X80974340Y-115621420D01*
X80971170Y-115613046D01*
X80974850Y-115604882D01*
X80976075Y-115603877D01*
X81026412Y-115568081D01*
X81112700Y-115494891D01*
X81192061Y-115413375D01*
X81270263Y-115316844D01*
X81340281Y-115213184D01*
X81406291Y-115095592D01*
X81462828Y-114973091D01*
X81511707Y-114841841D01*
X81550206Y-114709046D01*
X81595940Y-114446678D01*
X81600587Y-114212378D01*
X81571279Y-114022685D01*
X81520034Y-113888479D01*
X81520284Y-113879527D01*
X81522688Y-113876035D01*
X81612971Y-113785752D01*
X81621243Y-113782326D01*
X81629516Y-113785753D01*
G37*
%TD.AperFunction*%
%TD*%
%TA.AperFunction,Conductor*%
%TO.N,Net-(U6-OUTN)*%
G36*
X76085030Y-83787418D02*
G01*
X76958950Y-84148437D01*
X76965288Y-84154763D01*
X76965297Y-84163718D01*
X76964887Y-84164604D01*
X76089262Y-85866561D01*
X76082430Y-85872349D01*
X76073505Y-85871612D01*
X76067717Y-85864780D01*
X76067184Y-85861990D01*
X76065492Y-85836739D01*
X76052790Y-85780764D01*
X76032807Y-85734562D01*
X76004502Y-85695286D01*
X75970064Y-85665519D01*
X75922281Y-85641207D01*
X75922280Y-85641206D01*
X75922279Y-85641206D01*
X75922274Y-85641205D01*
X75869202Y-85627930D01*
X75869199Y-85627929D01*
X75869197Y-85627929D01*
X75796721Y-85624744D01*
X75796720Y-85624744D01*
X75722691Y-85634248D01*
X75722687Y-85634249D01*
X75642057Y-85656557D01*
X75642048Y-85656560D01*
X75642047Y-85656561D01*
X75628134Y-85662460D01*
X75570272Y-85686997D01*
X75494632Y-85738034D01*
X75485857Y-85739820D01*
X75479815Y-85736608D01*
X75388675Y-85645468D01*
X75385248Y-85637195D01*
X75388505Y-85629096D01*
X75409808Y-85606900D01*
X75492119Y-85508134D01*
X75572712Y-85392887D01*
X75657540Y-85250968D01*
X75737892Y-85094991D01*
X75813983Y-84924293D01*
X75882742Y-84745060D01*
X75989327Y-84388086D01*
X76050905Y-84060461D01*
X76068890Y-83797432D01*
X76072874Y-83789414D01*
X76081361Y-83786559D01*
X76085030Y-83787418D01*
G37*
%TD.AperFunction*%
%TD*%
%TA.AperFunction,Conductor*%
%TO.N,Net-(SPK1-+)*%
G36*
X91563113Y-83787762D02*
G01*
X91569439Y-83794100D01*
X91570323Y-83798346D01*
X91571322Y-83851315D01*
X91571324Y-83851354D01*
X91583401Y-84012870D01*
X91607240Y-84180108D01*
X91607242Y-84180119D01*
X91644784Y-84363439D01*
X91693420Y-84547629D01*
X91752780Y-84732350D01*
X91820888Y-84911836D01*
X91820901Y-84911868D01*
X91970109Y-85228428D01*
X91970113Y-85228436D01*
X92120764Y-85471420D01*
X92120766Y-85471422D01*
X92120767Y-85471424D01*
X92252568Y-85629154D01*
X92255243Y-85637700D01*
X92251863Y-85644929D01*
X92160099Y-85736693D01*
X92151826Y-85740120D01*
X92145401Y-85738198D01*
X92134523Y-85731050D01*
X92060702Y-85682540D01*
X92060699Y-85682539D01*
X92060696Y-85682537D01*
X91923974Y-85635637D01*
X91923965Y-85635635D01*
X91801780Y-85624798D01*
X91706588Y-85645601D01*
X91706583Y-85645603D01*
X91636114Y-85694617D01*
X91609205Y-85731050D01*
X91609197Y-85731064D01*
X91588598Y-85776581D01*
X91588598Y-85776582D01*
X91574824Y-85834570D01*
X91572905Y-85862196D01*
X91568913Y-85870212D01*
X91560422Y-85873057D01*
X91552406Y-85869065D01*
X91550829Y-85866738D01*
X90675112Y-84164604D01*
X90674375Y-84155679D01*
X90680163Y-84148847D01*
X90681037Y-84148442D01*
X91554158Y-83787753D01*
X91563113Y-83787762D01*
G37*
%TD.AperFunction*%
%TD*%
%TA.AperFunction,Conductor*%
%TO.N,Net-(SPK1-+)*%
G36*
X86054283Y-113755116D02*
G01*
X86056987Y-113757133D01*
X86146475Y-113846621D01*
X86149902Y-113854894D01*
X86149044Y-113859292D01*
X86134230Y-113895814D01*
X86134227Y-113895823D01*
X86108970Y-113984217D01*
X86108966Y-113984236D01*
X86093016Y-114082005D01*
X86086095Y-114196574D01*
X86086094Y-114196576D01*
X86089750Y-114318523D01*
X86104361Y-114449600D01*
X86104364Y-114449619D01*
X86129807Y-114584521D01*
X86129809Y-114584528D01*
X86210445Y-114852317D01*
X86259469Y-114959204D01*
X86323469Y-115098741D01*
X86323471Y-115098744D01*
X86323472Y-115098746D01*
X86459696Y-115310164D01*
X86459699Y-115310169D01*
X86611741Y-115481265D01*
X86764945Y-115603729D01*
X86769268Y-115611571D01*
X86766779Y-115620173D01*
X86766164Y-115620882D01*
X85629462Y-116829890D01*
X85621298Y-116833570D01*
X85612924Y-116830400D01*
X85611155Y-116828293D01*
X84635009Y-115339271D01*
X84633340Y-115330474D01*
X84638380Y-115323072D01*
X84638786Y-115322818D01*
X84809445Y-115221360D01*
X84944674Y-115119252D01*
X85082729Y-114999729D01*
X85239622Y-114847546D01*
X85393696Y-114682364D01*
X85546601Y-114502943D01*
X85689009Y-114320444D01*
X85912656Y-113992204D01*
X86038428Y-113759833D01*
X86045376Y-113754192D01*
X86054283Y-113755116D01*
G37*
%TD.AperFunction*%
%TD*%
M02*
