%TF.GenerationSoftware,KiCad,Pcbnew,9.0.6*%
%TF.CreationDate,2026-01-25T13:50:40+09:00*%
%TF.ProjectId,xiaozhi-with-ken-interface,7869616f-7a68-4692-9d77-6974682d6b65,rev?*%
%TF.SameCoordinates,Original*%
%TF.FileFunction,Copper,L4,Bot*%
%TF.FilePolarity,Positive*%
%FSLAX46Y46*%
G04 Gerber Fmt 4.6, Leading zero omitted, Abs format (unit mm)*
G04 Created by KiCad (PCBNEW 9.0.6) date 2026-01-25 13:50:40*
%MOMM*%
%LPD*%
G01*
G04 APERTURE LIST*
%TA.AperFunction,ComponentPad*%
%ADD10C,5.600000*%
%TD*%
%TA.AperFunction,ComponentPad*%
%ADD11R,1.524000X1.524000*%
%TD*%
%TA.AperFunction,ComponentPad*%
%ADD12O,1.524000X1.524000*%
%TD*%
%TA.AperFunction,ComponentPad*%
%ADD13O,1.750000X3.000000*%
%TD*%
%TA.AperFunction,ComponentPad*%
%ADD14O,2.500000X4.000000*%
%TD*%
%TA.AperFunction,ComponentPad*%
%ADD15R,1.700000X1.700000*%
%TD*%
%TA.AperFunction,ComponentPad*%
%ADD16C,1.700000*%
%TD*%
%TA.AperFunction,ComponentPad*%
%ADD17O,1.700000X1.700000*%
%TD*%
%TA.AperFunction,ViaPad*%
%ADD18C,0.800000*%
%TD*%
%TA.AperFunction,Conductor*%
%ADD19C,0.150000*%
%TD*%
G04 APERTURE END LIST*
D10*
%TO.P,H1,1,1*%
%TO.N,unconnected-(H1-Pad1)*%
X105410000Y-116840000D03*
%TD*%
%TO.P,H2,1,1*%
%TO.N,unconnected-(H2-Pad1)*%
X62230000Y-116840000D03*
%TD*%
%TO.P,H4,1,1*%
%TO.N,unconnected-(H4-Pad1)*%
X105410000Y-43180000D03*
%TD*%
D11*
%TO.P,M1,GND*%
%TO.N,GND*%
X87511900Y-63119000D03*
D12*
%TO.P,M1,L/R*%
X79891900Y-63119000D03*
%TO.P,M1,SCK*%
%TO.N,/I2S_A_SCK*%
X79891900Y-68199000D03*
%TO.P,M1,SD*%
%TO.N,/I2S_A_SD*%
X87511900Y-68199000D03*
%TO.P,M1,VDD*%
%TO.N,+3V3*%
X87511900Y-65659000D03*
%TO.P,M1,WS*%
%TO.N,/I2S_A_WS*%
X79891900Y-65659000D03*
%TD*%
D13*
%TO.P,U6,1,Vin*%
%TO.N,+3V3*%
X76200000Y-104386000D03*
%TO.P,U6,2,GND*%
%TO.N,GND*%
X78740000Y-104386000D03*
%TO.P,U6,3,~{SD_MODE}*%
%TO.N,+3V3*%
X81280000Y-104386000D03*
%TO.P,U6,4,GAIN*%
%TO.N,GND*%
X83820000Y-104386000D03*
%TO.P,U6,5,DIN*%
%TO.N,/I2S_B_DIN*%
X86360000Y-104386000D03*
%TO.P,U6,6,BCLK*%
%TO.N,/I2S_B_BCLK*%
X88900000Y-104386000D03*
%TO.P,U6,7,LRC*%
%TO.N,/I2S_B_LRC*%
X91440000Y-104386000D03*
D14*
%TO.P,U6,8,OUTP*%
%TO.N,Net-(SPK1-+)*%
X85620000Y-116840000D03*
%TO.P,U6,9,OUTN*%
%TO.N,Net-(U6-OUTN)*%
X82120000Y-116840000D03*
%TD*%
D10*
%TO.P,H3,1,1*%
%TO.N,unconnected-(H3-Pad1)*%
X62230000Y-43180000D03*
%TD*%
D15*
%TO.P,U3,1,1*%
%TO.N,/ADC_A*%
X62865000Y-71374000D03*
D16*
%TO.P,U3,2,2*%
%TO.N,/IO17*%
X65405000Y-71374000D03*
%TO.P,U3,3,3*%
%TO.N,/ADC_B*%
X62865000Y-73914000D03*
%TO.P,U3,4,4*%
%TO.N,/IO18*%
X65405000Y-73914000D03*
%TO.P,U3,5,5*%
%TO.N,GND*%
X62865000Y-76454000D03*
%TO.P,U3,6,6*%
%TO.N,/IO19*%
X65405000Y-76454000D03*
%TO.P,U3,7,7*%
%TO.N,/I2S_A_WS*%
X62865000Y-78994000D03*
%TO.P,U3,8,8*%
%TO.N,/IO20*%
X65405000Y-78994000D03*
%TO.P,U3,9,9*%
%TO.N,/I2S_A_SCK*%
X62865000Y-81534000D03*
%TO.P,U3,10,10*%
%TO.N,+3V3*%
X65405000Y-81534000D03*
%TO.P,U3,11,11*%
%TO.N,/I2S_A_SD*%
X62865000Y-84074000D03*
%TO.P,U3,12,12*%
%TO.N,/I2C_A_SDA*%
X65405000Y-84074000D03*
%TO.P,U3,13,13*%
%TO.N,+5V*%
X62865000Y-86614000D03*
%TO.P,U3,14,14*%
%TO.N,/I2C_A_SCL*%
X65405000Y-86614000D03*
%TO.P,U3,15,15*%
%TO.N,/I2S_B_DIN*%
X62865000Y-89154000D03*
%TO.P,U3,16,16*%
%TO.N,GND*%
X65405000Y-89154000D03*
%TO.P,U3,17,17*%
%TO.N,/I2S_B_BCLK*%
X62865000Y-91694000D03*
%TO.P,U3,18,18*%
%TO.N,/IO11*%
X65405000Y-91694000D03*
%TO.P,U3,19,19*%
%TO.N,/I2S_B_LRC*%
X62865000Y-94234000D03*
%TO.P,U3,20,20*%
%TO.N,/IO13*%
X65405000Y-94234000D03*
%TO.P,U3,21,21*%
%TO.N,+3V3*%
X62865000Y-96774000D03*
%TO.P,U3,22,22*%
%TO.N,/IO12*%
X65405000Y-96774000D03*
%TO.P,U3,23,23*%
%TO.N,/I2C_B_SDA*%
X62865000Y-99314000D03*
%TO.P,U3,24,24*%
%TO.N,/IO10*%
X65405000Y-99314000D03*
%TO.P,U3,25,25*%
%TO.N,/I2C_B_SCL*%
X62865000Y-101854000D03*
%TO.P,U3,26,26*%
%TO.N,/BTN_A*%
X65405000Y-101854000D03*
%TO.P,U3,27,27*%
%TO.N,/BTN_C*%
X62865000Y-104394000D03*
%TO.P,U3,28,28*%
%TO.N,/BTN_B*%
X65405000Y-104394000D03*
%TO.P,U3,29,29*%
%TO.N,/BTN_D*%
X62865000Y-106934000D03*
%TO.P,U3,30,30*%
%TO.N,GND*%
X65405000Y-106934000D03*
%TD*%
D15*
%TO.P,U5,1,1*%
%TO.N,/BTN_D*%
X99060000Y-106934000D03*
D16*
%TO.P,U5,2,2*%
%TO.N,GND*%
X96520000Y-106934000D03*
%TO.P,U5,3,3*%
%TO.N,/BTN_C*%
X99060000Y-104394000D03*
%TO.P,U5,4,4*%
%TO.N,/BTN_B*%
X96520000Y-104394000D03*
%TO.P,U5,5,5*%
%TO.N,/I2C_B_SCL*%
X99060000Y-101854000D03*
%TO.P,U5,6,6*%
%TO.N,/BTN_A*%
X96520000Y-101854000D03*
%TO.P,U5,7,7*%
%TO.N,/I2C_B_SDA*%
X99060000Y-99314000D03*
%TO.P,U5,8,8*%
%TO.N,/IO10*%
X96520000Y-99314000D03*
%TO.P,U5,9,9*%
%TO.N,+3V3*%
X99060000Y-96774000D03*
%TO.P,U5,10,10*%
%TO.N,/IO12*%
X96520000Y-96774000D03*
%TO.P,U5,11,11*%
%TO.N,/I2S_B_LRC*%
X99060000Y-94234000D03*
%TO.P,U5,12,12*%
%TO.N,/IO13*%
X96520000Y-94234000D03*
%TO.P,U5,13,13*%
%TO.N,/I2S_B_BCLK*%
X99060000Y-91694000D03*
%TO.P,U5,14,14*%
%TO.N,/IO11*%
X96520000Y-91694000D03*
%TO.P,U5,15,15*%
%TO.N,/I2S_B_DIN*%
X99060000Y-89154000D03*
%TO.P,U5,16,16*%
%TO.N,GND*%
X96520000Y-89154000D03*
%TO.P,U5,17,17*%
%TO.N,+5V*%
X99060000Y-86614000D03*
%TO.P,U5,18,18*%
%TO.N,/I2C_A_SCL*%
X96520000Y-86614000D03*
%TO.P,U5,19,19*%
%TO.N,/I2S_A_SD*%
X99060000Y-84074000D03*
%TO.P,U5,20,20*%
%TO.N,/I2C_A_SDA*%
X96520000Y-84074000D03*
%TO.P,U5,21,21*%
%TO.N,/I2S_A_SCK*%
X99060000Y-81534000D03*
%TO.P,U5,22,22*%
%TO.N,+3V3*%
X96520000Y-81534000D03*
%TO.P,U5,23,23*%
%TO.N,/I2S_A_WS*%
X99060000Y-78994000D03*
%TO.P,U5,24,24*%
%TO.N,/IO20*%
X96520000Y-78994000D03*
%TO.P,U5,25,25*%
%TO.N,GND*%
X99060000Y-76454000D03*
%TO.P,U5,26,26*%
%TO.N,/IO19*%
X96520000Y-76454000D03*
%TO.P,U5,27,27*%
%TO.N,/ADC_B*%
X99060000Y-73914000D03*
%TO.P,U5,28,28*%
%TO.N,/IO18*%
X96520000Y-73914000D03*
%TO.P,U5,29,29*%
%TO.N,/ADC_A*%
X99060000Y-71374000D03*
%TO.P,U5,30,30*%
%TO.N,/IO17*%
X96520000Y-71374000D03*
%TD*%
D15*
%TO.P,J1,1,Pin_1*%
%TO.N,GND*%
X66205000Y-55511000D03*
D17*
%TO.P,J1,2,Pin_2*%
%TO.N,+3V3*%
X66205000Y-52971000D03*
%TO.P,J1,3,Pin_3*%
%TO.N,/I2C_B_SCL*%
X66205000Y-50431000D03*
%TO.P,J1,4,Pin_4*%
%TO.N,/I2C_B_SDA*%
X66205000Y-47891000D03*
%TD*%
D18*
%TO.N,GND*%
X67818000Y-106934000D03*
X103124000Y-99314000D03*
X72644000Y-89154000D03*
X83820000Y-77724000D03*
X59436000Y-101981000D03*
X81280000Y-109601000D03*
X91059000Y-77724000D03*
X70358000Y-106934000D03*
X100711000Y-103124000D03*
X62230000Y-47879000D03*
X103124000Y-106934000D03*
X74930000Y-89154000D03*
X103124000Y-92964000D03*
X83820000Y-109601000D03*
X97790000Y-69596000D03*
X76200000Y-109601000D03*
X100711000Y-92964000D03*
X72644000Y-103124000D03*
X69850000Y-89154000D03*
X103124000Y-82804000D03*
X88900000Y-109601000D03*
X89535000Y-89154000D03*
X83820000Y-65786000D03*
X94615000Y-77724000D03*
X92456000Y-89154000D03*
X72644000Y-104521000D03*
X100711000Y-106934000D03*
X100711000Y-82804000D03*
X78359000Y-89154000D03*
X64135000Y-69596000D03*
X103124000Y-104394000D03*
X83820000Y-89154000D03*
%TO.N,+3V3*%
X81280000Y-98044000D03*
%TD*%
D19*
%TO.N,/I2S_B_DIN*%
X97790000Y-90424000D02*
X99060000Y-89154000D01*
X86360000Y-99568000D02*
X95504000Y-90424000D01*
X95504000Y-90424000D02*
X97790000Y-90424000D01*
X86360000Y-103886000D02*
X86360000Y-99568000D01*
%TO.N,+3V3*%
X87511900Y-65659000D02*
X89408000Y-67555100D01*
X81280000Y-106934000D02*
X81280000Y-103886000D01*
X81280000Y-103886000D02*
X81280000Y-98044000D01*
X76200000Y-106680000D02*
X77216000Y-107696000D01*
X80518000Y-107696000D02*
X81280000Y-106934000D01*
X89408000Y-74422000D02*
X96520000Y-81534000D01*
X76200000Y-103886000D02*
X76200000Y-106680000D01*
X77216000Y-107696000D02*
X80518000Y-107696000D01*
X89408000Y-67555100D02*
X89408000Y-74422000D01*
%TO.N,/I2C_B_SCL*%
X60706000Y-55930000D02*
X60706000Y-99695000D01*
X66205000Y-50431000D02*
X60706000Y-55930000D01*
X60706000Y-99695000D02*
X62865000Y-101854000D01*
%TO.N,/I2S_A_SD*%
X87511900Y-68199000D02*
X87511900Y-75827900D01*
X97790000Y-82804000D02*
X99060000Y-84074000D01*
X94488000Y-82804000D02*
X97790000Y-82804000D01*
X87511900Y-75827900D02*
X94488000Y-82804000D01*
%TO.N,/I2S_B_BCLK*%
X88900000Y-103886000D02*
X88900000Y-99568000D01*
X95504000Y-92964000D02*
X97790000Y-92964000D01*
X88900000Y-99568000D02*
X95504000Y-92964000D01*
X97790000Y-92964000D02*
X99060000Y-91694000D01*
%TO.N,/I2S_A_WS*%
X79891900Y-65659000D02*
X67826900Y-77724000D01*
X67826900Y-77724000D02*
X64135000Y-77724000D01*
X64135000Y-77724000D02*
X62865000Y-78994000D01*
%TO.N,/I2S_A_SCK*%
X67826900Y-80264000D02*
X64135000Y-80264000D01*
X79891900Y-68199000D02*
X67826900Y-80264000D01*
X64135000Y-80264000D02*
X62865000Y-81534000D01*
%TO.N,/I2S_B_LRC*%
X95504000Y-95504000D02*
X97790000Y-95504000D01*
X91440000Y-99568000D02*
X95504000Y-95504000D01*
X97790000Y-95504000D02*
X99060000Y-94234000D01*
X91440000Y-103886000D02*
X91440000Y-99568000D01*
%TD*%
%TA.AperFunction,Conductor*%
%TO.N,GND*%
G36*
X106612627Y-39590185D02*
G01*
X106633269Y-39606819D01*
X108983181Y-41956730D01*
X109016666Y-42018053D01*
X109019500Y-42044411D01*
X109019500Y-117975588D01*
X108999815Y-118042627D01*
X108983181Y-118063269D01*
X106633269Y-120413181D01*
X106571946Y-120446666D01*
X106545588Y-120449500D01*
X61094411Y-120449500D01*
X61027372Y-120429815D01*
X61006730Y-120413181D01*
X58656819Y-118063269D01*
X58623334Y-118001946D01*
X58620500Y-117975588D01*
X58620500Y-116671491D01*
X59229500Y-116671491D01*
X59229500Y-117008508D01*
X59267231Y-117343381D01*
X59267233Y-117343397D01*
X59342223Y-117671953D01*
X59342227Y-117671965D01*
X59453532Y-117990054D01*
X59599752Y-118293683D01*
X59599754Y-118293686D01*
X59779054Y-118579039D01*
X59989175Y-118842523D01*
X60227477Y-119080825D01*
X60490961Y-119290946D01*
X60776314Y-119470246D01*
X61079949Y-119616469D01*
X61318848Y-119700063D01*
X61398034Y-119727772D01*
X61398046Y-119727776D01*
X61726606Y-119802767D01*
X62061492Y-119840499D01*
X62061493Y-119840500D01*
X62061496Y-119840500D01*
X62398507Y-119840500D01*
X62398507Y-119840499D01*
X62733394Y-119802767D01*
X63061954Y-119727776D01*
X63380051Y-119616469D01*
X63683686Y-119470246D01*
X63969039Y-119290946D01*
X64232523Y-119080825D01*
X64470825Y-118842523D01*
X64680946Y-118579039D01*
X64860246Y-118293686D01*
X65006469Y-117990051D01*
X65103841Y-117711778D01*
X75269500Y-117711778D01*
X75269500Y-118000221D01*
X75269501Y-118000238D01*
X75307149Y-118286206D01*
X75307150Y-118286211D01*
X75307151Y-118286217D01*
X75381809Y-118564844D01*
X75381814Y-118564860D01*
X75492191Y-118831336D01*
X75492199Y-118831352D01*
X75636420Y-119081148D01*
X75636431Y-119081164D01*
X75812024Y-119310002D01*
X75812030Y-119310009D01*
X76015990Y-119513969D01*
X76015997Y-119513975D01*
X76149568Y-119616467D01*
X76244844Y-119689575D01*
X76244851Y-119689579D01*
X76494647Y-119833800D01*
X76494663Y-119833808D01*
X76761139Y-119944185D01*
X76761145Y-119944186D01*
X76761155Y-119944191D01*
X77039783Y-120018849D01*
X77325772Y-120056500D01*
X77325779Y-120056500D01*
X77614221Y-120056500D01*
X77614228Y-120056500D01*
X77900217Y-120018849D01*
X78178845Y-119944191D01*
X78178857Y-119944185D01*
X78178860Y-119944185D01*
X78445336Y-119833808D01*
X78445339Y-119833806D01*
X78445345Y-119833804D01*
X78695156Y-119689575D01*
X78924004Y-119513974D01*
X79127974Y-119310004D01*
X79303575Y-119081156D01*
X79447804Y-118831345D01*
X79448122Y-118830579D01*
X79558185Y-118564860D01*
X79558185Y-118564857D01*
X79558191Y-118564845D01*
X79632849Y-118286217D01*
X79670500Y-118000228D01*
X79670500Y-117711772D01*
X79632849Y-117425783D01*
X79558191Y-117147155D01*
X79558186Y-117147145D01*
X79558185Y-117147139D01*
X79447808Y-116880663D01*
X79447800Y-116880647D01*
X79303579Y-116630851D01*
X79303575Y-116630844D01*
X79127974Y-116401996D01*
X79127969Y-116401990D01*
X78924009Y-116198030D01*
X78924002Y-116198024D01*
X78756316Y-116069355D01*
X78695156Y-116022425D01*
X78695150Y-116022421D01*
X78695148Y-116022420D01*
X78614465Y-115975837D01*
X80669500Y-115975837D01*
X80669500Y-117704162D01*
X80705215Y-117929660D01*
X80775770Y-118146803D01*
X80843626Y-118279976D01*
X80879421Y-118350228D01*
X81013621Y-118534937D01*
X81175063Y-118696379D01*
X81359772Y-118830579D01*
X81409171Y-118855749D01*
X81563196Y-118934229D01*
X81563198Y-118934229D01*
X81563201Y-118934231D01*
X81679592Y-118972049D01*
X81780339Y-119004784D01*
X82005838Y-119040500D01*
X82005843Y-119040500D01*
X82234162Y-119040500D01*
X82459660Y-119004784D01*
X82676799Y-118934231D01*
X82880228Y-118830579D01*
X83064937Y-118696379D01*
X83226379Y-118534937D01*
X83360579Y-118350228D01*
X83464231Y-118146799D01*
X83534784Y-117929660D01*
X83570500Y-117704162D01*
X83570500Y-115975837D01*
X84169500Y-115975837D01*
X84169500Y-117704162D01*
X84205215Y-117929660D01*
X84275770Y-118146803D01*
X84343626Y-118279976D01*
X84379421Y-118350228D01*
X84513621Y-118534937D01*
X84675063Y-118696379D01*
X84859772Y-118830579D01*
X84909171Y-118855749D01*
X85063196Y-118934229D01*
X85063198Y-118934229D01*
X85063201Y-118934231D01*
X85179592Y-118972049D01*
X85280339Y-119004784D01*
X85505838Y-119040500D01*
X85505843Y-119040500D01*
X85734162Y-119040500D01*
X85959660Y-119004784D01*
X86176799Y-118934231D01*
X86380228Y-118830579D01*
X86564937Y-118696379D01*
X86726379Y-118534937D01*
X86860579Y-118350228D01*
X86964231Y-118146799D01*
X87034784Y-117929660D01*
X87069294Y-117711778D01*
X87969500Y-117711778D01*
X87969500Y-118000221D01*
X87969501Y-118000238D01*
X88007149Y-118286206D01*
X88007150Y-118286211D01*
X88007151Y-118286217D01*
X88081809Y-118564844D01*
X88081814Y-118564860D01*
X88192191Y-118831336D01*
X88192199Y-118831352D01*
X88336420Y-119081148D01*
X88336431Y-119081164D01*
X88512024Y-119310002D01*
X88512030Y-119310009D01*
X88715990Y-119513969D01*
X88715997Y-119513975D01*
X88849568Y-119616467D01*
X88944844Y-119689575D01*
X88944851Y-119689579D01*
X89194647Y-119833800D01*
X89194663Y-119833808D01*
X89461139Y-119944185D01*
X89461145Y-119944186D01*
X89461155Y-119944191D01*
X89739783Y-120018849D01*
X90025772Y-120056500D01*
X90025779Y-120056500D01*
X90314221Y-120056500D01*
X90314228Y-120056500D01*
X90600217Y-120018849D01*
X90878845Y-119944191D01*
X90878857Y-119944185D01*
X90878860Y-119944185D01*
X91145336Y-119833808D01*
X91145339Y-119833806D01*
X91145345Y-119833804D01*
X91395156Y-119689575D01*
X91624004Y-119513974D01*
X91827974Y-119310004D01*
X92003575Y-119081156D01*
X92147804Y-118831345D01*
X92148122Y-118830579D01*
X92258185Y-118564860D01*
X92258185Y-118564857D01*
X92258191Y-118564845D01*
X92332849Y-118286217D01*
X92370500Y-118000228D01*
X92370500Y-117711772D01*
X92332849Y-117425783D01*
X92258191Y-117147155D01*
X92258186Y-117147145D01*
X92258185Y-117147139D01*
X92147808Y-116880663D01*
X92147800Y-116880647D01*
X92060833Y-116730017D01*
X92027043Y-116671491D01*
X102409500Y-116671491D01*
X102409500Y-117008508D01*
X102447231Y-117343381D01*
X102447233Y-117343397D01*
X102522223Y-117671953D01*
X102522227Y-117671965D01*
X102633532Y-117990054D01*
X102779752Y-118293683D01*
X102779754Y-118293686D01*
X102959054Y-118579039D01*
X103169175Y-118842523D01*
X103407477Y-119080825D01*
X103670961Y-119290946D01*
X103956314Y-119470246D01*
X104259949Y-119616469D01*
X104498848Y-119700063D01*
X104578034Y-119727772D01*
X104578046Y-119727776D01*
X104906606Y-119802767D01*
X105241492Y-119840499D01*
X105241493Y-119840500D01*
X105241496Y-119840500D01*
X105578507Y-119840500D01*
X105578507Y-119840499D01*
X105913394Y-119802767D01*
X106241954Y-119727776D01*
X106560051Y-119616469D01*
X106863686Y-119470246D01*
X107149039Y-119290946D01*
X107412523Y-119080825D01*
X107650825Y-118842523D01*
X107860946Y-118579039D01*
X108040246Y-118293686D01*
X108186469Y-117990051D01*
X108297776Y-117671954D01*
X108372767Y-117343394D01*
X108410500Y-117008504D01*
X108410500Y-116671496D01*
X108372767Y-116336606D01*
X108297776Y-116008046D01*
X108186469Y-115689949D01*
X108040246Y-115386314D01*
X107860946Y-115100961D01*
X107650825Y-114837477D01*
X107412523Y-114599175D01*
X107149039Y-114389054D01*
X106863686Y-114209754D01*
X106863683Y-114209752D01*
X106560054Y-114063532D01*
X106241965Y-113952227D01*
X106241953Y-113952223D01*
X105913397Y-113877233D01*
X105913381Y-113877231D01*
X105578508Y-113839500D01*
X105578504Y-113839500D01*
X105241496Y-113839500D01*
X105241491Y-113839500D01*
X104906618Y-113877231D01*
X104906602Y-113877233D01*
X104578046Y-113952223D01*
X104578034Y-113952227D01*
X104259945Y-114063532D01*
X103956316Y-114209752D01*
X103670962Y-114389053D01*
X103407477Y-114599174D01*
X103169174Y-114837477D01*
X102959053Y-115100962D01*
X102779752Y-115386316D01*
X102633532Y-115689945D01*
X102522227Y-116008034D01*
X102522223Y-116008046D01*
X102447233Y-116336602D01*
X102447231Y-116336618D01*
X102409500Y-116671491D01*
X92027043Y-116671491D01*
X92003579Y-116630851D01*
X92003575Y-116630844D01*
X91827974Y-116401996D01*
X91827969Y-116401990D01*
X91624009Y-116198030D01*
X91624002Y-116198024D01*
X91395164Y-116022431D01*
X91395157Y-116022426D01*
X91395156Y-116022425D01*
X91395151Y-116022422D01*
X91395148Y-116022420D01*
X91145352Y-115878199D01*
X91145336Y-115878191D01*
X90878860Y-115767814D01*
X90878848Y-115767810D01*
X90878845Y-115767809D01*
X90600217Y-115693151D01*
X90600211Y-115693150D01*
X90600206Y-115693149D01*
X90314238Y-115655501D01*
X90314233Y-115655500D01*
X90314228Y-115655500D01*
X90025772Y-115655500D01*
X90025766Y-115655500D01*
X90025761Y-115655501D01*
X89739793Y-115693149D01*
X89739786Y-115693150D01*
X89739783Y-115693151D01*
X89526354Y-115750339D01*
X89461155Y-115767809D01*
X89461139Y-115767814D01*
X89194663Y-115878191D01*
X89194647Y-115878199D01*
X88944851Y-116022420D01*
X88944835Y-116022431D01*
X88715997Y-116198024D01*
X88715990Y-116198030D01*
X88512030Y-116401990D01*
X88512024Y-116401997D01*
X88336431Y-116630835D01*
X88336420Y-116630851D01*
X88192199Y-116880647D01*
X88192191Y-116880663D01*
X88081814Y-117147139D01*
X88081809Y-117147155D01*
X88046865Y-117277570D01*
X88007152Y-117425780D01*
X88007149Y-117425793D01*
X87969501Y-117711761D01*
X87969500Y-117711778D01*
X87069294Y-117711778D01*
X87070500Y-117704162D01*
X87070500Y-115975837D01*
X87034784Y-115750339D01*
X86964229Y-115533196D01*
X86909550Y-115425884D01*
X86860579Y-115329772D01*
X86726379Y-115145063D01*
X86564937Y-114983621D01*
X86380228Y-114849421D01*
X86356787Y-114837477D01*
X86176803Y-114745770D01*
X85959660Y-114675215D01*
X85734162Y-114639500D01*
X85734157Y-114639500D01*
X85505843Y-114639500D01*
X85505838Y-114639500D01*
X85280339Y-114675215D01*
X85063196Y-114745770D01*
X84859771Y-114849421D01*
X84675061Y-114983622D01*
X84513622Y-115145061D01*
X84379421Y-115329771D01*
X84275770Y-115533196D01*
X84205215Y-115750339D01*
X84169500Y-115975837D01*
X83570500Y-115975837D01*
X83534784Y-115750339D01*
X83464229Y-115533196D01*
X83409550Y-115425884D01*
X83360579Y-115329772D01*
X83226379Y-115145063D01*
X83064937Y-114983621D01*
X82880228Y-114849421D01*
X82856787Y-114837477D01*
X82676803Y-114745770D01*
X82459660Y-114675215D01*
X82234162Y-114639500D01*
X82234157Y-114639500D01*
X82005843Y-114639500D01*
X82005838Y-114639500D01*
X81780339Y-114675215D01*
X81563196Y-114745770D01*
X81359771Y-114849421D01*
X81175061Y-114983622D01*
X81013622Y-115145061D01*
X80879421Y-115329771D01*
X80775770Y-115533196D01*
X80705215Y-115750339D01*
X80669500Y-115975837D01*
X78614465Y-115975837D01*
X78445352Y-115878199D01*
X78445336Y-115878191D01*
X78178860Y-115767814D01*
X78178848Y-115767810D01*
X78178845Y-115767809D01*
X77900217Y-115693151D01*
X77900211Y-115693150D01*
X77900206Y-115693149D01*
X77614238Y-115655501D01*
X77614233Y-115655500D01*
X77614228Y-115655500D01*
X77325772Y-115655500D01*
X77325766Y-115655500D01*
X77325761Y-115655501D01*
X77039793Y-115693149D01*
X77039786Y-115693150D01*
X77039783Y-115693151D01*
X76826354Y-115750339D01*
X76761155Y-115767809D01*
X76761139Y-115767814D01*
X76494663Y-115878191D01*
X76494647Y-115878199D01*
X76244851Y-116022420D01*
X76244835Y-116022431D01*
X76015997Y-116198024D01*
X76015990Y-116198030D01*
X75812030Y-116401990D01*
X75812024Y-116401997D01*
X75636431Y-116630835D01*
X75636420Y-116630851D01*
X75492199Y-116880647D01*
X75492191Y-116880663D01*
X75381814Y-117147139D01*
X75381809Y-117147155D01*
X75346865Y-117277570D01*
X75307152Y-117425780D01*
X75307149Y-117425793D01*
X75269501Y-117711761D01*
X75269500Y-117711778D01*
X65103841Y-117711778D01*
X65106508Y-117704157D01*
X65117774Y-117671961D01*
X65117775Y-117671957D01*
X65155897Y-117504935D01*
X65192767Y-117343394D01*
X65230500Y-117008504D01*
X65230500Y-116671496D01*
X65192767Y-116336606D01*
X65117776Y-116008046D01*
X65006469Y-115689949D01*
X64860246Y-115386314D01*
X64680946Y-115100961D01*
X64470825Y-114837477D01*
X64232523Y-114599175D01*
X63969039Y-114389054D01*
X63683686Y-114209754D01*
X63683683Y-114209752D01*
X63380054Y-114063532D01*
X63061965Y-113952227D01*
X63061953Y-113952223D01*
X62733397Y-113877233D01*
X62733381Y-113877231D01*
X62398508Y-113839500D01*
X62398504Y-113839500D01*
X62061496Y-113839500D01*
X62061491Y-113839500D01*
X61726618Y-113877231D01*
X61726602Y-113877233D01*
X61398046Y-113952223D01*
X61398034Y-113952227D01*
X61079945Y-114063532D01*
X60776316Y-114209752D01*
X60490962Y-114389053D01*
X60227477Y-114599174D01*
X59989174Y-114837477D01*
X59779053Y-115100962D01*
X59599752Y-115386316D01*
X59453532Y-115689945D01*
X59342227Y-116008034D01*
X59342223Y-116008046D01*
X59267233Y-116336602D01*
X59267231Y-116336618D01*
X59229500Y-116671491D01*
X58620500Y-116671491D01*
X58620500Y-106830530D01*
X61814500Y-106830530D01*
X61814500Y-107037469D01*
X61854868Y-107240412D01*
X61854870Y-107240420D01*
X61934058Y-107431596D01*
X62049024Y-107603657D01*
X62195342Y-107749975D01*
X62195345Y-107749977D01*
X62367402Y-107864941D01*
X62558580Y-107944130D01*
X62703052Y-107972867D01*
X62761530Y-107984499D01*
X62761534Y-107984500D01*
X62761535Y-107984500D01*
X62968466Y-107984500D01*
X62968467Y-107984499D01*
X63171420Y-107944130D01*
X63362598Y-107864941D01*
X63534655Y-107749977D01*
X63680977Y-107603655D01*
X63795941Y-107431598D01*
X63875130Y-107240420D01*
X63915500Y-107037465D01*
X63915500Y-106830535D01*
X63875130Y-106627580D01*
X63795941Y-106436402D01*
X63680977Y-106264345D01*
X63680975Y-106264342D01*
X63534657Y-106118024D01*
X63414041Y-106037432D01*
X63362598Y-106003059D01*
X63360741Y-106002290D01*
X63171420Y-105923870D01*
X63171412Y-105923868D01*
X62968469Y-105883500D01*
X62968465Y-105883500D01*
X62761535Y-105883500D01*
X62761530Y-105883500D01*
X62558587Y-105923868D01*
X62558579Y-105923870D01*
X62367403Y-106003058D01*
X62195342Y-106118024D01*
X62049024Y-106264342D01*
X61934058Y-106436403D01*
X61854870Y-106627579D01*
X61854868Y-106627587D01*
X61814500Y-106830530D01*
X58620500Y-106830530D01*
X58620500Y-104290530D01*
X61814500Y-104290530D01*
X61814500Y-104497469D01*
X61854868Y-104700412D01*
X61854870Y-104700420D01*
X61934058Y-104891596D01*
X62049024Y-105063657D01*
X62195342Y-105209975D01*
X62195345Y-105209977D01*
X62367402Y-105324941D01*
X62558580Y-105404130D01*
X62761530Y-105444499D01*
X62761534Y-105444500D01*
X62761535Y-105444500D01*
X62968466Y-105444500D01*
X62968467Y-105444499D01*
X63171420Y-105404130D01*
X63362598Y-105324941D01*
X63534655Y-105209977D01*
X63680977Y-105063655D01*
X63795941Y-104891598D01*
X63875130Y-104700420D01*
X63915500Y-104497465D01*
X63915500Y-104290535D01*
X63915499Y-104290530D01*
X64354500Y-104290530D01*
X64354500Y-104497469D01*
X64394868Y-104700412D01*
X64394870Y-104700420D01*
X64474058Y-104891596D01*
X64589024Y-105063657D01*
X64735342Y-105209975D01*
X64735345Y-105209977D01*
X64907402Y-105324941D01*
X65098580Y-105404130D01*
X65301530Y-105444499D01*
X65301534Y-105444500D01*
X65301535Y-105444500D01*
X65508466Y-105444500D01*
X65508467Y-105444499D01*
X65711420Y-105404130D01*
X65902598Y-105324941D01*
X66074655Y-105209977D01*
X66220977Y-105063655D01*
X66335941Y-104891598D01*
X66415130Y-104700420D01*
X66455500Y-104497465D01*
X66455500Y-104290535D01*
X66415130Y-104087580D01*
X66335941Y-103896402D01*
X66335940Y-103896400D01*
X66335940Y-103896399D01*
X66231689Y-103740376D01*
X66231687Y-103740374D01*
X66220975Y-103724342D01*
X66172983Y-103676350D01*
X75124500Y-103676350D01*
X75124500Y-105095649D01*
X75150981Y-105262847D01*
X75203296Y-105423853D01*
X75278763Y-105571964D01*
X75280150Y-105574685D01*
X75303329Y-105606589D01*
X75303767Y-105607767D01*
X75308674Y-105615258D01*
X75312342Y-105618994D01*
X75379654Y-105711641D01*
X75379656Y-105711643D01*
X75499362Y-105831349D01*
X75554435Y-105871361D01*
X75607662Y-105910032D01*
X75609902Y-105912296D01*
X75611505Y-105912939D01*
X75635840Y-105938502D01*
X75701571Y-106030963D01*
X75709909Y-106044439D01*
X75833215Y-106275546D01*
X75838056Y-106285705D01*
X75889378Y-106407317D01*
X75892252Y-106414790D01*
X75917617Y-106487709D01*
X75924500Y-106528448D01*
X75924500Y-106734800D01*
X75942370Y-106777941D01*
X75942369Y-106777941D01*
X75966441Y-106836055D01*
X75966442Y-106836057D01*
X75966443Y-106836058D01*
X76982443Y-107852058D01*
X77059942Y-107929557D01*
X77161200Y-107971500D01*
X77161201Y-107971500D01*
X80572799Y-107971500D01*
X80572800Y-107971500D01*
X80674058Y-107929557D01*
X80751557Y-107852058D01*
X80751556Y-107852058D01*
X80810125Y-107793489D01*
X81513558Y-107090058D01*
X81513558Y-107090056D01*
X81513560Y-107090055D01*
X81535342Y-107037466D01*
X81555500Y-106988800D01*
X81555500Y-106879200D01*
X81555500Y-106790136D01*
X81556348Y-106775662D01*
X81557688Y-106764256D01*
X81560468Y-106755325D01*
X81575964Y-106608754D01*
X81576052Y-106608011D01*
X81576239Y-106607570D01*
X81579434Y-106590375D01*
X81597489Y-106523031D01*
X81635845Y-106379965D01*
X81639620Y-106368250D01*
X81683243Y-106252864D01*
X81686429Y-106245219D01*
X81741119Y-106125502D01*
X81744957Y-106117822D01*
X81803339Y-106010516D01*
X81808225Y-106002309D01*
X81851834Y-105935119D01*
X81882954Y-105902317D01*
X81980641Y-105831346D01*
X82100346Y-105711641D01*
X82160563Y-105628758D01*
X82162527Y-105626356D01*
X82163728Y-105624401D01*
X82199850Y-105574685D01*
X82276705Y-105423849D01*
X82329018Y-105262847D01*
X82337392Y-105209975D01*
X82355500Y-105095649D01*
X82355500Y-103676350D01*
X85284500Y-103676350D01*
X85284500Y-105095649D01*
X85310981Y-105262847D01*
X85363296Y-105423853D01*
X85440152Y-105574688D01*
X85539648Y-105711634D01*
X85539652Y-105711639D01*
X85659360Y-105831347D01*
X85659365Y-105831351D01*
X85772275Y-105913384D01*
X85796315Y-105930850D01*
X85892425Y-105979820D01*
X85947146Y-106007703D01*
X85947148Y-106007703D01*
X85947151Y-106007705D01*
X86033450Y-106035745D01*
X86108152Y-106060018D01*
X86275351Y-106086500D01*
X86275356Y-106086500D01*
X86444649Y-106086500D01*
X86611847Y-106060018D01*
X86772849Y-106007705D01*
X86923685Y-105930850D01*
X87060641Y-105831346D01*
X87180346Y-105711641D01*
X87279850Y-105574685D01*
X87356705Y-105423849D01*
X87409018Y-105262847D01*
X87417392Y-105209975D01*
X87435500Y-105095649D01*
X87435500Y-103676350D01*
X87409018Y-103509152D01*
X87356703Y-103348146D01*
X87328820Y-103293425D01*
X87279850Y-103197315D01*
X87267137Y-103179817D01*
X87180351Y-103060365D01*
X87180347Y-103060360D01*
X87060643Y-102940656D01*
X87060637Y-102940651D01*
X86970085Y-102874861D01*
X86966728Y-102871398D01*
X86964232Y-102870336D01*
X86940433Y-102844273D01*
X86935404Y-102836878D01*
X86884482Y-102761997D01*
X86875958Y-102747416D01*
X86858364Y-102711982D01*
X86771302Y-102536635D01*
X86765155Y-102521958D01*
X86724350Y-102403765D01*
X86682725Y-102283199D01*
X86679056Y-102270372D01*
X86657044Y-102174044D01*
X86655072Y-102163209D01*
X86643298Y-102076766D01*
X86642279Y-102065322D01*
X86641835Y-102054881D01*
X86640791Y-102030291D01*
X86640790Y-102030288D01*
X86640790Y-102030284D01*
X86638714Y-102021344D01*
X86635500Y-101993297D01*
X86635500Y-99733477D01*
X86655185Y-99666438D01*
X86671819Y-99645796D01*
X95581797Y-90735819D01*
X95608724Y-90721115D01*
X95634543Y-90704523D01*
X95640743Y-90703631D01*
X95643120Y-90702334D01*
X95669478Y-90699500D01*
X95729505Y-90699500D01*
X95796544Y-90719185D01*
X95842299Y-90771989D01*
X95852243Y-90841147D01*
X95823218Y-90904703D01*
X95817186Y-90911181D01*
X95704025Y-91024341D01*
X95704024Y-91024342D01*
X95589058Y-91196403D01*
X95509870Y-91387579D01*
X95509868Y-91387587D01*
X95469500Y-91590530D01*
X95469500Y-91797469D01*
X95473069Y-91815410D01*
X95509870Y-92000420D01*
X95589059Y-92191598D01*
X95644424Y-92274458D01*
X95704024Y-92363657D01*
X95817186Y-92476819D01*
X95850671Y-92538142D01*
X95845687Y-92607834D01*
X95803815Y-92663767D01*
X95738351Y-92688184D01*
X95729505Y-92688500D01*
X95449198Y-92688500D01*
X95377599Y-92718158D01*
X95347939Y-92730443D01*
X95347939Y-92730444D01*
X88743942Y-99334443D01*
X88666444Y-99411940D01*
X88624500Y-99513199D01*
X88624500Y-101981862D01*
X88623652Y-101996339D01*
X88622311Y-102007742D01*
X88619532Y-102016674D01*
X88604040Y-102163173D01*
X88603945Y-102163985D01*
X88603755Y-102164430D01*
X88600563Y-102181618D01*
X88544154Y-102392024D01*
X88540372Y-102403765D01*
X88496761Y-102519119D01*
X88493562Y-102526791D01*
X88438901Y-102646450D01*
X88435034Y-102654189D01*
X88376665Y-102761469D01*
X88371754Y-102769717D01*
X88328162Y-102836878D01*
X88297037Y-102869685D01*
X88199365Y-102940649D01*
X88199356Y-102940656D01*
X88079652Y-103060360D01*
X88079648Y-103060365D01*
X87980152Y-103197311D01*
X87903296Y-103348146D01*
X87850981Y-103509152D01*
X87824500Y-103676350D01*
X87824500Y-105095649D01*
X87850981Y-105262847D01*
X87903296Y-105423853D01*
X87980152Y-105574688D01*
X88079648Y-105711634D01*
X88079652Y-105711639D01*
X88199360Y-105831347D01*
X88199365Y-105831351D01*
X88312275Y-105913384D01*
X88336315Y-105930850D01*
X88432425Y-105979820D01*
X88487146Y-106007703D01*
X88487148Y-106007703D01*
X88487151Y-106007705D01*
X88573450Y-106035745D01*
X88648152Y-106060018D01*
X88815351Y-106086500D01*
X88815356Y-106086500D01*
X88984649Y-106086500D01*
X89151847Y-106060018D01*
X89312849Y-106007705D01*
X89463685Y-105930850D01*
X89600641Y-105831346D01*
X89720346Y-105711641D01*
X89819850Y-105574685D01*
X89896705Y-105423849D01*
X89949018Y-105262847D01*
X89957392Y-105209975D01*
X89975500Y-105095649D01*
X89975500Y-103676350D01*
X89949018Y-103509152D01*
X89896703Y-103348146D01*
X89868820Y-103293425D01*
X89819850Y-103197315D01*
X89807137Y-103179817D01*
X89720351Y-103060365D01*
X89720347Y-103060360D01*
X89600643Y-102940656D01*
X89600637Y-102940651D01*
X89510085Y-102874861D01*
X89506728Y-102871398D01*
X89504232Y-102870336D01*
X89480433Y-102844273D01*
X89475404Y-102836878D01*
X89424482Y-102761997D01*
X89415958Y-102747416D01*
X89398364Y-102711982D01*
X89311302Y-102536635D01*
X89305155Y-102521958D01*
X89264350Y-102403765D01*
X89222725Y-102283199D01*
X89219056Y-102270372D01*
X89197044Y-102174044D01*
X89195072Y-102163209D01*
X89183298Y-102076766D01*
X89182279Y-102065322D01*
X89181835Y-102054881D01*
X89180791Y-102030291D01*
X89180790Y-102030288D01*
X89180790Y-102030284D01*
X89178714Y-102021344D01*
X89175500Y-101993297D01*
X89175500Y-99733477D01*
X89195185Y-99666438D01*
X89211819Y-99645796D01*
X95581797Y-93275819D01*
X95608724Y-93261115D01*
X95634543Y-93244523D01*
X95640743Y-93243631D01*
X95643120Y-93242334D01*
X95669478Y-93239500D01*
X95729505Y-93239500D01*
X95796544Y-93259185D01*
X95842299Y-93311989D01*
X95852243Y-93381147D01*
X95823218Y-93444703D01*
X95817186Y-93451181D01*
X95704025Y-93564341D01*
X95704024Y-93564342D01*
X95589058Y-93736403D01*
X95509870Y-93927579D01*
X95509868Y-93927587D01*
X95469500Y-94130530D01*
X95469500Y-94337469D01*
X95473069Y-94355410D01*
X95509870Y-94540420D01*
X95589059Y-94731598D01*
X95644424Y-94814458D01*
X95704024Y-94903657D01*
X95817186Y-95016819D01*
X95850671Y-95078142D01*
X95845687Y-95147834D01*
X95803815Y-95203767D01*
X95738351Y-95228184D01*
X95729505Y-95228500D01*
X95449199Y-95228500D01*
X95347940Y-95270444D01*
X91206444Y-99411940D01*
X91164500Y-99513199D01*
X91164500Y-101981862D01*
X91163652Y-101996339D01*
X91162311Y-102007742D01*
X91159532Y-102016674D01*
X91144040Y-102163173D01*
X91143945Y-102163985D01*
X91143755Y-102164430D01*
X91140563Y-102181618D01*
X91084154Y-102392024D01*
X91080372Y-102403765D01*
X91036761Y-102519119D01*
X91033562Y-102526791D01*
X90978901Y-102646450D01*
X90975034Y-102654189D01*
X90916665Y-102761469D01*
X90911754Y-102769717D01*
X90868162Y-102836878D01*
X90837037Y-102869685D01*
X90739365Y-102940649D01*
X90739356Y-102940656D01*
X90619652Y-103060360D01*
X90619648Y-103060365D01*
X90520152Y-103197311D01*
X90443296Y-103348146D01*
X90390981Y-103509152D01*
X90364500Y-103676350D01*
X90364500Y-105095649D01*
X90390981Y-105262847D01*
X90443296Y-105423853D01*
X90520152Y-105574688D01*
X90619648Y-105711634D01*
X90619652Y-105711639D01*
X90739360Y-105831347D01*
X90739365Y-105831351D01*
X90852275Y-105913384D01*
X90876315Y-105930850D01*
X90972425Y-105979820D01*
X91027146Y-106007703D01*
X91027148Y-106007703D01*
X91027151Y-106007705D01*
X91113450Y-106035745D01*
X91188152Y-106060018D01*
X91355351Y-106086500D01*
X91355356Y-106086500D01*
X91524649Y-106086500D01*
X91665147Y-106064247D01*
X98009500Y-106064247D01*
X98009500Y-107803752D01*
X98021131Y-107862229D01*
X98021132Y-107862230D01*
X98065447Y-107928552D01*
X98131769Y-107972867D01*
X98131770Y-107972868D01*
X98190247Y-107984499D01*
X98190250Y-107984500D01*
X98190252Y-107984500D01*
X99929750Y-107984500D01*
X99929751Y-107984499D01*
X99944568Y-107981552D01*
X99988229Y-107972868D01*
X99988229Y-107972867D01*
X99988231Y-107972867D01*
X100054552Y-107928552D01*
X100098867Y-107862231D01*
X100098867Y-107862229D01*
X100098868Y-107862229D01*
X100110499Y-107803752D01*
X100110500Y-107803750D01*
X100110500Y-106064249D01*
X100110499Y-106064247D01*
X100098868Y-106005770D01*
X100098867Y-106005769D01*
X100054552Y-105939447D01*
X99988230Y-105895132D01*
X99988229Y-105895131D01*
X99929752Y-105883500D01*
X99929748Y-105883500D01*
X98190252Y-105883500D01*
X98190247Y-105883500D01*
X98131770Y-105895131D01*
X98131769Y-105895132D01*
X98065447Y-105939447D01*
X98021132Y-106005769D01*
X98021131Y-106005770D01*
X98009500Y-106064247D01*
X91665147Y-106064247D01*
X91691847Y-106060018D01*
X91852849Y-106007705D01*
X92003685Y-105930850D01*
X92140641Y-105831346D01*
X92260346Y-105711641D01*
X92359850Y-105574685D01*
X92436705Y-105423849D01*
X92489018Y-105262847D01*
X92497392Y-105209975D01*
X92515500Y-105095649D01*
X92515500Y-104290530D01*
X95469500Y-104290530D01*
X95469500Y-104497469D01*
X95509868Y-104700412D01*
X95509870Y-104700420D01*
X95589058Y-104891596D01*
X95704024Y-105063657D01*
X95850342Y-105209975D01*
X95850345Y-105209977D01*
X96022402Y-105324941D01*
X96213580Y-105404130D01*
X96416530Y-105444499D01*
X96416534Y-105444500D01*
X96416535Y-105444500D01*
X96623466Y-105444500D01*
X96623467Y-105444499D01*
X96826420Y-105404130D01*
X97017598Y-105324941D01*
X97189655Y-105209977D01*
X97335977Y-105063655D01*
X97450941Y-104891598D01*
X97530130Y-104700420D01*
X97570500Y-104497465D01*
X97570500Y-104290535D01*
X97570499Y-104290530D01*
X98009500Y-104290530D01*
X98009500Y-104497469D01*
X98049868Y-104700412D01*
X98049870Y-104700420D01*
X98129058Y-104891596D01*
X98244024Y-105063657D01*
X98390342Y-105209975D01*
X98390345Y-105209977D01*
X98562402Y-105324941D01*
X98753580Y-105404130D01*
X98956530Y-105444499D01*
X98956534Y-105444500D01*
X98956535Y-105444500D01*
X99163466Y-105444500D01*
X99163467Y-105444499D01*
X99366420Y-105404130D01*
X99557598Y-105324941D01*
X99729655Y-105209977D01*
X99875977Y-105063655D01*
X99990941Y-104891598D01*
X100070130Y-104700420D01*
X100110500Y-104497465D01*
X100110500Y-104290535D01*
X100070130Y-104087580D01*
X99990941Y-103896402D01*
X99875977Y-103724345D01*
X99875975Y-103724342D01*
X99729657Y-103578024D01*
X99626583Y-103509153D01*
X99557598Y-103463059D01*
X99366420Y-103383870D01*
X99366412Y-103383868D01*
X99163469Y-103343500D01*
X99163465Y-103343500D01*
X98956535Y-103343500D01*
X98956530Y-103343500D01*
X98753587Y-103383868D01*
X98753579Y-103383870D01*
X98562403Y-103463058D01*
X98390342Y-103578024D01*
X98244024Y-103724342D01*
X98129058Y-103896403D01*
X98049870Y-104087579D01*
X98049868Y-104087587D01*
X98009500Y-104290530D01*
X97570499Y-104290530D01*
X97530130Y-104087580D01*
X97450941Y-103896402D01*
X97335977Y-103724345D01*
X97335975Y-103724342D01*
X97189657Y-103578024D01*
X97086583Y-103509153D01*
X97017598Y-103463059D01*
X96826420Y-103383870D01*
X96826412Y-103383868D01*
X96623469Y-103343500D01*
X96623465Y-103343500D01*
X96416535Y-103343500D01*
X96416530Y-103343500D01*
X96213587Y-103383868D01*
X96213579Y-103383870D01*
X96022403Y-103463058D01*
X95850342Y-103578024D01*
X95704024Y-103724342D01*
X95589058Y-103896403D01*
X95509870Y-104087579D01*
X95509868Y-104087587D01*
X95469500Y-104290530D01*
X92515500Y-104290530D01*
X92515500Y-103676350D01*
X92489018Y-103509152D01*
X92436703Y-103348146D01*
X92408820Y-103293425D01*
X92359850Y-103197315D01*
X92347137Y-103179817D01*
X92260351Y-103060365D01*
X92260347Y-103060360D01*
X92140643Y-102940656D01*
X92140637Y-102940651D01*
X92050085Y-102874861D01*
X92046728Y-102871398D01*
X92044232Y-102870336D01*
X92020433Y-102844273D01*
X92015404Y-102836878D01*
X91964482Y-102761997D01*
X91955958Y-102747416D01*
X91938364Y-102711982D01*
X91851302Y-102536635D01*
X91845155Y-102521958D01*
X91804350Y-102403765D01*
X91762725Y-102283199D01*
X91759056Y-102270372D01*
X91737044Y-102174044D01*
X91735072Y-102163209D01*
X91723298Y-102076766D01*
X91722279Y-102065322D01*
X91721835Y-102054881D01*
X91720791Y-102030291D01*
X91720790Y-102030288D01*
X91720790Y-102030284D01*
X91718714Y-102021344D01*
X91715500Y-101993297D01*
X91715500Y-101750530D01*
X95469500Y-101750530D01*
X95469500Y-101957469D01*
X95509868Y-102160412D01*
X95509870Y-102160420D01*
X95589058Y-102351596D01*
X95704024Y-102523657D01*
X95850342Y-102669975D01*
X95850345Y-102669977D01*
X96022402Y-102784941D01*
X96213580Y-102864130D01*
X96416530Y-102904499D01*
X96416534Y-102904500D01*
X96416535Y-102904500D01*
X96623466Y-102904500D01*
X96623467Y-102904499D01*
X96826420Y-102864130D01*
X97017598Y-102784941D01*
X97189655Y-102669977D01*
X97335977Y-102523655D01*
X97450941Y-102351598D01*
X97530130Y-102160420D01*
X97570500Y-101957465D01*
X97570500Y-101750535D01*
X97570499Y-101750530D01*
X98009500Y-101750530D01*
X98009500Y-101957469D01*
X98049868Y-102160412D01*
X98049870Y-102160420D01*
X98129058Y-102351596D01*
X98244024Y-102523657D01*
X98390342Y-102669975D01*
X98390345Y-102669977D01*
X98562402Y-102784941D01*
X98753580Y-102864130D01*
X98956530Y-102904499D01*
X98956534Y-102904500D01*
X98956535Y-102904500D01*
X99163466Y-102904500D01*
X99163467Y-102904499D01*
X99366420Y-102864130D01*
X99557598Y-102784941D01*
X99729655Y-102669977D01*
X99875977Y-102523655D01*
X99990941Y-102351598D01*
X100070130Y-102160420D01*
X100110500Y-101957465D01*
X100110500Y-101750535D01*
X100070130Y-101547580D01*
X99990941Y-101356402D01*
X99875977Y-101184345D01*
X99875975Y-101184342D01*
X99729657Y-101038024D01*
X99614960Y-100961387D01*
X99557598Y-100923059D01*
X99366420Y-100843870D01*
X99366412Y-100843868D01*
X99163469Y-100803500D01*
X99163465Y-100803500D01*
X98956535Y-100803500D01*
X98956530Y-100803500D01*
X98753587Y-100843868D01*
X98753579Y-100843870D01*
X98562403Y-100923058D01*
X98390342Y-101038024D01*
X98244024Y-101184342D01*
X98129058Y-101356403D01*
X98049870Y-101547579D01*
X98049868Y-101547587D01*
X98009500Y-101750530D01*
X97570499Y-101750530D01*
X97530130Y-101547580D01*
X97450941Y-101356402D01*
X97335977Y-101184345D01*
X97335975Y-101184342D01*
X97189657Y-101038024D01*
X97074960Y-100961387D01*
X97017598Y-100923059D01*
X96826420Y-100843870D01*
X96826412Y-100843868D01*
X96623469Y-100803500D01*
X96623465Y-100803500D01*
X96416535Y-100803500D01*
X96416530Y-100803500D01*
X96213587Y-100843868D01*
X96213579Y-100843870D01*
X96022403Y-100923058D01*
X95850342Y-101038024D01*
X95704024Y-101184342D01*
X95589058Y-101356403D01*
X95509870Y-101547579D01*
X95509868Y-101547587D01*
X95469500Y-101750530D01*
X91715500Y-101750530D01*
X91715500Y-99733477D01*
X91735185Y-99666438D01*
X91751819Y-99645796D01*
X92187085Y-99210530D01*
X95469500Y-99210530D01*
X95469500Y-99417469D01*
X95509868Y-99620412D01*
X95509870Y-99620420D01*
X95589058Y-99811596D01*
X95704024Y-99983657D01*
X95850342Y-100129975D01*
X95850345Y-100129977D01*
X96022402Y-100244941D01*
X96213580Y-100324130D01*
X96416530Y-100364499D01*
X96416534Y-100364500D01*
X96416535Y-100364500D01*
X96623466Y-100364500D01*
X96623467Y-100364499D01*
X96826420Y-100324130D01*
X97017598Y-100244941D01*
X97189655Y-100129977D01*
X97335977Y-99983655D01*
X97450941Y-99811598D01*
X97530130Y-99620420D01*
X97570500Y-99417465D01*
X97570500Y-99210535D01*
X97570499Y-99210530D01*
X98009500Y-99210530D01*
X98009500Y-99417469D01*
X98049868Y-99620412D01*
X98049870Y-99620420D01*
X98129058Y-99811596D01*
X98244024Y-99983657D01*
X98390342Y-100129975D01*
X98390345Y-100129977D01*
X98562402Y-100244941D01*
X98753580Y-100324130D01*
X98956530Y-100364499D01*
X98956534Y-100364500D01*
X98956535Y-100364500D01*
X99163466Y-100364500D01*
X99163467Y-100364499D01*
X99366420Y-100324130D01*
X99557598Y-100244941D01*
X99729655Y-100129977D01*
X99875977Y-99983655D01*
X99990941Y-99811598D01*
X100070130Y-99620420D01*
X100110500Y-99417465D01*
X100110500Y-99210535D01*
X100070130Y-99007580D01*
X99990941Y-98816402D01*
X99875977Y-98644345D01*
X99875975Y-98644342D01*
X99729657Y-98498024D01*
X99601983Y-98412716D01*
X99557598Y-98383059D01*
X99545884Y-98378207D01*
X99366420Y-98303870D01*
X99366412Y-98303868D01*
X99163469Y-98263500D01*
X99163465Y-98263500D01*
X98956535Y-98263500D01*
X98956530Y-98263500D01*
X98753587Y-98303868D01*
X98753579Y-98303870D01*
X98562403Y-98383058D01*
X98390342Y-98498024D01*
X98244024Y-98644342D01*
X98129058Y-98816403D01*
X98049870Y-99007579D01*
X98049868Y-99007587D01*
X98009500Y-99210530D01*
X97570499Y-99210530D01*
X97530130Y-99007580D01*
X97450941Y-98816402D01*
X97335977Y-98644345D01*
X97335975Y-98644342D01*
X97189657Y-98498024D01*
X97061983Y-98412716D01*
X97017598Y-98383059D01*
X97005884Y-98378207D01*
X96826420Y-98303870D01*
X96826412Y-98303868D01*
X96623469Y-98263500D01*
X96623465Y-98263500D01*
X96416535Y-98263500D01*
X96416530Y-98263500D01*
X96213587Y-98303868D01*
X96213579Y-98303870D01*
X96022403Y-98383058D01*
X95850342Y-98498024D01*
X95704024Y-98644342D01*
X95589058Y-98816403D01*
X95509870Y-99007579D01*
X95509868Y-99007587D01*
X95469500Y-99210530D01*
X92187085Y-99210530D01*
X95581796Y-95815819D01*
X95608723Y-95801115D01*
X95634542Y-95784523D01*
X95640742Y-95783631D01*
X95643119Y-95782334D01*
X95669477Y-95779500D01*
X95729505Y-95779500D01*
X95796544Y-95799185D01*
X95842299Y-95851989D01*
X95852243Y-95921147D01*
X95823218Y-95984703D01*
X95817186Y-95991181D01*
X95704025Y-96104341D01*
X95704024Y-96104342D01*
X95589058Y-96276403D01*
X95509870Y-96467579D01*
X95509868Y-96467587D01*
X95469500Y-96670530D01*
X95469500Y-96877469D01*
X95509868Y-97080412D01*
X95509870Y-97080420D01*
X95589058Y-97271596D01*
X95704024Y-97443657D01*
X95850342Y-97589975D01*
X95850345Y-97589977D01*
X96022402Y-97704941D01*
X96213580Y-97784130D01*
X96354744Y-97812209D01*
X96416530Y-97824499D01*
X96416534Y-97824500D01*
X96416535Y-97824500D01*
X96623466Y-97824500D01*
X96623467Y-97824499D01*
X96826420Y-97784130D01*
X97017598Y-97704941D01*
X97189655Y-97589977D01*
X97335977Y-97443655D01*
X97450941Y-97271598D01*
X97530130Y-97080420D01*
X97570500Y-96877465D01*
X97570500Y-96670535D01*
X97570499Y-96670530D01*
X98009500Y-96670530D01*
X98009500Y-96877469D01*
X98049868Y-97080412D01*
X98049870Y-97080420D01*
X98129058Y-97271596D01*
X98244024Y-97443657D01*
X98390342Y-97589975D01*
X98390345Y-97589977D01*
X98562402Y-97704941D01*
X98753580Y-97784130D01*
X98894744Y-97812209D01*
X98956530Y-97824499D01*
X98956534Y-97824500D01*
X98956535Y-97824500D01*
X99163466Y-97824500D01*
X99163467Y-97824499D01*
X99366420Y-97784130D01*
X99557598Y-97704941D01*
X99729655Y-97589977D01*
X99875977Y-97443655D01*
X99990941Y-97271598D01*
X100070130Y-97080420D01*
X100110500Y-96877465D01*
X100110500Y-96670535D01*
X100070130Y-96467580D01*
X99990941Y-96276402D01*
X99875977Y-96104345D01*
X99875975Y-96104342D01*
X99729657Y-95958024D01*
X99643626Y-95900541D01*
X99557598Y-95843059D01*
X99463864Y-95804233D01*
X99366420Y-95763870D01*
X99366412Y-95763868D01*
X99163469Y-95723500D01*
X99163465Y-95723500D01*
X98956535Y-95723500D01*
X98956530Y-95723500D01*
X98753587Y-95763868D01*
X98753579Y-95763870D01*
X98562403Y-95843058D01*
X98390342Y-95958024D01*
X98244024Y-96104342D01*
X98129058Y-96276403D01*
X98049870Y-96467579D01*
X98049868Y-96467587D01*
X98009500Y-96670530D01*
X97570499Y-96670530D01*
X97530130Y-96467580D01*
X97450941Y-96276402D01*
X97335977Y-96104345D01*
X97335975Y-96104342D01*
X97222814Y-95991181D01*
X97189329Y-95929858D01*
X97194313Y-95860166D01*
X97236185Y-95804233D01*
X97301649Y-95779816D01*
X97310495Y-95779500D01*
X97844799Y-95779500D01*
X97844800Y-95779500D01*
X97946058Y-95737557D01*
X98023557Y-95660058D01*
X98041552Y-95642063D01*
X98046764Y-95637143D01*
X98054688Y-95630085D01*
X98071317Y-95619735D01*
X98166245Y-95530734D01*
X98167394Y-95529712D01*
X98167687Y-95529572D01*
X98172581Y-95525342D01*
X98250930Y-95462901D01*
X98260708Y-95455857D01*
X98265260Y-95452902D01*
X98316768Y-95419475D01*
X98328434Y-95412775D01*
X98367603Y-95393032D01*
X98387211Y-95385165D01*
X98485863Y-95355060D01*
X98508592Y-95350395D01*
X98660838Y-95333773D01*
X98667786Y-95333212D01*
X98687440Y-95332180D01*
X98727553Y-95330074D01*
X98727575Y-95330072D01*
X98727646Y-95330069D01*
X98729687Y-95329952D01*
X98729863Y-95329941D01*
X98730911Y-95329873D01*
X98955644Y-95314673D01*
X98963717Y-95313966D01*
X98964639Y-95313867D01*
X98972766Y-95312830D01*
X99243744Y-95272751D01*
X99248811Y-95271937D01*
X99249370Y-95271840D01*
X99260868Y-95267248D01*
X99282646Y-95260793D01*
X99366420Y-95244130D01*
X99557598Y-95164941D01*
X99729655Y-95049977D01*
X99875977Y-94903655D01*
X99990941Y-94731598D01*
X100070130Y-94540420D01*
X100110500Y-94337465D01*
X100110500Y-94130535D01*
X100070130Y-93927580D01*
X99990941Y-93736402D01*
X99875977Y-93564345D01*
X99875975Y-93564342D01*
X99729657Y-93418024D01*
X99643626Y-93360541D01*
X99557598Y-93303059D01*
X99463864Y-93264233D01*
X99366420Y-93223870D01*
X99366412Y-93223868D01*
X99163469Y-93183500D01*
X99163465Y-93183500D01*
X98956535Y-93183500D01*
X98956530Y-93183500D01*
X98753587Y-93223868D01*
X98753579Y-93223870D01*
X98562403Y-93303058D01*
X98390342Y-93418024D01*
X98244024Y-93564342D01*
X98129058Y-93736403D01*
X98049870Y-93927579D01*
X98049868Y-93927585D01*
X98032410Y-94015348D01*
X98032411Y-94015349D01*
X98030666Y-94024122D01*
X98021192Y-94050880D01*
X98010036Y-94127830D01*
X98009497Y-94130545D01*
X98009468Y-94130848D01*
X98008783Y-94136486D01*
X97979504Y-94338472D01*
X97978507Y-94346447D01*
X97978409Y-94347374D01*
X97977725Y-94355408D01*
X97964190Y-94562085D01*
X97964113Y-94563188D01*
X97950533Y-94745580D01*
X97948987Y-94757930D01*
X97939008Y-94814458D01*
X97935664Y-94828539D01*
X97920442Y-94879268D01*
X97914582Y-94894891D01*
X97890735Y-94947417D01*
X97883134Y-94961627D01*
X97843540Y-95025312D01*
X97835720Y-95036472D01*
X97772708Y-95116633D01*
X97765827Y-95124657D01*
X97705565Y-95189155D01*
X97645414Y-95224702D01*
X97614959Y-95228500D01*
X97310495Y-95228500D01*
X97243456Y-95208815D01*
X97197701Y-95156011D01*
X97187757Y-95086853D01*
X97216782Y-95023297D01*
X97222814Y-95016819D01*
X97335974Y-94903658D01*
X97335975Y-94903657D01*
X97335977Y-94903655D01*
X97450941Y-94731598D01*
X97530130Y-94540420D01*
X97570500Y-94337465D01*
X97570500Y-94130535D01*
X97530130Y-93927580D01*
X97450941Y-93736402D01*
X97335977Y-93564345D01*
X97335975Y-93564342D01*
X97222814Y-93451181D01*
X97189329Y-93389858D01*
X97194313Y-93320166D01*
X97236185Y-93264233D01*
X97301649Y-93239816D01*
X97310495Y-93239500D01*
X97844799Y-93239500D01*
X97844800Y-93239500D01*
X97946058Y-93197557D01*
X98023557Y-93120058D01*
X98041552Y-93102063D01*
X98046764Y-93097143D01*
X98054688Y-93090085D01*
X98071317Y-93079735D01*
X98166245Y-92990734D01*
X98167394Y-92989712D01*
X98167687Y-92989572D01*
X98172581Y-92985342D01*
X98250930Y-92922901D01*
X98260708Y-92915857D01*
X98265260Y-92912902D01*
X98316768Y-92879475D01*
X98328434Y-92872775D01*
X98367603Y-92853032D01*
X98387211Y-92845165D01*
X98485863Y-92815060D01*
X98508592Y-92810395D01*
X98660838Y-92793773D01*
X98667786Y-92793212D01*
X98687440Y-92792180D01*
X98727553Y-92790074D01*
X98727575Y-92790072D01*
X98727646Y-92790069D01*
X98729687Y-92789952D01*
X98729863Y-92789941D01*
X98730911Y-92789873D01*
X98955644Y-92774673D01*
X98963717Y-92773966D01*
X98964639Y-92773867D01*
X98972766Y-92772830D01*
X99243744Y-92732751D01*
X99248811Y-92731937D01*
X99249370Y-92731840D01*
X99260868Y-92727248D01*
X99282646Y-92720793D01*
X99366420Y-92704130D01*
X99557598Y-92624941D01*
X99729655Y-92509977D01*
X99875977Y-92363655D01*
X99990941Y-92191598D01*
X100070130Y-92000420D01*
X100110500Y-91797465D01*
X100110500Y-91590535D01*
X100070130Y-91387580D01*
X99990941Y-91196402D01*
X99875977Y-91024345D01*
X99875975Y-91024342D01*
X99729657Y-90878024D01*
X99643626Y-90820541D01*
X99557598Y-90763059D01*
X99463864Y-90724233D01*
X99366420Y-90683870D01*
X99366412Y-90683868D01*
X99163469Y-90643500D01*
X99163465Y-90643500D01*
X98956535Y-90643500D01*
X98956530Y-90643500D01*
X98753587Y-90683868D01*
X98753579Y-90683870D01*
X98562403Y-90763058D01*
X98390342Y-90878024D01*
X98244024Y-91024342D01*
X98129058Y-91196403D01*
X98049870Y-91387579D01*
X98049868Y-91387585D01*
X98032410Y-91475348D01*
X98032411Y-91475349D01*
X98030666Y-91484122D01*
X98021192Y-91510880D01*
X98010036Y-91587830D01*
X98009497Y-91590545D01*
X98009468Y-91590848D01*
X98008783Y-91596486D01*
X97979504Y-91798472D01*
X97978507Y-91806447D01*
X97978409Y-91807374D01*
X97977725Y-91815408D01*
X97964190Y-92022085D01*
X97964113Y-92023188D01*
X97950533Y-92205580D01*
X97948987Y-92217930D01*
X97939008Y-92274458D01*
X97935664Y-92288539D01*
X97920442Y-92339268D01*
X97914582Y-92354891D01*
X97890735Y-92407417D01*
X97883134Y-92421627D01*
X97843540Y-92485312D01*
X97835720Y-92496472D01*
X97772708Y-92576633D01*
X97765827Y-92584657D01*
X97705565Y-92649155D01*
X97645414Y-92684702D01*
X97614959Y-92688500D01*
X97310495Y-92688500D01*
X97243456Y-92668815D01*
X97197701Y-92616011D01*
X97187757Y-92546853D01*
X97216782Y-92483297D01*
X97222814Y-92476819D01*
X97335974Y-92363658D01*
X97335975Y-92363657D01*
X97335977Y-92363655D01*
X97450941Y-92191598D01*
X97530130Y-92000420D01*
X97570500Y-91797465D01*
X97570500Y-91590535D01*
X97530130Y-91387580D01*
X97450941Y-91196402D01*
X97335977Y-91024345D01*
X97335975Y-91024342D01*
X97222814Y-90911181D01*
X97189329Y-90849858D01*
X97194313Y-90780166D01*
X97236185Y-90724233D01*
X97301649Y-90699816D01*
X97310495Y-90699500D01*
X97844799Y-90699500D01*
X97844800Y-90699500D01*
X97946058Y-90657557D01*
X98023557Y-90580058D01*
X98041552Y-90562063D01*
X98046764Y-90557143D01*
X98054688Y-90550085D01*
X98071317Y-90539735D01*
X98166245Y-90450734D01*
X98167394Y-90449712D01*
X98167687Y-90449572D01*
X98172581Y-90445342D01*
X98250930Y-90382901D01*
X98260708Y-90375857D01*
X98265260Y-90372902D01*
X98316768Y-90339475D01*
X98328434Y-90332775D01*
X98367603Y-90313032D01*
X98387211Y-90305165D01*
X98485863Y-90275060D01*
X98508592Y-90270395D01*
X98660838Y-90253773D01*
X98667786Y-90253212D01*
X98687440Y-90252180D01*
X98727553Y-90250074D01*
X98727575Y-90250072D01*
X98727646Y-90250069D01*
X98729687Y-90249952D01*
X98729863Y-90249941D01*
X98730911Y-90249873D01*
X98955644Y-90234673D01*
X98963717Y-90233966D01*
X98964639Y-90233867D01*
X98972766Y-90232830D01*
X99243744Y-90192751D01*
X99248811Y-90191937D01*
X99249370Y-90191840D01*
X99260868Y-90187248D01*
X99282646Y-90180793D01*
X99366420Y-90164130D01*
X99557598Y-90084941D01*
X99729655Y-89969977D01*
X99875977Y-89823655D01*
X99990941Y-89651598D01*
X100070130Y-89460420D01*
X100110500Y-89257465D01*
X100110500Y-89050535D01*
X100070130Y-88847580D01*
X99990941Y-88656402D01*
X99875977Y-88484345D01*
X99875975Y-88484342D01*
X99729657Y-88338024D01*
X99643626Y-88280541D01*
X99557598Y-88223059D01*
X99366420Y-88143870D01*
X99366412Y-88143868D01*
X99163469Y-88103500D01*
X99163465Y-88103500D01*
X98956535Y-88103500D01*
X98956530Y-88103500D01*
X98753587Y-88143868D01*
X98753579Y-88143870D01*
X98562403Y-88223058D01*
X98390342Y-88338024D01*
X98244024Y-88484342D01*
X98129058Y-88656403D01*
X98049870Y-88847579D01*
X98049868Y-88847585D01*
X98032410Y-88935348D01*
X98032411Y-88935349D01*
X98030666Y-88944122D01*
X98021192Y-88970880D01*
X98010036Y-89047830D01*
X98009497Y-89050545D01*
X98009468Y-89050848D01*
X98008783Y-89056486D01*
X97979504Y-89258472D01*
X97978507Y-89266447D01*
X97978409Y-89267374D01*
X97977725Y-89275408D01*
X97964190Y-89482085D01*
X97964113Y-89483188D01*
X97950533Y-89665580D01*
X97948987Y-89677930D01*
X97939008Y-89734458D01*
X97935664Y-89748539D01*
X97920442Y-89799268D01*
X97914582Y-89814891D01*
X97890735Y-89867417D01*
X97883134Y-89881627D01*
X97843540Y-89945312D01*
X97835720Y-89956472D01*
X97772708Y-90036633D01*
X97765827Y-90044657D01*
X97705565Y-90109155D01*
X97645414Y-90144702D01*
X97614959Y-90148500D01*
X95558800Y-90148500D01*
X95449200Y-90148500D01*
X95449198Y-90148500D01*
X95449196Y-90148501D01*
X95347944Y-90190439D01*
X95347942Y-90190441D01*
X86203942Y-99334443D01*
X86126444Y-99411940D01*
X86084500Y-99513199D01*
X86084500Y-101981862D01*
X86083652Y-101996339D01*
X86082311Y-102007742D01*
X86079532Y-102016674D01*
X86064040Y-102163173D01*
X86063945Y-102163985D01*
X86063755Y-102164430D01*
X86060563Y-102181618D01*
X86004154Y-102392024D01*
X86000372Y-102403765D01*
X85956761Y-102519119D01*
X85953562Y-102526791D01*
X85898901Y-102646450D01*
X85895034Y-102654189D01*
X85836665Y-102761469D01*
X85831754Y-102769717D01*
X85788162Y-102836878D01*
X85757037Y-102869685D01*
X85659365Y-102940649D01*
X85659356Y-102940656D01*
X85539652Y-103060360D01*
X85539648Y-103060365D01*
X85440152Y-103197311D01*
X85363296Y-103348146D01*
X85310981Y-103509152D01*
X85284500Y-103676350D01*
X82355500Y-103676350D01*
X82329018Y-103509152D01*
X82276703Y-103348146D01*
X82248820Y-103293425D01*
X82199850Y-103197315D01*
X82187137Y-103179817D01*
X82100351Y-103060365D01*
X82100347Y-103060360D01*
X81980643Y-102940656D01*
X81980637Y-102940651D01*
X81890085Y-102874861D01*
X81886728Y-102871398D01*
X81884232Y-102870336D01*
X81860433Y-102844273D01*
X81855404Y-102836878D01*
X81804482Y-102761997D01*
X81795958Y-102747416D01*
X81778364Y-102711982D01*
X81691302Y-102536635D01*
X81685155Y-102521958D01*
X81644350Y-102403765D01*
X81602725Y-102283199D01*
X81599056Y-102270372D01*
X81577044Y-102174044D01*
X81575072Y-102163209D01*
X81563298Y-102076766D01*
X81562279Y-102065322D01*
X81561835Y-102054881D01*
X81560791Y-102030291D01*
X81560790Y-102030288D01*
X81560790Y-102030284D01*
X81558714Y-102021344D01*
X81555500Y-101993297D01*
X81555500Y-98870651D01*
X81555866Y-98861126D01*
X81556643Y-98851030D01*
X81560793Y-98834069D01*
X81564492Y-98749162D01*
X81564648Y-98747138D01*
X81564923Y-98746411D01*
X81566105Y-98735477D01*
X81570216Y-98711772D01*
X81572986Y-98695794D01*
X81578092Y-98676115D01*
X81580996Y-98667797D01*
X81588733Y-98650168D01*
X81593020Y-98642157D01*
X81602332Y-98627369D01*
X81661075Y-98547239D01*
X81661086Y-98547222D01*
X81758388Y-98414847D01*
X81760520Y-98412716D01*
X81762587Y-98409135D01*
X81770937Y-98397776D01*
X81773379Y-98394381D01*
X81773667Y-98393972D01*
X81777561Y-98384910D01*
X81784085Y-98371898D01*
X81839577Y-98275784D01*
X81880500Y-98123057D01*
X81880500Y-97964943D01*
X81839577Y-97812216D01*
X81823361Y-97784129D01*
X81760524Y-97675290D01*
X81760518Y-97675282D01*
X81648717Y-97563481D01*
X81648709Y-97563475D01*
X81511790Y-97484426D01*
X81511786Y-97484424D01*
X81511784Y-97484423D01*
X81359057Y-97443500D01*
X81200943Y-97443500D01*
X81048216Y-97484423D01*
X81048209Y-97484426D01*
X80911290Y-97563475D01*
X80911282Y-97563481D01*
X80799481Y-97675282D01*
X80799475Y-97675290D01*
X80720426Y-97812209D01*
X80720423Y-97812216D01*
X80679500Y-97964943D01*
X80679500Y-98123056D01*
X80720423Y-98275783D01*
X80720423Y-98275784D01*
X80778743Y-98376800D01*
X80781412Y-98381422D01*
X80789061Y-98397774D01*
X80797409Y-98409131D01*
X80799475Y-98412709D01*
X80804428Y-98419164D01*
X80804398Y-98419186D01*
X80807181Y-98422426D01*
X80899093Y-98547469D01*
X80900280Y-98549069D01*
X80947282Y-98611766D01*
X80957194Y-98627262D01*
X80970169Y-98651309D01*
X80981168Y-98679446D01*
X80982783Y-98685753D01*
X80989441Y-98711772D01*
X80993090Y-98735119D01*
X80999207Y-98837552D01*
X80999209Y-98837569D01*
X81000913Y-98844497D01*
X81004500Y-98874105D01*
X81004500Y-101981862D01*
X81003652Y-101996339D01*
X81002311Y-102007742D01*
X80999532Y-102016674D01*
X80984040Y-102163173D01*
X80983945Y-102163985D01*
X80983755Y-102164430D01*
X80980563Y-102181618D01*
X80924154Y-102392024D01*
X80920372Y-102403765D01*
X80876761Y-102519119D01*
X80873562Y-102526791D01*
X80818901Y-102646450D01*
X80815034Y-102654189D01*
X80756665Y-102761469D01*
X80751754Y-102769717D01*
X80708162Y-102836878D01*
X80677037Y-102869685D01*
X80579365Y-102940649D01*
X80579356Y-102940656D01*
X80459652Y-103060360D01*
X80459648Y-103060365D01*
X80360152Y-103197311D01*
X80283296Y-103348146D01*
X80230981Y-103509152D01*
X80204500Y-103676350D01*
X80204500Y-105095649D01*
X80230981Y-105262847D01*
X80283296Y-105423853D01*
X80358763Y-105571964D01*
X80360150Y-105574685D01*
X80383088Y-105606257D01*
X80383498Y-105607368D01*
X80388387Y-105614869D01*
X80392119Y-105618687D01*
X80397439Y-105626009D01*
X80397439Y-105626010D01*
X80459648Y-105711635D01*
X80459654Y-105711641D01*
X80579359Y-105831346D01*
X80669914Y-105897138D01*
X80673270Y-105900600D01*
X80675765Y-105901662D01*
X80699563Y-105927724D01*
X80707536Y-105939448D01*
X80755515Y-106010000D01*
X80764041Y-106024585D01*
X80868692Y-106235354D01*
X80874840Y-106250032D01*
X80957272Y-106488795D01*
X80960945Y-106501639D01*
X80982946Y-106597921D01*
X80984927Y-106608808D01*
X80996696Y-106695210D01*
X80997719Y-106706677D01*
X80999209Y-106741713D01*
X80999210Y-106741718D01*
X80999211Y-106741725D01*
X80999369Y-106742405D01*
X80999349Y-106742741D01*
X80999987Y-106747421D01*
X80999072Y-106747545D01*
X80995351Y-106812160D01*
X80966261Y-106858122D01*
X80440204Y-107384181D01*
X80378881Y-107417666D01*
X80352523Y-107420500D01*
X77381477Y-107420500D01*
X77314438Y-107400815D01*
X77293796Y-107384181D01*
X76550106Y-106640491D01*
X76544924Y-106631001D01*
X76536455Y-106624279D01*
X76528471Y-106600871D01*
X76516621Y-106579168D01*
X76516798Y-106566642D01*
X76513902Y-106558150D01*
X76517416Y-106523031D01*
X76522709Y-106501639D01*
X76559105Y-106354515D01*
X76563111Y-106341459D01*
X76591503Y-106264342D01*
X76599707Y-106242058D01*
X76603075Y-106233834D01*
X76650954Y-106127914D01*
X76654933Y-106119902D01*
X76709372Y-106019609D01*
X76714344Y-106011254D01*
X76756613Y-105946167D01*
X76787720Y-105913386D01*
X76900641Y-105831346D01*
X77020346Y-105711641D01*
X77119850Y-105574685D01*
X77196705Y-105423849D01*
X77249018Y-105262847D01*
X77257392Y-105209975D01*
X77275500Y-105095649D01*
X77275500Y-103676350D01*
X77249018Y-103509152D01*
X77196703Y-103348146D01*
X77168820Y-103293425D01*
X77119850Y-103197315D01*
X77107137Y-103179817D01*
X77020351Y-103060365D01*
X77020347Y-103060360D01*
X76900639Y-102940652D01*
X76900634Y-102940648D01*
X76763688Y-102841152D01*
X76763687Y-102841151D01*
X76763685Y-102841150D01*
X76716582Y-102817150D01*
X76612853Y-102764296D01*
X76451847Y-102711981D01*
X76284649Y-102685500D01*
X76284644Y-102685500D01*
X76115356Y-102685500D01*
X76115351Y-102685500D01*
X75948152Y-102711981D01*
X75787146Y-102764296D01*
X75636311Y-102841152D01*
X75499365Y-102940648D01*
X75499360Y-102940652D01*
X75379652Y-103060360D01*
X75379648Y-103060365D01*
X75280152Y-103197311D01*
X75203296Y-103348146D01*
X75150981Y-103509152D01*
X75124500Y-103676350D01*
X66172983Y-103676350D01*
X66074657Y-103578024D01*
X65971583Y-103509153D01*
X65902598Y-103463059D01*
X65711420Y-103383870D01*
X65711412Y-103383868D01*
X65508469Y-103343500D01*
X65508465Y-103343500D01*
X65301535Y-103343500D01*
X65301530Y-103343500D01*
X65098587Y-103383868D01*
X65098579Y-103383870D01*
X64907403Y-103463058D01*
X64735342Y-103578024D01*
X64589024Y-103724342D01*
X64474058Y-103896403D01*
X64394870Y-104087579D01*
X64394868Y-104087587D01*
X64354500Y-104290530D01*
X63915499Y-104290530D01*
X63875130Y-104087580D01*
X63795941Y-103896402D01*
X63680977Y-103724345D01*
X63680975Y-103724342D01*
X63534657Y-103578024D01*
X63431583Y-103509153D01*
X63362598Y-103463059D01*
X63171420Y-103383870D01*
X63171412Y-103383868D01*
X62968469Y-103343500D01*
X62968465Y-103343500D01*
X62761535Y-103343500D01*
X62761530Y-103343500D01*
X62558587Y-103383868D01*
X62558579Y-103383870D01*
X62367403Y-103463058D01*
X62195342Y-103578024D01*
X62049024Y-103724342D01*
X61934058Y-103896403D01*
X61854870Y-104087579D01*
X61854868Y-104087587D01*
X61814500Y-104290530D01*
X58620500Y-104290530D01*
X58620500Y-55875199D01*
X60430500Y-55875199D01*
X60430500Y-99749800D01*
X60451939Y-99801557D01*
X60451938Y-99801557D01*
X60472441Y-99851055D01*
X60472444Y-99851059D01*
X61456934Y-100835549D01*
X61461855Y-100840762D01*
X61468910Y-100848684D01*
X61479266Y-100865318D01*
X61568240Y-100960220D01*
X61569279Y-100961387D01*
X61569418Y-100961681D01*
X61573647Y-100966571D01*
X61630593Y-101038023D01*
X61636088Y-101044917D01*
X61643135Y-101054700D01*
X61679524Y-101110774D01*
X61686236Y-101122462D01*
X61705965Y-101161603D01*
X61713833Y-101181214D01*
X61743048Y-101276946D01*
X61743935Y-101279852D01*
X61748602Y-101302588D01*
X61765225Y-101454853D01*
X61765786Y-101461804D01*
X61768930Y-101521649D01*
X61769123Y-101524884D01*
X61784326Y-101749653D01*
X61785032Y-101757715D01*
X61785127Y-101758596D01*
X61786168Y-101766757D01*
X61826254Y-102037788D01*
X61827056Y-102042776D01*
X61827159Y-102043372D01*
X61831754Y-102054881D01*
X61838209Y-102076663D01*
X61854868Y-102160414D01*
X61854870Y-102160420D01*
X61934058Y-102351596D01*
X62049024Y-102523657D01*
X62195342Y-102669975D01*
X62195345Y-102669977D01*
X62367402Y-102784941D01*
X62558580Y-102864130D01*
X62761530Y-102904499D01*
X62761534Y-102904500D01*
X62761535Y-102904500D01*
X62968466Y-102904500D01*
X62968467Y-102904499D01*
X63171420Y-102864130D01*
X63362598Y-102784941D01*
X63534655Y-102669977D01*
X63680977Y-102523655D01*
X63795941Y-102351598D01*
X63875130Y-102160420D01*
X63915500Y-101957465D01*
X63915500Y-101750535D01*
X63915499Y-101750530D01*
X64354500Y-101750530D01*
X64354500Y-101957469D01*
X64394868Y-102160412D01*
X64394870Y-102160420D01*
X64474058Y-102351596D01*
X64589024Y-102523657D01*
X64735342Y-102669975D01*
X64735345Y-102669977D01*
X64907402Y-102784941D01*
X65098580Y-102864130D01*
X65301530Y-102904499D01*
X65301534Y-102904500D01*
X65301535Y-102904500D01*
X65508466Y-102904500D01*
X65508467Y-102904499D01*
X65711420Y-102864130D01*
X65902598Y-102784941D01*
X66074655Y-102669977D01*
X66220977Y-102523655D01*
X66335941Y-102351598D01*
X66415130Y-102160420D01*
X66455500Y-101957465D01*
X66455500Y-101750535D01*
X66415130Y-101547580D01*
X66335941Y-101356402D01*
X66220977Y-101184345D01*
X66220975Y-101184342D01*
X66074657Y-101038024D01*
X65959960Y-100961387D01*
X65902598Y-100923059D01*
X65711420Y-100843870D01*
X65711412Y-100843868D01*
X65508469Y-100803500D01*
X65508465Y-100803500D01*
X65301535Y-100803500D01*
X65301530Y-100803500D01*
X65098587Y-100843868D01*
X65098579Y-100843870D01*
X64907403Y-100923058D01*
X64735342Y-101038024D01*
X64589024Y-101184342D01*
X64474058Y-101356403D01*
X64394870Y-101547579D01*
X64394868Y-101547587D01*
X64354500Y-101750530D01*
X63915499Y-101750530D01*
X63875130Y-101547580D01*
X63795941Y-101356402D01*
X63680977Y-101184345D01*
X63680975Y-101184342D01*
X63534657Y-101038024D01*
X63419960Y-100961387D01*
X63362598Y-100923059D01*
X63171420Y-100843870D01*
X63171414Y-100843868D01*
X63083649Y-100826410D01*
X63083649Y-100826409D01*
X63074872Y-100824663D01*
X63048118Y-100815192D01*
X62971201Y-100804042D01*
X62968471Y-100803499D01*
X62968139Y-100803467D01*
X62962512Y-100802782D01*
X62760573Y-100773509D01*
X62752539Y-100772506D01*
X62751577Y-100772405D01*
X62743607Y-100771726D01*
X62536853Y-100758186D01*
X62535750Y-100758109D01*
X62353419Y-100744533D01*
X62341068Y-100742987D01*
X62284532Y-100733006D01*
X62270454Y-100729663D01*
X62219735Y-100714445D01*
X62204107Y-100708583D01*
X62151580Y-100684734D01*
X62137373Y-100677134D01*
X62073677Y-100637533D01*
X62062517Y-100629713D01*
X61982364Y-100566708D01*
X61974338Y-100559826D01*
X61876062Y-100468001D01*
X61876059Y-100467999D01*
X61876060Y-100467999D01*
X61867499Y-100462589D01*
X61846064Y-100445449D01*
X61017819Y-99617203D01*
X60984334Y-99555880D01*
X60981500Y-99529522D01*
X60981500Y-99210530D01*
X61814500Y-99210530D01*
X61814500Y-99417469D01*
X61854868Y-99620412D01*
X61854870Y-99620420D01*
X61934058Y-99811596D01*
X62049024Y-99983657D01*
X62195342Y-100129975D01*
X62195345Y-100129977D01*
X62367402Y-100244941D01*
X62558580Y-100324130D01*
X62761530Y-100364499D01*
X62761534Y-100364500D01*
X62761535Y-100364500D01*
X62968466Y-100364500D01*
X62968467Y-100364499D01*
X63171420Y-100324130D01*
X63362598Y-100244941D01*
X63534655Y-100129977D01*
X63680977Y-99983655D01*
X63795941Y-99811598D01*
X63875130Y-99620420D01*
X63915500Y-99417465D01*
X63915500Y-99210535D01*
X63915499Y-99210530D01*
X64354500Y-99210530D01*
X64354500Y-99417469D01*
X64394868Y-99620412D01*
X64394870Y-99620420D01*
X64474058Y-99811596D01*
X64589024Y-99983657D01*
X64735342Y-100129975D01*
X64735345Y-100129977D01*
X64907402Y-100244941D01*
X65098580Y-100324130D01*
X65301530Y-100364499D01*
X65301534Y-100364500D01*
X65301535Y-100364500D01*
X65508466Y-100364500D01*
X65508467Y-100364499D01*
X65711420Y-100324130D01*
X65902598Y-100244941D01*
X66074655Y-100129977D01*
X66220977Y-99983655D01*
X66335941Y-99811598D01*
X66415130Y-99620420D01*
X66455500Y-99417465D01*
X66455500Y-99210535D01*
X66415130Y-99007580D01*
X66335941Y-98816402D01*
X66220977Y-98644345D01*
X66220975Y-98644342D01*
X66074657Y-98498024D01*
X65946983Y-98412716D01*
X65902598Y-98383059D01*
X65890884Y-98378207D01*
X65711420Y-98303870D01*
X65711412Y-98303868D01*
X65508469Y-98263500D01*
X65508465Y-98263500D01*
X65301535Y-98263500D01*
X65301530Y-98263500D01*
X65098587Y-98303868D01*
X65098579Y-98303870D01*
X64907403Y-98383058D01*
X64735342Y-98498024D01*
X64589024Y-98644342D01*
X64474058Y-98816403D01*
X64394870Y-99007579D01*
X64394868Y-99007587D01*
X64354500Y-99210530D01*
X63915499Y-99210530D01*
X63875130Y-99007580D01*
X63795941Y-98816402D01*
X63680977Y-98644345D01*
X63680975Y-98644342D01*
X63534657Y-98498024D01*
X63406983Y-98412716D01*
X63362598Y-98383059D01*
X63350884Y-98378207D01*
X63171420Y-98303870D01*
X63171412Y-98303868D01*
X62968469Y-98263500D01*
X62968465Y-98263500D01*
X62761535Y-98263500D01*
X62761530Y-98263500D01*
X62558587Y-98303868D01*
X62558579Y-98303870D01*
X62367403Y-98383058D01*
X62195342Y-98498024D01*
X62049024Y-98644342D01*
X61934058Y-98816403D01*
X61854870Y-99007579D01*
X61854868Y-99007587D01*
X61814500Y-99210530D01*
X60981500Y-99210530D01*
X60981500Y-96670530D01*
X61814500Y-96670530D01*
X61814500Y-96877469D01*
X61854868Y-97080412D01*
X61854870Y-97080420D01*
X61934058Y-97271596D01*
X62049024Y-97443657D01*
X62195342Y-97589975D01*
X62195345Y-97589977D01*
X62367402Y-97704941D01*
X62558580Y-97784130D01*
X62699744Y-97812209D01*
X62761530Y-97824499D01*
X62761534Y-97824500D01*
X62761535Y-97824500D01*
X62968466Y-97824500D01*
X62968467Y-97824499D01*
X63171420Y-97784130D01*
X63362598Y-97704941D01*
X63534655Y-97589977D01*
X63680977Y-97443655D01*
X63795941Y-97271598D01*
X63875130Y-97080420D01*
X63915500Y-96877465D01*
X63915500Y-96670535D01*
X63915499Y-96670530D01*
X64354500Y-96670530D01*
X64354500Y-96877469D01*
X64394868Y-97080412D01*
X64394870Y-97080420D01*
X64474058Y-97271596D01*
X64589024Y-97443657D01*
X64735342Y-97589975D01*
X64735345Y-97589977D01*
X64907402Y-97704941D01*
X65098580Y-97784130D01*
X65239744Y-97812209D01*
X65301530Y-97824499D01*
X65301534Y-97824500D01*
X65301535Y-97824500D01*
X65508466Y-97824500D01*
X65508467Y-97824499D01*
X65711420Y-97784130D01*
X65902598Y-97704941D01*
X66074655Y-97589977D01*
X66220977Y-97443655D01*
X66335941Y-97271598D01*
X66415130Y-97080420D01*
X66455500Y-96877465D01*
X66455500Y-96670535D01*
X66415130Y-96467580D01*
X66335941Y-96276402D01*
X66220977Y-96104345D01*
X66220975Y-96104342D01*
X66074657Y-95958024D01*
X65988626Y-95900541D01*
X65902598Y-95843059D01*
X65808864Y-95804233D01*
X65711420Y-95763870D01*
X65711412Y-95763868D01*
X65508469Y-95723500D01*
X65508465Y-95723500D01*
X65301535Y-95723500D01*
X65301530Y-95723500D01*
X65098587Y-95763868D01*
X65098579Y-95763870D01*
X64907403Y-95843058D01*
X64735342Y-95958024D01*
X64589024Y-96104342D01*
X64474058Y-96276403D01*
X64394870Y-96467579D01*
X64394868Y-96467587D01*
X64354500Y-96670530D01*
X63915499Y-96670530D01*
X63875130Y-96467580D01*
X63795941Y-96276402D01*
X63680977Y-96104345D01*
X63680975Y-96104342D01*
X63534657Y-95958024D01*
X63448626Y-95900541D01*
X63362598Y-95843059D01*
X63268864Y-95804233D01*
X63171420Y-95763870D01*
X63171412Y-95763868D01*
X62968469Y-95723500D01*
X62968465Y-95723500D01*
X62761535Y-95723500D01*
X62761530Y-95723500D01*
X62558587Y-95763868D01*
X62558579Y-95763870D01*
X62367403Y-95843058D01*
X62195342Y-95958024D01*
X62049024Y-96104342D01*
X61934058Y-96276403D01*
X61854870Y-96467579D01*
X61854868Y-96467587D01*
X61814500Y-96670530D01*
X60981500Y-96670530D01*
X60981500Y-94130530D01*
X61814500Y-94130530D01*
X61814500Y-94337469D01*
X61818069Y-94355410D01*
X61854870Y-94540420D01*
X61934059Y-94731598D01*
X61989424Y-94814458D01*
X62049024Y-94903657D01*
X62195342Y-95049975D01*
X62195345Y-95049977D01*
X62367402Y-95164941D01*
X62558580Y-95244130D01*
X62761530Y-95284499D01*
X62761534Y-95284500D01*
X62761535Y-95284500D01*
X62968466Y-95284500D01*
X62968467Y-95284499D01*
X63171420Y-95244130D01*
X63362598Y-95164941D01*
X63534655Y-95049977D01*
X63680977Y-94903655D01*
X63795941Y-94731598D01*
X63875130Y-94540420D01*
X63915500Y-94337465D01*
X63915500Y-94130535D01*
X63915499Y-94130530D01*
X64354500Y-94130530D01*
X64354500Y-94337469D01*
X64358069Y-94355410D01*
X64394870Y-94540420D01*
X64474059Y-94731598D01*
X64529424Y-94814458D01*
X64589024Y-94903657D01*
X64735342Y-95049975D01*
X64735345Y-95049977D01*
X64907402Y-95164941D01*
X65098580Y-95244130D01*
X65301530Y-95284499D01*
X65301534Y-95284500D01*
X65301535Y-95284500D01*
X65508466Y-95284500D01*
X65508467Y-95284499D01*
X65711420Y-95244130D01*
X65902598Y-95164941D01*
X66074655Y-95049977D01*
X66220977Y-94903655D01*
X66335941Y-94731598D01*
X66415130Y-94540420D01*
X66455500Y-94337465D01*
X66455500Y-94130535D01*
X66415130Y-93927580D01*
X66335941Y-93736402D01*
X66220977Y-93564345D01*
X66220975Y-93564342D01*
X66074657Y-93418024D01*
X65988626Y-93360541D01*
X65902598Y-93303059D01*
X65808864Y-93264233D01*
X65711420Y-93223870D01*
X65711412Y-93223868D01*
X65508469Y-93183500D01*
X65508465Y-93183500D01*
X65301535Y-93183500D01*
X65301530Y-93183500D01*
X65098587Y-93223868D01*
X65098579Y-93223870D01*
X64907403Y-93303058D01*
X64735342Y-93418024D01*
X64589024Y-93564342D01*
X64474058Y-93736403D01*
X64394870Y-93927579D01*
X64394868Y-93927587D01*
X64354500Y-94130530D01*
X63915499Y-94130530D01*
X63875130Y-93927580D01*
X63795941Y-93736402D01*
X63680977Y-93564345D01*
X63680975Y-93564342D01*
X63534657Y-93418024D01*
X63448626Y-93360541D01*
X63362598Y-93303059D01*
X63268864Y-93264233D01*
X63171420Y-93223870D01*
X63171412Y-93223868D01*
X62968469Y-93183500D01*
X62968465Y-93183500D01*
X62761535Y-93183500D01*
X62761530Y-93183500D01*
X62558587Y-93223868D01*
X62558579Y-93223870D01*
X62367403Y-93303058D01*
X62195342Y-93418024D01*
X62049024Y-93564342D01*
X61934058Y-93736403D01*
X61854870Y-93927579D01*
X61854868Y-93927587D01*
X61814500Y-94130530D01*
X60981500Y-94130530D01*
X60981500Y-91590530D01*
X61814500Y-91590530D01*
X61814500Y-91797469D01*
X61818069Y-91815410D01*
X61854870Y-92000420D01*
X61934059Y-92191598D01*
X61989424Y-92274458D01*
X62049024Y-92363657D01*
X62195342Y-92509975D01*
X62195345Y-92509977D01*
X62367402Y-92624941D01*
X62558580Y-92704130D01*
X62761530Y-92744499D01*
X62761534Y-92744500D01*
X62761535Y-92744500D01*
X62968466Y-92744500D01*
X62968467Y-92744499D01*
X63171420Y-92704130D01*
X63362598Y-92624941D01*
X63534655Y-92509977D01*
X63680977Y-92363655D01*
X63795941Y-92191598D01*
X63875130Y-92000420D01*
X63915500Y-91797465D01*
X63915500Y-91590535D01*
X63915499Y-91590530D01*
X64354500Y-91590530D01*
X64354500Y-91797469D01*
X64358069Y-91815410D01*
X64394870Y-92000420D01*
X64474059Y-92191598D01*
X64529424Y-92274458D01*
X64589024Y-92363657D01*
X64735342Y-92509975D01*
X64735345Y-92509977D01*
X64907402Y-92624941D01*
X65098580Y-92704130D01*
X65301530Y-92744499D01*
X65301534Y-92744500D01*
X65301535Y-92744500D01*
X65508466Y-92744500D01*
X65508467Y-92744499D01*
X65711420Y-92704130D01*
X65902598Y-92624941D01*
X66074655Y-92509977D01*
X66220977Y-92363655D01*
X66335941Y-92191598D01*
X66415130Y-92000420D01*
X66455500Y-91797465D01*
X66455500Y-91590535D01*
X66415130Y-91387580D01*
X66335941Y-91196402D01*
X66220977Y-91024345D01*
X66220975Y-91024342D01*
X66074657Y-90878024D01*
X65988626Y-90820541D01*
X65902598Y-90763059D01*
X65808864Y-90724233D01*
X65711420Y-90683870D01*
X65711412Y-90683868D01*
X65508469Y-90643500D01*
X65508465Y-90643500D01*
X65301535Y-90643500D01*
X65301530Y-90643500D01*
X65098587Y-90683868D01*
X65098579Y-90683870D01*
X64907403Y-90763058D01*
X64735342Y-90878024D01*
X64589024Y-91024342D01*
X64474058Y-91196403D01*
X64394870Y-91387579D01*
X64394868Y-91387587D01*
X64354500Y-91590530D01*
X63915499Y-91590530D01*
X63875130Y-91387580D01*
X63795941Y-91196402D01*
X63680977Y-91024345D01*
X63680975Y-91024342D01*
X63534657Y-90878024D01*
X63448626Y-90820541D01*
X63362598Y-90763059D01*
X63268864Y-90724233D01*
X63171420Y-90683870D01*
X63171412Y-90683868D01*
X62968469Y-90643500D01*
X62968465Y-90643500D01*
X62761535Y-90643500D01*
X62761530Y-90643500D01*
X62558587Y-90683868D01*
X62558579Y-90683870D01*
X62367403Y-90763058D01*
X62195342Y-90878024D01*
X62049024Y-91024342D01*
X61934058Y-91196403D01*
X61854870Y-91387579D01*
X61854868Y-91387587D01*
X61814500Y-91590530D01*
X60981500Y-91590530D01*
X60981500Y-89050530D01*
X61814500Y-89050530D01*
X61814500Y-89257469D01*
X61818069Y-89275410D01*
X61854870Y-89460420D01*
X61934059Y-89651598D01*
X61989424Y-89734458D01*
X62049024Y-89823657D01*
X62195342Y-89969975D01*
X62195345Y-89969977D01*
X62367402Y-90084941D01*
X62558580Y-90164130D01*
X62761530Y-90204499D01*
X62761534Y-90204500D01*
X62761535Y-90204500D01*
X62968466Y-90204500D01*
X62968467Y-90204499D01*
X63171420Y-90164130D01*
X63362598Y-90084941D01*
X63534655Y-89969977D01*
X63680977Y-89823655D01*
X63795941Y-89651598D01*
X63875130Y-89460420D01*
X63915500Y-89257465D01*
X63915500Y-89050535D01*
X63875130Y-88847580D01*
X63795941Y-88656402D01*
X63680977Y-88484345D01*
X63680975Y-88484342D01*
X63534657Y-88338024D01*
X63448626Y-88280541D01*
X63362598Y-88223059D01*
X63171420Y-88143870D01*
X63171412Y-88143868D01*
X62968469Y-88103500D01*
X62968465Y-88103500D01*
X62761535Y-88103500D01*
X62761530Y-88103500D01*
X62558587Y-88143868D01*
X62558579Y-88143870D01*
X62367403Y-88223058D01*
X62195342Y-88338024D01*
X62049024Y-88484342D01*
X61934058Y-88656403D01*
X61854870Y-88847579D01*
X61854868Y-88847587D01*
X61814500Y-89050530D01*
X60981500Y-89050530D01*
X60981500Y-86510530D01*
X61814500Y-86510530D01*
X61814500Y-86717469D01*
X61854868Y-86920412D01*
X61854870Y-86920420D01*
X61934058Y-87111596D01*
X62049024Y-87283657D01*
X62195342Y-87429975D01*
X62195345Y-87429977D01*
X62367402Y-87544941D01*
X62558580Y-87624130D01*
X62761530Y-87664499D01*
X62761534Y-87664500D01*
X62761535Y-87664500D01*
X62968466Y-87664500D01*
X62968467Y-87664499D01*
X63171420Y-87624130D01*
X63362598Y-87544941D01*
X63534655Y-87429977D01*
X63680977Y-87283655D01*
X63795941Y-87111598D01*
X63875130Y-86920420D01*
X63915500Y-86717465D01*
X63915500Y-86510535D01*
X63915499Y-86510530D01*
X64354500Y-86510530D01*
X64354500Y-86717469D01*
X64394868Y-86920412D01*
X64394870Y-86920420D01*
X64474058Y-87111596D01*
X64589024Y-87283657D01*
X64735342Y-87429975D01*
X64735345Y-87429977D01*
X64907402Y-87544941D01*
X65098580Y-87624130D01*
X65301530Y-87664499D01*
X65301534Y-87664500D01*
X65301535Y-87664500D01*
X65508466Y-87664500D01*
X65508467Y-87664499D01*
X65711420Y-87624130D01*
X65902598Y-87544941D01*
X66074655Y-87429977D01*
X66220977Y-87283655D01*
X66335941Y-87111598D01*
X66415130Y-86920420D01*
X66455500Y-86717465D01*
X66455500Y-86510535D01*
X66455499Y-86510530D01*
X95469500Y-86510530D01*
X95469500Y-86717469D01*
X95509868Y-86920412D01*
X95509870Y-86920420D01*
X95589058Y-87111596D01*
X95704024Y-87283657D01*
X95850342Y-87429975D01*
X95850345Y-87429977D01*
X96022402Y-87544941D01*
X96213580Y-87624130D01*
X96416530Y-87664499D01*
X96416534Y-87664500D01*
X96416535Y-87664500D01*
X96623466Y-87664500D01*
X96623467Y-87664499D01*
X96826420Y-87624130D01*
X97017598Y-87544941D01*
X97189655Y-87429977D01*
X97335977Y-87283655D01*
X97450941Y-87111598D01*
X97530130Y-86920420D01*
X97570500Y-86717465D01*
X97570500Y-86510535D01*
X97570499Y-86510530D01*
X98009500Y-86510530D01*
X98009500Y-86717469D01*
X98049868Y-86920412D01*
X98049870Y-86920420D01*
X98129058Y-87111596D01*
X98244024Y-87283657D01*
X98390342Y-87429975D01*
X98390345Y-87429977D01*
X98562402Y-87544941D01*
X98753580Y-87624130D01*
X98956530Y-87664499D01*
X98956534Y-87664500D01*
X98956535Y-87664500D01*
X99163466Y-87664500D01*
X99163467Y-87664499D01*
X99366420Y-87624130D01*
X99557598Y-87544941D01*
X99729655Y-87429977D01*
X99875977Y-87283655D01*
X99990941Y-87111598D01*
X100070130Y-86920420D01*
X100110500Y-86717465D01*
X100110500Y-86510535D01*
X100070130Y-86307580D01*
X99990941Y-86116402D01*
X99875977Y-85944345D01*
X99875975Y-85944342D01*
X99729657Y-85798024D01*
X99643626Y-85740541D01*
X99557598Y-85683059D01*
X99366420Y-85603870D01*
X99366412Y-85603868D01*
X99163469Y-85563500D01*
X99163465Y-85563500D01*
X98956535Y-85563500D01*
X98956530Y-85563500D01*
X98753587Y-85603868D01*
X98753579Y-85603870D01*
X98562403Y-85683058D01*
X98390342Y-85798024D01*
X98244024Y-85944342D01*
X98129058Y-86116403D01*
X98049870Y-86307579D01*
X98049868Y-86307587D01*
X98009500Y-86510530D01*
X97570499Y-86510530D01*
X97530130Y-86307580D01*
X97450941Y-86116402D01*
X97335977Y-85944345D01*
X97335975Y-85944342D01*
X97189657Y-85798024D01*
X97103626Y-85740541D01*
X97017598Y-85683059D01*
X96826420Y-85603870D01*
X96826412Y-85603868D01*
X96623469Y-85563500D01*
X96623465Y-85563500D01*
X96416535Y-85563500D01*
X96416530Y-85563500D01*
X96213587Y-85603868D01*
X96213579Y-85603870D01*
X96022403Y-85683058D01*
X95850342Y-85798024D01*
X95704024Y-85944342D01*
X95589058Y-86116403D01*
X95509870Y-86307579D01*
X95509868Y-86307587D01*
X95469500Y-86510530D01*
X66455499Y-86510530D01*
X66415130Y-86307580D01*
X66335941Y-86116402D01*
X66220977Y-85944345D01*
X66220975Y-85944342D01*
X66074657Y-85798024D01*
X65988626Y-85740541D01*
X65902598Y-85683059D01*
X65711420Y-85603870D01*
X65711412Y-85603868D01*
X65508469Y-85563500D01*
X65508465Y-85563500D01*
X65301535Y-85563500D01*
X65301530Y-85563500D01*
X65098587Y-85603868D01*
X65098579Y-85603870D01*
X64907403Y-85683058D01*
X64735342Y-85798024D01*
X64589024Y-85944342D01*
X64474058Y-86116403D01*
X64394870Y-86307579D01*
X64394868Y-86307587D01*
X64354500Y-86510530D01*
X63915499Y-86510530D01*
X63875130Y-86307580D01*
X63795941Y-86116402D01*
X63680977Y-85944345D01*
X63680975Y-85944342D01*
X63534657Y-85798024D01*
X63448626Y-85740541D01*
X63362598Y-85683059D01*
X63171420Y-85603870D01*
X63171412Y-85603868D01*
X62968469Y-85563500D01*
X62968465Y-85563500D01*
X62761535Y-85563500D01*
X62761530Y-85563500D01*
X62558587Y-85603868D01*
X62558579Y-85603870D01*
X62367403Y-85683058D01*
X62195342Y-85798024D01*
X62049024Y-85944342D01*
X61934058Y-86116403D01*
X61854870Y-86307579D01*
X61854868Y-86307587D01*
X61814500Y-86510530D01*
X60981500Y-86510530D01*
X60981500Y-83970530D01*
X61814500Y-83970530D01*
X61814500Y-84177469D01*
X61854868Y-84380412D01*
X61854870Y-84380420D01*
X61934058Y-84571596D01*
X62049024Y-84743657D01*
X62195342Y-84889975D01*
X62195345Y-84889977D01*
X62367402Y-85004941D01*
X62558580Y-85084130D01*
X62761530Y-85124499D01*
X62761534Y-85124500D01*
X62761535Y-85124500D01*
X62968466Y-85124500D01*
X62968467Y-85124499D01*
X63171420Y-85084130D01*
X63362598Y-85004941D01*
X63534655Y-84889977D01*
X63680977Y-84743655D01*
X63795941Y-84571598D01*
X63875130Y-84380420D01*
X63915500Y-84177465D01*
X63915500Y-83970535D01*
X63915499Y-83970530D01*
X64354500Y-83970530D01*
X64354500Y-84177469D01*
X64394868Y-84380412D01*
X64394870Y-84380420D01*
X64474058Y-84571596D01*
X64589024Y-84743657D01*
X64735342Y-84889975D01*
X64735345Y-84889977D01*
X64907402Y-85004941D01*
X65098580Y-85084130D01*
X65301530Y-85124499D01*
X65301534Y-85124500D01*
X65301535Y-85124500D01*
X65508466Y-85124500D01*
X65508467Y-85124499D01*
X65711420Y-85084130D01*
X65902598Y-85004941D01*
X66074655Y-84889977D01*
X66220977Y-84743655D01*
X66335941Y-84571598D01*
X66415130Y-84380420D01*
X66455500Y-84177465D01*
X66455500Y-83970535D01*
X66415130Y-83767580D01*
X66335941Y-83576402D01*
X66220977Y-83404345D01*
X66220975Y-83404342D01*
X66074657Y-83258024D01*
X65956455Y-83179045D01*
X65902598Y-83143059D01*
X65843766Y-83118690D01*
X65711420Y-83063870D01*
X65711412Y-83063868D01*
X65508469Y-83023500D01*
X65508465Y-83023500D01*
X65301535Y-83023500D01*
X65301530Y-83023500D01*
X65098587Y-83063868D01*
X65098579Y-83063870D01*
X64907403Y-83143058D01*
X64735342Y-83258024D01*
X64589024Y-83404342D01*
X64474058Y-83576403D01*
X64394870Y-83767579D01*
X64394868Y-83767587D01*
X64354500Y-83970530D01*
X63915499Y-83970530D01*
X63875130Y-83767580D01*
X63795941Y-83576402D01*
X63680977Y-83404345D01*
X63680975Y-83404342D01*
X63534657Y-83258024D01*
X63416455Y-83179045D01*
X63362598Y-83143059D01*
X63303766Y-83118690D01*
X63171420Y-83063870D01*
X63171412Y-83063868D01*
X62968469Y-83023500D01*
X62968465Y-83023500D01*
X62761535Y-83023500D01*
X62761530Y-83023500D01*
X62558587Y-83063868D01*
X62558579Y-83063870D01*
X62367403Y-83143058D01*
X62195342Y-83258024D01*
X62049024Y-83404342D01*
X61934058Y-83576403D01*
X61854870Y-83767579D01*
X61854868Y-83767587D01*
X61814500Y-83970530D01*
X60981500Y-83970530D01*
X60981500Y-78890530D01*
X61814500Y-78890530D01*
X61814500Y-79097469D01*
X61854868Y-79300412D01*
X61854870Y-79300420D01*
X61934058Y-79491596D01*
X62049024Y-79663657D01*
X62195342Y-79809975D01*
X62195345Y-79809977D01*
X62367402Y-79924941D01*
X62558580Y-80004130D01*
X62761530Y-80044499D01*
X62761534Y-80044500D01*
X62761535Y-80044500D01*
X62968466Y-80044500D01*
X62968467Y-80044499D01*
X63171420Y-80004130D01*
X63362598Y-79924941D01*
X63534655Y-79809977D01*
X63680977Y-79663655D01*
X63795941Y-79491598D01*
X63875130Y-79300420D01*
X63894333Y-79203876D01*
X63903809Y-79177115D01*
X63914962Y-79100165D01*
X63915500Y-79097465D01*
X63915500Y-79097449D01*
X63915531Y-79097145D01*
X63916216Y-79091524D01*
X63945349Y-78890534D01*
X63945491Y-78889554D01*
X63946489Y-78881564D01*
X63946585Y-78880651D01*
X63947273Y-78872591D01*
X63960809Y-78665879D01*
X63960885Y-78664795D01*
X63974465Y-78482397D01*
X63976009Y-78470070D01*
X63985993Y-78413521D01*
X63989331Y-78399463D01*
X64004554Y-78348731D01*
X64010410Y-78333117D01*
X64034273Y-78280558D01*
X64041858Y-78266380D01*
X64081462Y-78202677D01*
X64089260Y-78191549D01*
X64152292Y-78111359D01*
X64159141Y-78103370D01*
X64219436Y-78038840D01*
X64279589Y-78003297D01*
X64310039Y-77999500D01*
X64614505Y-77999500D01*
X64681544Y-78019185D01*
X64727299Y-78071989D01*
X64737243Y-78141147D01*
X64708218Y-78204703D01*
X64702186Y-78211181D01*
X64589025Y-78324341D01*
X64589024Y-78324342D01*
X64474058Y-78496403D01*
X64394870Y-78687579D01*
X64394868Y-78687587D01*
X64354500Y-78890530D01*
X64354500Y-79097469D01*
X64394868Y-79300412D01*
X64394870Y-79300420D01*
X64474058Y-79491596D01*
X64589024Y-79663657D01*
X64702186Y-79776819D01*
X64735671Y-79838142D01*
X64730687Y-79907834D01*
X64688815Y-79963767D01*
X64623351Y-79988184D01*
X64614505Y-79988500D01*
X64080198Y-79988500D01*
X64008599Y-80018158D01*
X64008598Y-80018157D01*
X63978943Y-80030441D01*
X63978942Y-80030442D01*
X63883444Y-80125938D01*
X63878231Y-80130857D01*
X63870305Y-80137915D01*
X63853683Y-80148264D01*
X63758809Y-80237208D01*
X63757600Y-80238286D01*
X63757307Y-80238424D01*
X63752417Y-80242654D01*
X63674079Y-80305088D01*
X63664300Y-80312133D01*
X63637152Y-80329752D01*
X63637068Y-80329805D01*
X63608219Y-80348527D01*
X63596533Y-80355237D01*
X63557399Y-80374963D01*
X63537778Y-80382835D01*
X63439147Y-80412934D01*
X63416411Y-80417602D01*
X63264145Y-80434225D01*
X63257194Y-80434786D01*
X63197350Y-80437930D01*
X63197341Y-80437930D01*
X63197294Y-80437933D01*
X63195811Y-80438021D01*
X63194115Y-80438123D01*
X62969376Y-80453324D01*
X62969347Y-80453326D01*
X62969340Y-80453327D01*
X62967273Y-80453508D01*
X62961251Y-80454035D01*
X62960488Y-80454117D01*
X62960373Y-80454130D01*
X62958696Y-80454343D01*
X62952251Y-80455165D01*
X62810621Y-80476112D01*
X62681250Y-80495247D01*
X62675875Y-80496115D01*
X62675863Y-80496117D01*
X62675845Y-80496120D01*
X62675320Y-80496212D01*
X62663907Y-80500779D01*
X62642033Y-80507270D01*
X62558587Y-80523868D01*
X62558579Y-80523870D01*
X62367403Y-80603058D01*
X62195342Y-80718024D01*
X62049024Y-80864342D01*
X61934058Y-81036403D01*
X61854870Y-81227579D01*
X61854868Y-81227587D01*
X61814500Y-81430530D01*
X61814500Y-81637469D01*
X61854868Y-81840412D01*
X61854870Y-81840420D01*
X61934058Y-82031596D01*
X62049024Y-82203657D01*
X62195342Y-82349975D01*
X62195345Y-82349977D01*
X62367402Y-82464941D01*
X62558580Y-82544130D01*
X62761530Y-82584499D01*
X62761534Y-82584500D01*
X62761535Y-82584500D01*
X62968466Y-82584500D01*
X62968467Y-82584499D01*
X63171420Y-82544130D01*
X63362598Y-82464941D01*
X63534655Y-82349977D01*
X63680977Y-82203655D01*
X63795941Y-82031598D01*
X63875130Y-81840420D01*
X63894333Y-81743876D01*
X63903809Y-81717115D01*
X63914962Y-81640165D01*
X63915500Y-81637465D01*
X63915500Y-81637449D01*
X63915531Y-81637145D01*
X63916216Y-81631524D01*
X63945349Y-81430534D01*
X63945491Y-81429554D01*
X63946489Y-81421564D01*
X63946585Y-81420651D01*
X63947273Y-81412591D01*
X63960809Y-81205879D01*
X63960885Y-81204795D01*
X63965835Y-81138310D01*
X63974465Y-81022397D01*
X63976009Y-81010070D01*
X63985993Y-80953521D01*
X63989331Y-80939463D01*
X64004554Y-80888731D01*
X64010410Y-80873117D01*
X64034273Y-80820558D01*
X64041858Y-80806380D01*
X64081462Y-80742677D01*
X64089260Y-80731549D01*
X64152292Y-80651359D01*
X64159141Y-80643370D01*
X64219436Y-80578840D01*
X64279589Y-80543297D01*
X64310039Y-80539500D01*
X64614505Y-80539500D01*
X64681544Y-80559185D01*
X64727299Y-80611989D01*
X64737243Y-80681147D01*
X64708218Y-80744703D01*
X64702186Y-80751181D01*
X64589025Y-80864341D01*
X64589024Y-80864342D01*
X64474058Y-81036403D01*
X64394870Y-81227579D01*
X64394868Y-81227587D01*
X64354500Y-81430530D01*
X64354500Y-81637469D01*
X64394868Y-81840412D01*
X64394870Y-81840420D01*
X64474058Y-82031596D01*
X64589024Y-82203657D01*
X64735342Y-82349975D01*
X64735345Y-82349977D01*
X64907402Y-82464941D01*
X65098580Y-82544130D01*
X65301530Y-82584499D01*
X65301534Y-82584500D01*
X65301535Y-82584500D01*
X65508466Y-82584500D01*
X65508467Y-82584499D01*
X65711420Y-82544130D01*
X65902598Y-82464941D01*
X66074655Y-82349977D01*
X66220977Y-82203655D01*
X66335941Y-82031598D01*
X66415130Y-81840420D01*
X66455500Y-81637465D01*
X66455500Y-81430535D01*
X66415130Y-81227580D01*
X66335941Y-81036402D01*
X66220977Y-80864345D01*
X66220975Y-80864342D01*
X66107814Y-80751181D01*
X66074329Y-80689858D01*
X66079313Y-80620166D01*
X66121185Y-80564233D01*
X66186649Y-80539816D01*
X66195495Y-80539500D01*
X67881699Y-80539500D01*
X67881700Y-80539500D01*
X67982958Y-80497557D01*
X68060457Y-80420058D01*
X68060456Y-80420058D01*
X68119025Y-80361489D01*
X68119024Y-80361489D01*
X78996504Y-69484010D01*
X79001948Y-69478886D01*
X79009839Y-69471895D01*
X79026231Y-69461729D01*
X79115486Y-69378315D01*
X79116698Y-69377243D01*
X79117028Y-69377087D01*
X79122291Y-69372574D01*
X79193643Y-69316507D01*
X79204233Y-69309048D01*
X79252797Y-69278506D01*
X79265412Y-69271560D01*
X79297095Y-69256448D01*
X79317728Y-69248773D01*
X79410334Y-69223425D01*
X79431873Y-69219533D01*
X79607454Y-69203629D01*
X79609344Y-69203473D01*
X79805362Y-69188918D01*
X79813043Y-69188202D01*
X79813917Y-69188104D01*
X79821578Y-69187099D01*
X79944578Y-69168601D01*
X80059008Y-69151394D01*
X80062439Y-69150837D01*
X80063590Y-69150651D01*
X80064120Y-69150559D01*
X80075771Y-69145906D01*
X80097554Y-69139449D01*
X80172651Y-69124512D01*
X80347815Y-69051956D01*
X80505458Y-68946622D01*
X80639522Y-68812558D01*
X80744856Y-68654915D01*
X80817412Y-68479751D01*
X80854400Y-68293798D01*
X80854400Y-68104202D01*
X80817412Y-67918249D01*
X80744856Y-67743085D01*
X80709586Y-67690300D01*
X80639522Y-67585441D01*
X80505458Y-67451377D01*
X80347812Y-67346042D01*
X80172651Y-67273488D01*
X80172643Y-67273486D01*
X79986702Y-67236500D01*
X79986698Y-67236500D01*
X79797102Y-67236500D01*
X79797097Y-67236500D01*
X79611156Y-67273486D01*
X79611148Y-67273488D01*
X79435987Y-67346042D01*
X79278341Y-67451377D01*
X79144277Y-67585441D01*
X79038942Y-67743087D01*
X78966387Y-67918250D01*
X78966386Y-67918254D01*
X78950555Y-67997842D01*
X78945882Y-68014882D01*
X78939376Y-68033332D01*
X78939374Y-68033341D01*
X78900150Y-68306508D01*
X78899223Y-68313914D01*
X78899141Y-68314683D01*
X78898464Y-68322358D01*
X78887310Y-68482990D01*
X78887195Y-68484510D01*
X78873935Y-68646597D01*
X78872315Y-68658848D01*
X78863610Y-68706328D01*
X78860202Y-68720295D01*
X78847398Y-68762082D01*
X78841499Y-68777560D01*
X78821523Y-68821001D01*
X78813942Y-68835031D01*
X78780013Y-68889184D01*
X78772264Y-68900178D01*
X78717149Y-68969999D01*
X78710370Y-68977883D01*
X78629254Y-69064587D01*
X78623799Y-69073209D01*
X78606694Y-69094588D01*
X67749104Y-79952181D01*
X67687781Y-79985666D01*
X67661423Y-79988500D01*
X66195495Y-79988500D01*
X66128456Y-79968815D01*
X66082701Y-79916011D01*
X66072757Y-79846853D01*
X66101782Y-79783297D01*
X66107814Y-79776819D01*
X66220974Y-79663658D01*
X66220975Y-79663657D01*
X66220977Y-79663655D01*
X66335941Y-79491598D01*
X66415130Y-79300420D01*
X66455500Y-79097465D01*
X66455500Y-78890535D01*
X66415130Y-78687580D01*
X66335941Y-78496402D01*
X66220977Y-78324345D01*
X66220975Y-78324342D01*
X66107814Y-78211181D01*
X66074329Y-78149858D01*
X66079313Y-78080166D01*
X66121185Y-78024233D01*
X66186649Y-77999816D01*
X66195495Y-77999500D01*
X67881699Y-77999500D01*
X67881700Y-77999500D01*
X67982958Y-77957557D01*
X68060457Y-77880058D01*
X68060456Y-77880058D01*
X68119025Y-77821489D01*
X68119024Y-77821489D01*
X78996504Y-66944010D01*
X79001948Y-66938886D01*
X79009839Y-66931895D01*
X79026231Y-66921729D01*
X79115486Y-66838315D01*
X79116698Y-66837243D01*
X79117028Y-66837087D01*
X79122291Y-66832574D01*
X79193643Y-66776507D01*
X79204233Y-66769048D01*
X79252797Y-66738506D01*
X79265412Y-66731560D01*
X79297095Y-66716448D01*
X79317728Y-66708773D01*
X79410334Y-66683425D01*
X79431873Y-66679533D01*
X79607454Y-66663629D01*
X79609344Y-66663473D01*
X79805362Y-66648918D01*
X79813043Y-66648202D01*
X79813917Y-66648104D01*
X79821578Y-66647099D01*
X79944578Y-66628601D01*
X80059008Y-66611394D01*
X80062439Y-66610837D01*
X80063590Y-66610651D01*
X80064120Y-66610559D01*
X80075771Y-66605906D01*
X80097554Y-66599449D01*
X80172651Y-66584512D01*
X80347815Y-66511956D01*
X80505458Y-66406622D01*
X80639522Y-66272558D01*
X80744856Y-66114915D01*
X80817412Y-65939751D01*
X80854400Y-65753798D01*
X80854400Y-65564202D01*
X80854399Y-65564197D01*
X86549400Y-65564197D01*
X86549400Y-65753802D01*
X86586386Y-65939743D01*
X86586388Y-65939751D01*
X86658942Y-66114912D01*
X86764277Y-66272558D01*
X86898341Y-66406622D01*
X86939440Y-66434083D01*
X87055985Y-66511956D01*
X87231149Y-66584512D01*
X87260380Y-66590326D01*
X87310747Y-66600345D01*
X87327789Y-66605018D01*
X87346239Y-66611524D01*
X87619422Y-66650751D01*
X87626831Y-66651677D01*
X87626851Y-66651679D01*
X87626858Y-66651680D01*
X87627672Y-66651767D01*
X87635247Y-66652434D01*
X87795884Y-66663587D01*
X87797391Y-66663700D01*
X87959503Y-66676962D01*
X87971735Y-66678579D01*
X88019230Y-66687287D01*
X88033189Y-66690693D01*
X88074988Y-66703501D01*
X88090452Y-66709395D01*
X88133903Y-66729374D01*
X88147934Y-66736955D01*
X88202076Y-66770879D01*
X88213067Y-66778626D01*
X88282902Y-66833752D01*
X88290787Y-66840532D01*
X88377482Y-66921640D01*
X88377486Y-66921644D01*
X88386105Y-66927097D01*
X88407488Y-66944204D01*
X89096181Y-67632896D01*
X89129666Y-67694219D01*
X89132500Y-67720577D01*
X89132500Y-74476800D01*
X89140850Y-74496957D01*
X89140851Y-74496960D01*
X89174443Y-74578058D01*
X95111933Y-80515548D01*
X95116854Y-80520761D01*
X95123910Y-80528684D01*
X95134266Y-80545318D01*
X95223240Y-80640220D01*
X95224279Y-80641387D01*
X95224418Y-80641681D01*
X95228647Y-80646571D01*
X95285593Y-80718023D01*
X95291088Y-80724917D01*
X95298135Y-80734700D01*
X95334524Y-80790774D01*
X95341236Y-80802462D01*
X95360965Y-80841603D01*
X95368833Y-80861214D01*
X95374788Y-80880725D01*
X95398935Y-80959852D01*
X95403602Y-80982588D01*
X95420225Y-81134853D01*
X95420786Y-81141804D01*
X95423930Y-81201649D01*
X95424123Y-81204884D01*
X95439326Y-81429653D01*
X95440032Y-81437715D01*
X95440127Y-81438596D01*
X95441168Y-81446757D01*
X95481254Y-81717788D01*
X95482056Y-81722776D01*
X95482159Y-81723372D01*
X95486754Y-81734881D01*
X95493209Y-81756663D01*
X95509868Y-81840414D01*
X95509870Y-81840420D01*
X95589058Y-82031596D01*
X95704024Y-82203657D01*
X95817186Y-82316819D01*
X95850671Y-82378142D01*
X95845687Y-82447834D01*
X95803815Y-82503767D01*
X95738351Y-82528184D01*
X95729505Y-82528500D01*
X94653478Y-82528500D01*
X94586439Y-82508815D01*
X94565797Y-82492181D01*
X87823719Y-75750103D01*
X87790234Y-75688780D01*
X87787400Y-75662422D01*
X87787400Y-69740801D01*
X87787627Y-69733305D01*
X87788264Y-69722781D01*
X87792664Y-69704003D01*
X87796793Y-69581931D01*
X87796893Y-69580296D01*
X87797017Y-69579952D01*
X87797547Y-69573035D01*
X87808355Y-69482949D01*
X87810568Y-69470185D01*
X87823315Y-69414229D01*
X87827321Y-69400410D01*
X87839038Y-69367318D01*
X87848208Y-69347287D01*
X87854796Y-69335735D01*
X87883812Y-69284850D01*
X87895759Y-69263899D01*
X87908243Y-69245910D01*
X87917084Y-69235308D01*
X88021208Y-69110442D01*
X88022419Y-69109013D01*
X88150690Y-68960166D01*
X88155669Y-68954162D01*
X88156217Y-68953475D01*
X88160870Y-68947413D01*
X88303505Y-68754284D01*
X88306194Y-68750557D01*
X88306504Y-68750117D01*
X88311467Y-68738558D01*
X88322299Y-68718604D01*
X88364856Y-68654915D01*
X88437412Y-68479751D01*
X88474400Y-68293798D01*
X88474400Y-68104202D01*
X88437412Y-67918249D01*
X88364856Y-67743085D01*
X88329586Y-67690300D01*
X88259522Y-67585441D01*
X88125458Y-67451377D01*
X87967812Y-67346042D01*
X87792651Y-67273488D01*
X87792643Y-67273486D01*
X87606702Y-67236500D01*
X87606698Y-67236500D01*
X87417102Y-67236500D01*
X87417097Y-67236500D01*
X87231156Y-67273486D01*
X87231148Y-67273488D01*
X87055987Y-67346042D01*
X86898341Y-67451377D01*
X86764277Y-67585441D01*
X86658942Y-67743087D01*
X86586388Y-67918248D01*
X86586386Y-67918256D01*
X86549400Y-68104197D01*
X86549400Y-68293802D01*
X86586386Y-68479743D01*
X86586388Y-68479751D01*
X86658943Y-68654913D01*
X86704026Y-68722386D01*
X86712768Y-68737735D01*
X86721221Y-68755393D01*
X86721222Y-68755395D01*
X86721224Y-68755398D01*
X86886660Y-68976309D01*
X86891313Y-68982289D01*
X86891852Y-68982956D01*
X86896661Y-68988690D01*
X86951712Y-69051956D01*
X87002292Y-69110084D01*
X87003285Y-69111240D01*
X87068608Y-69188201D01*
X87096043Y-69220525D01*
X87108591Y-69235308D01*
X87116112Y-69245122D01*
X87143527Y-69284850D01*
X87150989Y-69297129D01*
X87171486Y-69335735D01*
X87178257Y-69350847D01*
X87188025Y-69377243D01*
X87194852Y-69395690D01*
X87199415Y-69410978D01*
X87213711Y-69473247D01*
X87216005Y-69486498D01*
X87226406Y-69574859D01*
X87227187Y-69585229D01*
X87231136Y-69703883D01*
X87233375Y-69713829D01*
X87236400Y-69741052D01*
X87236400Y-75882700D01*
X87278343Y-75983958D01*
X87278344Y-75983959D01*
X94331938Y-83037555D01*
X94331939Y-83037555D01*
X94331941Y-83037557D01*
X94361595Y-83049839D01*
X94361597Y-83049841D01*
X94361598Y-83049841D01*
X94382570Y-83058527D01*
X94433200Y-83079500D01*
X95729505Y-83079500D01*
X95796544Y-83099185D01*
X95842299Y-83151989D01*
X95852243Y-83221147D01*
X95823218Y-83284703D01*
X95817186Y-83291181D01*
X95704025Y-83404341D01*
X95704024Y-83404342D01*
X95589058Y-83576403D01*
X95509870Y-83767579D01*
X95509868Y-83767587D01*
X95469500Y-83970530D01*
X95469500Y-84177469D01*
X95509868Y-84380412D01*
X95509870Y-84380420D01*
X95589058Y-84571596D01*
X95704024Y-84743657D01*
X95850342Y-84889975D01*
X95850345Y-84889977D01*
X96022402Y-85004941D01*
X96213580Y-85084130D01*
X96416530Y-85124499D01*
X96416534Y-85124500D01*
X96416535Y-85124500D01*
X96623466Y-85124500D01*
X96623467Y-85124499D01*
X96826420Y-85084130D01*
X97017598Y-85004941D01*
X97189655Y-84889977D01*
X97335977Y-84743655D01*
X97450941Y-84571598D01*
X97530130Y-84380420D01*
X97570500Y-84177465D01*
X97570500Y-83970535D01*
X97530130Y-83767580D01*
X97450941Y-83576402D01*
X97335977Y-83404345D01*
X97335975Y-83404342D01*
X97222814Y-83291181D01*
X97189329Y-83229858D01*
X97194313Y-83160166D01*
X97236185Y-83104233D01*
X97301649Y-83079816D01*
X97310495Y-83079500D01*
X97615092Y-83079500D01*
X97646364Y-83088682D01*
X97677995Y-83096639D01*
X97680623Y-83098742D01*
X97682131Y-83099185D01*
X97705553Y-83118690D01*
X97762138Y-83179045D01*
X97768647Y-83186571D01*
X97825593Y-83258023D01*
X97831088Y-83264917D01*
X97838135Y-83274700D01*
X97874524Y-83330774D01*
X97881236Y-83342462D01*
X97900965Y-83381603D01*
X97908833Y-83401214D01*
X97938048Y-83496946D01*
X97938935Y-83499852D01*
X97943602Y-83522588D01*
X97960225Y-83674853D01*
X97960786Y-83681804D01*
X97963930Y-83741649D01*
X97964123Y-83744884D01*
X97979326Y-83969653D01*
X97980032Y-83977715D01*
X97980127Y-83978596D01*
X97981168Y-83986757D01*
X98021254Y-84257788D01*
X98022056Y-84262776D01*
X98022159Y-84263372D01*
X98026754Y-84274881D01*
X98033209Y-84296663D01*
X98049868Y-84380414D01*
X98049870Y-84380420D01*
X98129058Y-84571596D01*
X98244024Y-84743657D01*
X98390342Y-84889975D01*
X98390345Y-84889977D01*
X98562402Y-85004941D01*
X98753580Y-85084130D01*
X98956530Y-85124499D01*
X98956534Y-85124500D01*
X98956535Y-85124500D01*
X99163466Y-85124500D01*
X99163467Y-85124499D01*
X99366420Y-85084130D01*
X99557598Y-85004941D01*
X99729655Y-84889977D01*
X99875977Y-84743655D01*
X99990941Y-84571598D01*
X100070130Y-84380420D01*
X100110500Y-84177465D01*
X100110500Y-83970535D01*
X100070130Y-83767580D01*
X99990941Y-83576402D01*
X99875977Y-83404345D01*
X99875975Y-83404342D01*
X99729657Y-83258024D01*
X99611455Y-83179045D01*
X99557598Y-83143059D01*
X99498766Y-83118690D01*
X99366420Y-83063870D01*
X99366414Y-83063868D01*
X99278649Y-83046410D01*
X99278649Y-83046409D01*
X99269872Y-83044663D01*
X99243118Y-83035192D01*
X99166201Y-83024042D01*
X99163471Y-83023499D01*
X99163139Y-83023467D01*
X99157512Y-83022782D01*
X98955573Y-82993509D01*
X98947539Y-82992506D01*
X98946577Y-82992405D01*
X98938607Y-82991726D01*
X98731853Y-82978186D01*
X98730750Y-82978109D01*
X98548419Y-82964533D01*
X98536068Y-82962987D01*
X98479532Y-82953006D01*
X98465454Y-82949663D01*
X98414735Y-82934445D01*
X98399107Y-82928583D01*
X98346580Y-82904734D01*
X98332373Y-82897134D01*
X98268677Y-82857533D01*
X98257517Y-82849713D01*
X98177364Y-82786708D01*
X98169338Y-82779826D01*
X98071062Y-82688001D01*
X98071060Y-82688000D01*
X98071061Y-82688000D01*
X98062500Y-82682590D01*
X98041065Y-82665450D01*
X97946059Y-82570444D01*
X97946058Y-82570443D01*
X97844800Y-82528500D01*
X97310495Y-82528500D01*
X97243456Y-82508815D01*
X97197701Y-82456011D01*
X97187757Y-82386853D01*
X97216782Y-82323297D01*
X97222814Y-82316819D01*
X97335974Y-82203658D01*
X97335975Y-82203657D01*
X97335977Y-82203655D01*
X97450941Y-82031598D01*
X97530130Y-81840420D01*
X97570500Y-81637465D01*
X97570500Y-81430535D01*
X97570499Y-81430530D01*
X98009500Y-81430530D01*
X98009500Y-81637469D01*
X98049868Y-81840412D01*
X98049870Y-81840420D01*
X98129058Y-82031596D01*
X98244024Y-82203657D01*
X98390342Y-82349975D01*
X98390345Y-82349977D01*
X98562402Y-82464941D01*
X98753580Y-82544130D01*
X98956530Y-82584499D01*
X98956534Y-82584500D01*
X98956535Y-82584500D01*
X99163466Y-82584500D01*
X99163467Y-82584499D01*
X99366420Y-82544130D01*
X99557598Y-82464941D01*
X99729655Y-82349977D01*
X99875977Y-82203655D01*
X99990941Y-82031598D01*
X100070130Y-81840420D01*
X100110500Y-81637465D01*
X100110500Y-81430535D01*
X100070130Y-81227580D01*
X99990941Y-81036402D01*
X99875977Y-80864345D01*
X99875975Y-80864342D01*
X99729657Y-80718024D01*
X99643626Y-80660541D01*
X99557598Y-80603059D01*
X99463864Y-80564233D01*
X99366420Y-80523870D01*
X99366412Y-80523868D01*
X99163469Y-80483500D01*
X99163465Y-80483500D01*
X98956535Y-80483500D01*
X98956530Y-80483500D01*
X98753587Y-80523868D01*
X98753579Y-80523870D01*
X98562403Y-80603058D01*
X98390342Y-80718024D01*
X98244024Y-80864342D01*
X98129058Y-81036403D01*
X98049870Y-81227579D01*
X98049868Y-81227587D01*
X98009500Y-81430530D01*
X97570499Y-81430530D01*
X97530130Y-81227580D01*
X97450941Y-81036402D01*
X97335977Y-80864345D01*
X97335975Y-80864342D01*
X97189657Y-80718024D01*
X97103626Y-80660541D01*
X97017598Y-80603059D01*
X96923864Y-80564233D01*
X96826420Y-80523870D01*
X96826414Y-80523868D01*
X96738649Y-80506410D01*
X96738649Y-80506409D01*
X96729872Y-80504663D01*
X96703118Y-80495192D01*
X96626201Y-80484042D01*
X96623471Y-80483499D01*
X96623139Y-80483467D01*
X96617512Y-80482782D01*
X96415573Y-80453509D01*
X96407539Y-80452506D01*
X96406577Y-80452405D01*
X96398607Y-80451726D01*
X96191853Y-80438186D01*
X96190750Y-80438109D01*
X96008419Y-80424533D01*
X95996068Y-80422987D01*
X95939532Y-80413006D01*
X95925454Y-80409663D01*
X95874735Y-80394445D01*
X95859107Y-80388583D01*
X95806580Y-80364734D01*
X95792373Y-80357134D01*
X95728677Y-80317533D01*
X95717517Y-80309713D01*
X95637364Y-80246708D01*
X95629338Y-80239826D01*
X95629048Y-80239555D01*
X95531062Y-80148001D01*
X95531060Y-80148000D01*
X95531061Y-80148000D01*
X95522500Y-80142590D01*
X95501065Y-80125450D01*
X94266145Y-78890530D01*
X95469500Y-78890530D01*
X95469500Y-79097469D01*
X95509868Y-79300412D01*
X95509870Y-79300420D01*
X95589058Y-79491596D01*
X95704024Y-79663657D01*
X95850342Y-79809975D01*
X95850345Y-79809977D01*
X96022402Y-79924941D01*
X96213580Y-80004130D01*
X96416530Y-80044499D01*
X96416534Y-80044500D01*
X96416535Y-80044500D01*
X96623466Y-80044500D01*
X96623467Y-80044499D01*
X96826420Y-80004130D01*
X97017598Y-79924941D01*
X97189655Y-79809977D01*
X97335977Y-79663655D01*
X97450941Y-79491598D01*
X97530130Y-79300420D01*
X97570500Y-79097465D01*
X97570500Y-78890535D01*
X97570499Y-78890530D01*
X98009500Y-78890530D01*
X98009500Y-79097469D01*
X98049868Y-79300412D01*
X98049870Y-79300420D01*
X98129058Y-79491596D01*
X98244024Y-79663657D01*
X98390342Y-79809975D01*
X98390345Y-79809977D01*
X98562402Y-79924941D01*
X98753580Y-80004130D01*
X98956530Y-80044499D01*
X98956534Y-80044500D01*
X98956535Y-80044500D01*
X99163466Y-80044500D01*
X99163467Y-80044499D01*
X99366420Y-80004130D01*
X99557598Y-79924941D01*
X99729655Y-79809977D01*
X99875977Y-79663655D01*
X99990941Y-79491598D01*
X100070130Y-79300420D01*
X100110500Y-79097465D01*
X100110500Y-78890535D01*
X100070130Y-78687580D01*
X99990941Y-78496402D01*
X99875977Y-78324345D01*
X99875975Y-78324342D01*
X99729657Y-78178024D01*
X99643626Y-78120541D01*
X99557598Y-78063059D01*
X99463864Y-78024233D01*
X99366420Y-77983870D01*
X99366412Y-77983868D01*
X99163469Y-77943500D01*
X99163465Y-77943500D01*
X98956535Y-77943500D01*
X98956530Y-77943500D01*
X98753587Y-77983868D01*
X98753579Y-77983870D01*
X98562403Y-78063058D01*
X98390342Y-78178024D01*
X98244024Y-78324342D01*
X98129058Y-78496403D01*
X98049870Y-78687579D01*
X98049868Y-78687587D01*
X98009500Y-78890530D01*
X97570499Y-78890530D01*
X97530130Y-78687580D01*
X97450941Y-78496402D01*
X97335977Y-78324345D01*
X97335975Y-78324342D01*
X97189657Y-78178024D01*
X97103626Y-78120541D01*
X97017598Y-78063059D01*
X96923864Y-78024233D01*
X96826420Y-77983870D01*
X96826412Y-77983868D01*
X96623469Y-77943500D01*
X96623465Y-77943500D01*
X96416535Y-77943500D01*
X96416530Y-77943500D01*
X96213587Y-77983868D01*
X96213579Y-77983870D01*
X96022403Y-78063058D01*
X95850342Y-78178024D01*
X95704024Y-78324342D01*
X95589058Y-78496403D01*
X95509870Y-78687579D01*
X95509868Y-78687587D01*
X95469500Y-78890530D01*
X94266145Y-78890530D01*
X91726145Y-76350530D01*
X95469500Y-76350530D01*
X95469500Y-76557469D01*
X95509868Y-76760412D01*
X95509870Y-76760420D01*
X95589058Y-76951596D01*
X95704024Y-77123657D01*
X95850342Y-77269975D01*
X95850345Y-77269977D01*
X96022402Y-77384941D01*
X96213580Y-77464130D01*
X96416530Y-77504499D01*
X96416534Y-77504500D01*
X96416535Y-77504500D01*
X96623466Y-77504500D01*
X96623467Y-77504499D01*
X96826420Y-77464130D01*
X97017598Y-77384941D01*
X97189655Y-77269977D01*
X97335977Y-77123655D01*
X97450941Y-76951598D01*
X97530130Y-76760420D01*
X97570500Y-76557465D01*
X97570500Y-76350535D01*
X97530130Y-76147580D01*
X97450941Y-75956402D01*
X97335977Y-75784345D01*
X97335975Y-75784342D01*
X97189657Y-75638024D01*
X97103626Y-75580541D01*
X97017598Y-75523059D01*
X96826420Y-75443870D01*
X96826412Y-75443868D01*
X96623469Y-75403500D01*
X96623465Y-75403500D01*
X96416535Y-75403500D01*
X96416530Y-75403500D01*
X96213587Y-75443868D01*
X96213579Y-75443870D01*
X96022403Y-75523058D01*
X95850342Y-75638024D01*
X95704024Y-75784342D01*
X95589058Y-75956403D01*
X95509870Y-76147579D01*
X95509868Y-76147587D01*
X95469500Y-76350530D01*
X91726145Y-76350530D01*
X89719819Y-74344204D01*
X89686334Y-74282881D01*
X89683500Y-74256523D01*
X89683500Y-73810530D01*
X95469500Y-73810530D01*
X95469500Y-74017469D01*
X95509868Y-74220412D01*
X95509870Y-74220420D01*
X95589058Y-74411596D01*
X95704024Y-74583657D01*
X95850342Y-74729975D01*
X95850345Y-74729977D01*
X96022402Y-74844941D01*
X96213580Y-74924130D01*
X96416530Y-74964499D01*
X96416534Y-74964500D01*
X96416535Y-74964500D01*
X96623466Y-74964500D01*
X96623467Y-74964499D01*
X96826420Y-74924130D01*
X97017598Y-74844941D01*
X97189655Y-74729977D01*
X97335977Y-74583655D01*
X97450941Y-74411598D01*
X97530130Y-74220420D01*
X97570500Y-74017465D01*
X97570500Y-73810535D01*
X97570499Y-73810530D01*
X98009500Y-73810530D01*
X98009500Y-74017469D01*
X98049868Y-74220412D01*
X98049870Y-74220420D01*
X98129058Y-74411596D01*
X98244024Y-74583657D01*
X98390342Y-74729975D01*
X98390345Y-74729977D01*
X98562402Y-74844941D01*
X98753580Y-74924130D01*
X98956530Y-74964499D01*
X98956534Y-74964500D01*
X98956535Y-74964500D01*
X99163466Y-74964500D01*
X99163467Y-74964499D01*
X99366420Y-74924130D01*
X99557598Y-74844941D01*
X99729655Y-74729977D01*
X99875977Y-74583655D01*
X99990941Y-74411598D01*
X100070130Y-74220420D01*
X100110500Y-74017465D01*
X100110500Y-73810535D01*
X100070130Y-73607580D01*
X99990941Y-73416402D01*
X99875977Y-73244345D01*
X99875975Y-73244342D01*
X99729657Y-73098024D01*
X99643626Y-73040541D01*
X99557598Y-72983059D01*
X99366420Y-72903870D01*
X99366412Y-72903868D01*
X99163469Y-72863500D01*
X99163465Y-72863500D01*
X98956535Y-72863500D01*
X98956530Y-72863500D01*
X98753587Y-72903868D01*
X98753579Y-72903870D01*
X98562403Y-72983058D01*
X98390342Y-73098024D01*
X98244024Y-73244342D01*
X98129058Y-73416403D01*
X98049870Y-73607579D01*
X98049868Y-73607587D01*
X98009500Y-73810530D01*
X97570499Y-73810530D01*
X97530130Y-73607580D01*
X97450941Y-73416402D01*
X97335977Y-73244345D01*
X97335975Y-73244342D01*
X97189657Y-73098024D01*
X97103626Y-73040541D01*
X97017598Y-72983059D01*
X96826420Y-72903870D01*
X96826412Y-72903868D01*
X96623469Y-72863500D01*
X96623465Y-72863500D01*
X96416535Y-72863500D01*
X96416530Y-72863500D01*
X96213587Y-72903868D01*
X96213579Y-72903870D01*
X96022403Y-72983058D01*
X95850342Y-73098024D01*
X95704024Y-73244342D01*
X95589058Y-73416403D01*
X95509870Y-73607579D01*
X95509868Y-73607587D01*
X95469500Y-73810530D01*
X89683500Y-73810530D01*
X89683500Y-71270530D01*
X95469500Y-71270530D01*
X95469500Y-71477469D01*
X95509868Y-71680412D01*
X95509870Y-71680420D01*
X95589058Y-71871596D01*
X95704024Y-72043657D01*
X95850342Y-72189975D01*
X95850345Y-72189977D01*
X96022402Y-72304941D01*
X96213580Y-72384130D01*
X96358052Y-72412867D01*
X96416530Y-72424499D01*
X96416534Y-72424500D01*
X96416535Y-72424500D01*
X96623466Y-72424500D01*
X96623467Y-72424499D01*
X96826420Y-72384130D01*
X97017598Y-72304941D01*
X97189655Y-72189977D01*
X97335977Y-72043655D01*
X97450941Y-71871598D01*
X97530130Y-71680420D01*
X97570500Y-71477465D01*
X97570500Y-71270535D01*
X97570499Y-71270530D01*
X98009500Y-71270530D01*
X98009500Y-71477469D01*
X98049868Y-71680412D01*
X98049870Y-71680420D01*
X98129058Y-71871596D01*
X98244024Y-72043657D01*
X98390342Y-72189975D01*
X98390345Y-72189977D01*
X98562402Y-72304941D01*
X98753580Y-72384130D01*
X98898052Y-72412867D01*
X98956530Y-72424499D01*
X98956534Y-72424500D01*
X98956535Y-72424500D01*
X99163466Y-72424500D01*
X99163467Y-72424499D01*
X99366420Y-72384130D01*
X99557598Y-72304941D01*
X99729655Y-72189977D01*
X99875977Y-72043655D01*
X99990941Y-71871598D01*
X100070130Y-71680420D01*
X100110500Y-71477465D01*
X100110500Y-71270535D01*
X100070130Y-71067580D01*
X99990941Y-70876402D01*
X99875977Y-70704345D01*
X99875975Y-70704342D01*
X99729657Y-70558024D01*
X99561655Y-70445770D01*
X99557598Y-70443059D01*
X99366420Y-70363870D01*
X99366412Y-70363868D01*
X99163469Y-70323500D01*
X99163465Y-70323500D01*
X98956535Y-70323500D01*
X98956530Y-70323500D01*
X98753587Y-70363868D01*
X98753579Y-70363870D01*
X98562403Y-70443058D01*
X98390342Y-70558024D01*
X98244024Y-70704342D01*
X98129058Y-70876403D01*
X98049870Y-71067579D01*
X98049868Y-71067587D01*
X98009500Y-71270530D01*
X97570499Y-71270530D01*
X97530130Y-71067580D01*
X97450941Y-70876402D01*
X97335977Y-70704345D01*
X97335975Y-70704342D01*
X97189657Y-70558024D01*
X97021655Y-70445770D01*
X97017598Y-70443059D01*
X96826420Y-70363870D01*
X96826412Y-70363868D01*
X96623469Y-70323500D01*
X96623465Y-70323500D01*
X96416535Y-70323500D01*
X96416530Y-70323500D01*
X96213587Y-70363868D01*
X96213579Y-70363870D01*
X96022403Y-70443058D01*
X95850342Y-70558024D01*
X95704024Y-70704342D01*
X95589058Y-70876403D01*
X95509870Y-71067579D01*
X95509868Y-71067587D01*
X95469500Y-71270530D01*
X89683500Y-71270530D01*
X89683500Y-67500301D01*
X89683500Y-67500300D01*
X89641557Y-67399042D01*
X89641557Y-67399041D01*
X88796930Y-66554415D01*
X88791790Y-66548954D01*
X88784793Y-66541054D01*
X88774630Y-66524669D01*
X88691238Y-66435435D01*
X88690137Y-66434192D01*
X88689981Y-66433861D01*
X88685459Y-66428587D01*
X88629406Y-66357253D01*
X88621954Y-66346675D01*
X88591409Y-66298108D01*
X88584459Y-66285482D01*
X88582322Y-66281001D01*
X88569352Y-66253810D01*
X88561673Y-66233165D01*
X88536326Y-66140564D01*
X88532433Y-66119022D01*
X88516527Y-65943410D01*
X88516375Y-65941581D01*
X88501818Y-65745537D01*
X88501102Y-65737856D01*
X88501004Y-65736982D01*
X88499999Y-65729321D01*
X88475167Y-65564197D01*
X88464294Y-65491890D01*
X88463551Y-65487308D01*
X88463534Y-65487216D01*
X88463459Y-65486779D01*
X88458806Y-65475127D01*
X88452347Y-65453332D01*
X88437413Y-65378256D01*
X88437412Y-65378249D01*
X88364856Y-65203085D01*
X88329586Y-65150300D01*
X88259522Y-65045441D01*
X88125458Y-64911377D01*
X87967812Y-64806042D01*
X87792651Y-64733488D01*
X87792643Y-64733486D01*
X87606702Y-64696500D01*
X87606698Y-64696500D01*
X87417102Y-64696500D01*
X87417097Y-64696500D01*
X87231156Y-64733486D01*
X87231148Y-64733488D01*
X87055987Y-64806042D01*
X86898341Y-64911377D01*
X86764277Y-65045441D01*
X86658942Y-65203087D01*
X86586388Y-65378248D01*
X86586386Y-65378256D01*
X86549400Y-65564197D01*
X80854399Y-65564197D01*
X80817412Y-65378249D01*
X80744856Y-65203085D01*
X80709586Y-65150300D01*
X80639522Y-65045441D01*
X80505458Y-64911377D01*
X80347812Y-64806042D01*
X80172651Y-64733488D01*
X80172643Y-64733486D01*
X79986702Y-64696500D01*
X79986698Y-64696500D01*
X79797102Y-64696500D01*
X79797097Y-64696500D01*
X79611156Y-64733486D01*
X79611148Y-64733488D01*
X79435987Y-64806042D01*
X79278341Y-64911377D01*
X79144277Y-65045441D01*
X79038942Y-65203087D01*
X78966387Y-65378250D01*
X78966386Y-65378254D01*
X78950555Y-65457842D01*
X78945882Y-65474882D01*
X78939376Y-65493332D01*
X78939374Y-65493341D01*
X78900150Y-65766508D01*
X78899223Y-65773914D01*
X78899141Y-65774683D01*
X78898464Y-65782358D01*
X78887310Y-65942990D01*
X78887195Y-65944510D01*
X78873935Y-66106597D01*
X78872315Y-66118848D01*
X78863610Y-66166328D01*
X78860202Y-66180295D01*
X78847398Y-66222082D01*
X78841501Y-66237553D01*
X78827080Y-66268915D01*
X78821523Y-66281001D01*
X78813942Y-66295031D01*
X78780013Y-66349184D01*
X78772264Y-66360178D01*
X78717149Y-66429999D01*
X78710370Y-66437883D01*
X78629254Y-66524587D01*
X78623799Y-66533209D01*
X78606694Y-66554588D01*
X67749104Y-77412181D01*
X67687781Y-77445666D01*
X67661423Y-77448500D01*
X66195495Y-77448500D01*
X66128456Y-77428815D01*
X66082701Y-77376011D01*
X66072757Y-77306853D01*
X66101782Y-77243297D01*
X66107814Y-77236819D01*
X66220974Y-77123658D01*
X66220975Y-77123657D01*
X66220977Y-77123655D01*
X66335941Y-76951598D01*
X66415130Y-76760420D01*
X66455500Y-76557465D01*
X66455500Y-76350535D01*
X66415130Y-76147580D01*
X66335941Y-75956402D01*
X66220977Y-75784345D01*
X66220975Y-75784342D01*
X66074657Y-75638024D01*
X65988626Y-75580541D01*
X65902598Y-75523059D01*
X65711420Y-75443870D01*
X65711412Y-75443868D01*
X65508469Y-75403500D01*
X65508465Y-75403500D01*
X65301535Y-75403500D01*
X65301530Y-75403500D01*
X65098587Y-75443868D01*
X65098579Y-75443870D01*
X64907403Y-75523058D01*
X64735342Y-75638024D01*
X64589024Y-75784342D01*
X64474058Y-75956403D01*
X64394870Y-76147579D01*
X64394868Y-76147587D01*
X64354500Y-76350530D01*
X64354500Y-76557469D01*
X64394868Y-76760412D01*
X64394870Y-76760420D01*
X64474058Y-76951596D01*
X64589024Y-77123657D01*
X64702186Y-77236819D01*
X64735671Y-77298142D01*
X64730687Y-77367834D01*
X64688815Y-77423767D01*
X64623351Y-77448184D01*
X64614505Y-77448500D01*
X64080198Y-77448500D01*
X64008599Y-77478158D01*
X64008598Y-77478157D01*
X63978943Y-77490441D01*
X63978942Y-77490442D01*
X63883444Y-77585938D01*
X63878231Y-77590857D01*
X63870305Y-77597915D01*
X63853683Y-77608264D01*
X63758809Y-77697208D01*
X63757600Y-77698286D01*
X63757307Y-77698424D01*
X63752417Y-77702654D01*
X63674079Y-77765088D01*
X63664300Y-77772133D01*
X63637152Y-77789752D01*
X63637068Y-77789805D01*
X63608219Y-77808527D01*
X63596533Y-77815237D01*
X63557399Y-77834963D01*
X63537778Y-77842835D01*
X63439147Y-77872934D01*
X63416411Y-77877602D01*
X63264145Y-77894225D01*
X63257194Y-77894786D01*
X63197350Y-77897930D01*
X63197341Y-77897930D01*
X63197294Y-77897933D01*
X63195811Y-77898021D01*
X63194115Y-77898123D01*
X62969376Y-77913324D01*
X62969347Y-77913326D01*
X62969340Y-77913327D01*
X62967135Y-77913520D01*
X62961251Y-77914035D01*
X62960488Y-77914117D01*
X62960373Y-77914130D01*
X62958696Y-77914343D01*
X62952251Y-77915165D01*
X62810621Y-77936112D01*
X62681250Y-77955247D01*
X62675875Y-77956115D01*
X62675863Y-77956117D01*
X62675845Y-77956120D01*
X62675320Y-77956212D01*
X62663907Y-77960779D01*
X62642033Y-77967270D01*
X62558587Y-77983868D01*
X62558579Y-77983870D01*
X62367403Y-78063058D01*
X62195342Y-78178024D01*
X62049024Y-78324342D01*
X61934058Y-78496403D01*
X61854870Y-78687579D01*
X61854868Y-78687587D01*
X61814500Y-78890530D01*
X60981500Y-78890530D01*
X60981500Y-73810530D01*
X61814500Y-73810530D01*
X61814500Y-74017469D01*
X61854868Y-74220412D01*
X61854870Y-74220420D01*
X61934058Y-74411596D01*
X62049024Y-74583657D01*
X62195342Y-74729975D01*
X62195345Y-74729977D01*
X62367402Y-74844941D01*
X62558580Y-74924130D01*
X62761530Y-74964499D01*
X62761534Y-74964500D01*
X62761535Y-74964500D01*
X62968466Y-74964500D01*
X62968467Y-74964499D01*
X63171420Y-74924130D01*
X63362598Y-74844941D01*
X63534655Y-74729977D01*
X63680977Y-74583655D01*
X63795941Y-74411598D01*
X63875130Y-74220420D01*
X63915500Y-74017465D01*
X63915500Y-73810535D01*
X63915499Y-73810530D01*
X64354500Y-73810530D01*
X64354500Y-74017469D01*
X64394868Y-74220412D01*
X64394870Y-74220420D01*
X64474058Y-74411596D01*
X64589024Y-74583657D01*
X64735342Y-74729975D01*
X64735345Y-74729977D01*
X64907402Y-74844941D01*
X65098580Y-74924130D01*
X65301530Y-74964499D01*
X65301534Y-74964500D01*
X65301535Y-74964500D01*
X65508466Y-74964500D01*
X65508467Y-74964499D01*
X65711420Y-74924130D01*
X65902598Y-74844941D01*
X66074655Y-74729977D01*
X66220977Y-74583655D01*
X66335941Y-74411598D01*
X66415130Y-74220420D01*
X66455500Y-74017465D01*
X66455500Y-73810535D01*
X66415130Y-73607580D01*
X66335941Y-73416402D01*
X66220977Y-73244345D01*
X66220975Y-73244342D01*
X66074657Y-73098024D01*
X65988626Y-73040541D01*
X65902598Y-72983059D01*
X65711420Y-72903870D01*
X65711412Y-72903868D01*
X65508469Y-72863500D01*
X65508465Y-72863500D01*
X65301535Y-72863500D01*
X65301530Y-72863500D01*
X65098587Y-72903868D01*
X65098579Y-72903870D01*
X64907403Y-72983058D01*
X64735342Y-73098024D01*
X64589024Y-73244342D01*
X64474058Y-73416403D01*
X64394870Y-73607579D01*
X64394868Y-73607587D01*
X64354500Y-73810530D01*
X63915499Y-73810530D01*
X63875130Y-73607580D01*
X63795941Y-73416402D01*
X63680977Y-73244345D01*
X63680975Y-73244342D01*
X63534657Y-73098024D01*
X63448626Y-73040541D01*
X63362598Y-72983059D01*
X63171420Y-72903870D01*
X63171412Y-72903868D01*
X62968469Y-72863500D01*
X62968465Y-72863500D01*
X62761535Y-72863500D01*
X62761530Y-72863500D01*
X62558587Y-72903868D01*
X62558579Y-72903870D01*
X62367403Y-72983058D01*
X62195342Y-73098024D01*
X62049024Y-73244342D01*
X61934058Y-73416403D01*
X61854870Y-73607579D01*
X61854868Y-73607587D01*
X61814500Y-73810530D01*
X60981500Y-73810530D01*
X60981500Y-70504247D01*
X61814500Y-70504247D01*
X61814500Y-72243752D01*
X61826131Y-72302229D01*
X61826132Y-72302230D01*
X61870447Y-72368552D01*
X61936769Y-72412867D01*
X61936770Y-72412868D01*
X61995247Y-72424499D01*
X61995250Y-72424500D01*
X61995252Y-72424500D01*
X63734750Y-72424500D01*
X63734751Y-72424499D01*
X63749568Y-72421552D01*
X63793229Y-72412868D01*
X63793229Y-72412867D01*
X63793231Y-72412867D01*
X63859552Y-72368552D01*
X63903867Y-72302231D01*
X63903867Y-72302229D01*
X63903868Y-72302229D01*
X63915499Y-72243752D01*
X63915500Y-72243750D01*
X63915500Y-71270530D01*
X64354500Y-71270530D01*
X64354500Y-71477469D01*
X64394868Y-71680412D01*
X64394870Y-71680420D01*
X64474058Y-71871596D01*
X64589024Y-72043657D01*
X64735342Y-72189975D01*
X64735345Y-72189977D01*
X64907402Y-72304941D01*
X65098580Y-72384130D01*
X65243052Y-72412867D01*
X65301530Y-72424499D01*
X65301534Y-72424500D01*
X65301535Y-72424500D01*
X65508466Y-72424500D01*
X65508467Y-72424499D01*
X65711420Y-72384130D01*
X65902598Y-72304941D01*
X66074655Y-72189977D01*
X66220977Y-72043655D01*
X66335941Y-71871598D01*
X66415130Y-71680420D01*
X66455500Y-71477465D01*
X66455500Y-71270535D01*
X66415130Y-71067580D01*
X66335941Y-70876402D01*
X66220977Y-70704345D01*
X66220975Y-70704342D01*
X66074657Y-70558024D01*
X65906655Y-70445770D01*
X65902598Y-70443059D01*
X65711420Y-70363870D01*
X65711412Y-70363868D01*
X65508469Y-70323500D01*
X65508465Y-70323500D01*
X65301535Y-70323500D01*
X65301530Y-70323500D01*
X65098587Y-70363868D01*
X65098579Y-70363870D01*
X64907403Y-70443058D01*
X64735342Y-70558024D01*
X64589024Y-70704342D01*
X64474058Y-70876403D01*
X64394870Y-71067579D01*
X64394868Y-71067587D01*
X64354500Y-71270530D01*
X63915500Y-71270530D01*
X63915500Y-70504249D01*
X63915499Y-70504247D01*
X63903868Y-70445770D01*
X63903867Y-70445769D01*
X63859552Y-70379447D01*
X63793230Y-70335132D01*
X63793229Y-70335131D01*
X63734752Y-70323500D01*
X63734748Y-70323500D01*
X61995252Y-70323500D01*
X61995247Y-70323500D01*
X61936770Y-70335131D01*
X61936769Y-70335132D01*
X61870447Y-70379447D01*
X61826132Y-70445769D01*
X61826131Y-70445770D01*
X61814500Y-70504247D01*
X60981500Y-70504247D01*
X60981500Y-56095477D01*
X61001185Y-56028438D01*
X61017819Y-56007796D01*
X61329172Y-55696443D01*
X64158084Y-52867530D01*
X65154500Y-52867530D01*
X65154500Y-53074469D01*
X65194868Y-53277412D01*
X65194870Y-53277420D01*
X65274058Y-53468596D01*
X65389024Y-53640657D01*
X65535342Y-53786975D01*
X65535345Y-53786977D01*
X65707402Y-53901941D01*
X65898580Y-53981130D01*
X66101530Y-54021499D01*
X66101534Y-54021500D01*
X66101535Y-54021500D01*
X66308466Y-54021500D01*
X66308467Y-54021499D01*
X66511420Y-53981130D01*
X66702598Y-53901941D01*
X66874655Y-53786977D01*
X67020977Y-53640655D01*
X67135941Y-53468598D01*
X67215130Y-53277420D01*
X67255500Y-53074465D01*
X67255500Y-52867535D01*
X67215130Y-52664580D01*
X67135941Y-52473402D01*
X67020977Y-52301345D01*
X67020975Y-52301342D01*
X66874657Y-52155024D01*
X66788626Y-52097541D01*
X66702598Y-52040059D01*
X66511420Y-51960870D01*
X66511412Y-51960868D01*
X66308469Y-51920500D01*
X66308465Y-51920500D01*
X66101535Y-51920500D01*
X66101530Y-51920500D01*
X65898587Y-51960868D01*
X65898579Y-51960870D01*
X65707403Y-52040058D01*
X65535342Y-52155024D01*
X65389024Y-52301342D01*
X65274058Y-52473403D01*
X65194870Y-52664579D01*
X65194868Y-52664587D01*
X65154500Y-52867530D01*
X64158084Y-52867530D01*
X65186568Y-51839046D01*
X65191764Y-51834143D01*
X65199688Y-51827085D01*
X65216317Y-51816735D01*
X65311226Y-51727752D01*
X65312395Y-51726712D01*
X65312686Y-51726573D01*
X65317581Y-51722342D01*
X65395930Y-51659901D01*
X65405708Y-51652857D01*
X65410260Y-51649902D01*
X65461768Y-51616475D01*
X65473434Y-51609775D01*
X65512603Y-51590032D01*
X65532211Y-51582165D01*
X65630863Y-51552060D01*
X65653592Y-51547395D01*
X65805838Y-51530773D01*
X65812786Y-51530212D01*
X65832440Y-51529180D01*
X65872553Y-51527074D01*
X65872575Y-51527072D01*
X65872646Y-51527069D01*
X65874687Y-51526952D01*
X65874863Y-51526941D01*
X65875911Y-51526873D01*
X66100644Y-51511673D01*
X66108717Y-51510966D01*
X66109639Y-51510867D01*
X66117766Y-51509830D01*
X66388744Y-51469751D01*
X66393811Y-51468937D01*
X66394370Y-51468840D01*
X66405868Y-51464248D01*
X66427646Y-51457793D01*
X66511420Y-51441130D01*
X66702598Y-51361941D01*
X66874655Y-51246977D01*
X67020977Y-51100655D01*
X67135941Y-50928598D01*
X67215130Y-50737420D01*
X67255500Y-50534465D01*
X67255500Y-50327535D01*
X67215130Y-50124580D01*
X67135941Y-49933402D01*
X67020977Y-49761345D01*
X67020975Y-49761342D01*
X66874657Y-49615024D01*
X66788626Y-49557541D01*
X66702598Y-49500059D01*
X66511420Y-49420870D01*
X66511412Y-49420868D01*
X66308469Y-49380500D01*
X66308465Y-49380500D01*
X66101535Y-49380500D01*
X66101530Y-49380500D01*
X65898587Y-49420868D01*
X65898579Y-49420870D01*
X65707403Y-49500058D01*
X65535342Y-49615024D01*
X65389024Y-49761342D01*
X65274058Y-49933403D01*
X65194870Y-50124579D01*
X65194868Y-50124585D01*
X65177410Y-50212348D01*
X65177411Y-50212349D01*
X65175666Y-50221122D01*
X65166192Y-50247880D01*
X65155036Y-50324830D01*
X65154497Y-50327545D01*
X65154468Y-50327848D01*
X65153783Y-50333486D01*
X65124504Y-50535472D01*
X65123507Y-50543447D01*
X65123409Y-50544374D01*
X65122725Y-50552408D01*
X65109190Y-50759085D01*
X65109113Y-50760188D01*
X65095533Y-50942580D01*
X65093987Y-50954930D01*
X65084008Y-51011458D01*
X65080664Y-51025539D01*
X65065442Y-51076268D01*
X65059582Y-51091891D01*
X65035735Y-51144417D01*
X65028134Y-51158627D01*
X64988540Y-51222312D01*
X64980720Y-51233472D01*
X64917708Y-51313633D01*
X64910827Y-51321658D01*
X64818999Y-51419939D01*
X64818997Y-51419942D01*
X64813586Y-51428503D01*
X64796450Y-51449932D01*
X60549942Y-55696443D01*
X60472444Y-55773940D01*
X60430500Y-55875199D01*
X58620500Y-55875199D01*
X58620500Y-47787530D01*
X65154500Y-47787530D01*
X65154500Y-47994469D01*
X65194868Y-48197412D01*
X65194870Y-48197420D01*
X65274058Y-48388596D01*
X65389024Y-48560657D01*
X65535342Y-48706975D01*
X65535345Y-48706977D01*
X65707402Y-48821941D01*
X65898580Y-48901130D01*
X66101530Y-48941499D01*
X66101534Y-48941500D01*
X66101535Y-48941500D01*
X66308466Y-48941500D01*
X66308467Y-48941499D01*
X66511420Y-48901130D01*
X66702598Y-48821941D01*
X66874655Y-48706977D01*
X67020977Y-48560655D01*
X67135941Y-48388598D01*
X67215130Y-48197420D01*
X67255500Y-47994465D01*
X67255500Y-47787535D01*
X67215130Y-47584580D01*
X67135941Y-47393402D01*
X67020977Y-47221345D01*
X67020975Y-47221342D01*
X66874657Y-47075024D01*
X66788626Y-47017541D01*
X66702598Y-46960059D01*
X66511420Y-46880870D01*
X66511412Y-46880868D01*
X66308469Y-46840500D01*
X66308465Y-46840500D01*
X66101535Y-46840500D01*
X66101530Y-46840500D01*
X65898587Y-46880868D01*
X65898579Y-46880870D01*
X65707403Y-46960058D01*
X65535342Y-47075024D01*
X65389024Y-47221342D01*
X65274058Y-47393403D01*
X65194870Y-47584579D01*
X65194868Y-47584587D01*
X65154500Y-47787530D01*
X58620500Y-47787530D01*
X58620500Y-43011491D01*
X59229500Y-43011491D01*
X59229500Y-43348508D01*
X59267231Y-43683381D01*
X59267233Y-43683397D01*
X59342223Y-44011953D01*
X59342227Y-44011965D01*
X59453532Y-44330054D01*
X59599752Y-44633683D01*
X59599754Y-44633686D01*
X59779054Y-44919039D01*
X59989175Y-45182523D01*
X60227477Y-45420825D01*
X60490961Y-45630946D01*
X60776314Y-45810246D01*
X61079949Y-45956469D01*
X61318848Y-46040063D01*
X61398034Y-46067772D01*
X61398046Y-46067776D01*
X61726606Y-46142767D01*
X62061492Y-46180499D01*
X62061493Y-46180500D01*
X62061496Y-46180500D01*
X62398507Y-46180500D01*
X62398507Y-46180499D01*
X62733394Y-46142767D01*
X63061954Y-46067776D01*
X63380051Y-45956469D01*
X63683686Y-45810246D01*
X63969039Y-45630946D01*
X64232523Y-45420825D01*
X64470825Y-45182523D01*
X64680946Y-44919039D01*
X64860246Y-44633686D01*
X65006469Y-44330051D01*
X65117776Y-44011954D01*
X65192767Y-43683394D01*
X65230500Y-43348504D01*
X65230500Y-43011496D01*
X65230499Y-43011491D01*
X102409500Y-43011491D01*
X102409500Y-43348508D01*
X102447231Y-43683381D01*
X102447233Y-43683397D01*
X102522223Y-44011953D01*
X102522227Y-44011965D01*
X102633532Y-44330054D01*
X102779752Y-44633683D01*
X102779754Y-44633686D01*
X102959054Y-44919039D01*
X103169175Y-45182523D01*
X103407477Y-45420825D01*
X103670961Y-45630946D01*
X103956314Y-45810246D01*
X104259949Y-45956469D01*
X104498848Y-46040063D01*
X104578034Y-46067772D01*
X104578046Y-46067776D01*
X104906606Y-46142767D01*
X105241492Y-46180499D01*
X105241493Y-46180500D01*
X105241496Y-46180500D01*
X105578507Y-46180500D01*
X105578507Y-46180499D01*
X105913394Y-46142767D01*
X106241954Y-46067776D01*
X106560051Y-45956469D01*
X106863686Y-45810246D01*
X107149039Y-45630946D01*
X107412523Y-45420825D01*
X107650825Y-45182523D01*
X107860946Y-44919039D01*
X108040246Y-44633686D01*
X108186469Y-44330051D01*
X108297776Y-44011954D01*
X108372767Y-43683394D01*
X108410500Y-43348504D01*
X108410500Y-43011496D01*
X108372767Y-42676606D01*
X108297776Y-42348046D01*
X108186469Y-42029949D01*
X108040246Y-41726314D01*
X107860946Y-41440961D01*
X107650825Y-41177477D01*
X107412523Y-40939175D01*
X107149039Y-40729054D01*
X106863686Y-40549754D01*
X106863683Y-40549752D01*
X106560054Y-40403532D01*
X106241965Y-40292227D01*
X106241953Y-40292223D01*
X105913397Y-40217233D01*
X105913381Y-40217231D01*
X105578508Y-40179500D01*
X105578504Y-40179500D01*
X105241496Y-40179500D01*
X105241491Y-40179500D01*
X104906618Y-40217231D01*
X104906602Y-40217233D01*
X104578046Y-40292223D01*
X104578034Y-40292227D01*
X104259945Y-40403532D01*
X103956316Y-40549752D01*
X103670962Y-40729053D01*
X103407477Y-40939174D01*
X103169174Y-41177477D01*
X102959053Y-41440962D01*
X102779752Y-41726316D01*
X102633532Y-42029945D01*
X102522227Y-42348034D01*
X102522223Y-42348046D01*
X102447233Y-42676602D01*
X102447231Y-42676618D01*
X102409500Y-43011491D01*
X65230499Y-43011491D01*
X65192767Y-42676606D01*
X65117776Y-42348046D01*
X65006469Y-42029949D01*
X64860246Y-41726314D01*
X64680946Y-41440961D01*
X64470825Y-41177477D01*
X64232523Y-40939175D01*
X63969039Y-40729054D01*
X63683686Y-40549754D01*
X63683683Y-40549752D01*
X63380054Y-40403532D01*
X63061965Y-40292227D01*
X63061953Y-40292223D01*
X62733397Y-40217233D01*
X62733381Y-40217231D01*
X62398508Y-40179500D01*
X62398504Y-40179500D01*
X62061496Y-40179500D01*
X62061491Y-40179500D01*
X61726618Y-40217231D01*
X61726602Y-40217233D01*
X61398046Y-40292223D01*
X61398034Y-40292227D01*
X61079945Y-40403532D01*
X60776316Y-40549752D01*
X60490962Y-40729053D01*
X60227477Y-40939174D01*
X59989174Y-41177477D01*
X59779053Y-41440962D01*
X59599752Y-41726316D01*
X59453532Y-42029945D01*
X59342227Y-42348034D01*
X59342223Y-42348046D01*
X59267233Y-42676602D01*
X59267231Y-42676618D01*
X59229500Y-43011491D01*
X58620500Y-43011491D01*
X58620500Y-42044411D01*
X58640185Y-41977372D01*
X58656819Y-41956730D01*
X61006730Y-39606819D01*
X61068053Y-39573334D01*
X61094411Y-39570500D01*
X106545588Y-39570500D01*
X106612627Y-39590185D01*
G37*
%TD.AperFunction*%
%TD*%
%TA.AperFunction,Conductor*%
%TO.N,/I2S_B_DIN*%
G36*
X98238415Y-88990564D02*
G01*
X99053021Y-89151772D01*
X99060472Y-89156739D01*
X99062227Y-89160978D01*
X99223442Y-89975618D01*
X99221687Y-89984399D01*
X99214236Y-89989366D01*
X99213677Y-89989463D01*
X98942699Y-90029542D01*
X98941777Y-90029641D01*
X98717044Y-90044841D01*
X98716868Y-90044852D01*
X98647749Y-90048482D01*
X98455496Y-90069472D01*
X98300276Y-90116840D01*
X98219952Y-90157328D01*
X98219938Y-90157336D01*
X98135382Y-90212209D01*
X98034160Y-90292881D01*
X97930765Y-90389817D01*
X97922386Y-90392975D01*
X97914490Y-90389554D01*
X97824432Y-90299496D01*
X97821005Y-90291223D01*
X97824156Y-90283235D01*
X97925582Y-90174683D01*
X97939218Y-90157336D01*
X98008482Y-90069221D01*
X98008485Y-90069216D01*
X98008490Y-90069210D01*
X98068983Y-89971910D01*
X98110888Y-89879613D01*
X98110891Y-89879604D01*
X98138028Y-89789162D01*
X98138028Y-89789160D01*
X98138028Y-89789159D01*
X98138031Y-89789150D01*
X98154238Y-89697352D01*
X98169150Y-89497073D01*
X98169154Y-89497021D01*
X98182786Y-89288838D01*
X98182882Y-89287924D01*
X98224566Y-89000360D01*
X98229143Y-88992667D01*
X98237822Y-88990462D01*
X98238415Y-88990564D01*
G37*
%TD.AperFunction*%
%TD*%
%TA.AperFunction,Conductor*%
%TO.N,/I2S_B_DIN*%
G36*
X86432060Y-102031240D02*
G01*
X86435476Y-102039016D01*
X86437615Y-102089352D01*
X86453435Y-102205494D01*
X86482675Y-102333453D01*
X86482682Y-102333477D01*
X86577821Y-102609050D01*
X86577827Y-102609064D01*
X86701898Y-102858947D01*
X86701910Y-102858968D01*
X86834813Y-103054398D01*
X86834814Y-103054400D01*
X86964843Y-103190856D01*
X87074836Y-103266179D01*
X87079725Y-103273680D01*
X87077878Y-103282443D01*
X87075758Y-103284785D01*
X86367533Y-103880661D01*
X86358996Y-103883365D01*
X86352467Y-103880661D01*
X85645142Y-103285543D01*
X85641018Y-103277594D01*
X85643722Y-103269057D01*
X85646436Y-103266692D01*
X85710624Y-103226278D01*
X85780733Y-103167948D01*
X85859343Y-103085559D01*
X85933329Y-102990682D01*
X86011074Y-102870902D01*
X86081047Y-102742293D01*
X86145069Y-102602142D01*
X86198396Y-102461090D01*
X86265750Y-102209862D01*
X86283893Y-102038283D01*
X86288171Y-102030416D01*
X86295528Y-102027813D01*
X86423787Y-102027813D01*
X86432060Y-102031240D01*
G37*
%TD.AperFunction*%
%TD*%
%TA.AperFunction,Conductor*%
%TO.N,+3V3*%
G36*
X88256020Y-65514474D02*
G01*
X88260987Y-65521925D01*
X88261079Y-65522455D01*
X88296784Y-65759881D01*
X88296882Y-65760755D01*
X88311626Y-65959305D01*
X88330407Y-66166650D01*
X88330409Y-66166657D01*
X88371220Y-66315757D01*
X88371221Y-66315759D01*
X88407238Y-66391269D01*
X88407240Y-66391273D01*
X88442500Y-66447337D01*
X88457174Y-66470669D01*
X88520722Y-66551541D01*
X88532596Y-66566652D01*
X88624487Y-66664981D01*
X88627632Y-66673366D01*
X88624212Y-66681243D01*
X88534147Y-66771308D01*
X88525874Y-66774735D01*
X88517881Y-66771579D01*
X88448010Y-66706211D01*
X88421080Y-66681016D01*
X88326353Y-66606240D01*
X88326351Y-66606238D01*
X88326349Y-66606237D01*
X88239053Y-66551541D01*
X88156275Y-66513479D01*
X88109528Y-66499155D01*
X88075106Y-66488608D01*
X88075104Y-66488607D01*
X88075102Y-66488607D01*
X88075096Y-66488605D01*
X87992642Y-66473487D01*
X87992646Y-66473487D01*
X87812187Y-66458725D01*
X87649484Y-66447428D01*
X87648631Y-66447337D01*
X87375448Y-66408110D01*
X87367746Y-66403542D01*
X87365530Y-66394866D01*
X87365627Y-66394292D01*
X87509672Y-65665978D01*
X87514639Y-65658529D01*
X87518876Y-65656773D01*
X88247241Y-65512717D01*
X88256020Y-65514474D01*
G37*
%TD.AperFunction*%
%TD*%
%TA.AperFunction,Conductor*%
%TO.N,+3V3*%
G36*
X81284813Y-103902779D02*
G01*
X81290664Y-103908630D01*
X82003129Y-105487360D01*
X82003409Y-105496311D01*
X81998699Y-105502074D01*
X81929376Y-105545722D01*
X81859266Y-105604053D01*
X81780653Y-105686444D01*
X81706677Y-105781309D01*
X81706670Y-105781319D01*
X81628928Y-105901096D01*
X81628917Y-105901113D01*
X81558962Y-106029689D01*
X81558950Y-106029714D01*
X81494931Y-106169857D01*
X81441602Y-106310914D01*
X81374249Y-106562137D01*
X81356107Y-106733717D01*
X81351829Y-106741584D01*
X81344472Y-106744187D01*
X81216213Y-106744187D01*
X81207940Y-106740760D01*
X81204524Y-106732984D01*
X81202384Y-106682648D01*
X81186564Y-106566507D01*
X81186564Y-106566504D01*
X81157322Y-106438534D01*
X81062176Y-106162942D01*
X80996013Y-106029689D01*
X80938101Y-105913053D01*
X80938096Y-105913045D01*
X80938092Y-105913036D01*
X80805188Y-105717603D01*
X80805186Y-105717601D01*
X80805186Y-105717600D01*
X80675157Y-105581143D01*
X80560547Y-105502659D01*
X80555658Y-105495158D01*
X80556494Y-105488193D01*
X81269336Y-103908630D01*
X81275862Y-103902499D01*
X81284813Y-103902779D01*
G37*
%TD.AperFunction*%
%TD*%
%TA.AperFunction,Conductor*%
%TO.N,+3V3*%
G36*
X81352060Y-102031240D02*
G01*
X81355476Y-102039016D01*
X81357615Y-102089352D01*
X81373435Y-102205494D01*
X81402675Y-102333453D01*
X81402682Y-102333477D01*
X81497821Y-102609050D01*
X81497827Y-102609064D01*
X81621898Y-102858947D01*
X81621910Y-102858968D01*
X81754813Y-103054398D01*
X81754814Y-103054400D01*
X81884843Y-103190856D01*
X81994836Y-103266179D01*
X81999725Y-103273680D01*
X81997878Y-103282443D01*
X81995758Y-103284785D01*
X81287533Y-103880661D01*
X81278996Y-103883365D01*
X81272467Y-103880661D01*
X80565142Y-103285543D01*
X80561018Y-103277594D01*
X80563722Y-103269057D01*
X80566436Y-103266692D01*
X80630624Y-103226278D01*
X80700733Y-103167948D01*
X80779343Y-103085559D01*
X80853329Y-102990682D01*
X80931074Y-102870902D01*
X81001047Y-102742293D01*
X81065069Y-102602142D01*
X81118396Y-102461090D01*
X81185750Y-102209862D01*
X81203893Y-102038283D01*
X81208171Y-102030416D01*
X81215528Y-102027813D01*
X81343787Y-102027813D01*
X81352060Y-102031240D01*
G37*
%TD.AperFunction*%
%TD*%
%TA.AperFunction,Conductor*%
%TO.N,+3V3*%
G36*
X81286519Y-98047375D02*
G01*
X81602450Y-98259423D01*
X81607409Y-98266878D01*
X81605644Y-98275657D01*
X81605356Y-98276066D01*
X81495338Y-98425740D01*
X81495339Y-98425741D01*
X81422826Y-98524656D01*
X81395437Y-98575837D01*
X81375139Y-98633983D01*
X81375137Y-98633989D01*
X81360017Y-98721188D01*
X81360016Y-98721198D01*
X81355488Y-98825123D01*
X81351704Y-98833239D01*
X81343799Y-98836314D01*
X81216022Y-98836314D01*
X81207749Y-98832887D01*
X81204343Y-98825311D01*
X81198126Y-98721198D01*
X81196346Y-98691389D01*
X81170229Y-98589326D01*
X81126413Y-98508116D01*
X81064666Y-98425749D01*
X80954642Y-98276065D01*
X80952504Y-98267371D01*
X80957141Y-98259710D01*
X80957503Y-98259454D01*
X81273480Y-98047375D01*
X81282259Y-98045611D01*
X81286519Y-98047375D01*
G37*
%TD.AperFunction*%
%TD*%
%TA.AperFunction,Conductor*%
%TO.N,+3V3*%
G36*
X95390764Y-80298156D02*
G01*
X95425103Y-80330240D01*
X95499316Y-80399582D01*
X95499326Y-80399590D01*
X95499338Y-80399600D01*
X95604778Y-80482482D01*
X95604788Y-80482488D01*
X95604790Y-80482490D01*
X95702090Y-80542983D01*
X95794387Y-80584888D01*
X95794389Y-80584888D01*
X95794395Y-80584891D01*
X95884838Y-80612028D01*
X95884842Y-80612028D01*
X95884850Y-80612031D01*
X95976648Y-80628238D01*
X96176927Y-80643150D01*
X96363387Y-80655360D01*
X96385161Y-80656786D01*
X96386076Y-80656882D01*
X96673637Y-80698566D01*
X96681332Y-80703143D01*
X96683537Y-80711822D01*
X96683435Y-80712415D01*
X96522227Y-81527021D01*
X96517260Y-81534472D01*
X96513021Y-81536227D01*
X95698381Y-81697442D01*
X95689600Y-81695687D01*
X95684633Y-81688236D01*
X95684536Y-81687677D01*
X95644457Y-81416699D01*
X95644358Y-81415777D01*
X95629150Y-81190927D01*
X95625517Y-81121759D01*
X95604528Y-80929498D01*
X95557159Y-80774278D01*
X95516670Y-80693949D01*
X95492615Y-80656882D01*
X95461790Y-80609382D01*
X95381115Y-80508156D01*
X95381110Y-80508150D01*
X95284183Y-80404765D01*
X95281024Y-80396386D01*
X95284444Y-80388491D01*
X95374504Y-80298431D01*
X95382776Y-80295005D01*
X95390764Y-80298156D01*
G37*
%TD.AperFunction*%
%TD*%
%TA.AperFunction,Conductor*%
%TO.N,+3V3*%
G36*
X76204113Y-103903066D02*
G01*
X76209965Y-103908915D01*
X76923021Y-105487131D01*
X76923305Y-105496081D01*
X76917858Y-105502275D01*
X76911284Y-105505775D01*
X76835673Y-105555008D01*
X76835666Y-105555014D01*
X76763091Y-105616392D01*
X76763090Y-105616393D01*
X76683690Y-105700121D01*
X76609655Y-105795152D01*
X76534938Y-105910203D01*
X76468625Y-106032371D01*
X76468623Y-106032374D01*
X76410950Y-106159959D01*
X76410945Y-106159973D01*
X76363984Y-106287526D01*
X76316672Y-106478772D01*
X76309027Y-106509674D01*
X76298706Y-106667958D01*
X76295304Y-106675470D01*
X76210098Y-106760676D01*
X76201825Y-106764103D01*
X76193552Y-106760676D01*
X76190170Y-106753424D01*
X76187874Y-106727154D01*
X76167130Y-106609081D01*
X76132085Y-106478772D01*
X76082848Y-106337221D01*
X76082842Y-106337207D01*
X76082839Y-106337198D01*
X76021569Y-106192016D01*
X76004465Y-106159959D01*
X75881283Y-105929083D01*
X75735400Y-105723879D01*
X75735399Y-105723878D01*
X75735397Y-105723875D01*
X75735392Y-105723869D01*
X75597538Y-105582370D01*
X75480576Y-105502653D01*
X75475669Y-105495162D01*
X75476499Y-105488175D01*
X75476970Y-105487131D01*
X76188638Y-103908920D01*
X76195162Y-103902789D01*
X76204113Y-103903066D01*
G37*
%TD.AperFunction*%
%TD*%
%TA.AperFunction,Conductor*%
%TO.N,/I2C_B_SCL*%
G36*
X65383415Y-50267564D02*
G01*
X66198021Y-50428772D01*
X66205472Y-50433739D01*
X66207227Y-50437978D01*
X66368442Y-51252618D01*
X66366687Y-51261399D01*
X66359236Y-51266366D01*
X66358677Y-51266463D01*
X66087699Y-51306542D01*
X66086777Y-51306641D01*
X65862044Y-51321841D01*
X65861868Y-51321852D01*
X65792749Y-51325482D01*
X65600496Y-51346472D01*
X65445276Y-51393840D01*
X65364952Y-51434328D01*
X65364938Y-51434336D01*
X65280382Y-51489209D01*
X65179160Y-51569881D01*
X65075765Y-51666817D01*
X65067386Y-51669975D01*
X65059490Y-51666554D01*
X64969432Y-51576496D01*
X64966005Y-51568223D01*
X64969156Y-51560235D01*
X65070582Y-51451683D01*
X65084218Y-51434336D01*
X65153482Y-51346221D01*
X65153485Y-51346216D01*
X65153490Y-51346210D01*
X65213983Y-51248910D01*
X65255888Y-51156613D01*
X65255891Y-51156604D01*
X65283028Y-51066162D01*
X65283028Y-51066160D01*
X65283028Y-51066159D01*
X65283031Y-51066150D01*
X65299238Y-50974352D01*
X65314150Y-50774073D01*
X65314154Y-50774021D01*
X65327786Y-50565838D01*
X65327882Y-50564924D01*
X65369566Y-50277360D01*
X65374143Y-50269667D01*
X65382822Y-50267462D01*
X65383415Y-50267564D01*
G37*
%TD.AperFunction*%
%TD*%
%TA.AperFunction,Conductor*%
%TO.N,/I2C_B_SCL*%
G36*
X61735764Y-100618156D02*
G01*
X61770103Y-100650240D01*
X61844316Y-100719582D01*
X61844326Y-100719590D01*
X61844338Y-100719600D01*
X61949778Y-100802482D01*
X61949788Y-100802488D01*
X61949790Y-100802490D01*
X62047090Y-100862983D01*
X62139387Y-100904888D01*
X62139389Y-100904888D01*
X62139395Y-100904891D01*
X62229838Y-100932028D01*
X62229842Y-100932028D01*
X62229850Y-100932031D01*
X62321648Y-100948238D01*
X62521927Y-100963150D01*
X62708387Y-100975360D01*
X62730161Y-100976786D01*
X62731076Y-100976882D01*
X63018637Y-101018566D01*
X63026332Y-101023143D01*
X63028537Y-101031822D01*
X63028435Y-101032415D01*
X62867227Y-101847021D01*
X62862260Y-101854472D01*
X62858021Y-101856227D01*
X62043381Y-102017442D01*
X62034600Y-102015687D01*
X62029633Y-102008236D01*
X62029536Y-102007677D01*
X61989457Y-101736699D01*
X61989358Y-101735777D01*
X61974150Y-101510927D01*
X61970517Y-101441759D01*
X61949528Y-101249498D01*
X61902159Y-101094278D01*
X61861670Y-101013949D01*
X61837615Y-100976882D01*
X61806790Y-100929382D01*
X61726115Y-100828156D01*
X61726110Y-100828150D01*
X61629183Y-100724765D01*
X61626024Y-100716386D01*
X61629444Y-100708491D01*
X61719504Y-100618431D01*
X61727776Y-100615005D01*
X61735764Y-100618156D01*
G37*
%TD.AperFunction*%
%TD*%
%TA.AperFunction,Conductor*%
%TO.N,/I2S_A_SD*%
G36*
X87518407Y-68202358D02*
G01*
X88135301Y-68615527D01*
X88140268Y-68622978D01*
X88138511Y-68631759D01*
X88138201Y-68632199D01*
X87995566Y-68825328D01*
X87995018Y-68826015D01*
X87865063Y-68976818D01*
X87731709Y-69136736D01*
X87655132Y-69271028D01*
X87627208Y-69349890D01*
X87627206Y-69349896D01*
X87606374Y-69441341D01*
X87606373Y-69441346D01*
X87605970Y-69444705D01*
X87591833Y-69562549D01*
X87587282Y-69697054D01*
X87583578Y-69705206D01*
X87575589Y-69708358D01*
X87448217Y-69708358D01*
X87439944Y-69704931D01*
X87436523Y-69697047D01*
X87432113Y-69564562D01*
X87418005Y-69444705D01*
X87394953Y-69344298D01*
X87363333Y-69258850D01*
X87323525Y-69183869D01*
X87275905Y-69114864D01*
X87275900Y-69114858D01*
X87158726Y-68976806D01*
X87051687Y-68853794D01*
X87051148Y-68853127D01*
X86885712Y-68632216D01*
X86883496Y-68623540D01*
X86888064Y-68615838D01*
X86888549Y-68615493D01*
X87505390Y-68202359D01*
X87514170Y-68200603D01*
X87518407Y-68202358D01*
G37*
%TD.AperFunction*%
%TD*%
%TA.AperFunction,Conductor*%
%TO.N,/I2S_A_SD*%
G36*
X97930764Y-82838156D02*
G01*
X97965103Y-82870240D01*
X98039316Y-82939582D01*
X98039326Y-82939590D01*
X98039338Y-82939600D01*
X98144778Y-83022482D01*
X98144788Y-83022488D01*
X98144790Y-83022490D01*
X98242090Y-83082983D01*
X98334387Y-83124888D01*
X98334389Y-83124888D01*
X98334395Y-83124891D01*
X98424838Y-83152028D01*
X98424842Y-83152028D01*
X98424850Y-83152031D01*
X98516648Y-83168238D01*
X98716927Y-83183150D01*
X98903387Y-83195360D01*
X98925161Y-83196786D01*
X98926076Y-83196882D01*
X99213637Y-83238566D01*
X99221332Y-83243143D01*
X99223537Y-83251822D01*
X99223435Y-83252415D01*
X99062227Y-84067021D01*
X99057260Y-84074472D01*
X99053021Y-84076227D01*
X98238381Y-84237442D01*
X98229600Y-84235687D01*
X98224633Y-84228236D01*
X98224536Y-84227677D01*
X98184457Y-83956699D01*
X98184358Y-83955777D01*
X98169150Y-83730927D01*
X98165517Y-83661759D01*
X98144528Y-83469498D01*
X98097159Y-83314278D01*
X98056670Y-83233949D01*
X98032615Y-83196882D01*
X98001790Y-83149382D01*
X97921115Y-83048156D01*
X97921110Y-83048150D01*
X97824183Y-82944765D01*
X97821024Y-82936386D01*
X97824444Y-82928491D01*
X97914504Y-82838431D01*
X97922776Y-82835005D01*
X97930764Y-82838156D01*
G37*
%TD.AperFunction*%
%TD*%
%TA.AperFunction,Conductor*%
%TO.N,/I2S_B_BCLK*%
G36*
X88972060Y-102031240D02*
G01*
X88975476Y-102039016D01*
X88977615Y-102089352D01*
X88993435Y-102205494D01*
X89022675Y-102333453D01*
X89022682Y-102333477D01*
X89117821Y-102609050D01*
X89117827Y-102609064D01*
X89241898Y-102858947D01*
X89241910Y-102858968D01*
X89374813Y-103054398D01*
X89374814Y-103054400D01*
X89504843Y-103190856D01*
X89614836Y-103266179D01*
X89619725Y-103273680D01*
X89617878Y-103282443D01*
X89615758Y-103284785D01*
X88907533Y-103880661D01*
X88898996Y-103883365D01*
X88892467Y-103880661D01*
X88185142Y-103285543D01*
X88181018Y-103277594D01*
X88183722Y-103269057D01*
X88186436Y-103266692D01*
X88250624Y-103226278D01*
X88320733Y-103167948D01*
X88399343Y-103085559D01*
X88473329Y-102990682D01*
X88551074Y-102870902D01*
X88621047Y-102742293D01*
X88685069Y-102602142D01*
X88738396Y-102461090D01*
X88805750Y-102209862D01*
X88823893Y-102038283D01*
X88828171Y-102030416D01*
X88835528Y-102027813D01*
X88963787Y-102027813D01*
X88972060Y-102031240D01*
G37*
%TD.AperFunction*%
%TD*%
%TA.AperFunction,Conductor*%
%TO.N,/I2S_B_BCLK*%
G36*
X98238415Y-91530564D02*
G01*
X99053021Y-91691772D01*
X99060472Y-91696739D01*
X99062227Y-91700978D01*
X99223442Y-92515618D01*
X99221687Y-92524399D01*
X99214236Y-92529366D01*
X99213677Y-92529463D01*
X98942699Y-92569542D01*
X98941777Y-92569641D01*
X98717044Y-92584841D01*
X98716868Y-92584852D01*
X98647749Y-92588482D01*
X98455496Y-92609472D01*
X98300276Y-92656840D01*
X98219952Y-92697328D01*
X98219938Y-92697336D01*
X98135382Y-92752209D01*
X98034160Y-92832881D01*
X97930765Y-92929817D01*
X97922386Y-92932975D01*
X97914490Y-92929554D01*
X97824432Y-92839496D01*
X97821005Y-92831223D01*
X97824156Y-92823235D01*
X97925582Y-92714683D01*
X97939218Y-92697336D01*
X98008482Y-92609221D01*
X98008485Y-92609216D01*
X98008490Y-92609210D01*
X98068983Y-92511910D01*
X98110888Y-92419613D01*
X98110891Y-92419604D01*
X98138028Y-92329162D01*
X98138028Y-92329160D01*
X98138028Y-92329159D01*
X98138031Y-92329150D01*
X98154238Y-92237352D01*
X98169150Y-92037073D01*
X98169154Y-92037021D01*
X98182786Y-91828838D01*
X98182882Y-91827924D01*
X98224566Y-91540360D01*
X98229143Y-91532667D01*
X98237822Y-91530462D01*
X98238415Y-91530564D01*
G37*
%TD.AperFunction*%
%TD*%
%TA.AperFunction,Conductor*%
%TO.N,/I2S_A_WS*%
G36*
X79156613Y-65512728D02*
G01*
X79884920Y-65656772D01*
X79892370Y-65661739D01*
X79894127Y-65665980D01*
X80038182Y-66394339D01*
X80036425Y-66403120D01*
X80028974Y-66408087D01*
X80028444Y-66408179D01*
X79791018Y-66443884D01*
X79790144Y-66443982D01*
X79591593Y-66458726D01*
X79384248Y-66477507D01*
X79384241Y-66477509D01*
X79235141Y-66518320D01*
X79235139Y-66518321D01*
X79159630Y-66554338D01*
X79159626Y-66554340D01*
X79080231Y-66604273D01*
X78984246Y-66679696D01*
X78885918Y-66771587D01*
X78877533Y-66774732D01*
X78869656Y-66771312D01*
X78779591Y-66681247D01*
X78776164Y-66672974D01*
X78779319Y-66664982D01*
X78869884Y-66568181D01*
X78944659Y-66473453D01*
X78999357Y-66386154D01*
X79037420Y-66303375D01*
X79062291Y-66222206D01*
X79077412Y-66139740D01*
X79092174Y-65959280D01*
X79103472Y-65796569D01*
X79103560Y-65795747D01*
X79142789Y-65522547D01*
X79147357Y-65514846D01*
X79156033Y-65512630D01*
X79156613Y-65512728D01*
G37*
%TD.AperFunction*%
%TD*%
%TA.AperFunction,Conductor*%
%TO.N,/I2S_A_WS*%
G36*
X64010509Y-77758445D02*
G01*
X64100567Y-77848503D01*
X64103994Y-77856776D01*
X64100843Y-77864764D01*
X63999415Y-77973318D01*
X63999398Y-77973338D01*
X63916511Y-78078788D01*
X63916506Y-78078794D01*
X63856017Y-78176089D01*
X63814113Y-78268383D01*
X63814110Y-78268391D01*
X63786970Y-78358841D01*
X63770761Y-78450646D01*
X63755845Y-78650980D01*
X63742212Y-78859162D01*
X63742116Y-78860075D01*
X63700434Y-79147636D01*
X63695856Y-79155332D01*
X63687177Y-79157537D01*
X63686584Y-79157435D01*
X62871978Y-78996227D01*
X62864527Y-78991260D01*
X62862772Y-78987021D01*
X62837469Y-78859162D01*
X62701557Y-78172380D01*
X62703312Y-78163600D01*
X62710763Y-78158633D01*
X62711317Y-78158536D01*
X62982314Y-78118455D01*
X62983208Y-78118359D01*
X63208073Y-78103150D01*
X63277240Y-78099517D01*
X63469501Y-78078528D01*
X63624722Y-78031159D01*
X63705051Y-77990670D01*
X63749659Y-77961720D01*
X63789617Y-77935790D01*
X63789620Y-77935787D01*
X63789624Y-77935785D01*
X63890838Y-77855119D01*
X63994235Y-77758182D01*
X64002613Y-77755024D01*
X64010509Y-77758445D01*
G37*
%TD.AperFunction*%
%TD*%
%TA.AperFunction,Conductor*%
%TO.N,/I2S_A_SCK*%
G36*
X79156613Y-68052728D02*
G01*
X79884920Y-68196772D01*
X79892370Y-68201739D01*
X79894127Y-68205980D01*
X80038182Y-68934339D01*
X80036425Y-68943120D01*
X80028974Y-68948087D01*
X80028444Y-68948179D01*
X79791018Y-68983884D01*
X79790144Y-68983982D01*
X79591593Y-68998726D01*
X79384248Y-69017507D01*
X79384241Y-69017509D01*
X79235141Y-69058320D01*
X79235139Y-69058321D01*
X79159630Y-69094338D01*
X79159626Y-69094340D01*
X79080231Y-69144273D01*
X78984246Y-69219696D01*
X78885918Y-69311587D01*
X78877533Y-69314732D01*
X78869656Y-69311312D01*
X78779591Y-69221247D01*
X78776164Y-69212974D01*
X78779319Y-69204982D01*
X78869884Y-69108181D01*
X78944659Y-69013453D01*
X78999357Y-68926154D01*
X79037420Y-68843375D01*
X79062291Y-68762206D01*
X79077412Y-68679740D01*
X79092174Y-68499280D01*
X79103472Y-68336569D01*
X79103560Y-68335747D01*
X79142789Y-68062547D01*
X79147357Y-68054846D01*
X79156033Y-68052630D01*
X79156613Y-68052728D01*
G37*
%TD.AperFunction*%
%TD*%
%TA.AperFunction,Conductor*%
%TO.N,/I2S_A_SCK*%
G36*
X64010509Y-80298445D02*
G01*
X64100567Y-80388503D01*
X64103994Y-80396776D01*
X64100843Y-80404764D01*
X63999415Y-80513318D01*
X63999398Y-80513338D01*
X63916511Y-80618788D01*
X63916506Y-80618794D01*
X63856017Y-80716089D01*
X63814113Y-80808383D01*
X63814110Y-80808391D01*
X63786970Y-80898841D01*
X63770761Y-80990646D01*
X63755845Y-81190980D01*
X63742212Y-81399162D01*
X63742116Y-81400075D01*
X63700434Y-81687636D01*
X63695856Y-81695332D01*
X63687177Y-81697537D01*
X63686584Y-81697435D01*
X62871978Y-81536227D01*
X62864527Y-81531260D01*
X62862772Y-81527021D01*
X62837469Y-81399162D01*
X62701557Y-80712380D01*
X62703312Y-80703600D01*
X62710763Y-80698633D01*
X62711317Y-80698536D01*
X62982314Y-80658455D01*
X62983208Y-80658359D01*
X63208073Y-80643150D01*
X63277240Y-80639517D01*
X63469501Y-80618528D01*
X63624722Y-80571159D01*
X63705051Y-80530670D01*
X63749659Y-80501720D01*
X63789617Y-80475790D01*
X63789620Y-80475787D01*
X63789624Y-80475785D01*
X63890838Y-80395119D01*
X63994235Y-80298182D01*
X64002613Y-80295024D01*
X64010509Y-80298445D01*
G37*
%TD.AperFunction*%
%TD*%
%TA.AperFunction,Conductor*%
%TO.N,/I2S_B_LRC*%
G36*
X98238415Y-94070564D02*
G01*
X99053021Y-94231772D01*
X99060472Y-94236739D01*
X99062227Y-94240978D01*
X99223442Y-95055618D01*
X99221687Y-95064399D01*
X99214236Y-95069366D01*
X99213677Y-95069463D01*
X98942699Y-95109542D01*
X98941777Y-95109641D01*
X98717044Y-95124841D01*
X98716868Y-95124852D01*
X98647749Y-95128482D01*
X98455496Y-95149472D01*
X98300276Y-95196840D01*
X98219952Y-95237328D01*
X98219938Y-95237336D01*
X98135382Y-95292209D01*
X98034160Y-95372881D01*
X97930765Y-95469817D01*
X97922386Y-95472975D01*
X97914490Y-95469554D01*
X97824432Y-95379496D01*
X97821005Y-95371223D01*
X97824156Y-95363235D01*
X97925582Y-95254683D01*
X97939218Y-95237336D01*
X98008482Y-95149221D01*
X98008485Y-95149216D01*
X98008490Y-95149210D01*
X98068983Y-95051910D01*
X98110888Y-94959613D01*
X98110891Y-94959604D01*
X98138028Y-94869162D01*
X98138028Y-94869160D01*
X98138028Y-94869159D01*
X98138031Y-94869150D01*
X98154238Y-94777352D01*
X98169150Y-94577073D01*
X98169154Y-94577021D01*
X98182786Y-94368838D01*
X98182882Y-94367924D01*
X98224566Y-94080360D01*
X98229143Y-94072667D01*
X98237822Y-94070462D01*
X98238415Y-94070564D01*
G37*
%TD.AperFunction*%
%TD*%
%TA.AperFunction,Conductor*%
%TO.N,/I2S_B_LRC*%
G36*
X91512060Y-102031240D02*
G01*
X91515476Y-102039016D01*
X91517615Y-102089352D01*
X91533435Y-102205494D01*
X91562675Y-102333453D01*
X91562682Y-102333477D01*
X91657821Y-102609050D01*
X91657827Y-102609064D01*
X91781898Y-102858947D01*
X91781910Y-102858968D01*
X91914813Y-103054398D01*
X91914814Y-103054400D01*
X92044843Y-103190856D01*
X92154836Y-103266179D01*
X92159725Y-103273680D01*
X92157878Y-103282443D01*
X92155758Y-103284785D01*
X91447533Y-103880661D01*
X91438996Y-103883365D01*
X91432467Y-103880661D01*
X90725142Y-103285543D01*
X90721018Y-103277594D01*
X90723722Y-103269057D01*
X90726436Y-103266692D01*
X90790624Y-103226278D01*
X90860733Y-103167948D01*
X90939343Y-103085559D01*
X91013329Y-102990682D01*
X91091074Y-102870902D01*
X91161047Y-102742293D01*
X91225069Y-102602142D01*
X91278396Y-102461090D01*
X91345750Y-102209862D01*
X91363893Y-102038283D01*
X91368171Y-102030416D01*
X91375528Y-102027813D01*
X91503787Y-102027813D01*
X91512060Y-102031240D01*
G37*
%TD.AperFunction*%
%TD*%
M02*
