M48
; DRILL file {KiCad 9.0.6} date 2026-01-25T13:50:37+0900
; FORMAT={-:-/ absolute / metric / decimal}
; #@! TF.CreationDate,2026-01-25T13:50:37+09:00
; #@! TF.GenerationSoftware,Kicad,Pcbnew,9.0.6
; #@! TF.FileFunction,Plated,1,4,PTH
FMAT,2
METRIC
; #@! TA.AperFunction,Plated,PTH,ViaDrill
T1C0.400
; #@! TA.AperFunction,Plated,PTH,ComponentDrill
T2C0.914
; #@! TA.AperFunction,Plated,PTH,ComponentDrill
T3C1.000
; #@! TA.AperFunction,Plated,PTH,ComponentDrill
T4C1.100
; #@! TA.AperFunction,Plated,PTH,ComponentDrill
T5C3.200
%
G90
G05
T1
X59.436Y-101.981
X62.23Y-47.879
X64.135Y-69.596
X67.818Y-106.934
X69.85Y-89.154
X70.358Y-106.934
X72.644Y-89.154
X72.644Y-103.124
X72.644Y-104.521
X74.93Y-89.154
X76.2Y-109.601
X78.359Y-89.154
X81.28Y-98.044
X81.28Y-109.601
X83.82Y-65.786
X83.82Y-77.724
X83.82Y-89.154
X83.82Y-109.601
X88.9Y-109.601
X89.535Y-89.154
X91.059Y-77.724
X92.456Y-89.154
X94.615Y-77.724
X97.79Y-69.596
X100.711Y-82.804
X100.711Y-92.964
X100.711Y-103.124
X100.711Y-106.934
X103.124Y-82.804
X103.124Y-92.964
X103.124Y-99.314
X103.124Y-104.394
X103.124Y-106.934
T2
X79.892Y-63.119
X79.892Y-65.659
X79.892Y-68.199
X87.512Y-63.119
X87.512Y-65.659
X87.512Y-68.199
T3
X66.205Y-47.891
X66.205Y-50.431
X66.205Y-52.971
X66.205Y-55.511
X76.2Y-103.886
X78.74Y-103.886
X81.28Y-103.886
X82.12Y-116.84
X83.82Y-103.886
X85.62Y-116.84
X86.36Y-103.886
X88.9Y-103.886
X91.44Y-103.886
T4
X62.865Y-71.374
X62.865Y-73.914
X62.865Y-76.454
X62.865Y-78.994
X62.865Y-81.534
X62.865Y-84.074
X62.865Y-86.614
X62.865Y-89.154
X62.865Y-91.694
X62.865Y-94.234
X62.865Y-96.774
X62.865Y-99.314
X62.865Y-101.854
X62.865Y-104.394
X62.865Y-106.934
X65.405Y-71.374
X65.405Y-73.914
X65.405Y-76.454
X65.405Y-78.994
X65.405Y-81.534
X65.405Y-84.074
X65.405Y-86.614
X65.405Y-89.154
X65.405Y-91.694
X65.405Y-94.234
X65.405Y-96.774
X65.405Y-99.314
X65.405Y-101.854
X65.405Y-104.394
X65.405Y-106.934
X96.52Y-71.374
X96.52Y-73.914
X96.52Y-76.454
X96.52Y-78.994
X96.52Y-81.534
X96.52Y-84.074
X96.52Y-86.614
X96.52Y-89.154
X96.52Y-91.694
X96.52Y-94.234
X96.52Y-96.774
X96.52Y-99.314
X96.52Y-101.854
X96.52Y-104.394
X96.52Y-106.934
X99.06Y-71.374
X99.06Y-73.914
X99.06Y-76.454
X99.06Y-78.994
X99.06Y-81.534
X99.06Y-84.074
X99.06Y-86.614
X99.06Y-89.154
X99.06Y-91.694
X99.06Y-94.234
X99.06Y-96.774
X99.06Y-99.314
X99.06Y-101.854
X99.06Y-104.394
X99.06Y-106.934
T5
X62.23Y-43.18
X62.23Y-116.84
X105.41Y-43.18
X105.41Y-116.84
M30
