M48
; DRILL file {KiCad 9.0.6} date 2026-01-25T13:47:57+0900
; FORMAT={-:-/ absolute / metric / decimal}
; #@! TF.CreationDate,2026-01-25T13:47:57+09:00
; #@! TF.GenerationSoftware,Kicad,Pcbnew,9.0.6
; #@! TF.FileFunction,Plated,1,4,PTH
FMAT,2
METRIC
; #@! TA.AperFunction,Plated,PTH,ComponentDrill
T1C0.200
; #@! TA.AperFunction,Plated,PTH,ViaDrill
T2C0.400
; #@! TA.AperFunction,Plated,PTH,ComponentDrill
T3C0.650
; #@! TA.AperFunction,Plated,PTH,ComponentDrill
T4C1.100
; #@! TA.AperFunction,Plated,PTH,ComponentDrill
T5C3.200
%
G90
G05
T1
X80.92Y-54.084
X80.92Y-55.484
X81.62Y-53.384
X81.62Y-54.784
X81.62Y-56.184
X82.32Y-54.084
X82.32Y-55.484
X83.02Y-53.384
X83.02Y-54.784
X83.02Y-56.184
X83.72Y-54.084
X83.72Y-55.484
T2
X59.182Y-65.532
X59.69Y-76.454
X59.69Y-81.661
X59.69Y-86.741
X59.69Y-96.774
X59.69Y-106.934
X59.69Y-113.03
X62.23Y-65.532
X62.992Y-113.03
X64.389Y-69.723
X65.405Y-113.03
X65.532Y-47.371
X65.532Y-54.61
X65.532Y-58.928
X65.532Y-65.532
X68.453Y-55.88
X69.064Y-53.34
X70.873Y-49.496
X71.12Y-92.964
X71.882Y-97.536
X71.882Y-101.854
X71.882Y-104.394
X71.882Y-106.934
X71.882Y-113.03
X72.136Y-70.104
X72.136Y-89.154
X72.2Y-62.166
X72.39Y-49.53
X72.644Y-81.534
X72.771Y-94.996
X72.898Y-60.198
X72.898Y-64.262
X73.279Y-98.448
X74.041Y-94.996
X74.168Y-67.183
X74.168Y-69.723
X74.168Y-71.374
X74.168Y-73.914
X74.168Y-76.327
X75.07Y-65.278
X75.438Y-110.109
X75.565Y-78.994
X75.565Y-81.534
X75.565Y-92.456
X75.565Y-97.536
X76.708Y-49.604
X76.708Y-73.914
X76.962Y-101.346
X76.962Y-104.267
X76.962Y-107.315
X77.089Y-47.117
X77.851Y-67.183
X77.851Y-69.723
X77.851Y-76.454
X77.851Y-78.994
X77.851Y-81.534
X77.851Y-84.074
X77.851Y-86.614
X77.851Y-93.368
X77.851Y-94.996
X77.851Y-96.623
X77.914Y-71.374
X79.121Y-54.737
X79.121Y-57.277
X79.121Y-58.494
X79.121Y-59.764
X79.121Y-60.833
X79.121Y-61.976
X79.121Y-63.246
X79.375Y-102.3
X80.01Y-110.109
X80.264Y-63.246
X80.391Y-115.062
X80.391Y-116.459
X81.153Y-84.074
X81.28Y-89.281
X81.28Y-94.869
X81.28Y-99.949
X81.918Y-114.176
X82.931Y-94.869
X83.058Y-57.531
X83.185Y-63.246
X83.185Y-109.093
X83.566Y-115.697
X83.693Y-104.14
X83.82Y-76.581
X83.967Y-93.345
X84.074Y-110.109
X84.455Y-63.246
X84.834Y-111.62
X84.836Y-114.173
X84.836Y-115.697
X85.09Y-105.791
X85.852Y-54.737
X85.979Y-84.074
X86.106Y-87.884
X86.27Y-111.469
X86.36Y-105.791
X86.614Y-109.093
X86.995Y-63.246
X87.249Y-115.062
X87.376Y-57.658
X87.376Y-77.978
X87.376Y-110.998
X87.63Y-89.281
X87.63Y-93.218
X88.265Y-86.614
X88.265Y-104.521
X88.519Y-66.929
X89.154Y-67.945
X89.281Y-55.753
X90.551Y-91.694
X90.678Y-69.088
X90.805Y-47.117
X90.805Y-57.277
X91.059Y-110.998
X91.567Y-101.981
X91.567Y-104.521
X91.567Y-106.934
X93.472Y-81.534
X93.472Y-84.074
X94.107Y-106.934
X94.488Y-55.954
X94.488Y-57.224
X94.488Y-58.547
X94.488Y-61.087
X94.742Y-50.927
X94.742Y-52.197
X95.123Y-63.574
X96.52Y-113.03
X96.647Y-52.197
X96.647Y-59.182
X96.647Y-61.087
X96.774Y-64.643
X97.79Y-77.724
X98.933Y-48.387
X99.06Y-113.03
X100.457Y-68.326
X100.838Y-52.808
X101.981Y-106.934
X101.981Y-113.03
X105.918Y-68.326
X105.918Y-76.454
X105.918Y-86.614
X105.918Y-96.774
X105.918Y-113.03
X106.934Y-65.532
T4
X62.865Y-71.374
X62.865Y-73.914
X62.865Y-76.454
X62.865Y-78.994
X62.865Y-81.534
X62.865Y-84.074
X62.865Y-86.614
X62.865Y-89.154
X62.865Y-91.694
X62.865Y-94.234
X62.865Y-96.774
X62.865Y-99.314
X62.865Y-101.854
X62.865Y-104.394
X62.865Y-106.934
X65.405Y-71.374
X65.405Y-73.914
X65.405Y-76.454
X65.405Y-78.994
X65.405Y-81.534
X65.405Y-84.074
X65.405Y-86.614
X65.405Y-89.154
X65.405Y-91.694
X65.405Y-94.234
X65.405Y-96.774
X65.405Y-99.314
X65.405Y-101.854
X65.405Y-104.394
X65.405Y-106.934
X96.52Y-71.374
X96.52Y-73.914
X96.52Y-76.454
X96.52Y-78.994
X96.52Y-81.534
X96.52Y-84.074
X96.52Y-86.614
X96.52Y-89.154
X96.52Y-91.694
X96.52Y-94.234
X96.52Y-96.774
X96.52Y-99.314
X96.52Y-101.854
X96.52Y-104.394
X96.52Y-106.934
X99.06Y-71.374
X99.06Y-73.914
X99.06Y-76.454
X99.06Y-78.994
X99.06Y-81.534
X99.06Y-84.074
X99.06Y-86.614
X99.06Y-89.154
X99.06Y-91.694
X99.06Y-94.234
X99.06Y-96.774
X99.06Y-99.314
X99.06Y-101.854
X99.06Y-104.394
X99.06Y-106.934
T5
X62.23Y-52.07
X62.23Y-116.84
X105.41Y-52.07
X105.41Y-116.84
T3
G00X79.5Y-113.253
M15
G01X79.5Y-114.353
M16
G05
G00X79.5Y-117.683
M15
G01X79.5Y-118.283
M16
G05
G00X88.14Y-113.253
M15
G01X88.14Y-114.353
M16
G05
G00X88.14Y-117.683
M15
G01X88.14Y-118.283
M16
G05
M30
