%TF.GenerationSoftware,KiCad,Pcbnew,9.0.6*%
%TF.CreationDate,2026-01-25T13:47:59+09:00*%
%TF.ProjectId,esp32-s3-with-ken-interface,65737033-322d-4733-932d-776974682d6b,rev?*%
%TF.SameCoordinates,Original*%
%TF.FileFunction,Soldermask,Bot*%
%TF.FilePolarity,Negative*%
%FSLAX46Y46*%
G04 Gerber Fmt 4.6, Leading zero omitted, Abs format (unit mm)*
G04 Created by KiCad (PCBNEW 9.0.6) date 2026-01-25 13:47:59*
%MOMM*%
%LPD*%
G01*
G04 APERTURE LIST*
%ADD10C,5.600000*%
%ADD11C,0.700000*%
%ADD12O,1.050000X2.100000*%
%ADD13R,1.700000X1.700000*%
%ADD14C,1.700000*%
G04 APERTURE END LIST*
D10*
%TO.C,H1*%
X105410000Y-116840000D03*
%TD*%
%TO.C,H2*%
X62230000Y-116840000D03*
%TD*%
%TO.C,H4*%
X105410000Y-52070000D03*
%TD*%
%TO.C,H3*%
X62230000Y-52070000D03*
%TD*%
D11*
%TO.C,J1*%
X80930000Y-114333000D03*
X86710000Y-114333000D03*
D12*
X79500000Y-113803000D03*
X88140000Y-113803000D03*
X79500000Y-117983000D03*
X88140000Y-117983000D03*
%TD*%
D13*
%TO.C,U3*%
X62865000Y-71374000D03*
D14*
X65405000Y-71374000D03*
X62865000Y-73914000D03*
X65405000Y-73914000D03*
X62865000Y-76454000D03*
X65405000Y-76454000D03*
X62865000Y-78994000D03*
X65405000Y-78994000D03*
X62865000Y-81534000D03*
X65405000Y-81534000D03*
X62865000Y-84074000D03*
X65405000Y-84074000D03*
X62865000Y-86614000D03*
X65405000Y-86614000D03*
X62865000Y-89154000D03*
X65405000Y-89154000D03*
X62865000Y-91694000D03*
X65405000Y-91694000D03*
X62865000Y-94234000D03*
X65405000Y-94234000D03*
X62865000Y-96774000D03*
X65405000Y-96774000D03*
X62865000Y-99314000D03*
X65405000Y-99314000D03*
X62865000Y-101854000D03*
X65405000Y-101854000D03*
X62865000Y-104394000D03*
X65405000Y-104394000D03*
X62865000Y-106934000D03*
X65405000Y-106934000D03*
%TD*%
D13*
%TO.C,U5*%
X99060000Y-106934000D03*
D14*
X96520000Y-106934000D03*
X99060000Y-104394000D03*
X96520000Y-104394000D03*
X99060000Y-101854000D03*
X96520000Y-101854000D03*
X99060000Y-99314000D03*
X96520000Y-99314000D03*
X99060000Y-96774000D03*
X96520000Y-96774000D03*
X99060000Y-94234000D03*
X96520000Y-94234000D03*
X99060000Y-91694000D03*
X96520000Y-91694000D03*
X99060000Y-89154000D03*
X96520000Y-89154000D03*
X99060000Y-86614000D03*
X96520000Y-86614000D03*
X99060000Y-84074000D03*
X96520000Y-84074000D03*
X99060000Y-81534000D03*
X96520000Y-81534000D03*
X99060000Y-78994000D03*
X96520000Y-78994000D03*
X99060000Y-76454000D03*
X96520000Y-76454000D03*
X99060000Y-73914000D03*
X96520000Y-73914000D03*
X99060000Y-71374000D03*
X96520000Y-71374000D03*
%TD*%
M02*
