%TF.GenerationSoftware,KiCad,Pcbnew,9.0.6*%
%TF.CreationDate,2026-01-25T13:47:59+09:00*%
%TF.ProjectId,esp32-s3-with-ken-interface,65737033-322d-4733-932d-776974682d6b,rev?*%
%TF.SameCoordinates,Original*%
%TF.FileFunction,Copper,L3,Inr*%
%TF.FilePolarity,Positive*%
%FSLAX46Y46*%
G04 Gerber Fmt 4.6, Leading zero omitted, Abs format (unit mm)*
G04 Created by KiCad (PCBNEW 9.0.6) date 2026-01-25 13:47:59*
%MOMM*%
%LPD*%
G01*
G04 APERTURE LIST*
%TA.AperFunction,ComponentPad*%
%ADD10C,5.600000*%
%TD*%
%TA.AperFunction,HeatsinkPad*%
%ADD11C,0.600000*%
%TD*%
%TA.AperFunction,ComponentPad*%
%ADD12O,1.050000X2.100000*%
%TD*%
%TA.AperFunction,ComponentPad*%
%ADD13R,1.700000X1.700000*%
%TD*%
%TA.AperFunction,ComponentPad*%
%ADD14C,1.700000*%
%TD*%
%TA.AperFunction,ViaPad*%
%ADD15C,0.800000*%
%TD*%
%TA.AperFunction,Conductor*%
%ADD16C,0.150000*%
%TD*%
G04 APERTURE END LIST*
D10*
%TO.N,unconnected-(H1-Pad1)*%
%TO.C,H1*%
X105410000Y-116840000D03*
%TD*%
%TO.N,unconnected-(H2-Pad1)*%
%TO.C,H2*%
X62230000Y-116840000D03*
%TD*%
%TO.N,unconnected-(H4-Pad1)*%
%TO.C,H4*%
X105410000Y-52070000D03*
%TD*%
D11*
%TO.N,GND*%
%TO.C,U4*%
X80920000Y-54084000D03*
X80920000Y-55484000D03*
X81620000Y-53384000D03*
X81620000Y-54784000D03*
X81620000Y-56184000D03*
X82320000Y-54084000D03*
X82320000Y-55484000D03*
X83020000Y-53384000D03*
X83020000Y-54784000D03*
X83020000Y-56184000D03*
X83720000Y-54084000D03*
X83720000Y-55484000D03*
%TD*%
D10*
%TO.N,unconnected-(H3-Pad1)*%
%TO.C,H3*%
X62230000Y-52070000D03*
%TD*%
D12*
%TO.N,GND*%
%TO.C,J1*%
X79500000Y-113803000D03*
X88140000Y-113803000D03*
X79500000Y-117983000D03*
X88140000Y-117983000D03*
%TD*%
D13*
%TO.N,/ADC_A*%
%TO.C,U3*%
X62865000Y-71374000D03*
D14*
%TO.N,/IO17*%
X65405000Y-71374000D03*
%TO.N,/ADC_B*%
X62865000Y-73914000D03*
%TO.N,/IO18*%
X65405000Y-73914000D03*
%TO.N,GND*%
X62865000Y-76454000D03*
%TO.N,/IO19*%
X65405000Y-76454000D03*
%TO.N,/I2S_A_WS*%
X62865000Y-78994000D03*
%TO.N,/IO20*%
X65405000Y-78994000D03*
%TO.N,/I2S_A_SCK*%
X62865000Y-81534000D03*
%TO.N,+3V3*%
X65405000Y-81534000D03*
%TO.N,/I2S_A_SD*%
X62865000Y-84074000D03*
%TO.N,/I2C_A_SDA*%
X65405000Y-84074000D03*
%TO.N,+5V*%
X62865000Y-86614000D03*
%TO.N,/I2C_A_SCL*%
X65405000Y-86614000D03*
%TO.N,/I2S_B_DIN*%
X62865000Y-89154000D03*
%TO.N,GND*%
X65405000Y-89154000D03*
%TO.N,/I2S_B_BCLK*%
X62865000Y-91694000D03*
%TO.N,/IO11*%
X65405000Y-91694000D03*
%TO.N,/I2S_B_LRC*%
X62865000Y-94234000D03*
%TO.N,/IO13*%
X65405000Y-94234000D03*
%TO.N,+3V3*%
X62865000Y-96774000D03*
%TO.N,/IO12*%
X65405000Y-96774000D03*
%TO.N,/I2C_B_SDA*%
X62865000Y-99314000D03*
%TO.N,/IO10*%
X65405000Y-99314000D03*
%TO.N,/I2C_B_SCL*%
X62865000Y-101854000D03*
%TO.N,/BTN_A*%
X65405000Y-101854000D03*
%TO.N,/BTN_C*%
X62865000Y-104394000D03*
%TO.N,/BTN_B*%
X65405000Y-104394000D03*
%TO.N,/BTN_D*%
X62865000Y-106934000D03*
%TO.N,GND*%
X65405000Y-106934000D03*
%TD*%
D13*
%TO.N,/BTN_D*%
%TO.C,U5*%
X99060000Y-106934000D03*
D14*
%TO.N,GND*%
X96520000Y-106934000D03*
%TO.N,/BTN_C*%
X99060000Y-104394000D03*
%TO.N,/BTN_B*%
X96520000Y-104394000D03*
%TO.N,/I2C_B_SCL*%
X99060000Y-101854000D03*
%TO.N,/BTN_A*%
X96520000Y-101854000D03*
%TO.N,/I2C_B_SDA*%
X99060000Y-99314000D03*
%TO.N,/IO10*%
X96520000Y-99314000D03*
%TO.N,+3V3*%
X99060000Y-96774000D03*
%TO.N,/IO12*%
X96520000Y-96774000D03*
%TO.N,/I2S_B_LRC*%
X99060000Y-94234000D03*
%TO.N,/IO13*%
X96520000Y-94234000D03*
%TO.N,/I2S_B_BCLK*%
X99060000Y-91694000D03*
%TO.N,/IO11*%
X96520000Y-91694000D03*
%TO.N,/I2S_B_DIN*%
X99060000Y-89154000D03*
%TO.N,GND*%
X96520000Y-89154000D03*
%TO.N,+5V*%
X99060000Y-86614000D03*
%TO.N,/I2C_A_SCL*%
X96520000Y-86614000D03*
%TO.N,/I2S_A_SD*%
X99060000Y-84074000D03*
%TO.N,/I2C_A_SDA*%
X96520000Y-84074000D03*
%TO.N,/I2S_A_SCK*%
X99060000Y-81534000D03*
%TO.N,+3V3*%
X96520000Y-81534000D03*
%TO.N,/I2S_A_WS*%
X99060000Y-78994000D03*
%TO.N,/IO20*%
X96520000Y-78994000D03*
%TO.N,GND*%
X99060000Y-76454000D03*
%TO.N,/IO19*%
X96520000Y-76454000D03*
%TO.N,/ADC_B*%
X99060000Y-73914000D03*
%TO.N,/IO18*%
X96520000Y-73914000D03*
%TO.N,/ADC_A*%
X99060000Y-71374000D03*
%TO.N,/IO17*%
X96520000Y-71374000D03*
%TD*%
D15*
%TO.N,GND*%
X86614000Y-109093000D03*
X89154000Y-67945000D03*
X62992000Y-113030000D03*
X91059000Y-110998000D03*
X90805000Y-47117000D03*
X71882000Y-106934000D03*
X94742000Y-52197000D03*
X71120000Y-92964000D03*
X84836000Y-115697000D03*
X75565000Y-92456000D03*
X79121000Y-57277000D03*
X75565000Y-81534000D03*
X86360000Y-105791000D03*
X75565000Y-97536000D03*
X99060000Y-113030000D03*
X81280000Y-99949000D03*
X83185000Y-63246000D03*
X77851000Y-84074000D03*
X76962000Y-104267000D03*
X59690000Y-96774000D03*
X88265000Y-86614000D03*
X71882000Y-97536000D03*
X82931000Y-94869000D03*
X96647000Y-52197000D03*
X97790000Y-77724000D03*
X85979000Y-84074000D03*
X71882000Y-113030000D03*
X87630000Y-89281000D03*
X65532000Y-54610000D03*
X85090000Y-105791000D03*
X105918000Y-68326000D03*
X81153000Y-84074000D03*
X83058000Y-57531000D03*
X77851000Y-78994000D03*
X59690000Y-106934000D03*
X59690000Y-81661000D03*
X74168000Y-71374000D03*
X81280000Y-89281000D03*
X85852000Y-54737000D03*
X77851000Y-94996000D03*
X105918000Y-86614000D03*
X101981000Y-113030000D03*
X74168000Y-69723000D03*
X87376000Y-110998000D03*
X59690000Y-76454000D03*
X96520000Y-113030000D03*
X74168000Y-67183000D03*
X83185000Y-109093000D03*
X72771000Y-94996000D03*
X94107000Y-106934000D03*
X79121000Y-54737000D03*
X96774000Y-64643000D03*
X74168000Y-73914000D03*
X68453000Y-55880000D03*
X105918000Y-96774000D03*
X62230000Y-65532000D03*
X80010000Y-110109000D03*
X59690000Y-113030000D03*
X98933000Y-48387000D03*
X65532000Y-58928000D03*
X77851000Y-81534000D03*
X87376000Y-57658000D03*
X80391000Y-116459000D03*
X83566000Y-115697000D03*
X84455000Y-63246000D03*
X65405000Y-113030000D03*
X88265000Y-104521000D03*
X59690000Y-86741000D03*
X59182000Y-65532000D03*
X74168000Y-76327000D03*
X72390000Y-49530000D03*
X72136000Y-89154000D03*
X94488000Y-61087000D03*
X77851000Y-86614000D03*
X81280000Y-94869000D03*
X87249000Y-115062000D03*
X80391000Y-115062000D03*
X86995000Y-63246000D03*
X77851000Y-67183000D03*
X83693000Y-104140000D03*
X75438000Y-110109000D03*
X84836000Y-114173000D03*
X91567000Y-106934000D03*
X71882000Y-104394000D03*
X105918000Y-76454000D03*
X75565000Y-78994000D03*
X77851000Y-76454000D03*
X94742000Y-50927000D03*
X71882000Y-101854000D03*
X77851000Y-69723000D03*
X64389000Y-69723000D03*
X76962000Y-101346000D03*
X91567000Y-104521000D03*
X65532000Y-47371000D03*
X87630000Y-93218000D03*
X77089000Y-47117000D03*
X76962000Y-107315000D03*
X72644000Y-81534000D03*
X101981000Y-106934000D03*
X94488000Y-58547000D03*
X105918000Y-113030000D03*
X87376000Y-77978000D03*
X91567000Y-101981000D03*
X100457000Y-68326000D03*
X74041000Y-94996000D03*
X90805000Y-57277000D03*
%TO.N,/IO17*%
X79121000Y-58494000D03*
X72898000Y-60198000D03*
%TO.N,/IO18*%
X72199500Y-62166500D03*
X79121000Y-59764000D03*
%TO.N,+3V3*%
X73279000Y-98448500D03*
X69064500Y-53340000D03*
X79375000Y-102300000D03*
X83820000Y-76581000D03*
X70873500Y-49496000D03*
%TO.N,/MCU_RX*%
X80264000Y-63246000D03*
X77851000Y-96623500D03*
%TO.N,/MCU_TX*%
X79121000Y-63246000D03*
X77851000Y-93368500D03*
%TO.N,UD+*%
X84833905Y-111619779D03*
X84074000Y-110109000D03*
%TO.N,VBUS*%
X86270000Y-111469000D03*
X81917533Y-114175584D03*
%TO.N,/EN*%
X76708000Y-49604000D03*
X76708000Y-73914000D03*
%TO.N,/IO0*%
X106934000Y-65532000D03*
X90678000Y-69088000D03*
X83966558Y-93345000D03*
X95123000Y-63574000D03*
%TO.N,/IO48*%
X65532000Y-65532000D03*
X88519000Y-66929000D03*
%TO.N,/IO47*%
X89281000Y-55753000D03*
X100838000Y-52808500D03*
%TO.N,/IO11*%
X90551000Y-91694000D03*
%TO.N,/I2C_B_SDA*%
X96647000Y-61087000D03*
%TO.N,/I2C_B_SCL*%
X96647000Y-59182000D03*
%TO.N,/IO19*%
X79121000Y-60833000D03*
X72898000Y-64262000D03*
%TO.N,/BTN_A*%
X93472000Y-84074000D03*
%TO.N,/I2C_A_SDA*%
X72136000Y-70104000D03*
%TO.N,/BTN_B*%
X93472000Y-81534000D03*
%TO.N,/IO20*%
X79121000Y-61976000D03*
X75070000Y-65278000D03*
%TO.N,/I2C_A_SCL*%
X77914500Y-71374000D03*
%TO.N,/BTN_C*%
X94488000Y-57224000D03*
%TO.N,/BTN_D*%
X94488000Y-55954000D03*
%TO.N,+5V*%
X86106000Y-87884000D03*
%TD*%
D16*
%TO.N,/IO13*%
X65405000Y-94234000D02*
X96520000Y-94234000D01*
%TO.N,/IO12*%
X69723000Y-96774000D02*
X70875000Y-95622000D01*
X85601702Y-96774000D02*
X96520000Y-96774000D01*
X70875000Y-95622000D02*
X84449702Y-95622000D01*
X84449702Y-95622000D02*
X85601702Y-96774000D01*
X65405000Y-96774000D02*
X69723000Y-96774000D01*
%TO.N,/IO10*%
X96520000Y-99314000D02*
X65405000Y-99314000D01*
%TO.N,/IO11*%
X65405000Y-91694000D02*
X96520000Y-91694000D01*
%TO.N,/BTN_A*%
X93345000Y-101854000D02*
X96520000Y-101854000D01*
X69723000Y-101854000D02*
X70866000Y-100711000D01*
X70866000Y-100711000D02*
X92202000Y-100711000D01*
X92202000Y-100711000D02*
X93345000Y-101854000D01*
X65405000Y-101854000D02*
X69723000Y-101854000D01*
%TO.N,/I2C_A_SDA*%
X77216000Y-82804000D02*
X75946000Y-84074000D01*
X96520000Y-84074000D02*
X95250000Y-82804000D01*
X75946000Y-84074000D02*
X65405000Y-84074000D01*
X95250000Y-82804000D02*
X77216000Y-82804000D01*
%TO.N,/BTN_B*%
X66675000Y-103124000D02*
X92075000Y-103124000D01*
X92075000Y-103124000D02*
X93345000Y-104394000D01*
X93345000Y-104394000D02*
X96520000Y-104394000D01*
X65405000Y-104394000D02*
X66675000Y-103124000D01*
%TO.N,/I2C_A_SCL*%
X76073000Y-86614000D02*
X65405000Y-86614000D01*
X77343000Y-85344000D02*
X76073000Y-86614000D01*
X89789000Y-85344000D02*
X77343000Y-85344000D01*
X96520000Y-86614000D02*
X91059000Y-86614000D01*
X91059000Y-86614000D02*
X89789000Y-85344000D01*
%TD*%
%TA.AperFunction,Conductor*%
%TO.N,GND*%
G36*
X108962539Y-45739685D02*
G01*
X109008294Y-45792489D01*
X109019500Y-45844000D01*
X109019500Y-117975588D01*
X108999815Y-118042627D01*
X108983181Y-118063269D01*
X106633269Y-120413181D01*
X106571946Y-120446666D01*
X106545588Y-120449500D01*
X61094411Y-120449500D01*
X61027372Y-120429815D01*
X61006730Y-120413181D01*
X58656819Y-118063269D01*
X58623334Y-118001946D01*
X58620500Y-117975588D01*
X58620500Y-116671491D01*
X59229500Y-116671491D01*
X59229500Y-117008508D01*
X59267231Y-117343381D01*
X59267233Y-117343397D01*
X59342223Y-117671953D01*
X59342227Y-117671965D01*
X59453532Y-117990054D01*
X59599752Y-118293683D01*
X59599754Y-118293686D01*
X59779054Y-118579039D01*
X59989175Y-118842523D01*
X60227477Y-119080825D01*
X60490961Y-119290946D01*
X60776314Y-119470246D01*
X61079949Y-119616469D01*
X61318848Y-119700063D01*
X61398034Y-119727772D01*
X61398046Y-119727776D01*
X61726606Y-119802767D01*
X62061492Y-119840499D01*
X62061493Y-119840500D01*
X62061496Y-119840500D01*
X62398507Y-119840500D01*
X62398507Y-119840499D01*
X62733394Y-119802767D01*
X63061954Y-119727776D01*
X63380051Y-119616469D01*
X63683686Y-119470246D01*
X63969039Y-119290946D01*
X64232523Y-119080825D01*
X64470825Y-118842523D01*
X64680946Y-118579039D01*
X64860246Y-118293686D01*
X65006469Y-117990051D01*
X65117776Y-117671954D01*
X65192767Y-117343394D01*
X65230500Y-117008504D01*
X65230500Y-116671496D01*
X65230499Y-116671491D01*
X102409500Y-116671491D01*
X102409500Y-117008508D01*
X102447231Y-117343381D01*
X102447233Y-117343397D01*
X102522223Y-117671953D01*
X102522227Y-117671965D01*
X102633532Y-117990054D01*
X102779752Y-118293683D01*
X102779754Y-118293686D01*
X102959054Y-118579039D01*
X103169175Y-118842523D01*
X103407477Y-119080825D01*
X103670961Y-119290946D01*
X103956314Y-119470246D01*
X104259949Y-119616469D01*
X104498848Y-119700063D01*
X104578034Y-119727772D01*
X104578046Y-119727776D01*
X104906606Y-119802767D01*
X105241492Y-119840499D01*
X105241493Y-119840500D01*
X105241496Y-119840500D01*
X105578507Y-119840500D01*
X105578507Y-119840499D01*
X105913394Y-119802767D01*
X106241954Y-119727776D01*
X106560051Y-119616469D01*
X106863686Y-119470246D01*
X107149039Y-119290946D01*
X107412523Y-119080825D01*
X107650825Y-118842523D01*
X107860946Y-118579039D01*
X108040246Y-118293686D01*
X108186469Y-117990051D01*
X108297776Y-117671954D01*
X108372767Y-117343394D01*
X108410500Y-117008504D01*
X108410500Y-116671496D01*
X108372767Y-116336606D01*
X108297776Y-116008046D01*
X108186469Y-115689949D01*
X108040246Y-115386314D01*
X107860946Y-115100961D01*
X107650825Y-114837477D01*
X107412523Y-114599175D01*
X107400492Y-114589581D01*
X107296796Y-114506886D01*
X107149039Y-114389054D01*
X106863686Y-114209754D01*
X106863683Y-114209752D01*
X106560054Y-114063532D01*
X106241965Y-113952227D01*
X106241953Y-113952223D01*
X105913397Y-113877233D01*
X105913381Y-113877231D01*
X105578508Y-113839500D01*
X105578504Y-113839500D01*
X105241496Y-113839500D01*
X105241491Y-113839500D01*
X104906618Y-113877231D01*
X104906602Y-113877233D01*
X104578046Y-113952223D01*
X104578034Y-113952227D01*
X104259945Y-114063532D01*
X103956316Y-114209752D01*
X103670962Y-114389053D01*
X103407477Y-114599174D01*
X103169174Y-114837477D01*
X102959053Y-115100962D01*
X102779752Y-115386316D01*
X102633532Y-115689945D01*
X102522227Y-116008034D01*
X102522223Y-116008046D01*
X102447233Y-116336602D01*
X102447231Y-116336618D01*
X102409500Y-116671491D01*
X65230499Y-116671491D01*
X65192767Y-116336606D01*
X65117776Y-116008046D01*
X65006469Y-115689949D01*
X64860246Y-115386314D01*
X64680946Y-115100961D01*
X64470825Y-114837477D01*
X64232523Y-114599175D01*
X64220492Y-114589581D01*
X64116796Y-114506886D01*
X63969039Y-114389054D01*
X63785441Y-114273691D01*
X80479500Y-114273691D01*
X80479500Y-114392309D01*
X80510201Y-114506886D01*
X80569511Y-114609613D01*
X80653387Y-114693489D01*
X80756114Y-114752799D01*
X80870691Y-114783500D01*
X80870694Y-114783500D01*
X80989306Y-114783500D01*
X80989309Y-114783500D01*
X81103886Y-114752799D01*
X81206613Y-114693489D01*
X81290489Y-114609613D01*
X81290493Y-114609605D01*
X81295437Y-114603164D01*
X81297930Y-114605077D01*
X81337703Y-114567093D01*
X81406299Y-114553814D01*
X81471185Y-114579729D01*
X81482294Y-114589581D01*
X81548817Y-114656104D01*
X81548819Y-114656105D01*
X81548823Y-114656108D01*
X81613570Y-114693489D01*
X81685749Y-114735161D01*
X81838476Y-114776084D01*
X81838478Y-114776084D01*
X81996588Y-114776084D01*
X81996590Y-114776084D01*
X82149317Y-114735161D01*
X82286249Y-114656104D01*
X82398053Y-114544300D01*
X82477110Y-114407368D01*
X82512929Y-114273691D01*
X86259500Y-114273691D01*
X86259500Y-114392309D01*
X86290201Y-114506886D01*
X86349511Y-114609613D01*
X86433387Y-114693489D01*
X86536114Y-114752799D01*
X86650691Y-114783500D01*
X86650694Y-114783500D01*
X86769306Y-114783500D01*
X86769309Y-114783500D01*
X86883886Y-114752799D01*
X86986613Y-114693489D01*
X87070489Y-114609613D01*
X87129799Y-114506886D01*
X87160500Y-114392309D01*
X87160500Y-114273691D01*
X87129799Y-114159114D01*
X87070489Y-114056387D01*
X86986613Y-113972511D01*
X86883886Y-113913201D01*
X86769309Y-113882500D01*
X86650691Y-113882500D01*
X86536114Y-113913201D01*
X86536112Y-113913201D01*
X86536112Y-113913202D01*
X86433387Y-113972511D01*
X86433384Y-113972513D01*
X86349513Y-114056384D01*
X86349511Y-114056387D01*
X86290201Y-114159114D01*
X86259500Y-114273691D01*
X82512929Y-114273691D01*
X82518033Y-114254641D01*
X82518033Y-114096527D01*
X82477110Y-113943800D01*
X82465378Y-113923479D01*
X82398057Y-113806874D01*
X82398051Y-113806866D01*
X82286250Y-113695065D01*
X82286242Y-113695059D01*
X82149323Y-113616010D01*
X82149319Y-113616008D01*
X82149317Y-113616007D01*
X81996590Y-113575084D01*
X81838476Y-113575084D01*
X81685749Y-113616007D01*
X81685742Y-113616010D01*
X81548823Y-113695059D01*
X81548815Y-113695065D01*
X81437014Y-113806866D01*
X81437010Y-113806871D01*
X81369687Y-113923479D01*
X81319120Y-113971695D01*
X81250513Y-113984918D01*
X81200300Y-113968866D01*
X81103886Y-113913201D01*
X80989309Y-113882500D01*
X80870691Y-113882500D01*
X80756114Y-113913201D01*
X80756112Y-113913201D01*
X80756112Y-113913202D01*
X80653387Y-113972511D01*
X80653384Y-113972513D01*
X80569513Y-114056384D01*
X80569511Y-114056387D01*
X80510201Y-114159114D01*
X80479500Y-114273691D01*
X63785441Y-114273691D01*
X63683686Y-114209754D01*
X63683683Y-114209752D01*
X63380054Y-114063532D01*
X63061965Y-113952227D01*
X63061953Y-113952223D01*
X62733397Y-113877233D01*
X62733381Y-113877231D01*
X62398508Y-113839500D01*
X62398504Y-113839500D01*
X62061496Y-113839500D01*
X62061491Y-113839500D01*
X61726618Y-113877231D01*
X61726602Y-113877233D01*
X61398046Y-113952223D01*
X61398034Y-113952227D01*
X61079945Y-114063532D01*
X60776316Y-114209752D01*
X60490962Y-114389053D01*
X60227477Y-114599174D01*
X59989174Y-114837477D01*
X59779053Y-115100962D01*
X59599752Y-115386316D01*
X59453532Y-115689945D01*
X59342227Y-116008034D01*
X59342223Y-116008046D01*
X59267233Y-116336602D01*
X59267231Y-116336618D01*
X59229500Y-116671491D01*
X58620500Y-116671491D01*
X58620500Y-111540722D01*
X84233405Y-111540722D01*
X84233405Y-111698835D01*
X84274328Y-111851562D01*
X84274331Y-111851569D01*
X84353380Y-111988488D01*
X84353384Y-111988493D01*
X84353385Y-111988495D01*
X84465189Y-112100299D01*
X84465191Y-112100300D01*
X84465195Y-112100303D01*
X84602114Y-112179352D01*
X84602121Y-112179356D01*
X84754848Y-112220279D01*
X84754850Y-112220279D01*
X84912960Y-112220279D01*
X84912962Y-112220279D01*
X85065689Y-112179356D01*
X85202621Y-112100299D01*
X85314425Y-111988495D01*
X85393482Y-111851563D01*
X85434405Y-111698836D01*
X85434405Y-111540722D01*
X85394004Y-111389943D01*
X85669500Y-111389943D01*
X85669500Y-111548057D01*
X85680872Y-111590497D01*
X85710423Y-111700783D01*
X85710426Y-111700790D01*
X85789475Y-111837709D01*
X85789479Y-111837714D01*
X85789480Y-111837716D01*
X85901284Y-111949520D01*
X85901286Y-111949521D01*
X85901290Y-111949524D01*
X85968779Y-111988488D01*
X86038216Y-112028577D01*
X86190943Y-112069500D01*
X86190945Y-112069500D01*
X86349055Y-112069500D01*
X86349057Y-112069500D01*
X86501784Y-112028577D01*
X86638716Y-111949520D01*
X86750520Y-111837716D01*
X86829577Y-111700784D01*
X86870500Y-111548057D01*
X86870500Y-111389943D01*
X86829577Y-111237216D01*
X86773022Y-111139259D01*
X86750524Y-111100290D01*
X86750518Y-111100282D01*
X86638717Y-110988481D01*
X86638709Y-110988475D01*
X86501790Y-110909426D01*
X86501786Y-110909424D01*
X86501784Y-110909423D01*
X86349057Y-110868500D01*
X86190943Y-110868500D01*
X86038216Y-110909423D01*
X86038209Y-110909426D01*
X85901290Y-110988475D01*
X85901282Y-110988481D01*
X85789481Y-111100282D01*
X85789475Y-111100290D01*
X85710426Y-111237209D01*
X85710423Y-111237216D01*
X85669500Y-111389943D01*
X85394004Y-111389943D01*
X85393482Y-111387995D01*
X85393478Y-111387988D01*
X85314429Y-111251069D01*
X85314423Y-111251061D01*
X85202622Y-111139260D01*
X85202614Y-111139254D01*
X85065695Y-111060205D01*
X85065691Y-111060203D01*
X85065689Y-111060202D01*
X84912962Y-111019279D01*
X84754848Y-111019279D01*
X84602121Y-111060202D01*
X84602114Y-111060205D01*
X84465195Y-111139254D01*
X84465187Y-111139260D01*
X84353386Y-111251061D01*
X84353380Y-111251069D01*
X84274331Y-111387988D01*
X84274328Y-111387995D01*
X84233405Y-111540722D01*
X58620500Y-111540722D01*
X58620500Y-110029943D01*
X83473500Y-110029943D01*
X83473500Y-110188056D01*
X83514423Y-110340783D01*
X83514426Y-110340790D01*
X83593475Y-110477709D01*
X83593479Y-110477714D01*
X83593480Y-110477716D01*
X83705284Y-110589520D01*
X83705286Y-110589521D01*
X83705290Y-110589524D01*
X83842209Y-110668573D01*
X83842216Y-110668577D01*
X83994943Y-110709500D01*
X83994945Y-110709500D01*
X84153055Y-110709500D01*
X84153057Y-110709500D01*
X84305784Y-110668577D01*
X84442716Y-110589520D01*
X84554520Y-110477716D01*
X84633577Y-110340784D01*
X84674500Y-110188057D01*
X84674500Y-110029943D01*
X84633577Y-109877216D01*
X84633573Y-109877209D01*
X84554524Y-109740290D01*
X84554518Y-109740282D01*
X84442717Y-109628481D01*
X84442709Y-109628475D01*
X84305790Y-109549426D01*
X84305786Y-109549424D01*
X84305784Y-109549423D01*
X84153057Y-109508500D01*
X83994943Y-109508500D01*
X83842216Y-109549423D01*
X83842209Y-109549426D01*
X83705290Y-109628475D01*
X83705282Y-109628481D01*
X83593481Y-109740282D01*
X83593475Y-109740290D01*
X83514426Y-109877209D01*
X83514423Y-109877216D01*
X83473500Y-110029943D01*
X58620500Y-110029943D01*
X58620500Y-106830530D01*
X61814500Y-106830530D01*
X61814500Y-107037469D01*
X61854868Y-107240412D01*
X61854870Y-107240420D01*
X61934058Y-107431596D01*
X62049024Y-107603657D01*
X62195342Y-107749975D01*
X62195345Y-107749977D01*
X62367402Y-107864941D01*
X62558580Y-107944130D01*
X62703052Y-107972867D01*
X62761530Y-107984499D01*
X62761534Y-107984500D01*
X62761535Y-107984500D01*
X62968466Y-107984500D01*
X62968467Y-107984499D01*
X63171420Y-107944130D01*
X63362598Y-107864941D01*
X63534655Y-107749977D01*
X63680977Y-107603655D01*
X63795941Y-107431598D01*
X63875130Y-107240420D01*
X63915500Y-107037465D01*
X63915500Y-106830535D01*
X63875130Y-106627580D01*
X63795941Y-106436402D01*
X63680977Y-106264345D01*
X63680975Y-106264342D01*
X63534657Y-106118024D01*
X63454173Y-106064247D01*
X98009500Y-106064247D01*
X98009500Y-107803752D01*
X98021131Y-107862229D01*
X98021132Y-107862230D01*
X98065447Y-107928552D01*
X98131769Y-107972867D01*
X98131770Y-107972868D01*
X98190247Y-107984499D01*
X98190250Y-107984500D01*
X98190252Y-107984500D01*
X99929750Y-107984500D01*
X99929751Y-107984499D01*
X99944568Y-107981552D01*
X99988229Y-107972868D01*
X99988229Y-107972867D01*
X99988231Y-107972867D01*
X100054552Y-107928552D01*
X100098867Y-107862231D01*
X100098867Y-107862229D01*
X100098868Y-107862229D01*
X100110499Y-107803752D01*
X100110500Y-107803750D01*
X100110500Y-106064249D01*
X100110499Y-106064247D01*
X100098868Y-106005770D01*
X100098867Y-106005769D01*
X100054552Y-105939447D01*
X99988230Y-105895132D01*
X99988229Y-105895131D01*
X99929752Y-105883500D01*
X99929748Y-105883500D01*
X98190252Y-105883500D01*
X98190247Y-105883500D01*
X98131770Y-105895131D01*
X98131769Y-105895132D01*
X98065447Y-105939447D01*
X98021132Y-106005769D01*
X98021131Y-106005770D01*
X98009500Y-106064247D01*
X63454173Y-106064247D01*
X63366655Y-106005770D01*
X63362598Y-106003059D01*
X63171420Y-105923870D01*
X63171412Y-105923868D01*
X62968469Y-105883500D01*
X62968465Y-105883500D01*
X62761535Y-105883500D01*
X62761530Y-105883500D01*
X62558587Y-105923868D01*
X62558579Y-105923870D01*
X62367403Y-106003058D01*
X62195342Y-106118024D01*
X62049024Y-106264342D01*
X61934058Y-106436403D01*
X61854870Y-106627579D01*
X61854868Y-106627587D01*
X61814500Y-106830530D01*
X58620500Y-106830530D01*
X58620500Y-104290530D01*
X61814500Y-104290530D01*
X61814500Y-104497469D01*
X61854868Y-104700412D01*
X61854870Y-104700420D01*
X61865997Y-104727284D01*
X61934059Y-104891598D01*
X61963806Y-104936118D01*
X62049024Y-105063657D01*
X62195342Y-105209975D01*
X62195345Y-105209977D01*
X62367402Y-105324941D01*
X62558580Y-105404130D01*
X62761530Y-105444499D01*
X62761534Y-105444500D01*
X62761535Y-105444500D01*
X62968466Y-105444500D01*
X62968467Y-105444499D01*
X63171420Y-105404130D01*
X63362598Y-105324941D01*
X63534655Y-105209977D01*
X63680977Y-105063655D01*
X63795941Y-104891598D01*
X63875130Y-104700420D01*
X63915500Y-104497465D01*
X63915500Y-104290535D01*
X63915499Y-104290530D01*
X64354500Y-104290530D01*
X64354500Y-104497469D01*
X64394868Y-104700412D01*
X64394870Y-104700420D01*
X64405997Y-104727284D01*
X64474059Y-104891598D01*
X64503806Y-104936118D01*
X64589024Y-105063657D01*
X64735342Y-105209975D01*
X64735345Y-105209977D01*
X64907402Y-105324941D01*
X65098580Y-105404130D01*
X65301530Y-105444499D01*
X65301534Y-105444500D01*
X65301535Y-105444500D01*
X65508466Y-105444500D01*
X65508467Y-105444499D01*
X65711420Y-105404130D01*
X65902598Y-105324941D01*
X66074655Y-105209977D01*
X66220977Y-105063655D01*
X66335941Y-104891598D01*
X66415130Y-104700420D01*
X66434333Y-104603876D01*
X66443809Y-104577115D01*
X66454962Y-104500165D01*
X66455500Y-104497465D01*
X66455500Y-104497449D01*
X66455531Y-104497145D01*
X66456216Y-104491524D01*
X66485349Y-104290534D01*
X66485491Y-104289554D01*
X66486489Y-104281564D01*
X66486585Y-104280651D01*
X66487273Y-104272591D01*
X66500809Y-104065879D01*
X66500885Y-104064795D01*
X66504267Y-104019373D01*
X66514465Y-103882397D01*
X66516009Y-103870070D01*
X66525993Y-103813521D01*
X66529331Y-103799463D01*
X66544554Y-103748731D01*
X66550410Y-103733117D01*
X66574273Y-103680558D01*
X66581858Y-103666380D01*
X66621462Y-103602677D01*
X66629260Y-103591549D01*
X66692292Y-103511359D01*
X66699141Y-103503370D01*
X66759436Y-103438840D01*
X66819589Y-103403297D01*
X66850039Y-103399500D01*
X91909523Y-103399500D01*
X91976562Y-103419185D01*
X91997204Y-103435819D01*
X93188938Y-104627555D01*
X93188939Y-104627555D01*
X93188941Y-104627557D01*
X93218595Y-104639839D01*
X93218597Y-104639841D01*
X93218598Y-104639841D01*
X93239570Y-104648527D01*
X93290200Y-104669500D01*
X94804197Y-104669500D01*
X94811362Y-104669707D01*
X94821957Y-104670320D01*
X94841033Y-104674758D01*
X94971074Y-104678950D01*
X94972637Y-104679041D01*
X94972941Y-104679150D01*
X94979375Y-104679616D01*
X95078929Y-104690864D01*
X95090790Y-104692791D01*
X95156210Y-104706719D01*
X95169214Y-104710237D01*
X95196427Y-104719209D01*
X95210837Y-104723961D01*
X95230271Y-104732265D01*
X95321307Y-104780730D01*
X95340682Y-104793505D01*
X95460087Y-104889406D01*
X95465400Y-104893925D01*
X95509973Y-104934049D01*
X95509998Y-104934071D01*
X95512312Y-104936122D01*
X95616272Y-105026909D01*
X95682057Y-105084360D01*
X95686973Y-105088484D01*
X95688263Y-105089567D01*
X95688985Y-105090149D01*
X95695466Y-105095164D01*
X95695473Y-105095169D01*
X95915416Y-105258436D01*
X95918021Y-105260320D01*
X95919520Y-105261404D01*
X95919974Y-105261724D01*
X95931370Y-105266617D01*
X95951326Y-105277449D01*
X96022402Y-105324941D01*
X96213580Y-105404130D01*
X96416530Y-105444499D01*
X96416534Y-105444500D01*
X96416535Y-105444500D01*
X96623466Y-105444500D01*
X96623467Y-105444499D01*
X96826420Y-105404130D01*
X97017598Y-105324941D01*
X97189655Y-105209977D01*
X97335977Y-105063655D01*
X97450941Y-104891598D01*
X97530130Y-104700420D01*
X97570500Y-104497465D01*
X97570500Y-104290535D01*
X97570499Y-104290530D01*
X98009500Y-104290530D01*
X98009500Y-104497469D01*
X98049868Y-104700412D01*
X98049870Y-104700420D01*
X98060997Y-104727284D01*
X98129059Y-104891598D01*
X98158806Y-104936118D01*
X98244024Y-105063657D01*
X98390342Y-105209975D01*
X98390345Y-105209977D01*
X98562402Y-105324941D01*
X98753580Y-105404130D01*
X98956530Y-105444499D01*
X98956534Y-105444500D01*
X98956535Y-105444500D01*
X99163466Y-105444500D01*
X99163467Y-105444499D01*
X99366420Y-105404130D01*
X99557598Y-105324941D01*
X99729655Y-105209977D01*
X99875977Y-105063655D01*
X99990941Y-104891598D01*
X100070130Y-104700420D01*
X100110500Y-104497465D01*
X100110500Y-104290535D01*
X100070130Y-104087580D01*
X99990941Y-103896402D01*
X99875977Y-103724345D01*
X99875975Y-103724342D01*
X99729657Y-103578024D01*
X99631998Y-103512771D01*
X99557598Y-103463059D01*
X99557593Y-103463057D01*
X99366420Y-103383870D01*
X99366412Y-103383868D01*
X99163469Y-103343500D01*
X99163465Y-103343500D01*
X98956535Y-103343500D01*
X98956530Y-103343500D01*
X98753587Y-103383868D01*
X98753579Y-103383870D01*
X98562403Y-103463058D01*
X98390342Y-103578024D01*
X98244024Y-103724342D01*
X98129058Y-103896403D01*
X98049870Y-104087579D01*
X98049868Y-104087587D01*
X98009500Y-104290530D01*
X97570499Y-104290530D01*
X97530130Y-104087580D01*
X97450941Y-103896402D01*
X97335977Y-103724345D01*
X97335975Y-103724342D01*
X97189657Y-103578024D01*
X97091998Y-103512771D01*
X97017598Y-103463059D01*
X97017593Y-103463057D01*
X96826420Y-103383870D01*
X96826412Y-103383868D01*
X96623469Y-103343500D01*
X96623465Y-103343500D01*
X96416535Y-103343500D01*
X96416530Y-103343500D01*
X96213587Y-103383868D01*
X96213579Y-103383870D01*
X96022404Y-103463057D01*
X95947997Y-103512771D01*
X95947998Y-103512772D01*
X95940560Y-103517741D01*
X95914934Y-103529967D01*
X95852619Y-103576502D01*
X95851347Y-103577352D01*
X95850335Y-103578029D01*
X95850088Y-103578232D01*
X95845646Y-103581710D01*
X95723104Y-103673225D01*
X95682113Y-103703837D01*
X95675775Y-103708766D01*
X95675747Y-103708788D01*
X95675744Y-103708791D01*
X95675086Y-103709323D01*
X95668847Y-103714581D01*
X95513135Y-103851153D01*
X95512302Y-103851878D01*
X95484233Y-103876058D01*
X95484000Y-103876258D01*
X95483979Y-103876276D01*
X95373742Y-103971233D01*
X95363916Y-103978873D01*
X95316894Y-104011783D01*
X95304577Y-104019373D01*
X95257939Y-104044484D01*
X95242743Y-104051390D01*
X95188738Y-104071668D01*
X95173317Y-104076340D01*
X95100294Y-104093373D01*
X95086875Y-104095735D01*
X94985637Y-104107863D01*
X94975094Y-104108672D01*
X94840663Y-104113234D01*
X94830792Y-104115461D01*
X94803508Y-104118500D01*
X93510478Y-104118500D01*
X93443439Y-104098815D01*
X93422797Y-104082181D01*
X92231059Y-102890444D01*
X92231058Y-102890443D01*
X92129800Y-102848500D01*
X79966496Y-102848500D01*
X79899457Y-102828815D01*
X79853702Y-102776011D01*
X79843758Y-102706853D01*
X79859109Y-102662501D01*
X79904323Y-102584184D01*
X79934577Y-102531784D01*
X79975500Y-102379057D01*
X79975500Y-102220943D01*
X79934577Y-102068216D01*
X79870636Y-101957466D01*
X79855524Y-101931290D01*
X79855518Y-101931282D01*
X79743717Y-101819481D01*
X79743709Y-101819475D01*
X79606790Y-101740426D01*
X79606786Y-101740424D01*
X79606784Y-101740423D01*
X79454057Y-101699500D01*
X79295943Y-101699500D01*
X79143216Y-101740423D01*
X79143209Y-101740426D01*
X79006290Y-101819475D01*
X79006282Y-101819481D01*
X78894481Y-101931282D01*
X78894475Y-101931290D01*
X78815426Y-102068209D01*
X78815423Y-102068216D01*
X78774500Y-102220943D01*
X78774500Y-102379057D01*
X78813246Y-102523657D01*
X78815423Y-102531783D01*
X78815426Y-102531790D01*
X78890891Y-102662501D01*
X78907364Y-102730401D01*
X78884511Y-102796428D01*
X78829590Y-102839618D01*
X78783504Y-102848500D01*
X66620198Y-102848500D01*
X66548599Y-102878158D01*
X66548598Y-102878157D01*
X66518943Y-102890441D01*
X66518942Y-102890442D01*
X66423444Y-102985938D01*
X66418231Y-102990857D01*
X66410305Y-102997915D01*
X66393683Y-103008264D01*
X66298809Y-103097208D01*
X66297600Y-103098286D01*
X66297307Y-103098424D01*
X66292417Y-103102654D01*
X66214079Y-103165088D01*
X66204300Y-103172133D01*
X66177152Y-103189752D01*
X66177068Y-103189805D01*
X66148219Y-103208527D01*
X66136533Y-103215237D01*
X66097399Y-103234963D01*
X66077778Y-103242835D01*
X65979147Y-103272934D01*
X65956411Y-103277602D01*
X65804145Y-103294225D01*
X65797194Y-103294786D01*
X65737350Y-103297930D01*
X65737341Y-103297930D01*
X65737294Y-103297933D01*
X65735811Y-103298021D01*
X65734115Y-103298123D01*
X65509376Y-103313324D01*
X65509347Y-103313326D01*
X65509340Y-103313327D01*
X65507135Y-103313520D01*
X65501251Y-103314035D01*
X65500488Y-103314117D01*
X65500373Y-103314130D01*
X65498696Y-103314343D01*
X65492251Y-103315165D01*
X65350621Y-103336112D01*
X65221250Y-103355247D01*
X65215875Y-103356115D01*
X65215863Y-103356117D01*
X65215845Y-103356120D01*
X65215320Y-103356212D01*
X65203907Y-103360779D01*
X65182033Y-103367270D01*
X65098587Y-103383868D01*
X65098579Y-103383870D01*
X64907403Y-103463058D01*
X64735342Y-103578024D01*
X64589024Y-103724342D01*
X64474058Y-103896403D01*
X64394870Y-104087579D01*
X64394868Y-104087587D01*
X64354500Y-104290530D01*
X63915499Y-104290530D01*
X63875130Y-104087580D01*
X63795941Y-103896402D01*
X63680977Y-103724345D01*
X63680975Y-103724342D01*
X63534657Y-103578024D01*
X63436998Y-103512771D01*
X63362598Y-103463059D01*
X63362593Y-103463057D01*
X63171420Y-103383870D01*
X63171412Y-103383868D01*
X62968469Y-103343500D01*
X62968465Y-103343500D01*
X62761535Y-103343500D01*
X62761530Y-103343500D01*
X62558587Y-103383868D01*
X62558579Y-103383870D01*
X62367403Y-103463058D01*
X62195342Y-103578024D01*
X62049024Y-103724342D01*
X61934058Y-103896403D01*
X61854870Y-104087579D01*
X61854868Y-104087587D01*
X61814500Y-104290530D01*
X58620500Y-104290530D01*
X58620500Y-101750530D01*
X61814500Y-101750530D01*
X61814500Y-101957469D01*
X61854868Y-102160412D01*
X61854870Y-102160420D01*
X61903061Y-102276764D01*
X61934059Y-102351598D01*
X61963806Y-102396118D01*
X62049024Y-102523657D01*
X62195342Y-102669975D01*
X62195345Y-102669977D01*
X62367402Y-102784941D01*
X62558580Y-102864130D01*
X62761530Y-102904499D01*
X62761534Y-102904500D01*
X62761535Y-102904500D01*
X62968466Y-102904500D01*
X62968467Y-102904499D01*
X63171420Y-102864130D01*
X63362598Y-102784941D01*
X63534655Y-102669977D01*
X63680977Y-102523655D01*
X63795941Y-102351598D01*
X63875130Y-102160420D01*
X63915500Y-101957465D01*
X63915500Y-101750535D01*
X63915499Y-101750530D01*
X64354500Y-101750530D01*
X64354500Y-101957469D01*
X64394868Y-102160412D01*
X64394870Y-102160420D01*
X64443061Y-102276764D01*
X64474059Y-102351598D01*
X64503806Y-102396118D01*
X64589024Y-102523657D01*
X64735342Y-102669975D01*
X64735345Y-102669977D01*
X64907402Y-102784941D01*
X65098580Y-102864130D01*
X65301530Y-102904499D01*
X65301534Y-102904500D01*
X65301535Y-102904500D01*
X65508466Y-102904500D01*
X65508467Y-102904499D01*
X65711420Y-102864130D01*
X65902598Y-102784941D01*
X65984442Y-102730254D01*
X66010066Y-102718031D01*
X66072354Y-102671513D01*
X66074655Y-102669977D01*
X66074671Y-102669960D01*
X66074892Y-102669781D01*
X66079370Y-102666273D01*
X66242875Y-102544170D01*
X66249213Y-102539241D01*
X66249927Y-102538663D01*
X66256131Y-102533434D01*
X66411929Y-102396786D01*
X66412520Y-102396272D01*
X66551262Y-102276756D01*
X66561074Y-102269128D01*
X66608119Y-102236204D01*
X66620403Y-102228633D01*
X66667068Y-102203508D01*
X66682231Y-102196617D01*
X66736272Y-102176325D01*
X66751683Y-102171656D01*
X66824701Y-102154624D01*
X66838111Y-102152263D01*
X66939378Y-102140132D01*
X66949893Y-102139326D01*
X67084333Y-102134765D01*
X67091810Y-102133078D01*
X67094214Y-102132537D01*
X67121490Y-102129500D01*
X69777799Y-102129500D01*
X69777800Y-102129500D01*
X69879058Y-102087557D01*
X69956557Y-102010058D01*
X69956556Y-102010058D01*
X70015125Y-101951489D01*
X70943797Y-101022819D01*
X71005120Y-100989334D01*
X71031478Y-100986500D01*
X92036523Y-100986500D01*
X92103562Y-101006185D01*
X92124204Y-101022819D01*
X93188938Y-102087555D01*
X93188939Y-102087555D01*
X93188941Y-102087557D01*
X93218595Y-102099839D01*
X93218597Y-102099841D01*
X93218598Y-102099841D01*
X93239570Y-102108527D01*
X93290200Y-102129500D01*
X94804197Y-102129500D01*
X94811362Y-102129707D01*
X94821957Y-102130320D01*
X94841033Y-102134758D01*
X94971074Y-102138950D01*
X94972637Y-102139041D01*
X94972941Y-102139150D01*
X94979375Y-102139616D01*
X95078929Y-102150864D01*
X95090790Y-102152791D01*
X95156210Y-102166719D01*
X95169214Y-102170237D01*
X95173518Y-102171656D01*
X95210837Y-102183961D01*
X95230271Y-102192265D01*
X95321307Y-102240730D01*
X95340682Y-102253505D01*
X95460087Y-102349406D01*
X95465400Y-102353925D01*
X95509973Y-102394049D01*
X95509998Y-102394071D01*
X95512312Y-102396122D01*
X95616272Y-102486909D01*
X95682057Y-102544360D01*
X95686973Y-102548484D01*
X95688263Y-102549567D01*
X95688985Y-102550149D01*
X95695466Y-102555164D01*
X95695473Y-102555169D01*
X95915416Y-102718436D01*
X95918021Y-102720320D01*
X95919520Y-102721404D01*
X95919974Y-102721724D01*
X95931370Y-102726617D01*
X95951326Y-102737449D01*
X96022402Y-102784941D01*
X96213580Y-102864130D01*
X96416530Y-102904499D01*
X96416534Y-102904500D01*
X96416535Y-102904500D01*
X96623466Y-102904500D01*
X96623467Y-102904499D01*
X96826420Y-102864130D01*
X97017598Y-102784941D01*
X97189655Y-102669977D01*
X97335977Y-102523655D01*
X97450941Y-102351598D01*
X97530130Y-102160420D01*
X97570500Y-101957465D01*
X97570500Y-101750535D01*
X97570499Y-101750530D01*
X98009500Y-101750530D01*
X98009500Y-101957469D01*
X98049868Y-102160412D01*
X98049870Y-102160420D01*
X98098061Y-102276764D01*
X98129059Y-102351598D01*
X98158806Y-102396118D01*
X98244024Y-102523657D01*
X98390342Y-102669975D01*
X98390345Y-102669977D01*
X98562402Y-102784941D01*
X98753580Y-102864130D01*
X98956530Y-102904499D01*
X98956534Y-102904500D01*
X98956535Y-102904500D01*
X99163466Y-102904500D01*
X99163467Y-102904499D01*
X99366420Y-102864130D01*
X99557598Y-102784941D01*
X99729655Y-102669977D01*
X99875977Y-102523655D01*
X99990941Y-102351598D01*
X100070130Y-102160420D01*
X100110500Y-101957465D01*
X100110500Y-101750535D01*
X100070130Y-101547580D01*
X99990941Y-101356402D01*
X99875977Y-101184345D01*
X99875975Y-101184342D01*
X99729657Y-101038024D01*
X99628578Y-100970486D01*
X99557598Y-100923059D01*
X99557593Y-100923057D01*
X99366420Y-100843870D01*
X99366412Y-100843868D01*
X99163469Y-100803500D01*
X99163465Y-100803500D01*
X98956535Y-100803500D01*
X98956530Y-100803500D01*
X98753587Y-100843868D01*
X98753579Y-100843870D01*
X98562403Y-100923058D01*
X98390342Y-101038024D01*
X98244024Y-101184342D01*
X98129058Y-101356403D01*
X98049870Y-101547579D01*
X98049868Y-101547587D01*
X98009500Y-101750530D01*
X97570499Y-101750530D01*
X97530130Y-101547580D01*
X97450941Y-101356402D01*
X97335977Y-101184345D01*
X97335975Y-101184342D01*
X97189657Y-101038024D01*
X97088578Y-100970486D01*
X97017598Y-100923059D01*
X97017593Y-100923057D01*
X96826420Y-100843870D01*
X96826412Y-100843868D01*
X96623469Y-100803500D01*
X96623465Y-100803500D01*
X96416535Y-100803500D01*
X96416530Y-100803500D01*
X96213587Y-100843868D01*
X96213579Y-100843870D01*
X96022404Y-100923057D01*
X95947997Y-100972771D01*
X95947998Y-100972772D01*
X95940560Y-100977741D01*
X95914934Y-100989967D01*
X95852619Y-101036502D01*
X95851347Y-101037352D01*
X95850335Y-101038029D01*
X95850088Y-101038232D01*
X95845646Y-101041710D01*
X95689351Y-101158432D01*
X95682113Y-101163837D01*
X95675775Y-101168766D01*
X95675747Y-101168788D01*
X95675744Y-101168791D01*
X95675086Y-101169323D01*
X95668847Y-101174581D01*
X95513135Y-101311153D01*
X95512302Y-101311878D01*
X95484233Y-101336058D01*
X95484000Y-101336258D01*
X95483979Y-101336276D01*
X95373742Y-101431233D01*
X95363916Y-101438873D01*
X95316894Y-101471783D01*
X95304577Y-101479373D01*
X95257939Y-101504484D01*
X95242743Y-101511390D01*
X95188738Y-101531668D01*
X95173317Y-101536340D01*
X95100294Y-101553373D01*
X95086875Y-101555735D01*
X94985637Y-101567863D01*
X94975094Y-101568672D01*
X94840663Y-101573234D01*
X94830792Y-101575461D01*
X94803508Y-101578500D01*
X93510478Y-101578500D01*
X93443439Y-101558815D01*
X93422797Y-101542181D01*
X92358059Y-100477444D01*
X92358058Y-100477443D01*
X92256800Y-100435500D01*
X70811200Y-100435500D01*
X70811198Y-100435500D01*
X70739599Y-100465158D01*
X70709939Y-100477443D01*
X69645204Y-101542181D01*
X69583881Y-101575666D01*
X69557523Y-101578500D01*
X67120805Y-101578500D01*
X67113639Y-101578293D01*
X67103040Y-101577679D01*
X67083968Y-101573241D01*
X66953966Y-101569049D01*
X66952364Y-101568957D01*
X66952059Y-101568847D01*
X66945608Y-101568380D01*
X66846077Y-101557134D01*
X66834182Y-101555201D01*
X66768799Y-101541282D01*
X66755793Y-101537765D01*
X66714161Y-101524037D01*
X66694722Y-101515729D01*
X66603681Y-101467261D01*
X66584304Y-101454485D01*
X66464915Y-101358597D01*
X66459603Y-101354079D01*
X66414962Y-101313894D01*
X66412653Y-101311846D01*
X66242963Y-101163656D01*
X66236744Y-101158438D01*
X66236014Y-101157850D01*
X66229525Y-101152829D01*
X66009620Y-100989591D01*
X66009615Y-100989587D01*
X66009566Y-100989551D01*
X66005380Y-100986525D01*
X66005355Y-100986507D01*
X66005342Y-100986498D01*
X66004934Y-100986211D01*
X66004932Y-100986210D01*
X65993567Y-100981333D01*
X65973580Y-100970486D01*
X65902598Y-100923059D01*
X65711420Y-100843870D01*
X65711412Y-100843868D01*
X65508469Y-100803500D01*
X65508465Y-100803500D01*
X65301535Y-100803500D01*
X65301530Y-100803500D01*
X65098587Y-100843868D01*
X65098579Y-100843870D01*
X64907403Y-100923058D01*
X64735342Y-101038024D01*
X64589024Y-101184342D01*
X64474058Y-101356403D01*
X64394870Y-101547579D01*
X64394868Y-101547587D01*
X64354500Y-101750530D01*
X63915499Y-101750530D01*
X63875130Y-101547580D01*
X63795941Y-101356402D01*
X63680977Y-101184345D01*
X63680975Y-101184342D01*
X63534657Y-101038024D01*
X63433578Y-100970486D01*
X63362598Y-100923059D01*
X63362593Y-100923057D01*
X63171420Y-100843870D01*
X63171412Y-100843868D01*
X62968469Y-100803500D01*
X62968465Y-100803500D01*
X62761535Y-100803500D01*
X62761530Y-100803500D01*
X62558587Y-100843868D01*
X62558579Y-100843870D01*
X62367403Y-100923058D01*
X62195342Y-101038024D01*
X62049024Y-101184342D01*
X61934058Y-101356403D01*
X61854870Y-101547579D01*
X61854868Y-101547587D01*
X61814500Y-101750530D01*
X58620500Y-101750530D01*
X58620500Y-99210530D01*
X61814500Y-99210530D01*
X61814500Y-99417469D01*
X61854868Y-99620412D01*
X61854870Y-99620420D01*
X61903061Y-99736764D01*
X61934059Y-99811598D01*
X61963806Y-99856118D01*
X62049024Y-99983657D01*
X62195342Y-100129975D01*
X62195345Y-100129977D01*
X62367402Y-100244941D01*
X62558580Y-100324130D01*
X62761530Y-100364499D01*
X62761534Y-100364500D01*
X62761535Y-100364500D01*
X62968466Y-100364500D01*
X62968467Y-100364499D01*
X63171420Y-100324130D01*
X63362598Y-100244941D01*
X63534655Y-100129977D01*
X63680977Y-99983655D01*
X63795941Y-99811598D01*
X63875130Y-99620420D01*
X63915500Y-99417465D01*
X63915500Y-99210535D01*
X63915499Y-99210530D01*
X64354500Y-99210530D01*
X64354500Y-99417469D01*
X64394868Y-99620412D01*
X64394870Y-99620420D01*
X64443061Y-99736764D01*
X64474059Y-99811598D01*
X64503806Y-99856118D01*
X64589024Y-99983657D01*
X64735342Y-100129975D01*
X64735345Y-100129977D01*
X64907402Y-100244941D01*
X65098580Y-100324130D01*
X65301530Y-100364499D01*
X65301534Y-100364500D01*
X65301535Y-100364500D01*
X65508466Y-100364500D01*
X65508467Y-100364499D01*
X65711420Y-100324130D01*
X65902598Y-100244941D01*
X65984442Y-100190254D01*
X66010066Y-100178031D01*
X66072354Y-100131513D01*
X66074655Y-100129977D01*
X66074671Y-100129960D01*
X66074892Y-100129781D01*
X66079370Y-100126273D01*
X66242875Y-100004170D01*
X66249213Y-99999241D01*
X66249927Y-99998663D01*
X66256131Y-99993434D01*
X66411929Y-99856786D01*
X66412520Y-99856272D01*
X66551262Y-99736756D01*
X66561074Y-99729128D01*
X66608119Y-99696204D01*
X66620403Y-99688633D01*
X66667068Y-99663508D01*
X66682231Y-99656617D01*
X66736272Y-99636325D01*
X66751683Y-99631656D01*
X66824701Y-99614624D01*
X66838111Y-99612263D01*
X66939378Y-99600132D01*
X66949893Y-99599326D01*
X67084333Y-99594765D01*
X67091810Y-99593078D01*
X67094214Y-99592537D01*
X67121490Y-99589500D01*
X94804197Y-99589500D01*
X94811362Y-99589707D01*
X94821957Y-99590320D01*
X94841033Y-99594758D01*
X94971074Y-99598950D01*
X94972637Y-99599041D01*
X94972941Y-99599150D01*
X94979375Y-99599616D01*
X95078929Y-99610864D01*
X95090790Y-99612791D01*
X95156210Y-99626719D01*
X95169214Y-99630237D01*
X95173518Y-99631656D01*
X95210837Y-99643961D01*
X95230271Y-99652265D01*
X95321307Y-99700730D01*
X95340682Y-99713505D01*
X95460087Y-99809406D01*
X95465400Y-99813925D01*
X95509973Y-99854049D01*
X95509998Y-99854071D01*
X95512312Y-99856122D01*
X95616272Y-99946909D01*
X95682057Y-100004360D01*
X95686973Y-100008484D01*
X95688263Y-100009567D01*
X95688985Y-100010149D01*
X95695466Y-100015164D01*
X95695473Y-100015169D01*
X95915416Y-100178436D01*
X95918021Y-100180320D01*
X95919520Y-100181404D01*
X95919974Y-100181724D01*
X95931370Y-100186617D01*
X95951326Y-100197449D01*
X96022402Y-100244941D01*
X96213580Y-100324130D01*
X96416530Y-100364499D01*
X96416534Y-100364500D01*
X96416535Y-100364500D01*
X96623466Y-100364500D01*
X96623467Y-100364499D01*
X96826420Y-100324130D01*
X97017598Y-100244941D01*
X97189655Y-100129977D01*
X97335977Y-99983655D01*
X97450941Y-99811598D01*
X97530130Y-99620420D01*
X97570500Y-99417465D01*
X97570500Y-99210535D01*
X97570499Y-99210530D01*
X98009500Y-99210530D01*
X98009500Y-99417469D01*
X98049868Y-99620412D01*
X98049870Y-99620420D01*
X98098061Y-99736764D01*
X98129059Y-99811598D01*
X98158806Y-99856118D01*
X98244024Y-99983657D01*
X98390342Y-100129975D01*
X98390345Y-100129977D01*
X98562402Y-100244941D01*
X98753580Y-100324130D01*
X98956530Y-100364499D01*
X98956534Y-100364500D01*
X98956535Y-100364500D01*
X99163466Y-100364500D01*
X99163467Y-100364499D01*
X99366420Y-100324130D01*
X99557598Y-100244941D01*
X99729655Y-100129977D01*
X99875977Y-99983655D01*
X99990941Y-99811598D01*
X100070130Y-99620420D01*
X100110500Y-99417465D01*
X100110500Y-99210535D01*
X100070130Y-99007580D01*
X99990941Y-98816402D01*
X99875977Y-98644345D01*
X99875975Y-98644342D01*
X99729657Y-98498024D01*
X99628578Y-98430486D01*
X99557598Y-98383059D01*
X99557593Y-98383057D01*
X99366420Y-98303870D01*
X99366412Y-98303868D01*
X99163469Y-98263500D01*
X99163465Y-98263500D01*
X98956535Y-98263500D01*
X98956530Y-98263500D01*
X98753587Y-98303868D01*
X98753579Y-98303870D01*
X98562403Y-98383058D01*
X98390342Y-98498024D01*
X98244024Y-98644342D01*
X98129058Y-98816403D01*
X98049870Y-99007579D01*
X98049868Y-99007587D01*
X98009500Y-99210530D01*
X97570499Y-99210530D01*
X97530130Y-99007580D01*
X97450941Y-98816402D01*
X97335977Y-98644345D01*
X97335975Y-98644342D01*
X97189657Y-98498024D01*
X97088578Y-98430486D01*
X97017598Y-98383059D01*
X97017593Y-98383057D01*
X96826420Y-98303870D01*
X96826412Y-98303868D01*
X96623469Y-98263500D01*
X96623465Y-98263500D01*
X96416535Y-98263500D01*
X96416530Y-98263500D01*
X96213587Y-98303868D01*
X96213579Y-98303870D01*
X96022404Y-98383057D01*
X95947997Y-98432771D01*
X95947998Y-98432772D01*
X95940560Y-98437741D01*
X95914934Y-98449967D01*
X95852619Y-98496502D01*
X95851347Y-98497352D01*
X95850335Y-98498029D01*
X95850088Y-98498232D01*
X95845646Y-98501710D01*
X95689351Y-98618432D01*
X95682113Y-98623837D01*
X95675775Y-98628766D01*
X95675747Y-98628788D01*
X95675744Y-98628791D01*
X95675086Y-98629323D01*
X95668847Y-98634581D01*
X95513135Y-98771153D01*
X95512302Y-98771878D01*
X95484233Y-98796058D01*
X95484000Y-98796258D01*
X95483979Y-98796276D01*
X95373742Y-98891233D01*
X95363916Y-98898873D01*
X95316894Y-98931783D01*
X95304577Y-98939373D01*
X95257939Y-98964484D01*
X95242743Y-98971390D01*
X95188738Y-98991668D01*
X95173317Y-98996340D01*
X95100294Y-99013373D01*
X95086875Y-99015735D01*
X94985637Y-99027863D01*
X94975094Y-99028672D01*
X94840663Y-99033234D01*
X94830792Y-99035461D01*
X94803508Y-99038500D01*
X73837598Y-99038500D01*
X73770559Y-99018815D01*
X73724804Y-98966011D01*
X73714860Y-98896853D01*
X73743885Y-98833297D01*
X73749917Y-98826819D01*
X73759520Y-98817216D01*
X73838577Y-98680284D01*
X73879500Y-98527557D01*
X73879500Y-98369443D01*
X73838577Y-98216716D01*
X73838573Y-98216709D01*
X73759524Y-98079790D01*
X73759518Y-98079782D01*
X73647717Y-97967981D01*
X73647709Y-97967975D01*
X73510790Y-97888926D01*
X73510786Y-97888924D01*
X73510784Y-97888923D01*
X73358057Y-97848000D01*
X73199943Y-97848000D01*
X73047216Y-97888923D01*
X73047209Y-97888926D01*
X72910290Y-97967975D01*
X72910282Y-97967981D01*
X72798481Y-98079782D01*
X72798475Y-98079790D01*
X72719426Y-98216709D01*
X72719423Y-98216716D01*
X72678500Y-98369443D01*
X72678500Y-98527557D01*
X72709793Y-98644342D01*
X72719423Y-98680283D01*
X72719426Y-98680290D01*
X72798475Y-98817209D01*
X72798481Y-98817217D01*
X72808083Y-98826819D01*
X72841568Y-98888142D01*
X72836584Y-98957834D01*
X72794712Y-99013767D01*
X72729248Y-99038184D01*
X72720402Y-99038500D01*
X67120805Y-99038500D01*
X67113639Y-99038293D01*
X67103040Y-99037679D01*
X67083968Y-99033241D01*
X66953966Y-99029049D01*
X66952364Y-99028957D01*
X66952059Y-99028847D01*
X66945608Y-99028380D01*
X66846077Y-99017134D01*
X66834182Y-99015201D01*
X66768799Y-99001282D01*
X66755793Y-98997765D01*
X66714161Y-98984037D01*
X66694722Y-98975729D01*
X66603681Y-98927261D01*
X66584304Y-98914485D01*
X66464915Y-98818597D01*
X66459603Y-98814079D01*
X66414962Y-98773894D01*
X66412653Y-98771846D01*
X66242963Y-98623656D01*
X66236744Y-98618438D01*
X66236014Y-98617850D01*
X66229525Y-98612829D01*
X66009620Y-98449591D01*
X66009615Y-98449587D01*
X66009566Y-98449551D01*
X66005380Y-98446525D01*
X66004934Y-98446211D01*
X65993566Y-98441332D01*
X65973580Y-98430486D01*
X65902598Y-98383059D01*
X65711420Y-98303870D01*
X65711412Y-98303868D01*
X65508469Y-98263500D01*
X65508465Y-98263500D01*
X65301535Y-98263500D01*
X65301530Y-98263500D01*
X65098587Y-98303868D01*
X65098579Y-98303870D01*
X64907403Y-98383058D01*
X64735342Y-98498024D01*
X64589024Y-98644342D01*
X64474058Y-98816403D01*
X64394870Y-99007579D01*
X64394868Y-99007587D01*
X64354500Y-99210530D01*
X63915499Y-99210530D01*
X63875130Y-99007580D01*
X63795941Y-98816402D01*
X63680977Y-98644345D01*
X63680975Y-98644342D01*
X63534657Y-98498024D01*
X63433578Y-98430486D01*
X63362598Y-98383059D01*
X63362593Y-98383057D01*
X63171420Y-98303870D01*
X63171412Y-98303868D01*
X62968469Y-98263500D01*
X62968465Y-98263500D01*
X62761535Y-98263500D01*
X62761530Y-98263500D01*
X62558587Y-98303868D01*
X62558579Y-98303870D01*
X62367403Y-98383058D01*
X62195342Y-98498024D01*
X62049024Y-98644342D01*
X61934058Y-98816403D01*
X61854870Y-99007579D01*
X61854868Y-99007587D01*
X61814500Y-99210530D01*
X58620500Y-99210530D01*
X58620500Y-96670530D01*
X61814500Y-96670530D01*
X61814500Y-96877469D01*
X61854868Y-97080412D01*
X61854870Y-97080420D01*
X61903061Y-97196764D01*
X61934059Y-97271598D01*
X61963806Y-97316118D01*
X62049024Y-97443657D01*
X62195342Y-97589975D01*
X62195345Y-97589977D01*
X62367402Y-97704941D01*
X62558580Y-97784130D01*
X62761530Y-97824499D01*
X62761534Y-97824500D01*
X62761535Y-97824500D01*
X62968466Y-97824500D01*
X62968467Y-97824499D01*
X63171420Y-97784130D01*
X63362598Y-97704941D01*
X63534655Y-97589977D01*
X63680977Y-97443655D01*
X63795941Y-97271598D01*
X63875130Y-97080420D01*
X63915500Y-96877465D01*
X63915500Y-96670535D01*
X63915499Y-96670530D01*
X64354500Y-96670530D01*
X64354500Y-96877469D01*
X64394868Y-97080412D01*
X64394870Y-97080420D01*
X64443061Y-97196764D01*
X64474059Y-97271598D01*
X64503806Y-97316118D01*
X64589024Y-97443657D01*
X64735342Y-97589975D01*
X64735345Y-97589977D01*
X64907402Y-97704941D01*
X65098580Y-97784130D01*
X65301530Y-97824499D01*
X65301534Y-97824500D01*
X65301535Y-97824500D01*
X65508466Y-97824500D01*
X65508467Y-97824499D01*
X65711420Y-97784130D01*
X65902598Y-97704941D01*
X65984442Y-97650254D01*
X66010066Y-97638031D01*
X66072354Y-97591513D01*
X66074655Y-97589977D01*
X66074671Y-97589960D01*
X66074892Y-97589781D01*
X66079370Y-97586273D01*
X66242875Y-97464170D01*
X66249213Y-97459241D01*
X66249927Y-97458663D01*
X66256131Y-97453434D01*
X66411929Y-97316786D01*
X66412520Y-97316272D01*
X66551262Y-97196756D01*
X66561074Y-97189128D01*
X66608119Y-97156204D01*
X66620403Y-97148633D01*
X66667068Y-97123508D01*
X66682231Y-97116617D01*
X66736272Y-97096325D01*
X66751683Y-97091656D01*
X66824701Y-97074624D01*
X66838111Y-97072263D01*
X66939378Y-97060132D01*
X66949893Y-97059326D01*
X67084333Y-97054765D01*
X67091810Y-97053078D01*
X67094214Y-97052537D01*
X67121490Y-97049500D01*
X69777799Y-97049500D01*
X69777800Y-97049500D01*
X69879058Y-97007557D01*
X69956557Y-96930058D01*
X70952796Y-95933819D01*
X71014119Y-95900334D01*
X71040477Y-95897500D01*
X77444694Y-95897500D01*
X77511733Y-95917185D01*
X77557488Y-95969989D01*
X77567432Y-96039147D01*
X77538407Y-96102703D01*
X77506694Y-96128886D01*
X77499557Y-96133007D01*
X77482284Y-96142979D01*
X77370481Y-96254782D01*
X77370475Y-96254790D01*
X77291426Y-96391709D01*
X77291423Y-96391716D01*
X77250500Y-96544443D01*
X77250500Y-96702556D01*
X77291423Y-96855283D01*
X77291426Y-96855290D01*
X77370475Y-96992209D01*
X77370479Y-96992214D01*
X77370480Y-96992216D01*
X77482284Y-97104020D01*
X77482286Y-97104021D01*
X77482290Y-97104024D01*
X77619209Y-97183073D01*
X77619216Y-97183077D01*
X77771943Y-97224000D01*
X77771945Y-97224000D01*
X77930055Y-97224000D01*
X77930057Y-97224000D01*
X78082784Y-97183077D01*
X78219716Y-97104020D01*
X78331520Y-96992216D01*
X78410577Y-96855284D01*
X78451500Y-96702557D01*
X78451500Y-96544443D01*
X78410577Y-96391716D01*
X78389552Y-96355299D01*
X78331524Y-96254790D01*
X78331518Y-96254782D01*
X78219715Y-96142979D01*
X78207371Y-96135853D01*
X78195306Y-96128887D01*
X78147091Y-96078321D01*
X78133867Y-96009715D01*
X78159834Y-95944849D01*
X78216748Y-95904320D01*
X78257306Y-95897500D01*
X84284225Y-95897500D01*
X84351264Y-95917185D01*
X84371906Y-95933819D01*
X85368145Y-96930058D01*
X85445644Y-97007557D01*
X85546902Y-97049500D01*
X94804197Y-97049500D01*
X94811362Y-97049707D01*
X94821957Y-97050320D01*
X94841033Y-97054758D01*
X94971074Y-97058950D01*
X94972637Y-97059041D01*
X94972941Y-97059150D01*
X94979375Y-97059616D01*
X95078929Y-97070864D01*
X95090790Y-97072791D01*
X95156210Y-97086719D01*
X95169214Y-97090237D01*
X95173518Y-97091656D01*
X95210837Y-97103961D01*
X95230271Y-97112265D01*
X95321307Y-97160730D01*
X95340680Y-97173503D01*
X95460087Y-97269406D01*
X95465400Y-97273925D01*
X95509973Y-97314049D01*
X95509998Y-97314071D01*
X95512312Y-97316122D01*
X95616272Y-97406909D01*
X95682057Y-97464360D01*
X95686973Y-97468484D01*
X95688263Y-97469567D01*
X95688985Y-97470149D01*
X95695466Y-97475164D01*
X95695473Y-97475169D01*
X95915416Y-97638436D01*
X95918021Y-97640320D01*
X95919520Y-97641404D01*
X95919974Y-97641724D01*
X95931370Y-97646617D01*
X95951326Y-97657449D01*
X96022402Y-97704941D01*
X96213580Y-97784130D01*
X96416530Y-97824499D01*
X96416534Y-97824500D01*
X96416535Y-97824500D01*
X96623466Y-97824500D01*
X96623467Y-97824499D01*
X96826420Y-97784130D01*
X97017598Y-97704941D01*
X97189655Y-97589977D01*
X97335977Y-97443655D01*
X97450941Y-97271598D01*
X97530130Y-97080420D01*
X97570500Y-96877465D01*
X97570500Y-96670535D01*
X97570499Y-96670530D01*
X98009500Y-96670530D01*
X98009500Y-96877469D01*
X98049868Y-97080412D01*
X98049870Y-97080420D01*
X98098061Y-97196764D01*
X98129059Y-97271598D01*
X98158806Y-97316118D01*
X98244024Y-97443657D01*
X98390342Y-97589975D01*
X98390345Y-97589977D01*
X98562402Y-97704941D01*
X98753580Y-97784130D01*
X98956530Y-97824499D01*
X98956534Y-97824500D01*
X98956535Y-97824500D01*
X99163466Y-97824500D01*
X99163467Y-97824499D01*
X99366420Y-97784130D01*
X99557598Y-97704941D01*
X99729655Y-97589977D01*
X99875977Y-97443655D01*
X99990941Y-97271598D01*
X100070130Y-97080420D01*
X100110500Y-96877465D01*
X100110500Y-96670535D01*
X100070130Y-96467580D01*
X99990941Y-96276402D01*
X99875977Y-96104345D01*
X99875975Y-96104342D01*
X99729657Y-95958024D01*
X99628578Y-95890486D01*
X99557598Y-95843059D01*
X99557593Y-95843057D01*
X99366420Y-95763870D01*
X99366412Y-95763868D01*
X99163469Y-95723500D01*
X99163465Y-95723500D01*
X98956535Y-95723500D01*
X98956530Y-95723500D01*
X98753587Y-95763868D01*
X98753579Y-95763870D01*
X98562403Y-95843058D01*
X98390342Y-95958024D01*
X98244024Y-96104342D01*
X98129058Y-96276403D01*
X98049870Y-96467579D01*
X98049868Y-96467587D01*
X98009500Y-96670530D01*
X97570499Y-96670530D01*
X97530130Y-96467580D01*
X97450941Y-96276402D01*
X97335977Y-96104345D01*
X97335975Y-96104342D01*
X97189657Y-95958024D01*
X97088578Y-95890486D01*
X97017598Y-95843059D01*
X97017593Y-95843057D01*
X96826420Y-95763870D01*
X96826412Y-95763868D01*
X96623469Y-95723500D01*
X96623465Y-95723500D01*
X96416535Y-95723500D01*
X96416530Y-95723500D01*
X96213587Y-95763868D01*
X96213579Y-95763870D01*
X96022404Y-95843057D01*
X95947997Y-95892771D01*
X95947998Y-95892772D01*
X95940560Y-95897741D01*
X95914934Y-95909967D01*
X95852619Y-95956502D01*
X95851347Y-95957352D01*
X95850335Y-95958029D01*
X95850088Y-95958232D01*
X95845646Y-95961710D01*
X95689351Y-96078432D01*
X95682113Y-96083837D01*
X95675775Y-96088766D01*
X95675747Y-96088788D01*
X95675744Y-96088791D01*
X95675086Y-96089323D01*
X95668847Y-96094581D01*
X95513135Y-96231153D01*
X95512302Y-96231878D01*
X95484233Y-96256058D01*
X95484000Y-96256258D01*
X95483979Y-96256276D01*
X95373742Y-96351233D01*
X95363916Y-96358873D01*
X95316894Y-96391783D01*
X95304577Y-96399373D01*
X95257939Y-96424484D01*
X95242743Y-96431390D01*
X95188738Y-96451668D01*
X95173317Y-96456340D01*
X95100294Y-96473373D01*
X95086875Y-96475735D01*
X94985637Y-96487863D01*
X94975094Y-96488672D01*
X94840663Y-96493234D01*
X94830792Y-96495461D01*
X94803508Y-96498500D01*
X85767179Y-96498500D01*
X85700140Y-96478815D01*
X85679498Y-96462181D01*
X84605761Y-95388444D01*
X84605760Y-95388443D01*
X84504502Y-95346500D01*
X70820200Y-95346500D01*
X70820199Y-95346500D01*
X70718940Y-95388444D01*
X69645204Y-96462181D01*
X69583881Y-96495666D01*
X69557523Y-96498500D01*
X67120805Y-96498500D01*
X67113639Y-96498293D01*
X67103040Y-96497679D01*
X67083968Y-96493241D01*
X66953966Y-96489049D01*
X66952364Y-96488957D01*
X66952059Y-96488847D01*
X66945608Y-96488380D01*
X66846077Y-96477134D01*
X66834182Y-96475201D01*
X66768799Y-96461282D01*
X66755793Y-96457765D01*
X66714161Y-96444037D01*
X66694722Y-96435729D01*
X66603681Y-96387261D01*
X66584304Y-96374485D01*
X66464915Y-96278597D01*
X66459603Y-96274079D01*
X66414962Y-96233894D01*
X66412653Y-96231846D01*
X66242963Y-96083656D01*
X66236744Y-96078438D01*
X66236014Y-96077850D01*
X66229525Y-96072829D01*
X66009620Y-95909591D01*
X66009615Y-95909587D01*
X66009566Y-95909551D01*
X66005380Y-95906525D01*
X66004934Y-95906211D01*
X65993566Y-95901332D01*
X65973580Y-95890486D01*
X65902598Y-95843059D01*
X65711420Y-95763870D01*
X65711412Y-95763868D01*
X65508469Y-95723500D01*
X65508465Y-95723500D01*
X65301535Y-95723500D01*
X65301530Y-95723500D01*
X65098587Y-95763868D01*
X65098579Y-95763870D01*
X64907403Y-95843058D01*
X64735342Y-95958024D01*
X64589024Y-96104342D01*
X64474058Y-96276403D01*
X64394870Y-96467579D01*
X64394868Y-96467587D01*
X64354500Y-96670530D01*
X63915499Y-96670530D01*
X63875130Y-96467580D01*
X63795941Y-96276402D01*
X63680977Y-96104345D01*
X63680975Y-96104342D01*
X63534657Y-95958024D01*
X63433578Y-95890486D01*
X63362598Y-95843059D01*
X63362593Y-95843057D01*
X63171420Y-95763870D01*
X63171412Y-95763868D01*
X62968469Y-95723500D01*
X62968465Y-95723500D01*
X62761535Y-95723500D01*
X62761530Y-95723500D01*
X62558587Y-95763868D01*
X62558579Y-95763870D01*
X62367403Y-95843058D01*
X62195342Y-95958024D01*
X62049024Y-96104342D01*
X61934058Y-96276403D01*
X61854870Y-96467579D01*
X61854868Y-96467587D01*
X61814500Y-96670530D01*
X58620500Y-96670530D01*
X58620500Y-94130530D01*
X61814500Y-94130530D01*
X61814500Y-94337469D01*
X61854868Y-94540412D01*
X61854870Y-94540420D01*
X61903061Y-94656764D01*
X61934059Y-94731598D01*
X61963806Y-94776118D01*
X62049024Y-94903657D01*
X62195342Y-95049975D01*
X62195345Y-95049977D01*
X62367402Y-95164941D01*
X62558580Y-95244130D01*
X62761530Y-95284499D01*
X62761534Y-95284500D01*
X62761535Y-95284500D01*
X62968466Y-95284500D01*
X62968467Y-95284499D01*
X63171420Y-95244130D01*
X63362598Y-95164941D01*
X63534655Y-95049977D01*
X63680977Y-94903655D01*
X63795941Y-94731598D01*
X63875130Y-94540420D01*
X63915500Y-94337465D01*
X63915500Y-94130535D01*
X63915499Y-94130530D01*
X64354500Y-94130530D01*
X64354500Y-94337469D01*
X64394868Y-94540412D01*
X64394870Y-94540420D01*
X64443061Y-94656764D01*
X64474059Y-94731598D01*
X64503806Y-94776118D01*
X64589024Y-94903657D01*
X64735342Y-95049975D01*
X64735345Y-95049977D01*
X64907402Y-95164941D01*
X65098580Y-95244130D01*
X65301530Y-95284499D01*
X65301534Y-95284500D01*
X65301535Y-95284500D01*
X65508466Y-95284500D01*
X65508467Y-95284499D01*
X65711420Y-95244130D01*
X65902598Y-95164941D01*
X65984442Y-95110254D01*
X66010066Y-95098031D01*
X66072354Y-95051513D01*
X66074655Y-95049977D01*
X66074671Y-95049960D01*
X66074892Y-95049781D01*
X66079370Y-95046273D01*
X66242875Y-94924170D01*
X66249213Y-94919241D01*
X66249927Y-94918663D01*
X66256131Y-94913434D01*
X66411929Y-94776786D01*
X66412520Y-94776272D01*
X66551262Y-94656756D01*
X66561074Y-94649128D01*
X66608119Y-94616204D01*
X66620403Y-94608633D01*
X66667068Y-94583508D01*
X66682231Y-94576617D01*
X66736272Y-94556325D01*
X66751683Y-94551656D01*
X66824701Y-94534624D01*
X66838111Y-94532263D01*
X66939378Y-94520132D01*
X66949893Y-94519326D01*
X67084333Y-94514765D01*
X67091810Y-94513078D01*
X67094214Y-94512537D01*
X67121490Y-94509500D01*
X94804197Y-94509500D01*
X94811362Y-94509707D01*
X94821957Y-94510320D01*
X94841033Y-94514758D01*
X94971074Y-94518950D01*
X94972637Y-94519041D01*
X94972941Y-94519150D01*
X94979375Y-94519616D01*
X95078929Y-94530864D01*
X95090790Y-94532791D01*
X95156210Y-94546719D01*
X95169214Y-94550237D01*
X95173518Y-94551656D01*
X95210837Y-94563961D01*
X95230271Y-94572265D01*
X95321307Y-94620730D01*
X95340682Y-94633505D01*
X95460087Y-94729406D01*
X95465400Y-94733925D01*
X95509973Y-94774049D01*
X95509998Y-94774071D01*
X95512312Y-94776122D01*
X95616272Y-94866909D01*
X95682057Y-94924360D01*
X95686973Y-94928484D01*
X95688263Y-94929567D01*
X95688985Y-94930149D01*
X95695466Y-94935164D01*
X95695473Y-94935169D01*
X95915416Y-95098436D01*
X95918021Y-95100320D01*
X95919520Y-95101404D01*
X95919974Y-95101724D01*
X95931370Y-95106617D01*
X95951326Y-95117449D01*
X96022402Y-95164941D01*
X96213580Y-95244130D01*
X96416530Y-95284499D01*
X96416534Y-95284500D01*
X96416535Y-95284500D01*
X96623466Y-95284500D01*
X96623467Y-95284499D01*
X96826420Y-95244130D01*
X97017598Y-95164941D01*
X97189655Y-95049977D01*
X97335977Y-94903655D01*
X97450941Y-94731598D01*
X97530130Y-94540420D01*
X97570500Y-94337465D01*
X97570500Y-94130535D01*
X97570499Y-94130530D01*
X98009500Y-94130530D01*
X98009500Y-94337469D01*
X98049868Y-94540412D01*
X98049870Y-94540420D01*
X98098061Y-94656764D01*
X98129059Y-94731598D01*
X98158806Y-94776118D01*
X98244024Y-94903657D01*
X98390342Y-95049975D01*
X98390345Y-95049977D01*
X98562402Y-95164941D01*
X98753580Y-95244130D01*
X98956530Y-95284499D01*
X98956534Y-95284500D01*
X98956535Y-95284500D01*
X99163466Y-95284500D01*
X99163467Y-95284499D01*
X99366420Y-95244130D01*
X99557598Y-95164941D01*
X99729655Y-95049977D01*
X99875977Y-94903655D01*
X99990941Y-94731598D01*
X100070130Y-94540420D01*
X100110500Y-94337465D01*
X100110500Y-94130535D01*
X100070130Y-93927580D01*
X99990941Y-93736402D01*
X99875977Y-93564345D01*
X99875975Y-93564342D01*
X99729657Y-93418024D01*
X99628578Y-93350486D01*
X99557598Y-93303059D01*
X99557593Y-93303057D01*
X99366420Y-93223870D01*
X99366412Y-93223868D01*
X99163469Y-93183500D01*
X99163465Y-93183500D01*
X98956535Y-93183500D01*
X98956530Y-93183500D01*
X98753587Y-93223868D01*
X98753579Y-93223870D01*
X98562403Y-93303058D01*
X98390342Y-93418024D01*
X98244024Y-93564342D01*
X98129058Y-93736403D01*
X98049870Y-93927579D01*
X98049868Y-93927587D01*
X98009500Y-94130530D01*
X97570499Y-94130530D01*
X97530130Y-93927580D01*
X97450941Y-93736402D01*
X97335977Y-93564345D01*
X97335975Y-93564342D01*
X97189657Y-93418024D01*
X97088578Y-93350486D01*
X97017598Y-93303059D01*
X97017593Y-93303057D01*
X96826420Y-93223870D01*
X96826412Y-93223868D01*
X96623469Y-93183500D01*
X96623465Y-93183500D01*
X96416535Y-93183500D01*
X96416530Y-93183500D01*
X96213587Y-93223868D01*
X96213579Y-93223870D01*
X96022404Y-93303057D01*
X95947997Y-93352771D01*
X95947998Y-93352772D01*
X95940560Y-93357741D01*
X95914934Y-93369967D01*
X95852619Y-93416502D01*
X95851347Y-93417352D01*
X95850335Y-93418029D01*
X95850088Y-93418232D01*
X95845646Y-93421710D01*
X95689351Y-93538432D01*
X95682113Y-93543837D01*
X95675775Y-93548766D01*
X95675747Y-93548788D01*
X95675744Y-93548791D01*
X95675086Y-93549323D01*
X95668847Y-93554581D01*
X95513135Y-93691153D01*
X95512302Y-93691878D01*
X95489621Y-93711415D01*
X95486951Y-93713717D01*
X95484233Y-93716058D01*
X95484000Y-93716258D01*
X95483979Y-93716276D01*
X95373742Y-93811233D01*
X95363916Y-93818873D01*
X95316894Y-93851783D01*
X95304577Y-93859373D01*
X95257939Y-93884484D01*
X95242743Y-93891390D01*
X95188738Y-93911668D01*
X95173317Y-93916340D01*
X95100294Y-93933373D01*
X95086875Y-93935735D01*
X94985637Y-93947863D01*
X94975094Y-93948672D01*
X94840663Y-93953234D01*
X94830792Y-93955461D01*
X94803508Y-93958500D01*
X84501656Y-93958500D01*
X84434617Y-93938815D01*
X84388862Y-93886011D01*
X84378918Y-93816853D01*
X84407943Y-93753297D01*
X84413975Y-93746819D01*
X84426715Y-93734079D01*
X84447078Y-93713716D01*
X84526135Y-93576784D01*
X84567058Y-93424057D01*
X84567058Y-93265943D01*
X84526135Y-93113216D01*
X84526131Y-93113209D01*
X84447082Y-92976290D01*
X84447076Y-92976282D01*
X84335275Y-92864481D01*
X84335267Y-92864475D01*
X84198348Y-92785426D01*
X84198344Y-92785424D01*
X84198342Y-92785423D01*
X84045615Y-92744500D01*
X83887501Y-92744500D01*
X83734774Y-92785423D01*
X83734767Y-92785426D01*
X83597848Y-92864475D01*
X83597840Y-92864481D01*
X83486039Y-92976282D01*
X83486033Y-92976290D01*
X83406984Y-93113209D01*
X83406981Y-93113216D01*
X83366058Y-93265943D01*
X83366058Y-93424057D01*
X83401026Y-93554557D01*
X83406981Y-93576783D01*
X83406984Y-93576790D01*
X83486033Y-93713709D01*
X83486039Y-93713717D01*
X83519141Y-93746819D01*
X83552626Y-93808142D01*
X83547642Y-93877834D01*
X83505770Y-93933767D01*
X83440306Y-93958184D01*
X83431460Y-93958500D01*
X78409598Y-93958500D01*
X78342559Y-93938815D01*
X78296804Y-93886011D01*
X78286860Y-93816853D01*
X78315885Y-93753297D01*
X78321917Y-93746819D01*
X78331520Y-93737216D01*
X78410577Y-93600284D01*
X78451500Y-93447557D01*
X78451500Y-93289443D01*
X78410577Y-93136716D01*
X78410573Y-93136709D01*
X78331524Y-92999790D01*
X78331518Y-92999782D01*
X78219717Y-92887981D01*
X78219709Y-92887975D01*
X78082790Y-92808926D01*
X78082786Y-92808924D01*
X78082784Y-92808923D01*
X77930057Y-92768000D01*
X77771943Y-92768000D01*
X77619216Y-92808923D01*
X77619209Y-92808926D01*
X77482290Y-92887975D01*
X77482282Y-92887981D01*
X77370481Y-92999782D01*
X77370475Y-92999790D01*
X77291426Y-93136709D01*
X77291423Y-93136716D01*
X77250500Y-93289443D01*
X77250500Y-93447557D01*
X77281793Y-93564342D01*
X77291423Y-93600283D01*
X77291426Y-93600290D01*
X77370475Y-93737209D01*
X77370481Y-93737217D01*
X77380083Y-93746819D01*
X77413568Y-93808142D01*
X77408584Y-93877834D01*
X77366712Y-93933767D01*
X77301248Y-93958184D01*
X77292402Y-93958500D01*
X67120805Y-93958500D01*
X67113639Y-93958293D01*
X67103040Y-93957679D01*
X67083968Y-93953241D01*
X66953966Y-93949049D01*
X66952364Y-93948957D01*
X66952059Y-93948847D01*
X66945608Y-93948380D01*
X66846077Y-93937134D01*
X66834182Y-93935201D01*
X66768799Y-93921282D01*
X66755793Y-93917765D01*
X66714161Y-93904037D01*
X66694722Y-93895729D01*
X66603681Y-93847261D01*
X66584304Y-93834485D01*
X66464915Y-93738597D01*
X66459603Y-93734079D01*
X66414962Y-93693894D01*
X66412653Y-93691846D01*
X66242963Y-93543656D01*
X66236744Y-93538438D01*
X66236014Y-93537850D01*
X66229525Y-93532829D01*
X66009620Y-93369591D01*
X66009615Y-93369587D01*
X66009566Y-93369551D01*
X66005380Y-93366525D01*
X66004934Y-93366211D01*
X65993566Y-93361332D01*
X65973580Y-93350486D01*
X65902598Y-93303059D01*
X65711420Y-93223870D01*
X65711412Y-93223868D01*
X65508469Y-93183500D01*
X65508465Y-93183500D01*
X65301535Y-93183500D01*
X65301530Y-93183500D01*
X65098587Y-93223868D01*
X65098579Y-93223870D01*
X64907403Y-93303058D01*
X64735342Y-93418024D01*
X64589024Y-93564342D01*
X64474058Y-93736403D01*
X64394870Y-93927579D01*
X64394868Y-93927587D01*
X64354500Y-94130530D01*
X63915499Y-94130530D01*
X63875130Y-93927580D01*
X63795941Y-93736402D01*
X63680977Y-93564345D01*
X63680975Y-93564342D01*
X63534657Y-93418024D01*
X63433578Y-93350486D01*
X63362598Y-93303059D01*
X63362593Y-93303057D01*
X63171420Y-93223870D01*
X63171412Y-93223868D01*
X62968469Y-93183500D01*
X62968465Y-93183500D01*
X62761535Y-93183500D01*
X62761530Y-93183500D01*
X62558587Y-93223868D01*
X62558579Y-93223870D01*
X62367403Y-93303058D01*
X62195342Y-93418024D01*
X62049024Y-93564342D01*
X61934058Y-93736403D01*
X61854870Y-93927579D01*
X61854868Y-93927587D01*
X61814500Y-94130530D01*
X58620500Y-94130530D01*
X58620500Y-91590530D01*
X61814500Y-91590530D01*
X61814500Y-91797469D01*
X61854868Y-92000412D01*
X61854870Y-92000420D01*
X61903061Y-92116764D01*
X61934059Y-92191598D01*
X61963806Y-92236118D01*
X62049024Y-92363657D01*
X62195342Y-92509975D01*
X62195345Y-92509977D01*
X62367402Y-92624941D01*
X62558580Y-92704130D01*
X62761530Y-92744499D01*
X62761534Y-92744500D01*
X62761535Y-92744500D01*
X62968466Y-92744500D01*
X62968467Y-92744499D01*
X63171420Y-92704130D01*
X63362598Y-92624941D01*
X63534655Y-92509977D01*
X63680977Y-92363655D01*
X63795941Y-92191598D01*
X63875130Y-92000420D01*
X63915500Y-91797465D01*
X63915500Y-91590535D01*
X63915499Y-91590530D01*
X64354500Y-91590530D01*
X64354500Y-91797469D01*
X64394868Y-92000412D01*
X64394870Y-92000420D01*
X64443061Y-92116764D01*
X64474059Y-92191598D01*
X64503806Y-92236118D01*
X64589024Y-92363657D01*
X64735342Y-92509975D01*
X64735345Y-92509977D01*
X64907402Y-92624941D01*
X65098580Y-92704130D01*
X65301530Y-92744499D01*
X65301534Y-92744500D01*
X65301535Y-92744500D01*
X65508466Y-92744500D01*
X65508467Y-92744499D01*
X65711420Y-92704130D01*
X65902598Y-92624941D01*
X65984442Y-92570254D01*
X66010066Y-92558031D01*
X66072354Y-92511513D01*
X66074655Y-92509977D01*
X66074671Y-92509960D01*
X66074892Y-92509781D01*
X66079370Y-92506273D01*
X66242875Y-92384170D01*
X66249213Y-92379241D01*
X66249927Y-92378663D01*
X66256131Y-92373434D01*
X66411929Y-92236786D01*
X66412520Y-92236272D01*
X66551262Y-92116756D01*
X66561074Y-92109128D01*
X66608119Y-92076204D01*
X66620403Y-92068633D01*
X66667068Y-92043508D01*
X66682231Y-92036617D01*
X66736272Y-92016325D01*
X66751683Y-92011656D01*
X66824701Y-91994624D01*
X66838111Y-91992263D01*
X66939378Y-91980132D01*
X66949893Y-91979326D01*
X67084333Y-91974765D01*
X67091810Y-91973078D01*
X67094214Y-91972537D01*
X67121490Y-91969500D01*
X89945070Y-91969500D01*
X90012109Y-91989185D01*
X90052457Y-92031500D01*
X90070477Y-92062712D01*
X90070479Y-92062715D01*
X90070480Y-92062716D01*
X90182284Y-92174520D01*
X90182286Y-92174521D01*
X90182290Y-92174524D01*
X90319209Y-92253573D01*
X90319216Y-92253577D01*
X90471943Y-92294500D01*
X90471945Y-92294500D01*
X90630055Y-92294500D01*
X90630057Y-92294500D01*
X90782784Y-92253577D01*
X90919716Y-92174520D01*
X91031520Y-92062716D01*
X91038174Y-92051189D01*
X91049543Y-92031500D01*
X91100110Y-91983284D01*
X91156930Y-91969500D01*
X94804197Y-91969500D01*
X94811362Y-91969707D01*
X94821957Y-91970320D01*
X94841033Y-91974758D01*
X94971074Y-91978950D01*
X94972637Y-91979041D01*
X94972941Y-91979150D01*
X94979375Y-91979616D01*
X95078929Y-91990864D01*
X95090790Y-91992791D01*
X95156210Y-92006719D01*
X95169214Y-92010237D01*
X95173518Y-92011656D01*
X95210837Y-92023961D01*
X95230271Y-92032265D01*
X95321307Y-92080730D01*
X95340682Y-92093505D01*
X95460087Y-92189406D01*
X95465400Y-92193925D01*
X95509973Y-92234049D01*
X95509998Y-92234071D01*
X95512312Y-92236122D01*
X95616272Y-92326909D01*
X95682057Y-92384360D01*
X95686973Y-92388484D01*
X95688263Y-92389567D01*
X95688985Y-92390149D01*
X95695466Y-92395164D01*
X95695473Y-92395169D01*
X95915416Y-92558436D01*
X95918021Y-92560320D01*
X95919520Y-92561404D01*
X95919974Y-92561724D01*
X95931370Y-92566617D01*
X95951326Y-92577449D01*
X96022402Y-92624941D01*
X96213580Y-92704130D01*
X96416530Y-92744499D01*
X96416534Y-92744500D01*
X96416535Y-92744500D01*
X96623466Y-92744500D01*
X96623467Y-92744499D01*
X96826420Y-92704130D01*
X97017598Y-92624941D01*
X97189655Y-92509977D01*
X97335977Y-92363655D01*
X97450941Y-92191598D01*
X97530130Y-92000420D01*
X97570500Y-91797465D01*
X97570500Y-91590535D01*
X97570499Y-91590530D01*
X98009500Y-91590530D01*
X98009500Y-91797469D01*
X98049868Y-92000412D01*
X98049870Y-92000420D01*
X98098061Y-92116764D01*
X98129059Y-92191598D01*
X98158806Y-92236118D01*
X98244024Y-92363657D01*
X98390342Y-92509975D01*
X98390345Y-92509977D01*
X98562402Y-92624941D01*
X98753580Y-92704130D01*
X98956530Y-92744499D01*
X98956534Y-92744500D01*
X98956535Y-92744500D01*
X99163466Y-92744500D01*
X99163467Y-92744499D01*
X99366420Y-92704130D01*
X99557598Y-92624941D01*
X99729655Y-92509977D01*
X99875977Y-92363655D01*
X99990941Y-92191598D01*
X100070130Y-92000420D01*
X100110500Y-91797465D01*
X100110500Y-91590535D01*
X100070130Y-91387580D01*
X99990941Y-91196402D01*
X99875977Y-91024345D01*
X99875975Y-91024342D01*
X99729657Y-90878024D01*
X99628578Y-90810486D01*
X99557598Y-90763059D01*
X99557593Y-90763057D01*
X99366420Y-90683870D01*
X99366412Y-90683868D01*
X99163469Y-90643500D01*
X99163465Y-90643500D01*
X98956535Y-90643500D01*
X98956530Y-90643500D01*
X98753587Y-90683868D01*
X98753579Y-90683870D01*
X98562403Y-90763058D01*
X98390342Y-90878024D01*
X98244024Y-91024342D01*
X98129058Y-91196403D01*
X98049870Y-91387579D01*
X98049868Y-91387587D01*
X98009500Y-91590530D01*
X97570499Y-91590530D01*
X97530130Y-91387580D01*
X97450941Y-91196402D01*
X97335977Y-91024345D01*
X97335975Y-91024342D01*
X97189657Y-90878024D01*
X97088578Y-90810486D01*
X97017598Y-90763059D01*
X97017593Y-90763057D01*
X96826420Y-90683870D01*
X96826412Y-90683868D01*
X96623469Y-90643500D01*
X96623465Y-90643500D01*
X96416535Y-90643500D01*
X96416530Y-90643500D01*
X96213587Y-90683868D01*
X96213579Y-90683870D01*
X96022404Y-90763057D01*
X95947997Y-90812771D01*
X95947998Y-90812772D01*
X95940560Y-90817741D01*
X95914934Y-90829967D01*
X95852619Y-90876502D01*
X95851347Y-90877352D01*
X95850335Y-90878029D01*
X95850088Y-90878232D01*
X95845646Y-90881710D01*
X95689351Y-90998432D01*
X95682113Y-91003837D01*
X95675775Y-91008766D01*
X95675747Y-91008788D01*
X95675744Y-91008791D01*
X95675086Y-91009323D01*
X95668847Y-91014581D01*
X95513135Y-91151153D01*
X95512302Y-91151878D01*
X95484233Y-91176058D01*
X95484000Y-91176258D01*
X95483979Y-91176276D01*
X95373742Y-91271233D01*
X95363916Y-91278873D01*
X95316894Y-91311783D01*
X95304577Y-91319373D01*
X95257939Y-91344484D01*
X95242743Y-91351390D01*
X95188738Y-91371668D01*
X95173317Y-91376340D01*
X95100294Y-91393373D01*
X95086875Y-91395735D01*
X94985637Y-91407863D01*
X94975094Y-91408672D01*
X94840663Y-91413234D01*
X94830792Y-91415461D01*
X94803508Y-91418500D01*
X91156930Y-91418500D01*
X91089891Y-91398815D01*
X91049543Y-91356500D01*
X91031522Y-91325287D01*
X91031518Y-91325282D01*
X90919717Y-91213481D01*
X90919709Y-91213475D01*
X90782790Y-91134426D01*
X90782786Y-91134424D01*
X90782784Y-91134423D01*
X90630057Y-91093500D01*
X90471943Y-91093500D01*
X90319216Y-91134423D01*
X90319209Y-91134426D01*
X90182290Y-91213475D01*
X90182282Y-91213481D01*
X90070481Y-91325282D01*
X90070477Y-91325287D01*
X90052457Y-91356500D01*
X90001890Y-91404716D01*
X89945070Y-91418500D01*
X67120805Y-91418500D01*
X67113639Y-91418293D01*
X67103040Y-91417679D01*
X67083968Y-91413241D01*
X66953966Y-91409049D01*
X66952364Y-91408957D01*
X66952059Y-91408847D01*
X66945608Y-91408380D01*
X66846077Y-91397134D01*
X66834182Y-91395201D01*
X66768799Y-91381282D01*
X66755793Y-91377765D01*
X66714161Y-91364037D01*
X66694722Y-91355729D01*
X66603681Y-91307261D01*
X66584304Y-91294485D01*
X66464915Y-91198597D01*
X66459603Y-91194079D01*
X66414962Y-91153894D01*
X66412653Y-91151846D01*
X66242963Y-91003656D01*
X66236744Y-90998438D01*
X66236014Y-90997850D01*
X66229525Y-90992829D01*
X66009620Y-90829591D01*
X66009615Y-90829587D01*
X66009566Y-90829551D01*
X66005380Y-90826525D01*
X66004934Y-90826211D01*
X65993566Y-90821332D01*
X65973580Y-90810486D01*
X65902598Y-90763059D01*
X65711420Y-90683870D01*
X65711412Y-90683868D01*
X65508469Y-90643500D01*
X65508465Y-90643500D01*
X65301535Y-90643500D01*
X65301530Y-90643500D01*
X65098587Y-90683868D01*
X65098579Y-90683870D01*
X64907403Y-90763058D01*
X64735342Y-90878024D01*
X64589024Y-91024342D01*
X64474058Y-91196403D01*
X64394870Y-91387579D01*
X64394868Y-91387587D01*
X64354500Y-91590530D01*
X63915499Y-91590530D01*
X63875130Y-91387580D01*
X63795941Y-91196402D01*
X63680977Y-91024345D01*
X63680975Y-91024342D01*
X63534657Y-90878024D01*
X63433578Y-90810486D01*
X63362598Y-90763059D01*
X63362593Y-90763057D01*
X63171420Y-90683870D01*
X63171412Y-90683868D01*
X62968469Y-90643500D01*
X62968465Y-90643500D01*
X62761535Y-90643500D01*
X62761530Y-90643500D01*
X62558587Y-90683868D01*
X62558579Y-90683870D01*
X62367403Y-90763058D01*
X62195342Y-90878024D01*
X62049024Y-91024342D01*
X61934058Y-91196403D01*
X61854870Y-91387579D01*
X61854868Y-91387587D01*
X61814500Y-91590530D01*
X58620500Y-91590530D01*
X58620500Y-89050530D01*
X61814500Y-89050530D01*
X61814500Y-89257469D01*
X61854868Y-89460412D01*
X61854870Y-89460420D01*
X61934058Y-89651596D01*
X62049024Y-89823657D01*
X62195342Y-89969975D01*
X62195345Y-89969977D01*
X62367402Y-90084941D01*
X62558580Y-90164130D01*
X62761530Y-90204499D01*
X62761534Y-90204500D01*
X62761535Y-90204500D01*
X62968466Y-90204500D01*
X62968467Y-90204499D01*
X63171420Y-90164130D01*
X63362598Y-90084941D01*
X63534655Y-89969977D01*
X63680977Y-89823655D01*
X63795941Y-89651598D01*
X63875130Y-89460420D01*
X63915500Y-89257465D01*
X63915500Y-89050535D01*
X63915499Y-89050530D01*
X98009500Y-89050530D01*
X98009500Y-89257469D01*
X98049868Y-89460412D01*
X98049870Y-89460420D01*
X98129058Y-89651596D01*
X98244024Y-89823657D01*
X98390342Y-89969975D01*
X98390345Y-89969977D01*
X98562402Y-90084941D01*
X98753580Y-90164130D01*
X98956530Y-90204499D01*
X98956534Y-90204500D01*
X98956535Y-90204500D01*
X99163466Y-90204500D01*
X99163467Y-90204499D01*
X99366420Y-90164130D01*
X99557598Y-90084941D01*
X99729655Y-89969977D01*
X99875977Y-89823655D01*
X99990941Y-89651598D01*
X100070130Y-89460420D01*
X100110500Y-89257465D01*
X100110500Y-89050535D01*
X100070130Y-88847580D01*
X99990941Y-88656402D01*
X99875977Y-88484345D01*
X99875975Y-88484342D01*
X99729657Y-88338024D01*
X99643626Y-88280541D01*
X99557598Y-88223059D01*
X99366420Y-88143870D01*
X99366412Y-88143868D01*
X99163469Y-88103500D01*
X99163465Y-88103500D01*
X98956535Y-88103500D01*
X98956530Y-88103500D01*
X98753587Y-88143868D01*
X98753579Y-88143870D01*
X98562403Y-88223058D01*
X98390342Y-88338024D01*
X98244024Y-88484342D01*
X98129058Y-88656403D01*
X98049870Y-88847579D01*
X98049868Y-88847587D01*
X98009500Y-89050530D01*
X63915499Y-89050530D01*
X63875130Y-88847580D01*
X63795941Y-88656402D01*
X63680977Y-88484345D01*
X63680975Y-88484342D01*
X63534657Y-88338024D01*
X63448626Y-88280541D01*
X63362598Y-88223059D01*
X63171420Y-88143870D01*
X63171412Y-88143868D01*
X62968469Y-88103500D01*
X62968465Y-88103500D01*
X62761535Y-88103500D01*
X62761530Y-88103500D01*
X62558587Y-88143868D01*
X62558579Y-88143870D01*
X62367403Y-88223058D01*
X62195342Y-88338024D01*
X62049024Y-88484342D01*
X61934058Y-88656403D01*
X61854870Y-88847579D01*
X61854868Y-88847587D01*
X61814500Y-89050530D01*
X58620500Y-89050530D01*
X58620500Y-87804943D01*
X85505500Y-87804943D01*
X85505500Y-87963056D01*
X85546423Y-88115783D01*
X85546426Y-88115790D01*
X85625475Y-88252709D01*
X85625479Y-88252714D01*
X85625480Y-88252716D01*
X85737284Y-88364520D01*
X85737286Y-88364521D01*
X85737290Y-88364524D01*
X85874209Y-88443573D01*
X85874216Y-88443577D01*
X86026943Y-88484500D01*
X86026945Y-88484500D01*
X86185055Y-88484500D01*
X86185057Y-88484500D01*
X86337784Y-88443577D01*
X86474716Y-88364520D01*
X86586520Y-88252716D01*
X86665577Y-88115784D01*
X86706500Y-87963057D01*
X86706500Y-87804943D01*
X86665577Y-87652216D01*
X86603643Y-87544942D01*
X86586524Y-87515290D01*
X86586518Y-87515282D01*
X86474717Y-87403481D01*
X86474709Y-87403475D01*
X86337790Y-87324426D01*
X86337786Y-87324424D01*
X86337784Y-87324423D01*
X86185057Y-87283500D01*
X86026943Y-87283500D01*
X85874216Y-87324423D01*
X85874209Y-87324426D01*
X85737290Y-87403475D01*
X85737282Y-87403481D01*
X85625481Y-87515282D01*
X85625475Y-87515290D01*
X85546426Y-87652209D01*
X85546423Y-87652216D01*
X85505500Y-87804943D01*
X58620500Y-87804943D01*
X58620500Y-86510530D01*
X61814500Y-86510530D01*
X61814500Y-86717469D01*
X61854868Y-86920412D01*
X61854870Y-86920420D01*
X61903061Y-87036764D01*
X61934059Y-87111598D01*
X61963806Y-87156118D01*
X62049024Y-87283657D01*
X62195342Y-87429975D01*
X62195345Y-87429977D01*
X62367402Y-87544941D01*
X62558580Y-87624130D01*
X62699744Y-87652209D01*
X62761530Y-87664499D01*
X62761534Y-87664500D01*
X62761535Y-87664500D01*
X62968466Y-87664500D01*
X62968467Y-87664499D01*
X63171420Y-87624130D01*
X63362598Y-87544941D01*
X63534655Y-87429977D01*
X63680977Y-87283655D01*
X63795941Y-87111598D01*
X63875130Y-86920420D01*
X63915500Y-86717465D01*
X63915500Y-86510535D01*
X63915499Y-86510530D01*
X64354500Y-86510530D01*
X64354500Y-86717469D01*
X64394868Y-86920412D01*
X64394870Y-86920420D01*
X64443061Y-87036764D01*
X64474059Y-87111598D01*
X64503806Y-87156118D01*
X64589024Y-87283657D01*
X64735342Y-87429975D01*
X64735345Y-87429977D01*
X64907402Y-87544941D01*
X65098580Y-87624130D01*
X65239744Y-87652209D01*
X65301530Y-87664499D01*
X65301534Y-87664500D01*
X65301535Y-87664500D01*
X65508466Y-87664500D01*
X65508467Y-87664499D01*
X65711420Y-87624130D01*
X65902598Y-87544941D01*
X65984442Y-87490254D01*
X66010066Y-87478031D01*
X66072354Y-87431513D01*
X66074655Y-87429977D01*
X66074671Y-87429960D01*
X66074892Y-87429781D01*
X66079370Y-87426273D01*
X66242875Y-87304170D01*
X66249213Y-87299241D01*
X66249927Y-87298663D01*
X66256131Y-87293434D01*
X66411929Y-87156786D01*
X66412520Y-87156272D01*
X66551262Y-87036756D01*
X66561074Y-87029128D01*
X66608119Y-86996204D01*
X66620403Y-86988633D01*
X66667068Y-86963508D01*
X66682231Y-86956617D01*
X66736272Y-86936325D01*
X66751683Y-86931656D01*
X66824701Y-86914624D01*
X66838111Y-86912263D01*
X66939378Y-86900132D01*
X66949893Y-86899326D01*
X67084333Y-86894765D01*
X67091810Y-86893078D01*
X67094214Y-86892537D01*
X67121490Y-86889500D01*
X76127799Y-86889500D01*
X76127800Y-86889500D01*
X76229058Y-86847557D01*
X76306557Y-86770058D01*
X76306556Y-86770058D01*
X76365125Y-86711489D01*
X77420797Y-85655819D01*
X77482120Y-85622334D01*
X77508478Y-85619500D01*
X89623523Y-85619500D01*
X89690562Y-85639185D01*
X89711204Y-85655819D01*
X90902938Y-86847555D01*
X90902939Y-86847555D01*
X90902941Y-86847557D01*
X90932595Y-86859839D01*
X90932597Y-86859841D01*
X90932598Y-86859841D01*
X90953570Y-86868527D01*
X91004200Y-86889500D01*
X94804197Y-86889500D01*
X94811362Y-86889707D01*
X94821957Y-86890320D01*
X94841033Y-86894758D01*
X94971074Y-86898950D01*
X94972637Y-86899041D01*
X94972941Y-86899150D01*
X94979375Y-86899616D01*
X95078929Y-86910864D01*
X95090790Y-86912791D01*
X95156210Y-86926719D01*
X95169214Y-86930237D01*
X95173518Y-86931656D01*
X95210837Y-86943961D01*
X95230271Y-86952265D01*
X95321307Y-87000730D01*
X95340682Y-87013505D01*
X95460087Y-87109406D01*
X95465400Y-87113925D01*
X95509973Y-87154049D01*
X95509998Y-87154071D01*
X95512312Y-87156122D01*
X95616272Y-87246909D01*
X95682057Y-87304360D01*
X95686973Y-87308484D01*
X95688263Y-87309567D01*
X95688985Y-87310149D01*
X95695466Y-87315164D01*
X95695473Y-87315169D01*
X95915416Y-87478436D01*
X95918021Y-87480320D01*
X95919520Y-87481404D01*
X95919974Y-87481724D01*
X95931370Y-87486617D01*
X95951326Y-87497449D01*
X96022402Y-87544941D01*
X96213580Y-87624130D01*
X96354744Y-87652209D01*
X96416530Y-87664499D01*
X96416534Y-87664500D01*
X96416535Y-87664500D01*
X96623466Y-87664500D01*
X96623467Y-87664499D01*
X96826420Y-87624130D01*
X97017598Y-87544941D01*
X97189655Y-87429977D01*
X97335977Y-87283655D01*
X97450941Y-87111598D01*
X97530130Y-86920420D01*
X97570500Y-86717465D01*
X97570500Y-86510535D01*
X97570499Y-86510530D01*
X98009500Y-86510530D01*
X98009500Y-86717469D01*
X98049868Y-86920412D01*
X98049870Y-86920420D01*
X98098061Y-87036764D01*
X98129059Y-87111598D01*
X98158806Y-87156118D01*
X98244024Y-87283657D01*
X98390342Y-87429975D01*
X98390345Y-87429977D01*
X98562402Y-87544941D01*
X98753580Y-87624130D01*
X98894744Y-87652209D01*
X98956530Y-87664499D01*
X98956534Y-87664500D01*
X98956535Y-87664500D01*
X99163466Y-87664500D01*
X99163467Y-87664499D01*
X99366420Y-87624130D01*
X99557598Y-87544941D01*
X99729655Y-87429977D01*
X99875977Y-87283655D01*
X99990941Y-87111598D01*
X100070130Y-86920420D01*
X100110500Y-86717465D01*
X100110500Y-86510535D01*
X100070130Y-86307580D01*
X99990941Y-86116402D01*
X99875977Y-85944345D01*
X99875975Y-85944342D01*
X99729657Y-85798024D01*
X99628578Y-85730486D01*
X99557598Y-85683059D01*
X99557593Y-85683057D01*
X99366420Y-85603870D01*
X99366412Y-85603868D01*
X99163469Y-85563500D01*
X99163465Y-85563500D01*
X98956535Y-85563500D01*
X98956530Y-85563500D01*
X98753587Y-85603868D01*
X98753579Y-85603870D01*
X98562403Y-85683058D01*
X98390342Y-85798024D01*
X98244024Y-85944342D01*
X98129058Y-86116403D01*
X98049870Y-86307579D01*
X98049868Y-86307587D01*
X98009500Y-86510530D01*
X97570499Y-86510530D01*
X97530130Y-86307580D01*
X97450941Y-86116402D01*
X97335977Y-85944345D01*
X97335975Y-85944342D01*
X97189657Y-85798024D01*
X97088578Y-85730486D01*
X97017598Y-85683059D01*
X97017593Y-85683057D01*
X96826420Y-85603870D01*
X96826412Y-85603868D01*
X96623469Y-85563500D01*
X96623465Y-85563500D01*
X96416535Y-85563500D01*
X96416530Y-85563500D01*
X96213587Y-85603868D01*
X96213579Y-85603870D01*
X96022404Y-85683057D01*
X95947997Y-85732771D01*
X95947998Y-85732772D01*
X95940560Y-85737741D01*
X95914934Y-85749967D01*
X95852619Y-85796502D01*
X95851347Y-85797352D01*
X95850335Y-85798029D01*
X95850088Y-85798232D01*
X95845646Y-85801710D01*
X95689351Y-85918432D01*
X95682113Y-85923837D01*
X95675775Y-85928766D01*
X95675747Y-85928788D01*
X95675744Y-85928791D01*
X95675086Y-85929323D01*
X95668847Y-85934581D01*
X95513135Y-86071153D01*
X95512302Y-86071878D01*
X95484233Y-86096058D01*
X95484000Y-86096258D01*
X95483979Y-86096276D01*
X95373742Y-86191233D01*
X95363916Y-86198873D01*
X95316894Y-86231783D01*
X95304577Y-86239373D01*
X95257939Y-86264484D01*
X95242743Y-86271390D01*
X95188738Y-86291668D01*
X95173317Y-86296340D01*
X95100294Y-86313373D01*
X95086875Y-86315735D01*
X94985637Y-86327863D01*
X94975094Y-86328672D01*
X94840663Y-86333234D01*
X94830792Y-86335461D01*
X94803508Y-86338500D01*
X91224478Y-86338500D01*
X91157439Y-86318815D01*
X91136797Y-86302181D01*
X89945059Y-85110444D01*
X89945058Y-85110443D01*
X89843800Y-85068500D01*
X77288200Y-85068500D01*
X77288198Y-85068500D01*
X77216599Y-85098158D01*
X77186939Y-85110443D01*
X75995204Y-86302181D01*
X75933881Y-86335666D01*
X75907523Y-86338500D01*
X67120805Y-86338500D01*
X67113639Y-86338293D01*
X67103040Y-86337679D01*
X67083968Y-86333241D01*
X66953966Y-86329049D01*
X66952364Y-86328957D01*
X66952059Y-86328847D01*
X66945608Y-86328380D01*
X66846077Y-86317134D01*
X66834182Y-86315201D01*
X66768799Y-86301282D01*
X66755793Y-86297765D01*
X66714161Y-86284037D01*
X66694722Y-86275729D01*
X66603681Y-86227261D01*
X66584304Y-86214485D01*
X66464915Y-86118597D01*
X66459603Y-86114079D01*
X66414962Y-86073894D01*
X66412653Y-86071846D01*
X66242963Y-85923656D01*
X66236744Y-85918438D01*
X66236014Y-85917850D01*
X66229525Y-85912829D01*
X66009620Y-85749591D01*
X66009615Y-85749587D01*
X66009566Y-85749551D01*
X66005380Y-85746525D01*
X66004934Y-85746211D01*
X65993566Y-85741332D01*
X65973580Y-85730486D01*
X65902598Y-85683059D01*
X65711420Y-85603870D01*
X65711412Y-85603868D01*
X65508469Y-85563500D01*
X65508465Y-85563500D01*
X65301535Y-85563500D01*
X65301530Y-85563500D01*
X65098587Y-85603868D01*
X65098579Y-85603870D01*
X64907403Y-85683058D01*
X64735342Y-85798024D01*
X64589024Y-85944342D01*
X64474058Y-86116403D01*
X64394870Y-86307579D01*
X64394868Y-86307587D01*
X64354500Y-86510530D01*
X63915499Y-86510530D01*
X63875130Y-86307580D01*
X63795941Y-86116402D01*
X63680977Y-85944345D01*
X63680975Y-85944342D01*
X63534657Y-85798024D01*
X63433578Y-85730486D01*
X63362598Y-85683059D01*
X63362593Y-85683057D01*
X63171420Y-85603870D01*
X63171412Y-85603868D01*
X62968469Y-85563500D01*
X62968465Y-85563500D01*
X62761535Y-85563500D01*
X62761530Y-85563500D01*
X62558587Y-85603868D01*
X62558579Y-85603870D01*
X62367403Y-85683058D01*
X62195342Y-85798024D01*
X62049024Y-85944342D01*
X61934058Y-86116403D01*
X61854870Y-86307579D01*
X61854868Y-86307587D01*
X61814500Y-86510530D01*
X58620500Y-86510530D01*
X58620500Y-83970530D01*
X61814500Y-83970530D01*
X61814500Y-84177469D01*
X61854868Y-84380412D01*
X61854870Y-84380420D01*
X61934058Y-84571596D01*
X62049024Y-84743657D01*
X62195342Y-84889975D01*
X62195345Y-84889977D01*
X62367402Y-85004941D01*
X62558580Y-85084130D01*
X62761530Y-85124499D01*
X62761534Y-85124500D01*
X62761535Y-85124500D01*
X62968466Y-85124500D01*
X62968467Y-85124499D01*
X63171420Y-85084130D01*
X63362598Y-85004941D01*
X63534655Y-84889977D01*
X63680977Y-84743655D01*
X63795941Y-84571598D01*
X63875130Y-84380420D01*
X63915500Y-84177465D01*
X63915500Y-83970535D01*
X63915499Y-83970530D01*
X64354500Y-83970530D01*
X64354500Y-84177469D01*
X64394868Y-84380412D01*
X64394870Y-84380420D01*
X64474058Y-84571596D01*
X64589024Y-84743657D01*
X64735342Y-84889975D01*
X64735345Y-84889977D01*
X64907402Y-85004941D01*
X65098580Y-85084130D01*
X65301530Y-85124499D01*
X65301534Y-85124500D01*
X65301535Y-85124500D01*
X65508466Y-85124500D01*
X65508467Y-85124499D01*
X65711420Y-85084130D01*
X65902598Y-85004941D01*
X65984442Y-84950254D01*
X66010066Y-84938031D01*
X66072354Y-84891513D01*
X66074655Y-84889977D01*
X66074671Y-84889960D01*
X66074892Y-84889781D01*
X66079370Y-84886273D01*
X66242875Y-84764170D01*
X66249213Y-84759241D01*
X66249927Y-84758663D01*
X66256131Y-84753434D01*
X66411929Y-84616786D01*
X66412520Y-84616272D01*
X66551262Y-84496756D01*
X66561074Y-84489128D01*
X66608119Y-84456204D01*
X66620403Y-84448633D01*
X66667068Y-84423508D01*
X66682231Y-84416617D01*
X66736272Y-84396325D01*
X66751683Y-84391656D01*
X66824701Y-84374624D01*
X66838111Y-84372263D01*
X66939378Y-84360132D01*
X66949893Y-84359326D01*
X67084333Y-84354765D01*
X67091810Y-84353078D01*
X67094214Y-84352537D01*
X67121490Y-84349500D01*
X76000799Y-84349500D01*
X76000800Y-84349500D01*
X76102058Y-84307557D01*
X76179557Y-84230058D01*
X76179556Y-84230058D01*
X76238125Y-84171489D01*
X76414671Y-83994943D01*
X92871500Y-83994943D01*
X92871500Y-84153057D01*
X92900909Y-84262811D01*
X92912423Y-84305783D01*
X92912426Y-84305790D01*
X92991475Y-84442709D01*
X92991479Y-84442714D01*
X92991480Y-84442716D01*
X93103284Y-84554520D01*
X93103286Y-84554521D01*
X93103290Y-84554524D01*
X93240209Y-84633573D01*
X93240216Y-84633577D01*
X93392943Y-84674500D01*
X93392945Y-84674500D01*
X93551055Y-84674500D01*
X93551057Y-84674500D01*
X93703784Y-84633577D01*
X93840716Y-84554520D01*
X93952520Y-84442716D01*
X94031577Y-84305784D01*
X94072500Y-84153057D01*
X94072500Y-83994943D01*
X94031577Y-83842216D01*
X94000828Y-83788957D01*
X93952524Y-83705290D01*
X93952518Y-83705282D01*
X93840717Y-83593481D01*
X93840709Y-83593475D01*
X93703790Y-83514426D01*
X93703786Y-83514424D01*
X93703784Y-83514423D01*
X93551057Y-83473500D01*
X93392943Y-83473500D01*
X93240216Y-83514423D01*
X93240209Y-83514426D01*
X93103290Y-83593475D01*
X93103282Y-83593481D01*
X92991481Y-83705282D01*
X92991475Y-83705290D01*
X92912426Y-83842209D01*
X92912423Y-83842216D01*
X92871500Y-83994943D01*
X76414671Y-83994943D01*
X77293797Y-83115819D01*
X77355120Y-83082334D01*
X77381478Y-83079500D01*
X95075092Y-83079500D01*
X95106364Y-83088682D01*
X95137995Y-83096639D01*
X95140623Y-83098742D01*
X95142131Y-83099185D01*
X95165553Y-83118690D01*
X95222138Y-83179045D01*
X95228647Y-83186571D01*
X95285593Y-83258023D01*
X95291088Y-83264917D01*
X95298135Y-83274700D01*
X95334524Y-83330774D01*
X95341236Y-83342462D01*
X95360965Y-83381603D01*
X95368833Y-83401214D01*
X95390893Y-83473500D01*
X95398935Y-83499852D01*
X95403602Y-83522588D01*
X95420225Y-83674853D01*
X95420786Y-83681804D01*
X95423930Y-83741649D01*
X95424123Y-83744884D01*
X95439326Y-83969653D01*
X95440032Y-83977715D01*
X95440127Y-83978596D01*
X95440132Y-83978639D01*
X95441169Y-83986766D01*
X95442379Y-83994945D01*
X95481254Y-84257788D01*
X95482056Y-84262776D01*
X95482159Y-84263372D01*
X95486754Y-84274881D01*
X95493209Y-84296663D01*
X95509868Y-84380414D01*
X95509870Y-84380420D01*
X95589058Y-84571596D01*
X95704024Y-84743657D01*
X95850342Y-84889975D01*
X95850345Y-84889977D01*
X96022402Y-85004941D01*
X96213580Y-85084130D01*
X96416530Y-85124499D01*
X96416534Y-85124500D01*
X96416535Y-85124500D01*
X96623466Y-85124500D01*
X96623467Y-85124499D01*
X96826420Y-85084130D01*
X97017598Y-85004941D01*
X97189655Y-84889977D01*
X97335977Y-84743655D01*
X97450941Y-84571598D01*
X97530130Y-84380420D01*
X97570500Y-84177465D01*
X97570500Y-83970535D01*
X97570499Y-83970530D01*
X98009500Y-83970530D01*
X98009500Y-84177469D01*
X98049868Y-84380412D01*
X98049870Y-84380420D01*
X98129058Y-84571596D01*
X98244024Y-84743657D01*
X98390342Y-84889975D01*
X98390345Y-84889977D01*
X98562402Y-85004941D01*
X98753580Y-85084130D01*
X98956530Y-85124499D01*
X98956534Y-85124500D01*
X98956535Y-85124500D01*
X99163466Y-85124500D01*
X99163467Y-85124499D01*
X99366420Y-85084130D01*
X99557598Y-85004941D01*
X99729655Y-84889977D01*
X99875977Y-84743655D01*
X99990941Y-84571598D01*
X100070130Y-84380420D01*
X100110500Y-84177465D01*
X100110500Y-83970535D01*
X100070130Y-83767580D01*
X99990941Y-83576402D01*
X99875977Y-83404345D01*
X99875975Y-83404342D01*
X99729657Y-83258024D01*
X99611455Y-83179045D01*
X99557598Y-83143059D01*
X99498766Y-83118690D01*
X99366420Y-83063870D01*
X99366412Y-83063868D01*
X99163469Y-83023500D01*
X99163465Y-83023500D01*
X98956535Y-83023500D01*
X98956530Y-83023500D01*
X98753587Y-83063868D01*
X98753579Y-83063870D01*
X98562403Y-83143058D01*
X98390342Y-83258024D01*
X98244024Y-83404342D01*
X98129058Y-83576403D01*
X98049870Y-83767579D01*
X98049868Y-83767587D01*
X98009500Y-83970530D01*
X97570499Y-83970530D01*
X97530130Y-83767580D01*
X97450941Y-83576402D01*
X97335977Y-83404345D01*
X97335975Y-83404342D01*
X97189657Y-83258024D01*
X97071455Y-83179045D01*
X97017598Y-83143059D01*
X96958766Y-83118690D01*
X96826420Y-83063870D01*
X96826414Y-83063868D01*
X96738649Y-83046410D01*
X96738649Y-83046409D01*
X96729872Y-83044663D01*
X96703118Y-83035192D01*
X96626201Y-83024042D01*
X96623471Y-83023499D01*
X96623139Y-83023467D01*
X96617512Y-83022782D01*
X96415573Y-82993509D01*
X96407539Y-82992506D01*
X96406577Y-82992405D01*
X96398607Y-82991726D01*
X96191853Y-82978186D01*
X96190750Y-82978109D01*
X96008419Y-82964533D01*
X95996068Y-82962987D01*
X95939532Y-82953006D01*
X95925454Y-82949663D01*
X95874735Y-82934445D01*
X95859107Y-82928583D01*
X95806580Y-82904734D01*
X95792373Y-82897134D01*
X95728677Y-82857533D01*
X95717517Y-82849713D01*
X95637364Y-82786708D01*
X95629338Y-82779826D01*
X95531062Y-82688001D01*
X95531060Y-82688000D01*
X95531061Y-82688000D01*
X95522500Y-82682590D01*
X95501065Y-82665450D01*
X95406059Y-82570444D01*
X95406058Y-82570443D01*
X95304800Y-82528500D01*
X77161200Y-82528500D01*
X77161198Y-82528500D01*
X77089599Y-82558158D01*
X77059939Y-82570443D01*
X75868204Y-83762181D01*
X75806881Y-83795666D01*
X75780523Y-83798500D01*
X67120805Y-83798500D01*
X67113639Y-83798293D01*
X67103040Y-83797679D01*
X67083968Y-83793241D01*
X66953966Y-83789049D01*
X66952364Y-83788957D01*
X66952059Y-83788847D01*
X66945608Y-83788380D01*
X66846077Y-83777134D01*
X66834182Y-83775201D01*
X66768799Y-83761282D01*
X66755793Y-83757765D01*
X66714161Y-83744037D01*
X66694722Y-83735729D01*
X66603681Y-83687261D01*
X66584304Y-83674485D01*
X66464915Y-83578597D01*
X66459603Y-83574079D01*
X66414962Y-83533894D01*
X66412653Y-83531846D01*
X66242963Y-83383656D01*
X66236744Y-83378438D01*
X66236014Y-83377850D01*
X66229525Y-83372829D01*
X66009620Y-83209591D01*
X66009615Y-83209587D01*
X66009566Y-83209551D01*
X66005380Y-83206525D01*
X66004934Y-83206211D01*
X65993566Y-83201332D01*
X65973580Y-83190486D01*
X65902598Y-83143059D01*
X65711420Y-83063870D01*
X65711412Y-83063868D01*
X65508469Y-83023500D01*
X65508465Y-83023500D01*
X65301535Y-83023500D01*
X65301530Y-83023500D01*
X65098587Y-83063868D01*
X65098579Y-83063870D01*
X64907403Y-83143058D01*
X64735342Y-83258024D01*
X64589024Y-83404342D01*
X64474058Y-83576403D01*
X64394870Y-83767579D01*
X64394868Y-83767587D01*
X64354500Y-83970530D01*
X63915499Y-83970530D01*
X63875130Y-83767580D01*
X63795941Y-83576402D01*
X63680977Y-83404345D01*
X63680975Y-83404342D01*
X63534657Y-83258024D01*
X63416455Y-83179045D01*
X63362598Y-83143059D01*
X63303766Y-83118690D01*
X63171420Y-83063870D01*
X63171412Y-83063868D01*
X62968469Y-83023500D01*
X62968465Y-83023500D01*
X62761535Y-83023500D01*
X62761530Y-83023500D01*
X62558587Y-83063868D01*
X62558579Y-83063870D01*
X62367403Y-83143058D01*
X62195342Y-83258024D01*
X62049024Y-83404342D01*
X61934058Y-83576403D01*
X61854870Y-83767579D01*
X61854868Y-83767587D01*
X61814500Y-83970530D01*
X58620500Y-83970530D01*
X58620500Y-81430530D01*
X61814500Y-81430530D01*
X61814500Y-81637469D01*
X61854868Y-81840412D01*
X61854870Y-81840420D01*
X61934058Y-82031596D01*
X62049024Y-82203657D01*
X62195342Y-82349975D01*
X62195345Y-82349977D01*
X62367402Y-82464941D01*
X62558580Y-82544130D01*
X62761530Y-82584499D01*
X62761534Y-82584500D01*
X62761535Y-82584500D01*
X62968466Y-82584500D01*
X62968467Y-82584499D01*
X63171420Y-82544130D01*
X63362598Y-82464941D01*
X63534655Y-82349977D01*
X63680977Y-82203655D01*
X63795941Y-82031598D01*
X63875130Y-81840420D01*
X63915500Y-81637465D01*
X63915500Y-81430535D01*
X63915499Y-81430530D01*
X64354500Y-81430530D01*
X64354500Y-81637469D01*
X64394868Y-81840412D01*
X64394870Y-81840420D01*
X64474058Y-82031596D01*
X64589024Y-82203657D01*
X64735342Y-82349975D01*
X64735345Y-82349977D01*
X64907402Y-82464941D01*
X65098580Y-82544130D01*
X65301530Y-82584499D01*
X65301534Y-82584500D01*
X65301535Y-82584500D01*
X65508466Y-82584500D01*
X65508467Y-82584499D01*
X65711420Y-82544130D01*
X65902598Y-82464941D01*
X66074655Y-82349977D01*
X66220977Y-82203655D01*
X66335941Y-82031598D01*
X66415130Y-81840420D01*
X66455500Y-81637465D01*
X66455500Y-81454943D01*
X92871500Y-81454943D01*
X92871500Y-81613057D01*
X92878041Y-81637466D01*
X92912423Y-81765783D01*
X92912426Y-81765790D01*
X92991475Y-81902709D01*
X92991479Y-81902714D01*
X92991480Y-81902716D01*
X93103284Y-82014520D01*
X93103286Y-82014521D01*
X93103290Y-82014524D01*
X93240209Y-82093573D01*
X93240216Y-82093577D01*
X93392943Y-82134500D01*
X93392945Y-82134500D01*
X93551055Y-82134500D01*
X93551057Y-82134500D01*
X93703784Y-82093577D01*
X93840716Y-82014520D01*
X93952520Y-81902716D01*
X94031577Y-81765784D01*
X94072500Y-81613057D01*
X94072500Y-81454943D01*
X94065959Y-81430530D01*
X95469500Y-81430530D01*
X95469500Y-81637469D01*
X95509868Y-81840412D01*
X95509870Y-81840420D01*
X95589058Y-82031596D01*
X95704024Y-82203657D01*
X95850342Y-82349975D01*
X95850345Y-82349977D01*
X96022402Y-82464941D01*
X96213580Y-82544130D01*
X96416530Y-82584499D01*
X96416534Y-82584500D01*
X96416535Y-82584500D01*
X96623466Y-82584500D01*
X96623467Y-82584499D01*
X96826420Y-82544130D01*
X97017598Y-82464941D01*
X97189655Y-82349977D01*
X97335977Y-82203655D01*
X97450941Y-82031598D01*
X97530130Y-81840420D01*
X97570500Y-81637465D01*
X97570500Y-81430535D01*
X97570499Y-81430530D01*
X98009500Y-81430530D01*
X98009500Y-81637469D01*
X98049868Y-81840412D01*
X98049870Y-81840420D01*
X98129058Y-82031596D01*
X98244024Y-82203657D01*
X98390342Y-82349975D01*
X98390345Y-82349977D01*
X98562402Y-82464941D01*
X98753580Y-82544130D01*
X98956530Y-82584499D01*
X98956534Y-82584500D01*
X98956535Y-82584500D01*
X99163466Y-82584500D01*
X99163467Y-82584499D01*
X99366420Y-82544130D01*
X99557598Y-82464941D01*
X99729655Y-82349977D01*
X99875977Y-82203655D01*
X99990941Y-82031598D01*
X100070130Y-81840420D01*
X100110500Y-81637465D01*
X100110500Y-81430535D01*
X100070130Y-81227580D01*
X99990941Y-81036402D01*
X99875977Y-80864345D01*
X99875975Y-80864342D01*
X99729657Y-80718024D01*
X99643626Y-80660541D01*
X99557598Y-80603059D01*
X99366420Y-80523870D01*
X99366412Y-80523868D01*
X99163469Y-80483500D01*
X99163465Y-80483500D01*
X98956535Y-80483500D01*
X98956530Y-80483500D01*
X98753587Y-80523868D01*
X98753579Y-80523870D01*
X98562403Y-80603058D01*
X98390342Y-80718024D01*
X98244024Y-80864342D01*
X98129058Y-81036403D01*
X98049870Y-81227579D01*
X98049868Y-81227587D01*
X98009500Y-81430530D01*
X97570499Y-81430530D01*
X97530130Y-81227580D01*
X97450941Y-81036402D01*
X97335977Y-80864345D01*
X97335975Y-80864342D01*
X97189657Y-80718024D01*
X97103626Y-80660541D01*
X97017598Y-80603059D01*
X96826420Y-80523870D01*
X96826412Y-80523868D01*
X96623469Y-80483500D01*
X96623465Y-80483500D01*
X96416535Y-80483500D01*
X96416530Y-80483500D01*
X96213587Y-80523868D01*
X96213579Y-80523870D01*
X96022403Y-80603058D01*
X95850342Y-80718024D01*
X95704024Y-80864342D01*
X95589058Y-81036403D01*
X95509870Y-81227579D01*
X95509868Y-81227587D01*
X95469500Y-81430530D01*
X94065959Y-81430530D01*
X94031577Y-81302216D01*
X94031573Y-81302209D01*
X93952524Y-81165290D01*
X93952518Y-81165282D01*
X93840717Y-81053481D01*
X93840709Y-81053475D01*
X93703790Y-80974426D01*
X93703786Y-80974424D01*
X93703784Y-80974423D01*
X93551057Y-80933500D01*
X93392943Y-80933500D01*
X93240216Y-80974423D01*
X93240209Y-80974426D01*
X93103290Y-81053475D01*
X93103282Y-81053481D01*
X92991481Y-81165282D01*
X92991475Y-81165290D01*
X92912426Y-81302209D01*
X92912423Y-81302216D01*
X92871500Y-81454943D01*
X66455500Y-81454943D01*
X66455500Y-81430535D01*
X66415130Y-81227580D01*
X66335941Y-81036402D01*
X66220977Y-80864345D01*
X66220975Y-80864342D01*
X66074657Y-80718024D01*
X65988626Y-80660541D01*
X65902598Y-80603059D01*
X65711420Y-80523870D01*
X65711412Y-80523868D01*
X65508469Y-80483500D01*
X65508465Y-80483500D01*
X65301535Y-80483500D01*
X65301530Y-80483500D01*
X65098587Y-80523868D01*
X65098579Y-80523870D01*
X64907403Y-80603058D01*
X64735342Y-80718024D01*
X64589024Y-80864342D01*
X64474058Y-81036403D01*
X64394870Y-81227579D01*
X64394868Y-81227587D01*
X64354500Y-81430530D01*
X63915499Y-81430530D01*
X63875130Y-81227580D01*
X63795941Y-81036402D01*
X63680977Y-80864345D01*
X63680975Y-80864342D01*
X63534657Y-80718024D01*
X63448626Y-80660541D01*
X63362598Y-80603059D01*
X63171420Y-80523870D01*
X63171412Y-80523868D01*
X62968469Y-80483500D01*
X62968465Y-80483500D01*
X62761535Y-80483500D01*
X62761530Y-80483500D01*
X62558587Y-80523868D01*
X62558579Y-80523870D01*
X62367403Y-80603058D01*
X62195342Y-80718024D01*
X62049024Y-80864342D01*
X61934058Y-81036403D01*
X61854870Y-81227579D01*
X61854868Y-81227587D01*
X61814500Y-81430530D01*
X58620500Y-81430530D01*
X58620500Y-78890530D01*
X61814500Y-78890530D01*
X61814500Y-79097469D01*
X61854868Y-79300412D01*
X61854870Y-79300420D01*
X61934058Y-79491596D01*
X62049024Y-79663657D01*
X62195342Y-79809975D01*
X62195345Y-79809977D01*
X62367402Y-79924941D01*
X62558580Y-80004130D01*
X62761530Y-80044499D01*
X62761534Y-80044500D01*
X62761535Y-80044500D01*
X62968466Y-80044500D01*
X62968467Y-80044499D01*
X63171420Y-80004130D01*
X63362598Y-79924941D01*
X63534655Y-79809977D01*
X63680977Y-79663655D01*
X63795941Y-79491598D01*
X63875130Y-79300420D01*
X63915500Y-79097465D01*
X63915500Y-78890535D01*
X63915499Y-78890530D01*
X64354500Y-78890530D01*
X64354500Y-79097469D01*
X64394868Y-79300412D01*
X64394870Y-79300420D01*
X64474058Y-79491596D01*
X64589024Y-79663657D01*
X64735342Y-79809975D01*
X64735345Y-79809977D01*
X64907402Y-79924941D01*
X65098580Y-80004130D01*
X65301530Y-80044499D01*
X65301534Y-80044500D01*
X65301535Y-80044500D01*
X65508466Y-80044500D01*
X65508467Y-80044499D01*
X65711420Y-80004130D01*
X65902598Y-79924941D01*
X66074655Y-79809977D01*
X66220977Y-79663655D01*
X66335941Y-79491598D01*
X66415130Y-79300420D01*
X66455500Y-79097465D01*
X66455500Y-78890535D01*
X66455499Y-78890530D01*
X95469500Y-78890530D01*
X95469500Y-79097469D01*
X95509868Y-79300412D01*
X95509870Y-79300420D01*
X95589058Y-79491596D01*
X95704024Y-79663657D01*
X95850342Y-79809975D01*
X95850345Y-79809977D01*
X96022402Y-79924941D01*
X96213580Y-80004130D01*
X96416530Y-80044499D01*
X96416534Y-80044500D01*
X96416535Y-80044500D01*
X96623466Y-80044500D01*
X96623467Y-80044499D01*
X96826420Y-80004130D01*
X97017598Y-79924941D01*
X97189655Y-79809977D01*
X97335977Y-79663655D01*
X97450941Y-79491598D01*
X97530130Y-79300420D01*
X97570500Y-79097465D01*
X97570500Y-78890535D01*
X97570499Y-78890530D01*
X98009500Y-78890530D01*
X98009500Y-79097469D01*
X98049868Y-79300412D01*
X98049870Y-79300420D01*
X98129058Y-79491596D01*
X98244024Y-79663657D01*
X98390342Y-79809975D01*
X98390345Y-79809977D01*
X98562402Y-79924941D01*
X98753580Y-80004130D01*
X98956530Y-80044499D01*
X98956534Y-80044500D01*
X98956535Y-80044500D01*
X99163466Y-80044500D01*
X99163467Y-80044499D01*
X99366420Y-80004130D01*
X99557598Y-79924941D01*
X99729655Y-79809977D01*
X99875977Y-79663655D01*
X99990941Y-79491598D01*
X100070130Y-79300420D01*
X100110500Y-79097465D01*
X100110500Y-78890535D01*
X100070130Y-78687580D01*
X99990941Y-78496402D01*
X99875977Y-78324345D01*
X99875975Y-78324342D01*
X99729657Y-78178024D01*
X99643626Y-78120541D01*
X99557598Y-78063059D01*
X99366420Y-77983870D01*
X99366412Y-77983868D01*
X99163469Y-77943500D01*
X99163465Y-77943500D01*
X98956535Y-77943500D01*
X98956530Y-77943500D01*
X98753587Y-77983868D01*
X98753579Y-77983870D01*
X98562403Y-78063058D01*
X98390342Y-78178024D01*
X98244024Y-78324342D01*
X98129058Y-78496403D01*
X98049870Y-78687579D01*
X98049868Y-78687587D01*
X98009500Y-78890530D01*
X97570499Y-78890530D01*
X97530130Y-78687580D01*
X97450941Y-78496402D01*
X97335977Y-78324345D01*
X97335975Y-78324342D01*
X97189657Y-78178024D01*
X97103626Y-78120541D01*
X97017598Y-78063059D01*
X96826420Y-77983870D01*
X96826412Y-77983868D01*
X96623469Y-77943500D01*
X96623465Y-77943500D01*
X96416535Y-77943500D01*
X96416530Y-77943500D01*
X96213587Y-77983868D01*
X96213579Y-77983870D01*
X96022403Y-78063058D01*
X95850342Y-78178024D01*
X95704024Y-78324342D01*
X95589058Y-78496403D01*
X95509870Y-78687579D01*
X95509868Y-78687587D01*
X95469500Y-78890530D01*
X66455499Y-78890530D01*
X66415130Y-78687580D01*
X66335941Y-78496402D01*
X66220977Y-78324345D01*
X66220975Y-78324342D01*
X66074657Y-78178024D01*
X65988626Y-78120541D01*
X65902598Y-78063059D01*
X65711420Y-77983870D01*
X65711412Y-77983868D01*
X65508469Y-77943500D01*
X65508465Y-77943500D01*
X65301535Y-77943500D01*
X65301530Y-77943500D01*
X65098587Y-77983868D01*
X65098579Y-77983870D01*
X64907403Y-78063058D01*
X64735342Y-78178024D01*
X64589024Y-78324342D01*
X64474058Y-78496403D01*
X64394870Y-78687579D01*
X64394868Y-78687587D01*
X64354500Y-78890530D01*
X63915499Y-78890530D01*
X63875130Y-78687580D01*
X63795941Y-78496402D01*
X63680977Y-78324345D01*
X63680975Y-78324342D01*
X63534657Y-78178024D01*
X63448626Y-78120541D01*
X63362598Y-78063059D01*
X63171420Y-77983870D01*
X63171412Y-77983868D01*
X62968469Y-77943500D01*
X62968465Y-77943500D01*
X62761535Y-77943500D01*
X62761530Y-77943500D01*
X62558587Y-77983868D01*
X62558579Y-77983870D01*
X62367403Y-78063058D01*
X62195342Y-78178024D01*
X62049024Y-78324342D01*
X61934058Y-78496403D01*
X61854870Y-78687579D01*
X61854868Y-78687587D01*
X61814500Y-78890530D01*
X58620500Y-78890530D01*
X58620500Y-76350530D01*
X64354500Y-76350530D01*
X64354500Y-76557469D01*
X64394868Y-76760412D01*
X64394870Y-76760420D01*
X64474058Y-76951596D01*
X64589024Y-77123657D01*
X64735342Y-77269975D01*
X64735345Y-77269977D01*
X64907402Y-77384941D01*
X65098580Y-77464130D01*
X65301530Y-77504499D01*
X65301534Y-77504500D01*
X65301535Y-77504500D01*
X65508466Y-77504500D01*
X65508467Y-77504499D01*
X65711420Y-77464130D01*
X65902598Y-77384941D01*
X66074655Y-77269977D01*
X66220977Y-77123655D01*
X66335941Y-76951598D01*
X66415130Y-76760420D01*
X66455500Y-76557465D01*
X66455500Y-76501943D01*
X83219500Y-76501943D01*
X83219500Y-76660056D01*
X83260423Y-76812783D01*
X83260426Y-76812790D01*
X83339475Y-76949709D01*
X83339479Y-76949714D01*
X83339480Y-76949716D01*
X83451284Y-77061520D01*
X83451286Y-77061521D01*
X83451290Y-77061524D01*
X83558906Y-77123655D01*
X83588216Y-77140577D01*
X83740943Y-77181500D01*
X83740945Y-77181500D01*
X83899055Y-77181500D01*
X83899057Y-77181500D01*
X84051784Y-77140577D01*
X84188716Y-77061520D01*
X84300520Y-76949716D01*
X84379577Y-76812784D01*
X84420500Y-76660057D01*
X84420500Y-76501943D01*
X84379929Y-76350530D01*
X95469500Y-76350530D01*
X95469500Y-76557469D01*
X95509868Y-76760412D01*
X95509870Y-76760420D01*
X95589058Y-76951596D01*
X95704024Y-77123657D01*
X95850342Y-77269975D01*
X95850345Y-77269977D01*
X96022402Y-77384941D01*
X96213580Y-77464130D01*
X96416530Y-77504499D01*
X96416534Y-77504500D01*
X96416535Y-77504500D01*
X96623466Y-77504500D01*
X96623467Y-77504499D01*
X96826420Y-77464130D01*
X97017598Y-77384941D01*
X97189655Y-77269977D01*
X97335977Y-77123655D01*
X97450941Y-76951598D01*
X97530130Y-76760420D01*
X97570500Y-76557465D01*
X97570500Y-76350535D01*
X97530130Y-76147580D01*
X97450941Y-75956402D01*
X97335977Y-75784345D01*
X97335975Y-75784342D01*
X97189657Y-75638024D01*
X97103626Y-75580541D01*
X97017598Y-75523059D01*
X96826420Y-75443870D01*
X96826412Y-75443868D01*
X96623469Y-75403500D01*
X96623465Y-75403500D01*
X96416535Y-75403500D01*
X96416530Y-75403500D01*
X96213587Y-75443868D01*
X96213579Y-75443870D01*
X96022403Y-75523058D01*
X95850342Y-75638024D01*
X95704024Y-75784342D01*
X95589058Y-75956403D01*
X95509870Y-76147579D01*
X95509868Y-76147587D01*
X95469500Y-76350530D01*
X84379929Y-76350530D01*
X84379577Y-76349216D01*
X84379573Y-76349209D01*
X84300524Y-76212290D01*
X84300518Y-76212282D01*
X84188717Y-76100481D01*
X84188709Y-76100475D01*
X84051790Y-76021426D01*
X84051786Y-76021424D01*
X84051784Y-76021423D01*
X83899057Y-75980500D01*
X83740943Y-75980500D01*
X83588216Y-76021423D01*
X83588209Y-76021426D01*
X83451290Y-76100475D01*
X83451282Y-76100481D01*
X83339481Y-76212282D01*
X83339475Y-76212290D01*
X83260426Y-76349209D01*
X83260423Y-76349216D01*
X83219500Y-76501943D01*
X66455500Y-76501943D01*
X66455500Y-76350535D01*
X66415130Y-76147580D01*
X66335941Y-75956402D01*
X66220977Y-75784345D01*
X66220975Y-75784342D01*
X66074657Y-75638024D01*
X65988626Y-75580541D01*
X65902598Y-75523059D01*
X65711420Y-75443870D01*
X65711412Y-75443868D01*
X65508469Y-75403500D01*
X65508465Y-75403500D01*
X65301535Y-75403500D01*
X65301530Y-75403500D01*
X65098587Y-75443868D01*
X65098579Y-75443870D01*
X64907403Y-75523058D01*
X64735342Y-75638024D01*
X64589024Y-75784342D01*
X64474058Y-75956403D01*
X64394870Y-76147579D01*
X64394868Y-76147587D01*
X64354500Y-76350530D01*
X58620500Y-76350530D01*
X58620500Y-73810530D01*
X61814500Y-73810530D01*
X61814500Y-74017469D01*
X61854868Y-74220412D01*
X61854870Y-74220420D01*
X61934058Y-74411596D01*
X62049024Y-74583657D01*
X62195342Y-74729975D01*
X62195345Y-74729977D01*
X62367402Y-74844941D01*
X62558580Y-74924130D01*
X62761530Y-74964499D01*
X62761534Y-74964500D01*
X62761535Y-74964500D01*
X62968466Y-74964500D01*
X62968467Y-74964499D01*
X63171420Y-74924130D01*
X63362598Y-74844941D01*
X63534655Y-74729977D01*
X63680977Y-74583655D01*
X63795941Y-74411598D01*
X63875130Y-74220420D01*
X63915500Y-74017465D01*
X63915500Y-73810535D01*
X63915499Y-73810530D01*
X64354500Y-73810530D01*
X64354500Y-74017469D01*
X64394868Y-74220412D01*
X64394870Y-74220420D01*
X64474058Y-74411596D01*
X64589024Y-74583657D01*
X64735342Y-74729975D01*
X64735345Y-74729977D01*
X64907402Y-74844941D01*
X65098580Y-74924130D01*
X65301530Y-74964499D01*
X65301534Y-74964500D01*
X65301535Y-74964500D01*
X65508466Y-74964500D01*
X65508467Y-74964499D01*
X65711420Y-74924130D01*
X65902598Y-74844941D01*
X66074655Y-74729977D01*
X66220977Y-74583655D01*
X66335941Y-74411598D01*
X66415130Y-74220420D01*
X66455500Y-74017465D01*
X66455500Y-73834943D01*
X76107500Y-73834943D01*
X76107500Y-73993057D01*
X76114041Y-74017466D01*
X76148423Y-74145783D01*
X76148426Y-74145790D01*
X76227475Y-74282709D01*
X76227479Y-74282714D01*
X76227480Y-74282716D01*
X76339284Y-74394520D01*
X76339286Y-74394521D01*
X76339290Y-74394524D01*
X76476209Y-74473573D01*
X76476216Y-74473577D01*
X76628943Y-74514500D01*
X76628945Y-74514500D01*
X76787055Y-74514500D01*
X76787057Y-74514500D01*
X76939784Y-74473577D01*
X77076716Y-74394520D01*
X77188520Y-74282716D01*
X77267577Y-74145784D01*
X77308500Y-73993057D01*
X77308500Y-73834943D01*
X77301959Y-73810530D01*
X95469500Y-73810530D01*
X95469500Y-74017469D01*
X95509868Y-74220412D01*
X95509870Y-74220420D01*
X95589058Y-74411596D01*
X95704024Y-74583657D01*
X95850342Y-74729975D01*
X95850345Y-74729977D01*
X96022402Y-74844941D01*
X96213580Y-74924130D01*
X96416530Y-74964499D01*
X96416534Y-74964500D01*
X96416535Y-74964500D01*
X96623466Y-74964500D01*
X96623467Y-74964499D01*
X96826420Y-74924130D01*
X97017598Y-74844941D01*
X97189655Y-74729977D01*
X97335977Y-74583655D01*
X97450941Y-74411598D01*
X97530130Y-74220420D01*
X97570500Y-74017465D01*
X97570500Y-73810535D01*
X97570499Y-73810530D01*
X98009500Y-73810530D01*
X98009500Y-74017469D01*
X98049868Y-74220412D01*
X98049870Y-74220420D01*
X98129058Y-74411596D01*
X98244024Y-74583657D01*
X98390342Y-74729975D01*
X98390345Y-74729977D01*
X98562402Y-74844941D01*
X98753580Y-74924130D01*
X98956530Y-74964499D01*
X98956534Y-74964500D01*
X98956535Y-74964500D01*
X99163466Y-74964500D01*
X99163467Y-74964499D01*
X99366420Y-74924130D01*
X99557598Y-74844941D01*
X99729655Y-74729977D01*
X99875977Y-74583655D01*
X99990941Y-74411598D01*
X100070130Y-74220420D01*
X100110500Y-74017465D01*
X100110500Y-73810535D01*
X100070130Y-73607580D01*
X99990941Y-73416402D01*
X99875977Y-73244345D01*
X99875975Y-73244342D01*
X99729657Y-73098024D01*
X99643626Y-73040541D01*
X99557598Y-72983059D01*
X99366420Y-72903870D01*
X99366412Y-72903868D01*
X99163469Y-72863500D01*
X99163465Y-72863500D01*
X98956535Y-72863500D01*
X98956530Y-72863500D01*
X98753587Y-72903868D01*
X98753579Y-72903870D01*
X98562403Y-72983058D01*
X98390342Y-73098024D01*
X98244024Y-73244342D01*
X98129058Y-73416403D01*
X98049870Y-73607579D01*
X98049868Y-73607587D01*
X98009500Y-73810530D01*
X97570499Y-73810530D01*
X97530130Y-73607580D01*
X97450941Y-73416402D01*
X97335977Y-73244345D01*
X97335975Y-73244342D01*
X97189657Y-73098024D01*
X97103626Y-73040541D01*
X97017598Y-72983059D01*
X96826420Y-72903870D01*
X96826412Y-72903868D01*
X96623469Y-72863500D01*
X96623465Y-72863500D01*
X96416535Y-72863500D01*
X96416530Y-72863500D01*
X96213587Y-72903868D01*
X96213579Y-72903870D01*
X96022403Y-72983058D01*
X95850342Y-73098024D01*
X95704024Y-73244342D01*
X95589058Y-73416403D01*
X95509870Y-73607579D01*
X95509868Y-73607587D01*
X95469500Y-73810530D01*
X77301959Y-73810530D01*
X77267577Y-73682216D01*
X77267573Y-73682209D01*
X77188524Y-73545290D01*
X77188518Y-73545282D01*
X77076717Y-73433481D01*
X77076709Y-73433475D01*
X76939790Y-73354426D01*
X76939786Y-73354424D01*
X76939784Y-73354423D01*
X76787057Y-73313500D01*
X76628943Y-73313500D01*
X76476216Y-73354423D01*
X76476209Y-73354426D01*
X76339290Y-73433475D01*
X76339282Y-73433481D01*
X76227481Y-73545282D01*
X76227475Y-73545290D01*
X76148426Y-73682209D01*
X76148423Y-73682216D01*
X76107500Y-73834943D01*
X66455500Y-73834943D01*
X66455500Y-73810535D01*
X66415130Y-73607580D01*
X66335941Y-73416402D01*
X66220977Y-73244345D01*
X66220975Y-73244342D01*
X66074657Y-73098024D01*
X65988626Y-73040541D01*
X65902598Y-72983059D01*
X65711420Y-72903870D01*
X65711412Y-72903868D01*
X65508469Y-72863500D01*
X65508465Y-72863500D01*
X65301535Y-72863500D01*
X65301530Y-72863500D01*
X65098587Y-72903868D01*
X65098579Y-72903870D01*
X64907403Y-72983058D01*
X64735342Y-73098024D01*
X64589024Y-73244342D01*
X64474058Y-73416403D01*
X64394870Y-73607579D01*
X64394868Y-73607587D01*
X64354500Y-73810530D01*
X63915499Y-73810530D01*
X63875130Y-73607580D01*
X63795941Y-73416402D01*
X63680977Y-73244345D01*
X63680975Y-73244342D01*
X63534657Y-73098024D01*
X63448626Y-73040541D01*
X63362598Y-72983059D01*
X63171420Y-72903870D01*
X63171412Y-72903868D01*
X62968469Y-72863500D01*
X62968465Y-72863500D01*
X62761535Y-72863500D01*
X62761530Y-72863500D01*
X62558587Y-72903868D01*
X62558579Y-72903870D01*
X62367403Y-72983058D01*
X62195342Y-73098024D01*
X62049024Y-73244342D01*
X61934058Y-73416403D01*
X61854870Y-73607579D01*
X61854868Y-73607587D01*
X61814500Y-73810530D01*
X58620500Y-73810530D01*
X58620500Y-70504247D01*
X61814500Y-70504247D01*
X61814500Y-72243752D01*
X61826131Y-72302229D01*
X61826132Y-72302230D01*
X61870447Y-72368552D01*
X61936769Y-72412867D01*
X61936770Y-72412868D01*
X61995247Y-72424499D01*
X61995250Y-72424500D01*
X61995252Y-72424500D01*
X63734750Y-72424500D01*
X63734751Y-72424499D01*
X63749568Y-72421552D01*
X63793229Y-72412868D01*
X63793229Y-72412867D01*
X63793231Y-72412867D01*
X63859552Y-72368552D01*
X63903867Y-72302231D01*
X63903867Y-72302229D01*
X63903868Y-72302229D01*
X63915499Y-72243752D01*
X63915500Y-72243750D01*
X63915500Y-71270530D01*
X64354500Y-71270530D01*
X64354500Y-71477469D01*
X64394868Y-71680412D01*
X64394870Y-71680420D01*
X64474058Y-71871596D01*
X64589024Y-72043657D01*
X64735342Y-72189975D01*
X64735345Y-72189977D01*
X64907402Y-72304941D01*
X65098580Y-72384130D01*
X65243052Y-72412867D01*
X65301530Y-72424499D01*
X65301534Y-72424500D01*
X65301535Y-72424500D01*
X65508466Y-72424500D01*
X65508467Y-72424499D01*
X65711420Y-72384130D01*
X65902598Y-72304941D01*
X66074655Y-72189977D01*
X66220977Y-72043655D01*
X66335941Y-71871598D01*
X66415130Y-71680420D01*
X66455500Y-71477465D01*
X66455500Y-71294943D01*
X77314000Y-71294943D01*
X77314000Y-71453057D01*
X77320541Y-71477466D01*
X77354923Y-71605783D01*
X77354926Y-71605790D01*
X77433975Y-71742709D01*
X77433979Y-71742714D01*
X77433980Y-71742716D01*
X77545784Y-71854520D01*
X77545786Y-71854521D01*
X77545790Y-71854524D01*
X77682709Y-71933573D01*
X77682716Y-71933577D01*
X77835443Y-71974500D01*
X77835445Y-71974500D01*
X77993555Y-71974500D01*
X77993557Y-71974500D01*
X78146284Y-71933577D01*
X78283216Y-71854520D01*
X78395020Y-71742716D01*
X78474077Y-71605784D01*
X78515000Y-71453057D01*
X78515000Y-71294943D01*
X78508459Y-71270530D01*
X95469500Y-71270530D01*
X95469500Y-71477469D01*
X95509868Y-71680412D01*
X95509870Y-71680420D01*
X95589058Y-71871596D01*
X95704024Y-72043657D01*
X95850342Y-72189975D01*
X95850345Y-72189977D01*
X96022402Y-72304941D01*
X96213580Y-72384130D01*
X96358052Y-72412867D01*
X96416530Y-72424499D01*
X96416534Y-72424500D01*
X96416535Y-72424500D01*
X96623466Y-72424500D01*
X96623467Y-72424499D01*
X96826420Y-72384130D01*
X97017598Y-72304941D01*
X97189655Y-72189977D01*
X97335977Y-72043655D01*
X97450941Y-71871598D01*
X97530130Y-71680420D01*
X97570500Y-71477465D01*
X97570500Y-71270535D01*
X97570499Y-71270530D01*
X98009500Y-71270530D01*
X98009500Y-71477469D01*
X98049868Y-71680412D01*
X98049870Y-71680420D01*
X98129058Y-71871596D01*
X98244024Y-72043657D01*
X98390342Y-72189975D01*
X98390345Y-72189977D01*
X98562402Y-72304941D01*
X98753580Y-72384130D01*
X98898052Y-72412867D01*
X98956530Y-72424499D01*
X98956534Y-72424500D01*
X98956535Y-72424500D01*
X99163466Y-72424500D01*
X99163467Y-72424499D01*
X99366420Y-72384130D01*
X99557598Y-72304941D01*
X99729655Y-72189977D01*
X99875977Y-72043655D01*
X99990941Y-71871598D01*
X100070130Y-71680420D01*
X100110500Y-71477465D01*
X100110500Y-71270535D01*
X100070130Y-71067580D01*
X99990941Y-70876402D01*
X99875977Y-70704345D01*
X99875975Y-70704342D01*
X99729657Y-70558024D01*
X99643626Y-70500541D01*
X99557598Y-70443059D01*
X99366420Y-70363870D01*
X99366412Y-70363868D01*
X99163469Y-70323500D01*
X99163465Y-70323500D01*
X98956535Y-70323500D01*
X98956530Y-70323500D01*
X98753587Y-70363868D01*
X98753579Y-70363870D01*
X98562403Y-70443058D01*
X98390342Y-70558024D01*
X98244024Y-70704342D01*
X98129058Y-70876403D01*
X98049870Y-71067579D01*
X98049868Y-71067587D01*
X98009500Y-71270530D01*
X97570499Y-71270530D01*
X97530130Y-71067580D01*
X97450941Y-70876402D01*
X97335977Y-70704345D01*
X97335975Y-70704342D01*
X97189657Y-70558024D01*
X97103626Y-70500541D01*
X97017598Y-70443059D01*
X96826420Y-70363870D01*
X96826412Y-70363868D01*
X96623469Y-70323500D01*
X96623465Y-70323500D01*
X96416535Y-70323500D01*
X96416530Y-70323500D01*
X96213587Y-70363868D01*
X96213579Y-70363870D01*
X96022403Y-70443058D01*
X95850342Y-70558024D01*
X95704024Y-70704342D01*
X95589058Y-70876403D01*
X95509870Y-71067579D01*
X95509868Y-71067587D01*
X95469500Y-71270530D01*
X78508459Y-71270530D01*
X78474077Y-71142216D01*
X78474073Y-71142209D01*
X78395024Y-71005290D01*
X78395018Y-71005282D01*
X78283217Y-70893481D01*
X78283209Y-70893475D01*
X78146290Y-70814426D01*
X78146286Y-70814424D01*
X78146284Y-70814423D01*
X77993557Y-70773500D01*
X77835443Y-70773500D01*
X77682716Y-70814423D01*
X77682709Y-70814426D01*
X77545790Y-70893475D01*
X77545782Y-70893481D01*
X77433981Y-71005282D01*
X77433975Y-71005290D01*
X77354926Y-71142209D01*
X77354923Y-71142216D01*
X77314000Y-71294943D01*
X66455500Y-71294943D01*
X66455500Y-71270535D01*
X66415130Y-71067580D01*
X66335941Y-70876402D01*
X66220977Y-70704345D01*
X66220975Y-70704342D01*
X66074657Y-70558024D01*
X65988626Y-70500541D01*
X65902598Y-70443059D01*
X65711420Y-70363870D01*
X65711412Y-70363868D01*
X65508469Y-70323500D01*
X65508465Y-70323500D01*
X65301535Y-70323500D01*
X65301530Y-70323500D01*
X65098587Y-70363868D01*
X65098579Y-70363870D01*
X64907403Y-70443058D01*
X64735342Y-70558024D01*
X64589024Y-70704342D01*
X64474058Y-70876403D01*
X64394870Y-71067579D01*
X64394868Y-71067587D01*
X64354500Y-71270530D01*
X63915500Y-71270530D01*
X63915500Y-70504249D01*
X63915499Y-70504247D01*
X63903868Y-70445770D01*
X63903867Y-70445769D01*
X63859552Y-70379447D01*
X63793230Y-70335132D01*
X63793229Y-70335131D01*
X63734752Y-70323500D01*
X63734748Y-70323500D01*
X61995252Y-70323500D01*
X61995247Y-70323500D01*
X61936770Y-70335131D01*
X61936769Y-70335132D01*
X61870447Y-70379447D01*
X61826132Y-70445769D01*
X61826131Y-70445770D01*
X61814500Y-70504247D01*
X58620500Y-70504247D01*
X58620500Y-70024943D01*
X71535500Y-70024943D01*
X71535500Y-70183057D01*
X71576249Y-70335132D01*
X71576423Y-70335783D01*
X71576426Y-70335790D01*
X71655475Y-70472709D01*
X71655479Y-70472714D01*
X71655480Y-70472716D01*
X71767284Y-70584520D01*
X71767286Y-70584521D01*
X71767290Y-70584524D01*
X71904209Y-70663573D01*
X71904216Y-70663577D01*
X72056943Y-70704500D01*
X72056945Y-70704500D01*
X72215055Y-70704500D01*
X72215057Y-70704500D01*
X72367784Y-70663577D01*
X72504716Y-70584520D01*
X72616520Y-70472716D01*
X72695577Y-70335784D01*
X72736500Y-70183057D01*
X72736500Y-70024943D01*
X72695577Y-69872216D01*
X72695573Y-69872209D01*
X72616524Y-69735290D01*
X72616518Y-69735282D01*
X72504717Y-69623481D01*
X72504709Y-69623475D01*
X72367790Y-69544426D01*
X72367786Y-69544424D01*
X72367784Y-69544423D01*
X72215057Y-69503500D01*
X72056943Y-69503500D01*
X71904216Y-69544423D01*
X71904209Y-69544426D01*
X71767290Y-69623475D01*
X71767282Y-69623481D01*
X71655481Y-69735282D01*
X71655475Y-69735290D01*
X71576426Y-69872209D01*
X71576423Y-69872216D01*
X71535500Y-70024943D01*
X58620500Y-70024943D01*
X58620500Y-69008943D01*
X90077500Y-69008943D01*
X90077500Y-69167056D01*
X90118423Y-69319783D01*
X90118426Y-69319790D01*
X90197475Y-69456709D01*
X90197479Y-69456714D01*
X90197480Y-69456716D01*
X90309284Y-69568520D01*
X90309286Y-69568521D01*
X90309290Y-69568524D01*
X90404478Y-69623480D01*
X90446216Y-69647577D01*
X90598943Y-69688500D01*
X90598945Y-69688500D01*
X90757055Y-69688500D01*
X90757057Y-69688500D01*
X90909784Y-69647577D01*
X91046716Y-69568520D01*
X91158520Y-69456716D01*
X91237577Y-69319784D01*
X91278500Y-69167057D01*
X91278500Y-69008943D01*
X91237577Y-68856216D01*
X91237573Y-68856209D01*
X91158524Y-68719290D01*
X91158518Y-68719282D01*
X91046717Y-68607481D01*
X91046709Y-68607475D01*
X90909790Y-68528426D01*
X90909786Y-68528424D01*
X90909784Y-68528423D01*
X90757057Y-68487500D01*
X90598943Y-68487500D01*
X90446216Y-68528423D01*
X90446209Y-68528426D01*
X90309290Y-68607475D01*
X90309282Y-68607481D01*
X90197481Y-68719282D01*
X90197475Y-68719290D01*
X90118426Y-68856209D01*
X90118423Y-68856216D01*
X90077500Y-69008943D01*
X58620500Y-69008943D01*
X58620500Y-66849943D01*
X87918500Y-66849943D01*
X87918500Y-67008056D01*
X87959423Y-67160783D01*
X87959426Y-67160790D01*
X88038475Y-67297709D01*
X88038479Y-67297714D01*
X88038480Y-67297716D01*
X88150284Y-67409520D01*
X88150286Y-67409521D01*
X88150290Y-67409524D01*
X88287209Y-67488573D01*
X88287216Y-67488577D01*
X88439943Y-67529500D01*
X88439945Y-67529500D01*
X88598055Y-67529500D01*
X88598057Y-67529500D01*
X88750784Y-67488577D01*
X88887716Y-67409520D01*
X88999520Y-67297716D01*
X89078577Y-67160784D01*
X89119500Y-67008057D01*
X89119500Y-66849943D01*
X89078577Y-66697216D01*
X89078573Y-66697209D01*
X88999524Y-66560290D01*
X88999518Y-66560282D01*
X88887717Y-66448481D01*
X88887709Y-66448475D01*
X88750790Y-66369426D01*
X88750786Y-66369424D01*
X88750784Y-66369423D01*
X88598057Y-66328500D01*
X88439943Y-66328500D01*
X88287216Y-66369423D01*
X88287209Y-66369426D01*
X88150290Y-66448475D01*
X88150282Y-66448481D01*
X88038481Y-66560282D01*
X88038475Y-66560290D01*
X87959426Y-66697209D01*
X87959423Y-66697216D01*
X87918500Y-66849943D01*
X58620500Y-66849943D01*
X58620500Y-65452943D01*
X64931500Y-65452943D01*
X64931500Y-65611056D01*
X64972423Y-65763783D01*
X64972426Y-65763790D01*
X65051475Y-65900709D01*
X65051479Y-65900714D01*
X65051480Y-65900716D01*
X65163284Y-66012520D01*
X65163286Y-66012521D01*
X65163290Y-66012524D01*
X65300209Y-66091573D01*
X65300216Y-66091577D01*
X65452943Y-66132500D01*
X65452945Y-66132500D01*
X65611055Y-66132500D01*
X65611057Y-66132500D01*
X65763784Y-66091577D01*
X65900716Y-66012520D01*
X66012520Y-65900716D01*
X66091577Y-65763784D01*
X66132500Y-65611057D01*
X66132500Y-65452943D01*
X66091577Y-65300216D01*
X66091573Y-65300209D01*
X66064211Y-65252815D01*
X66033108Y-65198943D01*
X74469500Y-65198943D01*
X74469500Y-65357056D01*
X74510423Y-65509783D01*
X74510426Y-65509790D01*
X74589475Y-65646709D01*
X74589479Y-65646714D01*
X74589480Y-65646716D01*
X74701284Y-65758520D01*
X74701286Y-65758521D01*
X74701290Y-65758524D01*
X74838209Y-65837573D01*
X74838216Y-65837577D01*
X74990943Y-65878500D01*
X74990945Y-65878500D01*
X75149055Y-65878500D01*
X75149057Y-65878500D01*
X75301784Y-65837577D01*
X75438716Y-65758520D01*
X75550520Y-65646716D01*
X75629577Y-65509784D01*
X75644807Y-65452943D01*
X106333500Y-65452943D01*
X106333500Y-65611056D01*
X106374423Y-65763783D01*
X106374426Y-65763790D01*
X106453475Y-65900709D01*
X106453479Y-65900714D01*
X106453480Y-65900716D01*
X106565284Y-66012520D01*
X106565286Y-66012521D01*
X106565290Y-66012524D01*
X106702209Y-66091573D01*
X106702216Y-66091577D01*
X106854943Y-66132500D01*
X106854945Y-66132500D01*
X107013055Y-66132500D01*
X107013057Y-66132500D01*
X107165784Y-66091577D01*
X107302716Y-66012520D01*
X107414520Y-65900716D01*
X107493577Y-65763784D01*
X107534500Y-65611057D01*
X107534500Y-65452943D01*
X107493577Y-65300216D01*
X107435108Y-65198943D01*
X107414524Y-65163290D01*
X107414518Y-65163282D01*
X107302717Y-65051481D01*
X107302709Y-65051475D01*
X107165790Y-64972426D01*
X107165786Y-64972424D01*
X107165784Y-64972423D01*
X107013057Y-64931500D01*
X106854943Y-64931500D01*
X106702216Y-64972423D01*
X106702209Y-64972426D01*
X106565290Y-65051475D01*
X106565282Y-65051481D01*
X106453481Y-65163282D01*
X106453475Y-65163290D01*
X106374426Y-65300209D01*
X106374423Y-65300216D01*
X106333500Y-65452943D01*
X75644807Y-65452943D01*
X75670500Y-65357057D01*
X75670500Y-65198943D01*
X75629577Y-65046216D01*
X75586973Y-64972423D01*
X75550524Y-64909290D01*
X75550518Y-64909282D01*
X75438717Y-64797481D01*
X75438709Y-64797475D01*
X75301790Y-64718426D01*
X75301786Y-64718424D01*
X75301784Y-64718423D01*
X75149057Y-64677500D01*
X74990943Y-64677500D01*
X74838216Y-64718423D01*
X74838209Y-64718426D01*
X74701290Y-64797475D01*
X74701282Y-64797481D01*
X74589481Y-64909282D01*
X74589475Y-64909290D01*
X74510426Y-65046209D01*
X74510423Y-65046216D01*
X74469500Y-65198943D01*
X66033108Y-65198943D01*
X66012524Y-65163290D01*
X66012518Y-65163282D01*
X65900717Y-65051481D01*
X65900709Y-65051475D01*
X65763790Y-64972426D01*
X65763786Y-64972424D01*
X65763784Y-64972423D01*
X65611057Y-64931500D01*
X65452943Y-64931500D01*
X65300216Y-64972423D01*
X65300209Y-64972426D01*
X65163290Y-65051475D01*
X65163282Y-65051481D01*
X65051481Y-65163282D01*
X65051475Y-65163290D01*
X64972426Y-65300209D01*
X64972423Y-65300216D01*
X64931500Y-65452943D01*
X58620500Y-65452943D01*
X58620500Y-64182943D01*
X72297500Y-64182943D01*
X72297500Y-64341056D01*
X72338423Y-64493783D01*
X72338426Y-64493790D01*
X72417475Y-64630709D01*
X72417479Y-64630714D01*
X72417480Y-64630716D01*
X72529284Y-64742520D01*
X72529286Y-64742521D01*
X72529290Y-64742524D01*
X72624478Y-64797480D01*
X72666216Y-64821577D01*
X72818943Y-64862500D01*
X72818945Y-64862500D01*
X72977055Y-64862500D01*
X72977057Y-64862500D01*
X73129784Y-64821577D01*
X73266716Y-64742520D01*
X73378520Y-64630716D01*
X73457577Y-64493784D01*
X73498500Y-64341057D01*
X73498500Y-64182943D01*
X73457577Y-64030216D01*
X73407060Y-63942717D01*
X73378524Y-63893290D01*
X73378518Y-63893282D01*
X73266717Y-63781481D01*
X73266709Y-63781475D01*
X73129790Y-63702426D01*
X73129786Y-63702424D01*
X73129784Y-63702423D01*
X72977057Y-63661500D01*
X72818943Y-63661500D01*
X72666216Y-63702423D01*
X72666209Y-63702426D01*
X72529290Y-63781475D01*
X72529282Y-63781481D01*
X72417481Y-63893282D01*
X72417475Y-63893290D01*
X72338426Y-64030209D01*
X72338423Y-64030216D01*
X72297500Y-64182943D01*
X58620500Y-64182943D01*
X58620500Y-62087443D01*
X71599000Y-62087443D01*
X71599000Y-62245556D01*
X71639923Y-62398283D01*
X71639926Y-62398290D01*
X71718975Y-62535209D01*
X71718979Y-62535214D01*
X71718980Y-62535216D01*
X71830784Y-62647020D01*
X71830786Y-62647021D01*
X71830790Y-62647024D01*
X71901161Y-62687652D01*
X71967716Y-62726077D01*
X72120443Y-62767000D01*
X72120445Y-62767000D01*
X72278555Y-62767000D01*
X72278557Y-62767000D01*
X72431284Y-62726077D01*
X72568216Y-62647020D01*
X72680020Y-62535216D01*
X72759077Y-62398284D01*
X72800000Y-62245557D01*
X72800000Y-62087443D01*
X72759077Y-61934716D01*
X72737269Y-61896943D01*
X72680024Y-61797790D01*
X72680018Y-61797782D01*
X72568217Y-61685981D01*
X72568209Y-61685975D01*
X72431290Y-61606926D01*
X72431286Y-61606924D01*
X72431284Y-61606923D01*
X72278557Y-61566000D01*
X72120443Y-61566000D01*
X71967716Y-61606923D01*
X71967709Y-61606926D01*
X71830790Y-61685975D01*
X71830782Y-61685981D01*
X71718981Y-61797782D01*
X71718975Y-61797790D01*
X71639926Y-61934709D01*
X71639923Y-61934716D01*
X71599000Y-62087443D01*
X58620500Y-62087443D01*
X58620500Y-60118943D01*
X72297500Y-60118943D01*
X72297500Y-60277057D01*
X72317710Y-60352480D01*
X72338423Y-60429783D01*
X72338426Y-60429790D01*
X72417475Y-60566709D01*
X72417479Y-60566714D01*
X72417480Y-60566716D01*
X72529284Y-60678520D01*
X72529286Y-60678521D01*
X72529290Y-60678524D01*
X72598168Y-60718290D01*
X72666216Y-60757577D01*
X72818943Y-60798500D01*
X72818945Y-60798500D01*
X72977055Y-60798500D01*
X72977057Y-60798500D01*
X73129784Y-60757577D01*
X73266716Y-60678520D01*
X73378520Y-60566716D01*
X73457577Y-60429784D01*
X73498500Y-60277057D01*
X73498500Y-60118943D01*
X73457577Y-59966216D01*
X73386472Y-59843057D01*
X73378524Y-59829290D01*
X73378518Y-59829282D01*
X73266717Y-59717481D01*
X73266709Y-59717475D01*
X73129790Y-59638426D01*
X73129786Y-59638424D01*
X73129784Y-59638423D01*
X72977057Y-59597500D01*
X72818943Y-59597500D01*
X72666216Y-59638423D01*
X72666209Y-59638426D01*
X72529290Y-59717475D01*
X72529282Y-59717481D01*
X72417481Y-59829282D01*
X72417475Y-59829290D01*
X72338426Y-59966209D01*
X72338423Y-59966216D01*
X72297500Y-60118943D01*
X58620500Y-60118943D01*
X58620500Y-58414943D01*
X78520500Y-58414943D01*
X78520500Y-58573057D01*
X78554910Y-58701475D01*
X78561423Y-58725783D01*
X78561426Y-58725790D01*
X78640475Y-58862709D01*
X78640479Y-58862714D01*
X78640480Y-58862716D01*
X78752284Y-58974520D01*
X78752285Y-58974521D01*
X78752287Y-58974522D01*
X78833851Y-59021613D01*
X78882067Y-59072180D01*
X78895290Y-59140787D01*
X78869322Y-59205652D01*
X78833851Y-59236387D01*
X78752287Y-59283477D01*
X78752282Y-59283481D01*
X78640481Y-59395282D01*
X78640475Y-59395290D01*
X78561426Y-59532209D01*
X78561423Y-59532216D01*
X78520500Y-59684943D01*
X78520500Y-59843057D01*
X78553501Y-59966216D01*
X78561423Y-59995783D01*
X78561426Y-59995790D01*
X78640475Y-60132709D01*
X78640481Y-60132717D01*
X78718583Y-60210819D01*
X78752068Y-60272142D01*
X78747084Y-60341834D01*
X78718583Y-60386181D01*
X78640481Y-60464282D01*
X78640475Y-60464290D01*
X78561426Y-60601209D01*
X78561423Y-60601216D01*
X78520500Y-60753943D01*
X78520500Y-60912056D01*
X78561423Y-61064783D01*
X78561426Y-61064790D01*
X78640475Y-61201709D01*
X78640481Y-61201717D01*
X78755583Y-61316819D01*
X78789068Y-61378142D01*
X78784084Y-61447834D01*
X78755583Y-61492181D01*
X78640481Y-61607282D01*
X78640475Y-61607290D01*
X78561426Y-61744209D01*
X78561423Y-61744216D01*
X78520500Y-61896943D01*
X78520500Y-62055057D01*
X78529179Y-62087445D01*
X78561423Y-62207783D01*
X78561426Y-62207790D01*
X78640475Y-62344709D01*
X78640479Y-62344714D01*
X78640480Y-62344716D01*
X78752284Y-62456520D01*
X78752285Y-62456521D01*
X78752287Y-62456522D01*
X78833851Y-62503613D01*
X78882067Y-62554180D01*
X78895290Y-62622787D01*
X78869322Y-62687652D01*
X78833851Y-62718387D01*
X78752287Y-62765477D01*
X78752282Y-62765481D01*
X78640481Y-62877282D01*
X78640475Y-62877290D01*
X78561426Y-63014209D01*
X78561423Y-63014216D01*
X78520500Y-63166943D01*
X78520500Y-63325057D01*
X78555244Y-63454721D01*
X78561423Y-63477783D01*
X78561426Y-63477790D01*
X78640475Y-63614709D01*
X78640479Y-63614714D01*
X78640480Y-63614716D01*
X78752284Y-63726520D01*
X78752286Y-63726521D01*
X78752290Y-63726524D01*
X78847478Y-63781480D01*
X78889216Y-63805577D01*
X79041943Y-63846500D01*
X79041945Y-63846500D01*
X79200055Y-63846500D01*
X79200057Y-63846500D01*
X79352784Y-63805577D01*
X79489716Y-63726520D01*
X79601520Y-63614716D01*
X79601520Y-63614715D01*
X79604819Y-63611417D01*
X79666142Y-63577932D01*
X79735834Y-63582916D01*
X79780181Y-63611417D01*
X79783480Y-63614716D01*
X79895284Y-63726520D01*
X79895286Y-63726521D01*
X79895290Y-63726524D01*
X79990478Y-63781480D01*
X80032216Y-63805577D01*
X80184943Y-63846500D01*
X80184945Y-63846500D01*
X80343055Y-63846500D01*
X80343057Y-63846500D01*
X80495784Y-63805577D01*
X80632716Y-63726520D01*
X80744520Y-63614716D01*
X80813670Y-63494943D01*
X94522500Y-63494943D01*
X94522500Y-63653057D01*
X94563368Y-63805576D01*
X94563423Y-63805783D01*
X94563426Y-63805790D01*
X94642475Y-63942709D01*
X94642479Y-63942714D01*
X94642480Y-63942716D01*
X94754284Y-64054520D01*
X94754286Y-64054521D01*
X94754290Y-64054524D01*
X94891209Y-64133573D01*
X94891216Y-64133577D01*
X95043943Y-64174500D01*
X95043945Y-64174500D01*
X95202055Y-64174500D01*
X95202057Y-64174500D01*
X95354784Y-64133577D01*
X95491716Y-64054520D01*
X95603520Y-63942716D01*
X95682577Y-63805784D01*
X95723500Y-63653057D01*
X95723500Y-63494943D01*
X95682577Y-63342216D01*
X95672669Y-63325055D01*
X95603524Y-63205290D01*
X95603518Y-63205282D01*
X95491717Y-63093481D01*
X95491709Y-63093475D01*
X95354790Y-63014426D01*
X95354786Y-63014424D01*
X95354784Y-63014423D01*
X95202057Y-62973500D01*
X95043943Y-62973500D01*
X94891216Y-63014423D01*
X94891209Y-63014426D01*
X94754290Y-63093475D01*
X94754282Y-63093481D01*
X94642481Y-63205282D01*
X94642475Y-63205290D01*
X94563426Y-63342209D01*
X94563423Y-63342216D01*
X94522500Y-63494943D01*
X80813670Y-63494943D01*
X80823577Y-63477784D01*
X80864500Y-63325057D01*
X80864500Y-63166943D01*
X80823577Y-63014216D01*
X80746425Y-62880583D01*
X80744524Y-62877290D01*
X80744518Y-62877282D01*
X80632717Y-62765481D01*
X80632709Y-62765475D01*
X80495790Y-62686426D01*
X80495786Y-62686424D01*
X80495784Y-62686423D01*
X80343057Y-62645500D01*
X80184943Y-62645500D01*
X80032216Y-62686423D01*
X80032209Y-62686426D01*
X79895290Y-62765475D01*
X79895282Y-62765481D01*
X79780181Y-62880583D01*
X79718858Y-62914068D01*
X79649166Y-62909084D01*
X79604819Y-62880583D01*
X79489717Y-62765481D01*
X79489716Y-62765480D01*
X79408148Y-62718387D01*
X79359933Y-62667821D01*
X79346709Y-62599214D01*
X79372677Y-62534349D01*
X79408147Y-62503612D01*
X79489716Y-62456520D01*
X79601520Y-62344716D01*
X79680577Y-62207784D01*
X79721500Y-62055057D01*
X79721500Y-61896943D01*
X79680577Y-61744216D01*
X79680573Y-61744209D01*
X79601524Y-61607290D01*
X79601518Y-61607282D01*
X79486417Y-61492181D01*
X79452932Y-61430858D01*
X79457916Y-61361166D01*
X79486417Y-61316819D01*
X79489716Y-61313520D01*
X79601520Y-61201716D01*
X79680577Y-61064784D01*
X79695807Y-61007943D01*
X96046500Y-61007943D01*
X96046500Y-61166057D01*
X96086897Y-61316819D01*
X96087423Y-61318783D01*
X96087426Y-61318790D01*
X96166475Y-61455709D01*
X96166479Y-61455714D01*
X96166480Y-61455716D01*
X96278284Y-61567520D01*
X96278286Y-61567521D01*
X96278290Y-61567524D01*
X96347168Y-61607290D01*
X96415216Y-61646577D01*
X96567943Y-61687500D01*
X96567945Y-61687500D01*
X96726055Y-61687500D01*
X96726057Y-61687500D01*
X96878784Y-61646577D01*
X97015716Y-61567520D01*
X97127520Y-61455716D01*
X97206577Y-61318784D01*
X97247500Y-61166057D01*
X97247500Y-61007943D01*
X97206577Y-60855216D01*
X97206573Y-60855209D01*
X97127524Y-60718290D01*
X97127518Y-60718282D01*
X97015717Y-60606481D01*
X97015709Y-60606475D01*
X96878790Y-60527426D01*
X96878786Y-60527424D01*
X96878784Y-60527423D01*
X96726057Y-60486500D01*
X96567943Y-60486500D01*
X96415216Y-60527423D01*
X96415209Y-60527426D01*
X96278290Y-60606475D01*
X96278282Y-60606481D01*
X96166481Y-60718282D01*
X96166475Y-60718290D01*
X96087426Y-60855209D01*
X96087423Y-60855216D01*
X96046500Y-61007943D01*
X79695807Y-61007943D01*
X79721500Y-60912057D01*
X79721500Y-60753943D01*
X79680577Y-60601216D01*
X79637973Y-60527423D01*
X79601524Y-60464290D01*
X79601518Y-60464282D01*
X79523417Y-60386181D01*
X79489932Y-60324858D01*
X79494916Y-60255166D01*
X79523417Y-60210819D01*
X79601520Y-60132716D01*
X79680577Y-59995784D01*
X79721500Y-59843057D01*
X79721500Y-59684943D01*
X79680577Y-59532216D01*
X79680573Y-59532209D01*
X79601524Y-59395290D01*
X79601518Y-59395282D01*
X79489717Y-59283481D01*
X79489716Y-59283480D01*
X79408148Y-59236387D01*
X79403958Y-59231992D01*
X79398221Y-59230007D01*
X79380130Y-59207002D01*
X79359933Y-59185821D01*
X79358783Y-59179859D01*
X79355030Y-59175086D01*
X79352248Y-59145952D01*
X79346709Y-59117214D01*
X79348966Y-59111576D01*
X79348389Y-59105532D01*
X79349724Y-59102943D01*
X96046500Y-59102943D01*
X96046500Y-59261057D01*
X96082466Y-59395282D01*
X96087423Y-59413783D01*
X96087426Y-59413790D01*
X96166475Y-59550709D01*
X96166479Y-59550714D01*
X96166480Y-59550716D01*
X96278284Y-59662520D01*
X96278286Y-59662521D01*
X96278290Y-59662524D01*
X96373478Y-59717480D01*
X96415216Y-59741577D01*
X96567943Y-59782500D01*
X96567945Y-59782500D01*
X96726055Y-59782500D01*
X96726057Y-59782500D01*
X96878784Y-59741577D01*
X97015716Y-59662520D01*
X97127520Y-59550716D01*
X97206577Y-59413784D01*
X97247500Y-59261057D01*
X97247500Y-59102943D01*
X97206577Y-58950216D01*
X97156060Y-58862717D01*
X97127524Y-58813290D01*
X97127518Y-58813282D01*
X97015717Y-58701481D01*
X97015709Y-58701475D01*
X96878790Y-58622426D01*
X96878786Y-58622424D01*
X96878784Y-58622423D01*
X96726057Y-58581500D01*
X96567943Y-58581500D01*
X96415216Y-58622423D01*
X96415209Y-58622426D01*
X96278290Y-58701475D01*
X96278282Y-58701481D01*
X96166481Y-58813282D01*
X96166475Y-58813290D01*
X96087426Y-58950209D01*
X96087423Y-58950216D01*
X96046500Y-59102943D01*
X79349724Y-59102943D01*
X79361800Y-59079518D01*
X79372677Y-59052349D01*
X79378334Y-59047447D01*
X79380405Y-59043430D01*
X79408148Y-59021613D01*
X79467357Y-58987429D01*
X79467358Y-58987428D01*
X79489716Y-58974520D01*
X79601520Y-58862716D01*
X79680577Y-58725784D01*
X79721500Y-58573057D01*
X79721500Y-58414943D01*
X79680577Y-58262216D01*
X79680573Y-58262209D01*
X79601524Y-58125290D01*
X79601518Y-58125282D01*
X79489717Y-58013481D01*
X79489709Y-58013475D01*
X79352790Y-57934426D01*
X79352786Y-57934424D01*
X79352784Y-57934423D01*
X79200057Y-57893500D01*
X79041943Y-57893500D01*
X78889216Y-57934423D01*
X78889209Y-57934426D01*
X78752290Y-58013475D01*
X78752282Y-58013481D01*
X78640481Y-58125282D01*
X78640475Y-58125290D01*
X78561426Y-58262209D01*
X78561423Y-58262216D01*
X78520500Y-58414943D01*
X58620500Y-58414943D01*
X58620500Y-55673943D01*
X88680500Y-55673943D01*
X88680500Y-55832057D01*
X88691992Y-55874943D01*
X88721423Y-55984783D01*
X88721426Y-55984790D01*
X88800475Y-56121709D01*
X88800479Y-56121714D01*
X88800480Y-56121716D01*
X88912284Y-56233520D01*
X88912286Y-56233521D01*
X88912290Y-56233524D01*
X89049209Y-56312573D01*
X89049216Y-56312577D01*
X89201943Y-56353500D01*
X89201945Y-56353500D01*
X89360055Y-56353500D01*
X89360057Y-56353500D01*
X89512784Y-56312577D01*
X89649716Y-56233520D01*
X89761520Y-56121716D01*
X89840577Y-55984784D01*
X89870009Y-55874943D01*
X93887500Y-55874943D01*
X93887500Y-56033057D01*
X93911257Y-56121717D01*
X93928423Y-56185783D01*
X93928426Y-56185790D01*
X94007475Y-56322709D01*
X94007479Y-56322714D01*
X94007480Y-56322716D01*
X94119284Y-56434520D01*
X94119285Y-56434521D01*
X94119287Y-56434522D01*
X94200851Y-56481613D01*
X94249067Y-56532180D01*
X94262290Y-56600787D01*
X94236322Y-56665652D01*
X94200851Y-56696387D01*
X94119287Y-56743477D01*
X94119282Y-56743481D01*
X94007481Y-56855282D01*
X94007475Y-56855290D01*
X93928426Y-56992209D01*
X93928423Y-56992216D01*
X93887500Y-57144943D01*
X93887500Y-57303056D01*
X93928423Y-57455783D01*
X93928426Y-57455790D01*
X94007475Y-57592709D01*
X94007479Y-57592714D01*
X94007480Y-57592716D01*
X94119284Y-57704520D01*
X94119286Y-57704521D01*
X94119290Y-57704524D01*
X94256209Y-57783573D01*
X94256216Y-57783577D01*
X94408943Y-57824500D01*
X94408945Y-57824500D01*
X94567055Y-57824500D01*
X94567057Y-57824500D01*
X94719784Y-57783577D01*
X94856716Y-57704520D01*
X94968520Y-57592716D01*
X95047577Y-57455784D01*
X95088500Y-57303057D01*
X95088500Y-57144943D01*
X95047577Y-56992216D01*
X95047573Y-56992209D01*
X94968524Y-56855290D01*
X94968518Y-56855282D01*
X94856717Y-56743481D01*
X94856716Y-56743480D01*
X94775148Y-56696387D01*
X94726933Y-56645821D01*
X94713709Y-56577214D01*
X94739677Y-56512349D01*
X94775147Y-56481612D01*
X94856716Y-56434520D01*
X94968520Y-56322716D01*
X95047577Y-56185784D01*
X95088500Y-56033057D01*
X95088500Y-55874943D01*
X95047577Y-55722216D01*
X95019707Y-55673943D01*
X94968524Y-55585290D01*
X94968518Y-55585282D01*
X94856717Y-55473481D01*
X94856709Y-55473475D01*
X94719790Y-55394426D01*
X94719786Y-55394424D01*
X94719784Y-55394423D01*
X94567057Y-55353500D01*
X94408943Y-55353500D01*
X94256216Y-55394423D01*
X94256209Y-55394426D01*
X94119290Y-55473475D01*
X94119282Y-55473481D01*
X94007481Y-55585282D01*
X94007475Y-55585290D01*
X93928426Y-55722209D01*
X93928423Y-55722216D01*
X93887500Y-55874943D01*
X89870009Y-55874943D01*
X89881500Y-55832057D01*
X89881500Y-55673943D01*
X89840577Y-55521216D01*
X89840573Y-55521209D01*
X89761524Y-55384290D01*
X89761518Y-55384282D01*
X89649717Y-55272481D01*
X89649709Y-55272475D01*
X89512790Y-55193426D01*
X89512786Y-55193424D01*
X89512784Y-55193423D01*
X89360057Y-55152500D01*
X89201943Y-55152500D01*
X89049216Y-55193423D01*
X89049209Y-55193426D01*
X88912290Y-55272475D01*
X88912282Y-55272481D01*
X88800481Y-55384282D01*
X88800475Y-55384290D01*
X88721426Y-55521209D01*
X88721423Y-55521216D01*
X88680500Y-55673943D01*
X58620500Y-55673943D01*
X58620500Y-51901491D01*
X59229500Y-51901491D01*
X59229500Y-52238508D01*
X59267231Y-52573381D01*
X59267233Y-52573397D01*
X59342223Y-52901953D01*
X59342227Y-52901965D01*
X59453532Y-53220054D01*
X59599752Y-53523683D01*
X59599754Y-53523686D01*
X59779054Y-53809039D01*
X59989175Y-54072523D01*
X60227477Y-54310825D01*
X60490961Y-54520946D01*
X60776314Y-54700246D01*
X61079949Y-54846469D01*
X61318848Y-54930063D01*
X61398034Y-54957772D01*
X61398046Y-54957776D01*
X61726606Y-55032767D01*
X62061492Y-55070499D01*
X62061493Y-55070500D01*
X62061496Y-55070500D01*
X62398507Y-55070500D01*
X62398507Y-55070499D01*
X62733394Y-55032767D01*
X63061954Y-54957776D01*
X63380051Y-54846469D01*
X63683686Y-54700246D01*
X63969039Y-54520946D01*
X64232523Y-54310825D01*
X64470825Y-54072523D01*
X64680946Y-53809039D01*
X64860246Y-53523686D01*
X64986776Y-53260943D01*
X68464000Y-53260943D01*
X68464000Y-53419057D01*
X68492035Y-53523683D01*
X68504923Y-53571783D01*
X68504926Y-53571790D01*
X68583975Y-53708709D01*
X68583979Y-53708714D01*
X68583980Y-53708716D01*
X68695784Y-53820520D01*
X68695786Y-53820521D01*
X68695790Y-53820524D01*
X68832709Y-53899573D01*
X68832716Y-53899577D01*
X68985443Y-53940500D01*
X68985445Y-53940500D01*
X69143555Y-53940500D01*
X69143557Y-53940500D01*
X69296284Y-53899577D01*
X69433216Y-53820520D01*
X69545020Y-53708716D01*
X69624077Y-53571784D01*
X69665000Y-53419057D01*
X69665000Y-53260943D01*
X69624077Y-53108216D01*
X69624073Y-53108209D01*
X69545024Y-52971290D01*
X69545018Y-52971282D01*
X69433217Y-52859481D01*
X69433212Y-52859477D01*
X69379911Y-52828704D01*
X69379910Y-52828704D01*
X69296284Y-52780423D01*
X69143557Y-52739500D01*
X68985443Y-52739500D01*
X68832716Y-52780423D01*
X68832709Y-52780426D01*
X68695790Y-52859475D01*
X68695782Y-52859481D01*
X68583981Y-52971282D01*
X68583975Y-52971290D01*
X68504926Y-53108209D01*
X68504923Y-53108216D01*
X68464000Y-53260943D01*
X64986776Y-53260943D01*
X65006469Y-53220051D01*
X65117776Y-52901954D01*
X65157150Y-52729443D01*
X100237500Y-52729443D01*
X100237500Y-52887557D01*
X100241358Y-52901953D01*
X100278423Y-53040283D01*
X100278426Y-53040290D01*
X100357475Y-53177209D01*
X100357479Y-53177214D01*
X100357480Y-53177216D01*
X100469284Y-53289020D01*
X100469286Y-53289021D01*
X100469290Y-53289024D01*
X100606209Y-53368073D01*
X100606216Y-53368077D01*
X100758943Y-53409000D01*
X100758945Y-53409000D01*
X100917055Y-53409000D01*
X100917057Y-53409000D01*
X101069784Y-53368077D01*
X101206716Y-53289020D01*
X101318520Y-53177216D01*
X101397577Y-53040284D01*
X101438500Y-52887557D01*
X101438500Y-52729443D01*
X101397577Y-52576716D01*
X101395652Y-52573381D01*
X101318524Y-52439790D01*
X101318518Y-52439782D01*
X101206717Y-52327981D01*
X101206709Y-52327975D01*
X101069790Y-52248926D01*
X101069786Y-52248924D01*
X101069784Y-52248923D01*
X100917057Y-52208000D01*
X100758943Y-52208000D01*
X100606216Y-52248923D01*
X100606209Y-52248926D01*
X100469290Y-52327975D01*
X100469282Y-52327981D01*
X100357481Y-52439782D01*
X100357475Y-52439790D01*
X100278426Y-52576709D01*
X100278423Y-52576716D01*
X100237500Y-52729443D01*
X65157150Y-52729443D01*
X65192767Y-52573394D01*
X65230500Y-52238504D01*
X65230500Y-51901496D01*
X65230499Y-51901491D01*
X102409500Y-51901491D01*
X102409500Y-52238508D01*
X102447231Y-52573381D01*
X102447233Y-52573397D01*
X102522223Y-52901953D01*
X102522227Y-52901965D01*
X102633532Y-53220054D01*
X102779752Y-53523683D01*
X102779754Y-53523686D01*
X102959054Y-53809039D01*
X103169175Y-54072523D01*
X103407477Y-54310825D01*
X103670961Y-54520946D01*
X103956314Y-54700246D01*
X104259949Y-54846469D01*
X104498848Y-54930063D01*
X104578034Y-54957772D01*
X104578046Y-54957776D01*
X104906606Y-55032767D01*
X105241492Y-55070499D01*
X105241493Y-55070500D01*
X105241496Y-55070500D01*
X105578507Y-55070500D01*
X105578507Y-55070499D01*
X105913394Y-55032767D01*
X106241954Y-54957776D01*
X106560051Y-54846469D01*
X106863686Y-54700246D01*
X107149039Y-54520946D01*
X107412523Y-54310825D01*
X107650825Y-54072523D01*
X107860946Y-53809039D01*
X108040246Y-53523686D01*
X108186469Y-53220051D01*
X108297776Y-52901954D01*
X108372767Y-52573394D01*
X108410500Y-52238504D01*
X108410500Y-51901496D01*
X108372767Y-51566606D01*
X108297776Y-51238046D01*
X108186469Y-50919949D01*
X108040246Y-50616314D01*
X107860946Y-50330961D01*
X107650825Y-50067477D01*
X107412523Y-49829175D01*
X107149039Y-49619054D01*
X106863686Y-49439754D01*
X106863683Y-49439752D01*
X106560054Y-49293532D01*
X106241965Y-49182227D01*
X106241953Y-49182223D01*
X105913397Y-49107233D01*
X105913381Y-49107231D01*
X105578508Y-49069500D01*
X105578504Y-49069500D01*
X105241496Y-49069500D01*
X105241491Y-49069500D01*
X104906618Y-49107231D01*
X104906602Y-49107233D01*
X104578046Y-49182223D01*
X104578034Y-49182227D01*
X104259945Y-49293532D01*
X103956316Y-49439752D01*
X103670962Y-49619053D01*
X103407477Y-49829174D01*
X103169174Y-50067477D01*
X102959053Y-50330962D01*
X102779752Y-50616316D01*
X102633532Y-50919945D01*
X102522227Y-51238034D01*
X102522223Y-51238046D01*
X102447233Y-51566602D01*
X102447231Y-51566618D01*
X102409500Y-51901491D01*
X65230499Y-51901491D01*
X65192767Y-51566606D01*
X65117776Y-51238046D01*
X65006469Y-50919949D01*
X64860246Y-50616314D01*
X64680946Y-50330961D01*
X64470825Y-50067477D01*
X64232523Y-49829175D01*
X63969039Y-49619054D01*
X63683686Y-49439754D01*
X63683683Y-49439752D01*
X63636320Y-49416943D01*
X70273000Y-49416943D01*
X70273000Y-49575057D01*
X70301939Y-49683057D01*
X70313923Y-49727783D01*
X70313926Y-49727790D01*
X70392975Y-49864709D01*
X70392979Y-49864714D01*
X70392980Y-49864716D01*
X70504784Y-49976520D01*
X70504786Y-49976521D01*
X70504790Y-49976524D01*
X70641709Y-50055573D01*
X70641716Y-50055577D01*
X70794443Y-50096500D01*
X70794445Y-50096500D01*
X70952555Y-50096500D01*
X70952557Y-50096500D01*
X71105284Y-50055577D01*
X71242216Y-49976520D01*
X71354020Y-49864716D01*
X71433077Y-49727784D01*
X71474000Y-49575057D01*
X71474000Y-49524943D01*
X76107500Y-49524943D01*
X76107500Y-49683057D01*
X76119485Y-49727783D01*
X76148423Y-49835783D01*
X76148426Y-49835790D01*
X76227475Y-49972709D01*
X76227479Y-49972714D01*
X76227480Y-49972716D01*
X76339284Y-50084520D01*
X76339286Y-50084521D01*
X76339290Y-50084524D01*
X76476209Y-50163573D01*
X76476216Y-50163577D01*
X76628943Y-50204500D01*
X76628945Y-50204500D01*
X76787055Y-50204500D01*
X76787057Y-50204500D01*
X76939784Y-50163577D01*
X77076716Y-50084520D01*
X77188520Y-49972716D01*
X77267577Y-49835784D01*
X77308500Y-49683057D01*
X77308500Y-49524943D01*
X77267577Y-49372216D01*
X77267573Y-49372209D01*
X77188524Y-49235290D01*
X77188518Y-49235282D01*
X77076717Y-49123481D01*
X77076709Y-49123475D01*
X76939790Y-49044426D01*
X76939786Y-49044424D01*
X76939784Y-49044423D01*
X76787057Y-49003500D01*
X76628943Y-49003500D01*
X76476216Y-49044423D01*
X76476209Y-49044426D01*
X76339290Y-49123475D01*
X76339282Y-49123481D01*
X76227481Y-49235282D01*
X76227475Y-49235290D01*
X76148426Y-49372209D01*
X76148423Y-49372216D01*
X76107500Y-49524943D01*
X71474000Y-49524943D01*
X71474000Y-49416943D01*
X71433077Y-49264216D01*
X71385741Y-49182227D01*
X71354024Y-49127290D01*
X71354018Y-49127282D01*
X71242217Y-49015481D01*
X71242209Y-49015475D01*
X71105290Y-48936426D01*
X71105286Y-48936424D01*
X71105284Y-48936423D01*
X70952557Y-48895500D01*
X70794443Y-48895500D01*
X70641716Y-48936423D01*
X70641709Y-48936426D01*
X70504790Y-49015475D01*
X70504782Y-49015481D01*
X70392981Y-49127282D01*
X70392975Y-49127290D01*
X70313926Y-49264209D01*
X70313923Y-49264216D01*
X70273000Y-49416943D01*
X63636320Y-49416943D01*
X63380054Y-49293532D01*
X63061965Y-49182227D01*
X63061953Y-49182223D01*
X62733397Y-49107233D01*
X62733381Y-49107231D01*
X62398508Y-49069500D01*
X62398504Y-49069500D01*
X62061496Y-49069500D01*
X62061491Y-49069500D01*
X61726618Y-49107231D01*
X61726602Y-49107233D01*
X61398046Y-49182223D01*
X61398034Y-49182227D01*
X61079945Y-49293532D01*
X60776316Y-49439752D01*
X60490962Y-49619053D01*
X60227477Y-49829174D01*
X59989174Y-50067477D01*
X59779053Y-50330962D01*
X59599752Y-50616316D01*
X59453532Y-50919945D01*
X59342227Y-51238034D01*
X59342223Y-51238046D01*
X59267233Y-51566602D01*
X59267231Y-51566618D01*
X59229500Y-51901491D01*
X58620500Y-51901491D01*
X58620500Y-45844000D01*
X58640185Y-45776961D01*
X58692989Y-45731206D01*
X58744500Y-45720000D01*
X108895500Y-45720000D01*
X108962539Y-45739685D01*
G37*
%TD.AperFunction*%
%TD*%
%TA.AperFunction,Conductor*%
%TO.N,/IO13*%
G36*
X96054270Y-93536994D02*
G01*
X96054618Y-93537485D01*
X96516640Y-94227490D01*
X96518395Y-94236271D01*
X96516640Y-94240510D01*
X96054598Y-94930543D01*
X96047147Y-94935510D01*
X96038366Y-94933755D01*
X96037912Y-94933435D01*
X95956221Y-94872795D01*
X95817953Y-94770157D01*
X95817231Y-94769575D01*
X95723782Y-94687967D01*
X95647485Y-94621337D01*
X95596006Y-94574996D01*
X95595994Y-94574986D01*
X95595987Y-94574980D01*
X95445223Y-94453894D01*
X95445218Y-94453890D01*
X95429686Y-94445621D01*
X95301964Y-94377626D01*
X95216533Y-94349456D01*
X95162095Y-94337866D01*
X95117924Y-94328463D01*
X95117914Y-94328462D01*
X94989313Y-94313933D01*
X94847656Y-94309365D01*
X94839497Y-94305673D01*
X94836333Y-94297671D01*
X94836333Y-94170309D01*
X94839760Y-94162036D01*
X94847634Y-94158616D01*
X94996113Y-94153578D01*
X95129318Y-94137621D01*
X95240895Y-94111595D01*
X95335790Y-94075962D01*
X95418950Y-94031189D01*
X95495321Y-93977738D01*
X95617563Y-93872437D01*
X95647524Y-93846630D01*
X95741983Y-93763780D01*
X95804382Y-93709051D01*
X95805075Y-93708490D01*
X96037896Y-93534620D01*
X96046574Y-93532416D01*
X96054270Y-93536994D01*
G37*
%TD.AperFunction*%
%TD*%
%TA.AperFunction,Conductor*%
%TO.N,/IO13*%
G36*
X65886633Y-93534244D02*
G01*
X65887079Y-93534558D01*
X66023253Y-93635641D01*
X66107046Y-93697842D01*
X66107768Y-93698424D01*
X66181333Y-93762668D01*
X66277514Y-93846663D01*
X66328994Y-93893004D01*
X66329006Y-93893013D01*
X66329012Y-93893019D01*
X66479775Y-94014106D01*
X66479780Y-94014109D01*
X66479781Y-94014109D01*
X66479783Y-94014111D01*
X66623036Y-94090374D01*
X66708467Y-94118544D01*
X66807079Y-94139537D01*
X66935688Y-94154067D01*
X67077346Y-94158634D01*
X67085502Y-94162326D01*
X67088667Y-94170328D01*
X67088667Y-94297690D01*
X67085240Y-94305963D01*
X67077364Y-94309383D01*
X66928888Y-94314421D01*
X66795688Y-94330377D01*
X66795676Y-94330379D01*
X66684107Y-94356403D01*
X66684100Y-94356406D01*
X66589217Y-94392034D01*
X66589205Y-94392039D01*
X66506054Y-94436808D01*
X66506049Y-94436811D01*
X66506048Y-94436812D01*
X66429677Y-94490262D01*
X66277514Y-94621337D01*
X66277479Y-94621367D01*
X66277474Y-94621372D01*
X66120627Y-94758939D01*
X66119913Y-94759517D01*
X65887104Y-94933378D01*
X65878425Y-94935583D01*
X65870729Y-94931005D01*
X65870393Y-94930531D01*
X65408358Y-94240509D01*
X65406604Y-94231729D01*
X65408359Y-94227490D01*
X65451992Y-94162326D01*
X65870402Y-93537455D01*
X65877852Y-93532489D01*
X65886633Y-93534244D01*
G37*
%TD.AperFunction*%
%TD*%
%TA.AperFunction,Conductor*%
%TO.N,/IO12*%
G36*
X96054270Y-96076994D02*
G01*
X96054618Y-96077485D01*
X96516640Y-96767490D01*
X96518395Y-96776271D01*
X96516640Y-96780510D01*
X96054598Y-97470543D01*
X96047147Y-97475510D01*
X96038366Y-97473755D01*
X96037912Y-97473435D01*
X95956221Y-97412795D01*
X95817953Y-97310157D01*
X95817231Y-97309575D01*
X95723782Y-97227967D01*
X95647485Y-97161337D01*
X95596006Y-97114996D01*
X95595994Y-97114986D01*
X95595987Y-97114980D01*
X95445223Y-96993894D01*
X95445218Y-96993890D01*
X95429686Y-96985621D01*
X95301964Y-96917626D01*
X95216533Y-96889456D01*
X95162095Y-96877866D01*
X95117924Y-96868463D01*
X95117914Y-96868462D01*
X94989313Y-96853933D01*
X94847656Y-96849365D01*
X94839497Y-96845673D01*
X94836333Y-96837671D01*
X94836333Y-96710309D01*
X94839760Y-96702036D01*
X94847634Y-96698616D01*
X94996113Y-96693578D01*
X95129318Y-96677621D01*
X95240895Y-96651595D01*
X95335790Y-96615962D01*
X95418950Y-96571189D01*
X95495321Y-96517738D01*
X95617563Y-96412437D01*
X95647524Y-96386630D01*
X95741983Y-96303780D01*
X95804382Y-96249051D01*
X95805075Y-96248490D01*
X96037896Y-96074620D01*
X96046574Y-96072416D01*
X96054270Y-96076994D01*
G37*
%TD.AperFunction*%
%TD*%
%TA.AperFunction,Conductor*%
%TO.N,/IO12*%
G36*
X65886633Y-96074244D02*
G01*
X65887079Y-96074558D01*
X66023253Y-96175641D01*
X66107046Y-96237842D01*
X66107768Y-96238424D01*
X66181333Y-96302668D01*
X66277514Y-96386663D01*
X66328994Y-96433004D01*
X66329006Y-96433013D01*
X66329012Y-96433019D01*
X66479775Y-96554106D01*
X66479780Y-96554109D01*
X66479781Y-96554109D01*
X66479783Y-96554111D01*
X66623036Y-96630374D01*
X66708467Y-96658544D01*
X66807079Y-96679537D01*
X66935688Y-96694067D01*
X67077346Y-96698634D01*
X67085502Y-96702326D01*
X67088667Y-96710328D01*
X67088667Y-96837690D01*
X67085240Y-96845963D01*
X67077364Y-96849383D01*
X66928888Y-96854421D01*
X66795688Y-96870377D01*
X66795676Y-96870379D01*
X66684107Y-96896403D01*
X66684100Y-96896406D01*
X66589217Y-96932034D01*
X66589205Y-96932039D01*
X66506054Y-96976808D01*
X66506049Y-96976811D01*
X66506048Y-96976812D01*
X66429677Y-97030262D01*
X66277514Y-97161337D01*
X66277479Y-97161367D01*
X66277474Y-97161372D01*
X66120627Y-97298939D01*
X66119913Y-97299517D01*
X65887104Y-97473378D01*
X65878425Y-97475583D01*
X65870729Y-97471005D01*
X65870393Y-97470531D01*
X65408358Y-96780509D01*
X65406604Y-96771729D01*
X65408359Y-96767490D01*
X65451992Y-96702326D01*
X65870402Y-96077455D01*
X65877852Y-96072489D01*
X65886633Y-96074244D01*
G37*
%TD.AperFunction*%
%TD*%
%TA.AperFunction,Conductor*%
%TO.N,/IO10*%
G36*
X96054270Y-98616994D02*
G01*
X96054618Y-98617485D01*
X96516640Y-99307490D01*
X96518395Y-99316271D01*
X96516640Y-99320510D01*
X96054598Y-100010543D01*
X96047147Y-100015510D01*
X96038366Y-100013755D01*
X96037912Y-100013435D01*
X95956221Y-99952795D01*
X95817953Y-99850157D01*
X95817231Y-99849575D01*
X95723782Y-99767967D01*
X95647485Y-99701337D01*
X95596006Y-99654996D01*
X95595994Y-99654986D01*
X95595987Y-99654980D01*
X95445223Y-99533894D01*
X95445218Y-99533890D01*
X95429686Y-99525621D01*
X95301964Y-99457626D01*
X95216533Y-99429456D01*
X95162095Y-99417866D01*
X95117924Y-99408463D01*
X95117914Y-99408462D01*
X94989313Y-99393933D01*
X94847656Y-99389365D01*
X94839497Y-99385673D01*
X94836333Y-99377671D01*
X94836333Y-99250309D01*
X94839760Y-99242036D01*
X94847634Y-99238616D01*
X94996113Y-99233578D01*
X95129318Y-99217621D01*
X95240895Y-99191595D01*
X95335790Y-99155962D01*
X95418950Y-99111189D01*
X95495321Y-99057738D01*
X95617563Y-98952437D01*
X95647524Y-98926630D01*
X95741983Y-98843780D01*
X95804382Y-98789051D01*
X95805075Y-98788490D01*
X96037896Y-98614620D01*
X96046574Y-98612416D01*
X96054270Y-98616994D01*
G37*
%TD.AperFunction*%
%TD*%
%TA.AperFunction,Conductor*%
%TO.N,/IO10*%
G36*
X65886633Y-98614244D02*
G01*
X65887079Y-98614558D01*
X66023253Y-98715641D01*
X66107046Y-98777842D01*
X66107768Y-98778424D01*
X66181333Y-98842668D01*
X66277514Y-98926663D01*
X66328994Y-98973004D01*
X66329006Y-98973013D01*
X66329012Y-98973019D01*
X66479775Y-99094106D01*
X66479780Y-99094109D01*
X66479781Y-99094109D01*
X66479783Y-99094111D01*
X66623036Y-99170374D01*
X66708467Y-99198544D01*
X66807079Y-99219537D01*
X66935688Y-99234067D01*
X67077346Y-99238634D01*
X67085502Y-99242326D01*
X67088667Y-99250328D01*
X67088667Y-99377690D01*
X67085240Y-99385963D01*
X67077364Y-99389383D01*
X66928888Y-99394421D01*
X66795688Y-99410377D01*
X66795676Y-99410379D01*
X66684107Y-99436403D01*
X66684100Y-99436406D01*
X66589217Y-99472034D01*
X66589205Y-99472039D01*
X66506054Y-99516808D01*
X66506049Y-99516811D01*
X66506048Y-99516812D01*
X66429677Y-99570262D01*
X66277514Y-99701337D01*
X66277479Y-99701367D01*
X66277474Y-99701372D01*
X66120627Y-99838939D01*
X66119913Y-99839517D01*
X65887104Y-100013378D01*
X65878425Y-100015583D01*
X65870729Y-100011005D01*
X65870393Y-100010531D01*
X65408358Y-99320509D01*
X65406604Y-99311729D01*
X65408359Y-99307490D01*
X65451992Y-99242326D01*
X65870402Y-98617455D01*
X65877852Y-98612489D01*
X65886633Y-98614244D01*
G37*
%TD.AperFunction*%
%TD*%
%TA.AperFunction,Conductor*%
%TO.N,/IO11*%
G36*
X96054270Y-90996994D02*
G01*
X96054618Y-90997485D01*
X96516640Y-91687490D01*
X96518395Y-91696271D01*
X96516640Y-91700510D01*
X96054598Y-92390543D01*
X96047147Y-92395510D01*
X96038366Y-92393755D01*
X96037912Y-92393435D01*
X95956221Y-92332795D01*
X95817953Y-92230157D01*
X95817231Y-92229575D01*
X95723782Y-92147967D01*
X95647485Y-92081337D01*
X95596006Y-92034996D01*
X95595994Y-92034986D01*
X95595987Y-92034980D01*
X95445223Y-91913894D01*
X95445218Y-91913890D01*
X95429686Y-91905621D01*
X95301964Y-91837626D01*
X95216533Y-91809456D01*
X95162095Y-91797866D01*
X95117924Y-91788463D01*
X95117914Y-91788462D01*
X94989313Y-91773933D01*
X94847656Y-91769365D01*
X94839497Y-91765673D01*
X94836333Y-91757671D01*
X94836333Y-91630309D01*
X94839760Y-91622036D01*
X94847634Y-91618616D01*
X94996113Y-91613578D01*
X95129318Y-91597621D01*
X95240895Y-91571595D01*
X95335790Y-91535962D01*
X95418950Y-91491189D01*
X95495321Y-91437738D01*
X95617563Y-91332437D01*
X95647524Y-91306630D01*
X95741983Y-91223780D01*
X95804382Y-91169051D01*
X95805075Y-91168490D01*
X96037896Y-90994620D01*
X96046574Y-90992416D01*
X96054270Y-90996994D01*
G37*
%TD.AperFunction*%
%TD*%
%TA.AperFunction,Conductor*%
%TO.N,/IO11*%
G36*
X65886633Y-90994244D02*
G01*
X65887079Y-90994558D01*
X66023253Y-91095641D01*
X66107046Y-91157842D01*
X66107768Y-91158424D01*
X66181333Y-91222668D01*
X66277514Y-91306663D01*
X66328994Y-91353004D01*
X66329006Y-91353013D01*
X66329012Y-91353019D01*
X66479775Y-91474106D01*
X66479780Y-91474109D01*
X66479781Y-91474109D01*
X66479783Y-91474111D01*
X66623036Y-91550374D01*
X66708467Y-91578544D01*
X66807079Y-91599537D01*
X66935688Y-91614067D01*
X67077346Y-91618634D01*
X67085502Y-91622326D01*
X67088667Y-91630328D01*
X67088667Y-91757690D01*
X67085240Y-91765963D01*
X67077364Y-91769383D01*
X66928888Y-91774421D01*
X66795688Y-91790377D01*
X66795676Y-91790379D01*
X66684107Y-91816403D01*
X66684100Y-91816406D01*
X66589217Y-91852034D01*
X66589205Y-91852039D01*
X66506054Y-91896808D01*
X66506049Y-91896811D01*
X66506048Y-91896812D01*
X66429677Y-91950262D01*
X66277514Y-92081337D01*
X66277479Y-92081367D01*
X66277474Y-92081372D01*
X66120627Y-92218939D01*
X66119913Y-92219517D01*
X65887104Y-92393378D01*
X65878425Y-92395583D01*
X65870729Y-92391005D01*
X65870393Y-92390531D01*
X65408358Y-91700509D01*
X65406604Y-91691729D01*
X65408359Y-91687490D01*
X65451992Y-91622326D01*
X65870402Y-90997455D01*
X65877852Y-90992489D01*
X65886633Y-90994244D01*
G37*
%TD.AperFunction*%
%TD*%
%TA.AperFunction,Conductor*%
%TO.N,/IO11*%
G36*
X90330165Y-91689284D02*
G01*
X90331746Y-91689406D01*
X90427663Y-91703420D01*
X90428892Y-91703668D01*
X90461191Y-91712017D01*
X90489767Y-91719403D01*
X90496919Y-91724791D01*
X90498167Y-91733659D01*
X90493262Y-91740510D01*
X90458635Y-91763252D01*
X90456941Y-91764175D01*
X90330907Y-91819865D01*
X90327982Y-91820723D01*
X90242701Y-91834035D01*
X90237535Y-91833682D01*
X90189694Y-91819330D01*
X90184478Y-91816079D01*
X90170581Y-91801096D01*
X90168215Y-91797276D01*
X90159399Y-91773926D01*
X90158649Y-91770013D01*
X90158239Y-91747018D01*
X90159491Y-91741542D01*
X90169244Y-91722223D01*
X90172943Y-91717940D01*
X90192772Y-91703967D01*
X90196868Y-91702134D01*
X90253596Y-91689006D01*
X90256312Y-91688706D01*
X90330165Y-91689284D01*
G37*
%TD.AperFunction*%
%TA.AperFunction,Conductor*%
G36*
X90557801Y-91622565D02*
G01*
X90577096Y-91627315D01*
X90578733Y-91628519D01*
X90580731Y-91628902D01*
X90582200Y-91631068D01*
X90584309Y-91632619D01*
X90585757Y-91636313D01*
X90587532Y-91644924D01*
X90586054Y-91653390D01*
X90572219Y-91676013D01*
X90570101Y-91678573D01*
X90562877Y-91685129D01*
X90554447Y-91688151D01*
X90546350Y-91684328D01*
X90543314Y-91676465D01*
X90543314Y-91633928D01*
X90546741Y-91625655D01*
X90555014Y-91622228D01*
X90557801Y-91622565D01*
G37*
%TD.AperFunction*%
%TD*%
%TA.AperFunction,Conductor*%
%TO.N,/BTN_A*%
G36*
X96054270Y-101156994D02*
G01*
X96054618Y-101157485D01*
X96516640Y-101847490D01*
X96518395Y-101856271D01*
X96516640Y-101860510D01*
X96054598Y-102550543D01*
X96047147Y-102555510D01*
X96038366Y-102553755D01*
X96037912Y-102553435D01*
X95956221Y-102492795D01*
X95817953Y-102390157D01*
X95817231Y-102389575D01*
X95723782Y-102307967D01*
X95647485Y-102241337D01*
X95596006Y-102194996D01*
X95595994Y-102194986D01*
X95595987Y-102194980D01*
X95445223Y-102073894D01*
X95445218Y-102073890D01*
X95429686Y-102065621D01*
X95301964Y-101997626D01*
X95216533Y-101969456D01*
X95162095Y-101957866D01*
X95117924Y-101948463D01*
X95117914Y-101948462D01*
X94989313Y-101933933D01*
X94847656Y-101929365D01*
X94839497Y-101925673D01*
X94836333Y-101917671D01*
X94836333Y-101790309D01*
X94839760Y-101782036D01*
X94847634Y-101778616D01*
X94996113Y-101773578D01*
X95129318Y-101757621D01*
X95240895Y-101731595D01*
X95335790Y-101695962D01*
X95418950Y-101651189D01*
X95495321Y-101597738D01*
X95617563Y-101492437D01*
X95647524Y-101466630D01*
X95741983Y-101383780D01*
X95804382Y-101329051D01*
X95805075Y-101328490D01*
X96037896Y-101154620D01*
X96046574Y-101152416D01*
X96054270Y-101156994D01*
G37*
%TD.AperFunction*%
%TD*%
%TA.AperFunction,Conductor*%
%TO.N,/BTN_A*%
G36*
X65886633Y-101154244D02*
G01*
X65887079Y-101154558D01*
X66023253Y-101255641D01*
X66107046Y-101317842D01*
X66107768Y-101318424D01*
X66181333Y-101382668D01*
X66277514Y-101466663D01*
X66328994Y-101513004D01*
X66329006Y-101513013D01*
X66329012Y-101513019D01*
X66479775Y-101634106D01*
X66479780Y-101634109D01*
X66479781Y-101634109D01*
X66479783Y-101634111D01*
X66623036Y-101710374D01*
X66708467Y-101738544D01*
X66807079Y-101759537D01*
X66935688Y-101774067D01*
X67077346Y-101778634D01*
X67085502Y-101782326D01*
X67088667Y-101790328D01*
X67088667Y-101917690D01*
X67085240Y-101925963D01*
X67077364Y-101929383D01*
X66928888Y-101934421D01*
X66795688Y-101950377D01*
X66795676Y-101950379D01*
X66684107Y-101976403D01*
X66684100Y-101976406D01*
X66589217Y-102012034D01*
X66589205Y-102012039D01*
X66506054Y-102056808D01*
X66506049Y-102056811D01*
X66506048Y-102056812D01*
X66429677Y-102110262D01*
X66277514Y-102241337D01*
X66277479Y-102241367D01*
X66277474Y-102241372D01*
X66120627Y-102378939D01*
X66119913Y-102379517D01*
X65887104Y-102553378D01*
X65878425Y-102555583D01*
X65870729Y-102551005D01*
X65870393Y-102550531D01*
X65408358Y-101860509D01*
X65406604Y-101851729D01*
X65408359Y-101847490D01*
X65451992Y-101782326D01*
X65870402Y-101157455D01*
X65877852Y-101152489D01*
X65886633Y-101154244D01*
G37*
%TD.AperFunction*%
%TD*%
%TA.AperFunction,Conductor*%
%TO.N,/I2C_A_SDA*%
G36*
X95390764Y-82838156D02*
G01*
X95425103Y-82870240D01*
X95499316Y-82939582D01*
X95499326Y-82939590D01*
X95499338Y-82939600D01*
X95604778Y-83022482D01*
X95604788Y-83022488D01*
X95604790Y-83022490D01*
X95702090Y-83082983D01*
X95794387Y-83124888D01*
X95794389Y-83124888D01*
X95794395Y-83124891D01*
X95884838Y-83152028D01*
X95884842Y-83152028D01*
X95884850Y-83152031D01*
X95976648Y-83168238D01*
X96176927Y-83183150D01*
X96363387Y-83195360D01*
X96385161Y-83196786D01*
X96386076Y-83196882D01*
X96673637Y-83238566D01*
X96681332Y-83243143D01*
X96683537Y-83251822D01*
X96683435Y-83252415D01*
X96522227Y-84067021D01*
X96517260Y-84074472D01*
X96513021Y-84076227D01*
X95698381Y-84237442D01*
X95689600Y-84235687D01*
X95684633Y-84228236D01*
X95684536Y-84227677D01*
X95644457Y-83956699D01*
X95644358Y-83955777D01*
X95629150Y-83730927D01*
X95625517Y-83661759D01*
X95604528Y-83469498D01*
X95557159Y-83314278D01*
X95516670Y-83233949D01*
X95492615Y-83196882D01*
X95461790Y-83149382D01*
X95381115Y-83048156D01*
X95381110Y-83048150D01*
X95284183Y-82944765D01*
X95281024Y-82936386D01*
X95284444Y-82928491D01*
X95374504Y-82838431D01*
X95382776Y-82835005D01*
X95390764Y-82838156D01*
G37*
%TD.AperFunction*%
%TD*%
%TA.AperFunction,Conductor*%
%TO.N,/I2C_A_SDA*%
G36*
X65886633Y-83374244D02*
G01*
X65887079Y-83374558D01*
X66023253Y-83475641D01*
X66107046Y-83537842D01*
X66107768Y-83538424D01*
X66181333Y-83602668D01*
X66277514Y-83686663D01*
X66328994Y-83733004D01*
X66329006Y-83733013D01*
X66329012Y-83733019D01*
X66479775Y-83854106D01*
X66479780Y-83854109D01*
X66479781Y-83854109D01*
X66479783Y-83854111D01*
X66623036Y-83930374D01*
X66708467Y-83958544D01*
X66807079Y-83979537D01*
X66935688Y-83994067D01*
X67077346Y-83998634D01*
X67085502Y-84002326D01*
X67088667Y-84010328D01*
X67088667Y-84137690D01*
X67085240Y-84145963D01*
X67077364Y-84149383D01*
X66928888Y-84154421D01*
X66795688Y-84170377D01*
X66795676Y-84170379D01*
X66684107Y-84196403D01*
X66684100Y-84196406D01*
X66589217Y-84232034D01*
X66589205Y-84232039D01*
X66506054Y-84276808D01*
X66506049Y-84276811D01*
X66506048Y-84276812D01*
X66429677Y-84330262D01*
X66277514Y-84461337D01*
X66277479Y-84461367D01*
X66277474Y-84461372D01*
X66120627Y-84598939D01*
X66119913Y-84599517D01*
X65887104Y-84773378D01*
X65878425Y-84775583D01*
X65870729Y-84771005D01*
X65870393Y-84770531D01*
X65408358Y-84080509D01*
X65406604Y-84071729D01*
X65408359Y-84067490D01*
X65451992Y-84002326D01*
X65870402Y-83377455D01*
X65877852Y-83372489D01*
X65886633Y-83374244D01*
G37*
%TD.AperFunction*%
%TD*%
%TA.AperFunction,Conductor*%
%TO.N,/BTN_B*%
G36*
X96054270Y-103696994D02*
G01*
X96054618Y-103697485D01*
X96516640Y-104387490D01*
X96518395Y-104396271D01*
X96516640Y-104400510D01*
X96054598Y-105090543D01*
X96047147Y-105095510D01*
X96038366Y-105093755D01*
X96037912Y-105093435D01*
X95956221Y-105032795D01*
X95817953Y-104930157D01*
X95817231Y-104929575D01*
X95723782Y-104847967D01*
X95647485Y-104781337D01*
X95596006Y-104734996D01*
X95595994Y-104734986D01*
X95595987Y-104734980D01*
X95445223Y-104613894D01*
X95445218Y-104613890D01*
X95429686Y-104605621D01*
X95301964Y-104537626D01*
X95216533Y-104509456D01*
X95162095Y-104497866D01*
X95117924Y-104488463D01*
X95117914Y-104488462D01*
X94989313Y-104473933D01*
X94847656Y-104469365D01*
X94839497Y-104465673D01*
X94836333Y-104457671D01*
X94836333Y-104330309D01*
X94839760Y-104322036D01*
X94847634Y-104318616D01*
X94996113Y-104313578D01*
X95129318Y-104297621D01*
X95240895Y-104271595D01*
X95335790Y-104235962D01*
X95418950Y-104191189D01*
X95495321Y-104137738D01*
X95617563Y-104032437D01*
X95647524Y-104006630D01*
X95741983Y-103923780D01*
X95804382Y-103869051D01*
X95805075Y-103868490D01*
X96037896Y-103694620D01*
X96046574Y-103692416D01*
X96054270Y-103696994D01*
G37*
%TD.AperFunction*%
%TD*%
%TA.AperFunction,Conductor*%
%TO.N,/BTN_B*%
G36*
X66550509Y-103158445D02*
G01*
X66640567Y-103248503D01*
X66643994Y-103256776D01*
X66640843Y-103264764D01*
X66539415Y-103373318D01*
X66539398Y-103373338D01*
X66456511Y-103478788D01*
X66456506Y-103478794D01*
X66396017Y-103576089D01*
X66354113Y-103668383D01*
X66354110Y-103668391D01*
X66326970Y-103758841D01*
X66310761Y-103850646D01*
X66295845Y-104050980D01*
X66282212Y-104259162D01*
X66282116Y-104260075D01*
X66240434Y-104547636D01*
X66235856Y-104555332D01*
X66227177Y-104557537D01*
X66226584Y-104557435D01*
X65411978Y-104396227D01*
X65404527Y-104391260D01*
X65402772Y-104387021D01*
X65377469Y-104259162D01*
X65241557Y-103572380D01*
X65243312Y-103563600D01*
X65250763Y-103558633D01*
X65251317Y-103558536D01*
X65522314Y-103518455D01*
X65523208Y-103518359D01*
X65748073Y-103503150D01*
X65817240Y-103499517D01*
X66009501Y-103478528D01*
X66164722Y-103431159D01*
X66245051Y-103390670D01*
X66289659Y-103361720D01*
X66329617Y-103335790D01*
X66329620Y-103335787D01*
X66329624Y-103335785D01*
X66430838Y-103255119D01*
X66534235Y-103158182D01*
X66542613Y-103155024D01*
X66550509Y-103158445D01*
G37*
%TD.AperFunction*%
%TD*%
%TA.AperFunction,Conductor*%
%TO.N,/I2C_A_SCL*%
G36*
X65886633Y-85914244D02*
G01*
X65887079Y-85914558D01*
X66023253Y-86015641D01*
X66107046Y-86077842D01*
X66107768Y-86078424D01*
X66181333Y-86142668D01*
X66277514Y-86226663D01*
X66328994Y-86273004D01*
X66329006Y-86273013D01*
X66329012Y-86273019D01*
X66479775Y-86394106D01*
X66479780Y-86394109D01*
X66479781Y-86394109D01*
X66479783Y-86394111D01*
X66623036Y-86470374D01*
X66708467Y-86498544D01*
X66807079Y-86519537D01*
X66935688Y-86534067D01*
X67077346Y-86538634D01*
X67085502Y-86542326D01*
X67088667Y-86550328D01*
X67088667Y-86677690D01*
X67085240Y-86685963D01*
X67077364Y-86689383D01*
X66928888Y-86694421D01*
X66795688Y-86710377D01*
X66795676Y-86710379D01*
X66684107Y-86736403D01*
X66684100Y-86736406D01*
X66589217Y-86772034D01*
X66589205Y-86772039D01*
X66506054Y-86816808D01*
X66506049Y-86816811D01*
X66506048Y-86816812D01*
X66429677Y-86870262D01*
X66277514Y-87001337D01*
X66277479Y-87001367D01*
X66277474Y-87001372D01*
X66120627Y-87138939D01*
X66119913Y-87139517D01*
X65887104Y-87313378D01*
X65878425Y-87315583D01*
X65870729Y-87311005D01*
X65870393Y-87310531D01*
X65408358Y-86620509D01*
X65406604Y-86611729D01*
X65408359Y-86607490D01*
X65451992Y-86542326D01*
X65870402Y-85917455D01*
X65877852Y-85912489D01*
X65886633Y-85914244D01*
G37*
%TD.AperFunction*%
%TD*%
%TA.AperFunction,Conductor*%
%TO.N,/I2C_A_SCL*%
G36*
X96054270Y-85916994D02*
G01*
X96054618Y-85917485D01*
X96516640Y-86607490D01*
X96518395Y-86616271D01*
X96516640Y-86620510D01*
X96054598Y-87310543D01*
X96047147Y-87315510D01*
X96038366Y-87313755D01*
X96037912Y-87313435D01*
X95956221Y-87252795D01*
X95817953Y-87150157D01*
X95817231Y-87149575D01*
X95723782Y-87067967D01*
X95647485Y-87001337D01*
X95596006Y-86954996D01*
X95595994Y-86954986D01*
X95595987Y-86954980D01*
X95445223Y-86833894D01*
X95445218Y-86833890D01*
X95429686Y-86825621D01*
X95301964Y-86757626D01*
X95216533Y-86729456D01*
X95162095Y-86717866D01*
X95117924Y-86708463D01*
X95117914Y-86708462D01*
X94989313Y-86693933D01*
X94847656Y-86689365D01*
X94839497Y-86685673D01*
X94836333Y-86677671D01*
X94836333Y-86550309D01*
X94839760Y-86542036D01*
X94847634Y-86538616D01*
X94996113Y-86533578D01*
X95129318Y-86517621D01*
X95240895Y-86491595D01*
X95335790Y-86455962D01*
X95418950Y-86411189D01*
X95495321Y-86357738D01*
X95617563Y-86252437D01*
X95647524Y-86226630D01*
X95741983Y-86143780D01*
X95804382Y-86089051D01*
X95805075Y-86088490D01*
X96037896Y-85914620D01*
X96046574Y-85912416D01*
X96054270Y-85916994D01*
G37*
%TD.AperFunction*%
%TD*%
M02*
