%TF.GenerationSoftware,KiCad,Pcbnew,9.0.6*%
%TF.CreationDate,2026-01-25T13:47:59+09:00*%
%TF.ProjectId,esp32-s3-with-ken-interface,65737033-322d-4733-932d-776974682d6b,rev?*%
%TF.SameCoordinates,Original*%
%TF.FileFunction,Paste,Top*%
%TF.FilePolarity,Positive*%
%FSLAX46Y46*%
G04 Gerber Fmt 4.6, Leading zero omitted, Abs format (unit mm)*
G04 Created by KiCad (PCBNEW 9.0.6) date 2026-01-25 13:47:59*
%MOMM*%
%LPD*%
G01*
G04 APERTURE LIST*
G04 Aperture macros list*
%AMRoundRect*
0 Rectangle with rounded corners*
0 $1 Rounding radius*
0 $2 $3 $4 $5 $6 $7 $8 $9 X,Y pos of 4 corners*
0 Add a 4 corners polygon primitive as box body*
4,1,4,$2,$3,$4,$5,$6,$7,$8,$9,$2,$3,0*
0 Add four circle primitives for the rounded corners*
1,1,$1+$1,$2,$3*
1,1,$1+$1,$4,$5*
1,1,$1+$1,$6,$7*
1,1,$1+$1,$8,$9*
0 Add four rect primitives between the rounded corners*
20,1,$1+$1,$2,$3,$4,$5,0*
20,1,$1+$1,$4,$5,$6,$7,0*
20,1,$1+$1,$6,$7,$8,$9,0*
20,1,$1+$1,$8,$9,$2,$3,0*%
G04 Aperture macros list end*
%ADD10RoundRect,0.237500X-0.250000X-0.237500X0.250000X-0.237500X0.250000X0.237500X-0.250000X0.237500X0*%
%ADD11RoundRect,0.375000X0.375000X-0.625000X0.375000X0.625000X-0.375000X0.625000X-0.375000X-0.625000X0*%
%ADD12RoundRect,0.500000X1.400000X-0.500000X1.400000X0.500000X-1.400000X0.500000X-1.400000X-0.500000X0*%
%ADD13R,1.150000X0.950000*%
%ADD14RoundRect,0.250001X-0.624999X0.462499X-0.624999X-0.462499X0.624999X-0.462499X0.624999X0.462499X0*%
%ADD15R,0.900000X0.900000*%
%ADD16R,1.500000X0.900000*%
%ADD17R,0.900000X1.500000*%
%ADD18RoundRect,0.237500X-0.237500X0.250000X-0.237500X-0.250000X0.237500X-0.250000X0.237500X0.250000X0*%
%ADD19RoundRect,0.237500X0.237500X-0.300000X0.237500X0.300000X-0.237500X0.300000X-0.237500X-0.300000X0*%
%ADD20R,1.100000X1.400000*%
%ADD21RoundRect,0.250001X0.624999X-0.462499X0.624999X0.462499X-0.624999X0.462499X-0.624999X-0.462499X0*%
%ADD22RoundRect,0.237500X0.300000X0.237500X-0.300000X0.237500X-0.300000X-0.237500X0.300000X-0.237500X0*%
%ADD23R,0.420000X0.600000*%
%ADD24RoundRect,0.237500X0.237500X-0.250000X0.237500X0.250000X-0.237500X0.250000X-0.237500X-0.250000X0*%
%ADD25R,0.600000X1.450000*%
%ADD26R,0.300000X1.450000*%
%ADD27RoundRect,0.250000X0.412500X0.650000X-0.412500X0.650000X-0.412500X-0.650000X0.412500X-0.650000X0*%
%ADD28RoundRect,0.150000X0.150000X-0.825000X0.150000X0.825000X-0.150000X0.825000X-0.150000X-0.825000X0*%
%ADD29RoundRect,0.250000X0.337500X0.475000X-0.337500X0.475000X-0.337500X-0.475000X0.337500X-0.475000X0*%
G04 APERTURE END LIST*
D10*
%TO.C,R7*%
X69064500Y-53340000D03*
X70889500Y-53340000D03*
%TD*%
D11*
%TO.C,U2*%
X81520000Y-86462000D03*
X83820000Y-86462000D03*
D12*
X83820000Y-80162000D03*
D11*
X86120000Y-86462000D03*
%TD*%
D13*
%TO.C,D4*%
X86106000Y-95846000D03*
X86106000Y-99226000D03*
%TD*%
D14*
%TO.C,D2*%
X75565000Y-90968500D03*
X75565000Y-93943500D03*
%TD*%
D15*
%TO.C,U4*%
X80920000Y-53384000D03*
X80920000Y-54784000D03*
X80920000Y-56184000D03*
X82320000Y-53384000D03*
X82320000Y-54784000D03*
X82320000Y-56184000D03*
X83720000Y-53384000D03*
X83720000Y-54784000D03*
X83720000Y-56184000D03*
D16*
X75070000Y-47064000D03*
X75070000Y-48334000D03*
X75070000Y-49604000D03*
X75070000Y-50874000D03*
X75070000Y-52144000D03*
X75070000Y-53414000D03*
X75070000Y-54684000D03*
X75070000Y-55954000D03*
X75070000Y-57224000D03*
X75070000Y-58494000D03*
X75070000Y-59764000D03*
X75070000Y-61034000D03*
X75070000Y-62304000D03*
X75070000Y-63574000D03*
D17*
X76835000Y-64824000D03*
X78105000Y-64824000D03*
X79375000Y-64824000D03*
X80645000Y-64824000D03*
X81915000Y-64824000D03*
X83185000Y-64824000D03*
X84455000Y-64824000D03*
X85725000Y-64824000D03*
X86995000Y-64824000D03*
X88265000Y-64824000D03*
X89535000Y-64824000D03*
X90805000Y-64824000D03*
D16*
X92570000Y-63574000D03*
X92570000Y-62304000D03*
X92570000Y-61034000D03*
X92570000Y-59764000D03*
X92570000Y-58494000D03*
X92570000Y-57224000D03*
X92570000Y-55954000D03*
X92570000Y-54684000D03*
X92570000Y-53414000D03*
X92570000Y-52144000D03*
X92570000Y-50874000D03*
X92570000Y-49604000D03*
X92570000Y-48334000D03*
X92570000Y-47064000D03*
%TD*%
D18*
%TO.C,R6*%
X77851000Y-91543500D03*
X77851000Y-93368500D03*
%TD*%
D19*
%TO.C,C1*%
X80264000Y-98398500D03*
X80264000Y-96673500D03*
%TD*%
D20*
%TO.C,SW1*%
X63730000Y-58980000D03*
X63730000Y-65480000D03*
X60730000Y-58980000D03*
X60730000Y-65480000D03*
%TD*%
D21*
%TO.C,D3*%
X100838000Y-59871000D03*
X100838000Y-56896000D03*
%TD*%
D20*
%TO.C,SW2*%
X106910000Y-58980000D03*
X106910000Y-65480000D03*
X103910000Y-58980000D03*
X103910000Y-65480000D03*
%TD*%
D18*
%TO.C,R4*%
X73279000Y-91543500D03*
X73279000Y-93368500D03*
%TD*%
%TO.C,R8*%
X100838000Y-52808500D03*
X100838000Y-54633500D03*
%TD*%
D22*
%TO.C,C4*%
X83820000Y-77597000D03*
X82095000Y-77597000D03*
%TD*%
%TO.C,C8*%
X70839500Y-49530000D03*
X69114500Y-49530000D03*
%TD*%
D23*
%TO.C,Q1*%
X81915000Y-98486000D03*
X82565000Y-98486000D03*
X83215000Y-98486000D03*
X83215000Y-96586000D03*
X82565000Y-96586000D03*
X81915000Y-96586000D03*
%TD*%
D24*
%TO.C,R2*%
X76708000Y-116863500D03*
X76708000Y-115038500D03*
%TD*%
%TO.C,R3*%
X73279000Y-98448500D03*
X73279000Y-96623500D03*
%TD*%
D22*
%TO.C,C6*%
X70839500Y-51435000D03*
X69114500Y-51435000D03*
%TD*%
D25*
%TO.C,J1*%
X80570000Y-112888000D03*
X81370000Y-112888000D03*
D26*
X82570000Y-112888000D03*
X83570000Y-112888000D03*
X84070000Y-112888000D03*
X85070000Y-112888000D03*
D25*
X87070000Y-112888000D03*
X86270000Y-112888000D03*
D26*
X85570000Y-112888000D03*
X84570000Y-112888000D03*
X83070000Y-112888000D03*
X82070000Y-112888000D03*
%TD*%
D27*
%TO.C,C2*%
X86106000Y-91694000D03*
X82981000Y-91694000D03*
%TD*%
D22*
%TO.C,C3*%
X86106000Y-89154000D03*
X84381000Y-89154000D03*
%TD*%
D27*
%TO.C,C5*%
X83820000Y-75057000D03*
X80695000Y-75057000D03*
%TD*%
D24*
%TO.C,R5*%
X77851000Y-98448500D03*
X77851000Y-96623500D03*
%TD*%
D28*
%TO.C,U1*%
X79375000Y-107250000D03*
X80645000Y-107250000D03*
X81915000Y-107250000D03*
X83185000Y-107250000D03*
X84455000Y-107250000D03*
X85725000Y-107250000D03*
X86995000Y-107250000D03*
X88265000Y-107250000D03*
X88265000Y-102300000D03*
X86995000Y-102300000D03*
X85725000Y-102300000D03*
X84455000Y-102300000D03*
X83185000Y-102300000D03*
X81915000Y-102300000D03*
X80645000Y-102300000D03*
X79375000Y-102300000D03*
%TD*%
D21*
%TO.C,D1*%
X75565000Y-99023500D03*
X75565000Y-96048500D03*
%TD*%
D24*
%TO.C,R1*%
X90932000Y-116863500D03*
X90932000Y-115038500D03*
%TD*%
D29*
%TO.C,C7*%
X70887500Y-47371000D03*
X68812500Y-47371000D03*
%TD*%
M02*
