%TF.GenerationSoftware,KiCad,Pcbnew,9.0.6*%
%TF.CreationDate,2026-01-25T13:47:59+09:00*%
%TF.ProjectId,esp32-s3-with-ken-interface,65737033-322d-4733-932d-776974682d6b,rev?*%
%TF.SameCoordinates,Original*%
%TF.FileFunction,Legend,Bot*%
%TF.FilePolarity,Positive*%
%FSLAX46Y46*%
G04 Gerber Fmt 4.6, Leading zero omitted, Abs format (unit mm)*
G04 Created by KiCad (PCBNEW 9.0.6) date 2026-01-25 13:47:59*
%MOMM*%
%LPD*%
G01*
G04 APERTURE LIST*
%ADD10C,0.150000*%
G04 APERTURE END LIST*
D10*
G36*
X87884016Y-42055000D02*
G01*
X87755178Y-42055000D01*
X87591414Y-42658401D01*
X87431801Y-42055000D01*
X87307176Y-42055000D01*
X87508798Y-42755000D01*
X87680990Y-42755000D01*
X87884016Y-42055000D01*
G37*
G36*
X86924305Y-42058989D02*
G01*
X86971716Y-42069747D01*
X87007860Y-42085917D01*
X87035028Y-42106840D01*
X87055924Y-42133976D01*
X87072075Y-42170087D01*
X87082822Y-42217468D01*
X87086808Y-42278970D01*
X87086808Y-42531029D01*
X87082497Y-42591235D01*
X87070775Y-42638202D01*
X87052921Y-42674595D01*
X87029411Y-42702487D01*
X86999609Y-42723819D01*
X86961039Y-42740210D01*
X86911618Y-42751024D01*
X86848793Y-42755000D01*
X86640210Y-42755000D01*
X86640210Y-42649975D01*
X86862776Y-42649975D01*
X86910231Y-42643437D01*
X86941239Y-42626222D01*
X86955667Y-42608726D01*
X86964602Y-42586765D01*
X86967800Y-42558995D01*
X86967800Y-42453970D01*
X86595391Y-42453970D01*
X86595391Y-42272009D01*
X86598006Y-42243982D01*
X86711590Y-42243982D01*
X86711590Y-42349007D01*
X86967800Y-42349007D01*
X86967800Y-42251004D01*
X86962215Y-42209942D01*
X86947528Y-42183105D01*
X86932265Y-42171137D01*
X86909614Y-42163104D01*
X86876820Y-42160024D01*
X86795609Y-42160024D01*
X86762061Y-42166097D01*
X86735403Y-42183838D01*
X86717665Y-42210444D01*
X86711590Y-42243982D01*
X86598006Y-42243982D01*
X86601845Y-42202829D01*
X86619379Y-42150198D01*
X86646499Y-42110321D01*
X86684055Y-42080636D01*
X86733053Y-42061845D01*
X86797014Y-42055000D01*
X86862776Y-42055000D01*
X86924305Y-42058989D01*
G37*
G36*
X86220967Y-42649975D02*
G01*
X86220967Y-42160024D01*
X86323183Y-42160024D01*
X86323183Y-42055000D01*
X86108982Y-42055000D01*
X86108982Y-42092796D01*
X86076452Y-42072004D01*
X86039521Y-42059377D01*
X85996996Y-42055000D01*
X85852771Y-42055000D01*
X85852771Y-42166985D01*
X86010979Y-42166985D01*
X86039478Y-42170466D01*
X86061352Y-42180112D01*
X86078207Y-42195683D01*
X86095682Y-42225349D01*
X86102021Y-42253813D01*
X86102021Y-42649975D01*
X85949369Y-42649975D01*
X85949369Y-42755000D01*
X86323183Y-42755000D01*
X86323183Y-42649975D01*
X86220967Y-42649975D01*
G37*
G36*
X85117172Y-42580000D02*
G01*
X85123785Y-42636265D01*
X85141987Y-42679034D01*
X85171089Y-42711585D01*
X85209446Y-42734455D01*
X85260294Y-42749448D01*
X85327221Y-42755000D01*
X85535805Y-42755000D01*
X85535805Y-42649975D01*
X85313177Y-42649975D01*
X85278428Y-42645525D01*
X85255780Y-42633916D01*
X85241334Y-42614730D01*
X85236180Y-42587021D01*
X85236180Y-42512772D01*
X85240380Y-42483908D01*
X85251452Y-42465327D01*
X85269254Y-42454035D01*
X85296386Y-42449818D01*
X85348226Y-42449818D01*
X85412254Y-42444297D01*
X85459693Y-42429524D01*
X85494467Y-42407137D01*
X85520060Y-42375357D01*
X85536612Y-42331638D01*
X85542766Y-42272009D01*
X85542766Y-42231404D01*
X85536032Y-42171306D01*
X85517899Y-42127694D01*
X85489582Y-42096338D01*
X85451827Y-42074708D01*
X85400853Y-42060358D01*
X85332778Y-42055000D01*
X85145199Y-42055000D01*
X85145199Y-42160024D01*
X85346822Y-42160024D01*
X85379318Y-42164350D01*
X85402814Y-42176144D01*
X85418353Y-42195409D01*
X85423819Y-42222978D01*
X85423819Y-42273414D01*
X85418746Y-42302287D01*
X85404952Y-42321041D01*
X85383977Y-42332394D01*
X85356591Y-42336428D01*
X85309025Y-42336428D01*
X85248055Y-42342160D01*
X85201551Y-42357753D01*
X85166204Y-42381919D01*
X85139953Y-42415353D01*
X85123270Y-42459291D01*
X85117172Y-42516985D01*
X85117172Y-42580000D01*
G37*
G36*
X84509008Y-41774975D02*
G01*
X84509008Y-41901004D01*
X84641998Y-41901004D01*
X84641998Y-41774975D01*
X84509008Y-41774975D01*
G37*
G36*
X84840812Y-42160024D02*
G01*
X84840812Y-42055000D01*
X84515969Y-42055000D01*
X84515969Y-42649975D01*
X84308790Y-42649975D01*
X84308790Y-42755000D01*
X84634976Y-42755000D01*
X84634976Y-42160024D01*
X84840812Y-42160024D01*
G37*
G36*
X83905330Y-42058993D02*
G01*
X83954439Y-42069898D01*
X83993119Y-42086511D01*
X84023331Y-42108244D01*
X84047227Y-42136504D01*
X84065282Y-42172981D01*
X84077078Y-42219629D01*
X84081400Y-42278970D01*
X84081400Y-42531029D01*
X84077079Y-42590368D01*
X84065284Y-42637028D01*
X84047229Y-42673527D01*
X84023331Y-42701816D01*
X83993124Y-42723522D01*
X83954445Y-42740116D01*
X83905335Y-42751010D01*
X83843385Y-42755000D01*
X83797223Y-42755000D01*
X83735270Y-42751009D01*
X83686173Y-42740114D01*
X83647516Y-42723520D01*
X83617338Y-42701816D01*
X83593412Y-42673523D01*
X83575338Y-42637022D01*
X83563533Y-42590363D01*
X83559208Y-42531029D01*
X83559208Y-42278970D01*
X83561247Y-42251004D01*
X83678216Y-42251004D01*
X83678216Y-42558995D01*
X83681420Y-42586761D01*
X83690374Y-42608721D01*
X83704838Y-42626222D01*
X83735787Y-42643437D01*
X83783179Y-42649975D01*
X83857368Y-42649975D01*
X83904823Y-42643437D01*
X83935831Y-42626222D01*
X83950259Y-42608726D01*
X83959194Y-42586765D01*
X83962392Y-42558995D01*
X83962392Y-42251004D01*
X83959192Y-42223235D01*
X83950256Y-42201297D01*
X83935831Y-42183838D01*
X83904817Y-42166577D01*
X83857368Y-42160024D01*
X83783179Y-42160024D01*
X83735793Y-42166577D01*
X83704838Y-42183838D01*
X83690377Y-42201302D01*
X83681422Y-42223240D01*
X83678216Y-42251004D01*
X83561247Y-42251004D01*
X83563534Y-42219634D01*
X83575341Y-42172988D01*
X83593414Y-42136509D01*
X83617338Y-42108244D01*
X83647521Y-42086513D01*
X83686179Y-42069900D01*
X83735275Y-42058994D01*
X83797223Y-42055000D01*
X83843385Y-42055000D01*
X83905330Y-42058993D01*
G37*
G36*
X83208598Y-42055000D02*
G01*
X83208598Y-42088583D01*
X83178026Y-42070435D01*
X83141215Y-42059052D01*
X83096612Y-42055000D01*
X83032193Y-42055000D01*
X82974863Y-42058931D01*
X82929003Y-42069727D01*
X82892467Y-42086313D01*
X82863544Y-42108244D01*
X82840900Y-42136309D01*
X82823677Y-42172696D01*
X82812374Y-42219404D01*
X82808223Y-42278970D01*
X82808223Y-42755000D01*
X82927169Y-42755000D01*
X82927169Y-42251004D01*
X82933616Y-42212547D01*
X82951715Y-42184509D01*
X82979748Y-42166457D01*
X83018210Y-42160024D01*
X83110595Y-42160024D01*
X83140418Y-42163111D01*
X83162685Y-42171478D01*
X83179228Y-42184509D01*
X83196228Y-42210449D01*
X83201576Y-42237021D01*
X83201576Y-42755000D01*
X83320583Y-42755000D01*
X83320583Y-42055000D01*
X83208598Y-42055000D01*
G37*
G36*
X82239198Y-42055000D02*
G01*
X82239198Y-42195012D01*
X82379210Y-42195012D01*
X82379210Y-42055000D01*
X82239198Y-42055000D01*
G37*
G36*
X82239198Y-42614987D02*
G01*
X82239198Y-42755000D01*
X82379210Y-42755000D01*
X82379210Y-42614987D01*
X82239198Y-42614987D01*
G37*
G36*
X81591771Y-42649975D02*
G01*
X81591771Y-41885617D01*
X81789180Y-41958401D01*
X81789180Y-41845012D01*
X81605815Y-41774975D01*
X81472825Y-41774975D01*
X81472825Y-42649975D01*
X81320173Y-42649975D01*
X81320173Y-42755000D01*
X81775198Y-42755000D01*
X81775198Y-42649975D01*
X81591771Y-42649975D01*
G37*
G36*
X80728800Y-42614987D02*
G01*
X80728800Y-42755000D01*
X80868812Y-42755000D01*
X80868812Y-42614987D01*
X80728800Y-42614987D01*
G37*
G36*
X80111903Y-41779147D02*
G01*
X80157772Y-41790922D01*
X80196698Y-41809622D01*
X80229812Y-41835181D01*
X80256229Y-41867077D01*
X80275800Y-41906237D01*
X80288321Y-41954201D01*
X80292827Y-42012990D01*
X80292827Y-42516985D01*
X80288314Y-42574932D01*
X80275724Y-42622577D01*
X80255952Y-42661825D01*
X80229140Y-42694122D01*
X80195620Y-42720076D01*
X80156617Y-42738975D01*
X80111079Y-42750819D01*
X80057621Y-42755000D01*
X80029594Y-42755000D01*
X79976135Y-42750819D01*
X79930607Y-42738973D01*
X79891626Y-42720074D01*
X79858135Y-42694122D01*
X79831295Y-42661821D01*
X79811505Y-42622571D01*
X79798904Y-42574928D01*
X79796463Y-42543607D01*
X79913395Y-42543607D01*
X79917036Y-42571168D01*
X79927813Y-42595860D01*
X79946307Y-42618529D01*
X79969881Y-42635832D01*
X79997275Y-42646320D01*
X80029594Y-42649975D01*
X80057621Y-42649975D01*
X80089939Y-42646320D01*
X80117334Y-42635832D01*
X80140908Y-42618529D01*
X80159402Y-42595860D01*
X80170179Y-42571168D01*
X80173819Y-42543607D01*
X79913395Y-42165580D01*
X79913395Y-42543607D01*
X79796463Y-42543607D01*
X79794388Y-42516985D01*
X79794388Y-42012990D01*
X79796424Y-41986428D01*
X79913395Y-41986428D01*
X80173819Y-42365799D01*
X80173819Y-41986428D01*
X80170179Y-41958867D01*
X80159402Y-41934176D01*
X80140908Y-41911507D01*
X80117329Y-41894168D01*
X80089935Y-41883661D01*
X80057621Y-41880000D01*
X80029594Y-41880000D01*
X79997280Y-41883661D01*
X79969885Y-41894168D01*
X79946307Y-41911507D01*
X79927813Y-41934176D01*
X79917036Y-41958867D01*
X79913395Y-41986428D01*
X79796424Y-41986428D01*
X79798894Y-41954201D01*
X79811415Y-41906237D01*
X79830986Y-41867077D01*
X79857403Y-41835181D01*
X79890516Y-41809622D01*
X79929443Y-41790922D01*
X79975311Y-41779147D01*
X80029594Y-41774975D01*
X80057621Y-41774975D01*
X80111903Y-41779147D01*
G37*
G36*
X88588413Y-43735000D02*
G01*
X88750774Y-43735000D01*
X88812719Y-43738993D01*
X88861828Y-43749898D01*
X88900508Y-43766511D01*
X88930720Y-43788244D01*
X88954616Y-43816504D01*
X88972671Y-43852981D01*
X88984467Y-43899629D01*
X88988789Y-43958970D01*
X88988789Y-44211029D01*
X88984478Y-44271235D01*
X88972756Y-44318202D01*
X88954902Y-44354595D01*
X88931392Y-44382487D01*
X88901590Y-44403819D01*
X88863020Y-44420210D01*
X88813598Y-44431024D01*
X88750774Y-44435000D01*
X88693377Y-44435000D01*
X88650544Y-44431210D01*
X88613585Y-44420373D01*
X88581392Y-44402821D01*
X88581392Y-44435000D01*
X88469406Y-44435000D01*
X88469406Y-44252978D01*
X88588413Y-44252978D01*
X88593774Y-44279546D01*
X88610823Y-44305490D01*
X88627329Y-44318518D01*
X88649572Y-44326886D01*
X88679394Y-44329975D01*
X88764818Y-44329975D01*
X88812220Y-44323439D01*
X88843220Y-44306222D01*
X88857648Y-44288726D01*
X88866583Y-44266765D01*
X88869781Y-44238995D01*
X88869781Y-43931004D01*
X88866581Y-43903235D01*
X88857645Y-43881297D01*
X88843220Y-43863838D01*
X88812214Y-43846575D01*
X88764818Y-43840024D01*
X88588413Y-43840024D01*
X88588413Y-44252978D01*
X88469406Y-44252978D01*
X88469406Y-43454975D01*
X88588413Y-43454975D01*
X88588413Y-43735000D01*
G37*
G36*
X88201411Y-43840024D02*
G01*
X87984401Y-43840024D01*
X87937005Y-43846575D01*
X87905999Y-43863838D01*
X87891537Y-43881302D01*
X87882583Y-43903240D01*
X87879376Y-43931004D01*
X87879376Y-44000980D01*
X88052972Y-44000980D01*
X88118349Y-44007646D01*
X88167869Y-44025803D01*
X88205289Y-44054174D01*
X88232818Y-44093575D01*
X88250750Y-44146755D01*
X88257403Y-44217990D01*
X88257403Y-44246017D01*
X88251003Y-44313355D01*
X88234230Y-44360301D01*
X88209104Y-44392318D01*
X88174191Y-44414403D01*
X88124292Y-44429319D01*
X88054376Y-44435000D01*
X87929813Y-44435000D01*
X87896377Y-44430247D01*
X87868363Y-44416457D01*
X87844389Y-44392990D01*
X87827383Y-44410537D01*
X87807325Y-44423825D01*
X87785714Y-44432415D01*
X87767391Y-44435000D01*
X87690394Y-44435000D01*
X87690394Y-44336997D01*
X87725164Y-44333875D01*
X87744310Y-44326495D01*
X87756255Y-44313559D01*
X87760369Y-44294987D01*
X87760369Y-44260000D01*
X87879376Y-44260000D01*
X87882414Y-44288982D01*
X87890612Y-44310375D01*
X87907223Y-44324178D01*
X87943796Y-44329975D01*
X88068420Y-44329975D01*
X88101413Y-44325285D01*
X88121604Y-44313183D01*
X88133706Y-44292992D01*
X88138396Y-44260000D01*
X88138396Y-44190024D01*
X88132318Y-44156433D01*
X88114582Y-44129818D01*
X88087925Y-44112078D01*
X88054376Y-44106004D01*
X87879376Y-44106004D01*
X87879376Y-44260000D01*
X87760369Y-44260000D01*
X87760369Y-43958970D01*
X87764694Y-43899634D01*
X87776502Y-43852988D01*
X87794575Y-43816509D01*
X87818499Y-43788244D01*
X87848681Y-43766513D01*
X87887340Y-43749900D01*
X87936436Y-43738994D01*
X87998384Y-43735000D01*
X88201411Y-43735000D01*
X88201411Y-43840024D01*
G37*
G36*
X87166187Y-44435000D02*
G01*
X87211607Y-44429463D01*
X87247245Y-44413987D01*
X87275425Y-44388838D01*
X87295813Y-44356098D01*
X87308636Y-44316117D01*
X87313222Y-44267021D01*
X87313222Y-43840024D01*
X87446212Y-43840024D01*
X87446212Y-43735000D01*
X87313222Y-43735000D01*
X87313222Y-43567021D01*
X87194214Y-43567021D01*
X87194214Y-43735000D01*
X86989783Y-43735000D01*
X86989783Y-43840024D01*
X87194214Y-43840024D01*
X87194214Y-44273982D01*
X87189895Y-44301531D01*
X87178827Y-44317397D01*
X87160699Y-44326416D01*
X87131200Y-44329975D01*
X86989783Y-44329975D01*
X86989783Y-44435000D01*
X87166187Y-44435000D01*
G37*
G36*
X86546706Y-43738989D02*
G01*
X86594117Y-43749747D01*
X86630261Y-43765917D01*
X86657430Y-43786840D01*
X86678326Y-43813976D01*
X86694476Y-43850087D01*
X86705223Y-43897468D01*
X86709209Y-43958970D01*
X86709209Y-44211029D01*
X86704898Y-44271235D01*
X86693176Y-44318202D01*
X86675323Y-44354595D01*
X86651812Y-44382487D01*
X86622010Y-44403819D01*
X86583440Y-44420210D01*
X86534019Y-44431024D01*
X86471194Y-44435000D01*
X86262611Y-44435000D01*
X86262611Y-44329975D01*
X86485177Y-44329975D01*
X86532633Y-44323437D01*
X86563640Y-44306222D01*
X86578068Y-44288726D01*
X86587003Y-44266765D01*
X86590202Y-44238995D01*
X86590202Y-44133970D01*
X86217792Y-44133970D01*
X86217792Y-43952009D01*
X86220407Y-43923982D01*
X86333991Y-43923982D01*
X86333991Y-44029007D01*
X86590202Y-44029007D01*
X86590202Y-43931004D01*
X86584616Y-43889942D01*
X86569930Y-43863105D01*
X86554666Y-43851137D01*
X86532015Y-43843104D01*
X86499221Y-43840024D01*
X86418010Y-43840024D01*
X86384462Y-43846097D01*
X86357805Y-43863838D01*
X86340066Y-43890444D01*
X86333991Y-43923982D01*
X86220407Y-43923982D01*
X86224247Y-43882829D01*
X86241780Y-43830198D01*
X86268900Y-43790321D01*
X86306456Y-43760636D01*
X86355455Y-43741845D01*
X86419415Y-43735000D01*
X86485177Y-43735000D01*
X86546706Y-43738989D01*
G37*
G36*
X85637594Y-43735000D02*
G01*
X85637594Y-43875012D01*
X85777606Y-43875012D01*
X85777606Y-43735000D01*
X85637594Y-43735000D01*
G37*
G36*
X85637594Y-44294987D02*
G01*
X85637594Y-44435000D01*
X85777606Y-44435000D01*
X85777606Y-44294987D01*
X85637594Y-44294987D01*
G37*
G36*
X84204193Y-43992615D02*
G01*
X84143316Y-43900901D01*
X84129696Y-43873080D01*
X84121639Y-43845642D01*
X84117655Y-43814463D01*
X84116022Y-43764370D01*
X84116022Y-43666428D01*
X84119610Y-43638844D01*
X84130174Y-43614404D01*
X84148201Y-43592240D01*
X84171310Y-43575391D01*
X84198897Y-43565049D01*
X84232220Y-43561404D01*
X84400198Y-43561404D01*
X84400198Y-43454975D01*
X84246203Y-43454975D01*
X84184978Y-43459252D01*
X84134633Y-43471147D01*
X84093248Y-43489684D01*
X84059296Y-43514509D01*
X84032000Y-43546191D01*
X84011799Y-43585338D01*
X83998867Y-43633559D01*
X83994206Y-43692990D01*
X83994206Y-43751791D01*
X83996963Y-43818510D01*
X84004036Y-43865242D01*
X84016177Y-43906893D01*
X84032002Y-43942240D01*
X84092208Y-44036029D01*
X84299387Y-44328571D01*
X83966179Y-44328571D01*
X83966179Y-44435000D01*
X84428225Y-44435000D01*
X84428225Y-44311779D01*
X84204193Y-43992615D01*
G37*
G36*
X83510299Y-43459147D02*
G01*
X83556168Y-43470922D01*
X83595094Y-43489622D01*
X83628208Y-43515181D01*
X83654625Y-43547077D01*
X83674196Y-43586237D01*
X83686717Y-43634201D01*
X83691222Y-43692990D01*
X83691222Y-44196985D01*
X83686709Y-44254932D01*
X83674119Y-44302577D01*
X83654348Y-44341825D01*
X83627536Y-44374122D01*
X83594016Y-44400076D01*
X83555013Y-44418975D01*
X83509474Y-44430819D01*
X83456016Y-44435000D01*
X83427990Y-44435000D01*
X83374530Y-44430819D01*
X83329003Y-44418973D01*
X83290022Y-44400074D01*
X83256531Y-44374122D01*
X83229691Y-44341821D01*
X83209901Y-44302571D01*
X83197300Y-44254928D01*
X83194859Y-44223607D01*
X83311791Y-44223607D01*
X83315432Y-44251168D01*
X83326208Y-44275860D01*
X83344703Y-44298529D01*
X83368277Y-44315832D01*
X83395671Y-44326320D01*
X83427990Y-44329975D01*
X83456016Y-44329975D01*
X83488335Y-44326320D01*
X83515729Y-44315832D01*
X83539303Y-44298529D01*
X83557798Y-44275860D01*
X83568574Y-44251168D01*
X83572215Y-44223607D01*
X83311791Y-43845580D01*
X83311791Y-44223607D01*
X83194859Y-44223607D01*
X83192784Y-44196985D01*
X83192784Y-43692990D01*
X83194819Y-43666428D01*
X83311791Y-43666428D01*
X83572215Y-44045799D01*
X83572215Y-43666428D01*
X83568574Y-43638867D01*
X83557798Y-43614176D01*
X83539303Y-43591507D01*
X83515725Y-43574168D01*
X83488331Y-43563661D01*
X83456016Y-43560000D01*
X83427990Y-43560000D01*
X83395675Y-43563661D01*
X83368281Y-43574168D01*
X83344703Y-43591507D01*
X83326208Y-43614176D01*
X83315432Y-43638867D01*
X83311791Y-43666428D01*
X83194819Y-43666428D01*
X83197289Y-43634201D01*
X83209810Y-43586237D01*
X83229381Y-43547077D01*
X83255798Y-43515181D01*
X83288912Y-43489622D01*
X83327838Y-43470922D01*
X83373707Y-43459147D01*
X83427990Y-43454975D01*
X83456016Y-43454975D01*
X83510299Y-43459147D01*
G37*
G36*
X82693796Y-43992615D02*
G01*
X82632918Y-43900901D01*
X82619298Y-43873080D01*
X82611241Y-43845642D01*
X82607258Y-43814463D01*
X82605624Y-43764370D01*
X82605624Y-43666428D01*
X82609212Y-43638844D01*
X82619777Y-43614404D01*
X82637803Y-43592240D01*
X82660912Y-43575391D01*
X82688499Y-43565049D01*
X82721822Y-43561404D01*
X82889800Y-43561404D01*
X82889800Y-43454975D01*
X82735805Y-43454975D01*
X82674580Y-43459252D01*
X82624235Y-43471147D01*
X82582851Y-43489684D01*
X82548898Y-43514509D01*
X82521602Y-43546191D01*
X82501401Y-43585338D01*
X82488469Y-43633559D01*
X82483808Y-43692990D01*
X82483808Y-43751791D01*
X82486565Y-43818510D01*
X82493639Y-43865242D01*
X82505779Y-43906893D01*
X82521604Y-43942240D01*
X82581810Y-44036029D01*
X82788989Y-44328571D01*
X82455781Y-44328571D01*
X82455781Y-44435000D01*
X82917827Y-44435000D01*
X82917827Y-44311779D01*
X82693796Y-43992615D01*
G37*
G36*
X81985884Y-43459274D02*
G01*
X82035955Y-43471199D01*
X82076834Y-43489734D01*
X82110116Y-43514509D01*
X82136761Y-43546096D01*
X82156538Y-43585203D01*
X82169225Y-43633455D01*
X82173803Y-43692990D01*
X82173803Y-44196985D01*
X82169361Y-44254191D01*
X82156935Y-44301532D01*
X82137369Y-44340809D01*
X82110788Y-44373389D01*
X82065577Y-44407408D01*
X82013524Y-44427894D01*
X81952580Y-44435000D01*
X81903609Y-44435000D01*
X81842665Y-44427894D01*
X81790611Y-44407408D01*
X81745401Y-44373389D01*
X81718819Y-44340809D01*
X81699253Y-44301532D01*
X81686828Y-44254191D01*
X81682386Y-44196985D01*
X81682386Y-44042990D01*
X81684299Y-44016428D01*
X81801393Y-44016428D01*
X81801393Y-44223607D01*
X81804757Y-44252304D01*
X81814517Y-44277202D01*
X81830825Y-44299200D01*
X81852180Y-44315976D01*
X81878316Y-44326307D01*
X81910631Y-44329975D01*
X81945619Y-44329975D01*
X81977894Y-44326310D01*
X82004034Y-44315981D01*
X82025425Y-44299200D01*
X82041696Y-44277207D01*
X82051438Y-44252308D01*
X82054795Y-44223607D01*
X82054795Y-43923982D01*
X81903609Y-43923982D01*
X81870856Y-43927084D01*
X81846026Y-43935502D01*
X81827283Y-43948529D01*
X81808205Y-43976871D01*
X81801393Y-44016428D01*
X81684299Y-44016428D01*
X81686667Y-43983559D01*
X81698345Y-43936878D01*
X81716197Y-43900415D01*
X81739783Y-43872203D01*
X81769655Y-43850474D01*
X81807884Y-43833885D01*
X81856402Y-43823003D01*
X81917592Y-43819019D01*
X82054795Y-43819019D01*
X82054795Y-43666428D01*
X82051207Y-43638844D01*
X82040643Y-43614404D01*
X82022616Y-43592240D01*
X81999471Y-43575386D01*
X81971880Y-43565046D01*
X81938597Y-43561404D01*
X81749614Y-43561404D01*
X81749614Y-43454975D01*
X81924614Y-43454975D01*
X81985884Y-43459274D01*
G37*
G36*
X81244702Y-43459147D02*
G01*
X81290571Y-43470922D01*
X81329497Y-43489622D01*
X81362611Y-43515181D01*
X81389028Y-43547077D01*
X81408599Y-43586237D01*
X81421120Y-43634201D01*
X81425626Y-43692990D01*
X81425626Y-44196985D01*
X81421113Y-44254932D01*
X81408523Y-44302577D01*
X81388751Y-44341825D01*
X81361939Y-44374122D01*
X81328419Y-44400076D01*
X81289416Y-44418975D01*
X81243878Y-44430819D01*
X81190420Y-44435000D01*
X81162393Y-44435000D01*
X81108934Y-44430819D01*
X81063406Y-44418973D01*
X81024425Y-44400074D01*
X80990934Y-44374122D01*
X80964094Y-44341821D01*
X80944304Y-44302571D01*
X80931703Y-44254928D01*
X80929262Y-44223607D01*
X81046194Y-44223607D01*
X81049835Y-44251168D01*
X81060612Y-44275860D01*
X81079106Y-44298529D01*
X81102680Y-44315832D01*
X81130074Y-44326320D01*
X81162393Y-44329975D01*
X81190420Y-44329975D01*
X81222738Y-44326320D01*
X81250133Y-44315832D01*
X81273707Y-44298529D01*
X81292201Y-44275860D01*
X81302978Y-44251168D01*
X81306618Y-44223607D01*
X81046194Y-43845580D01*
X81046194Y-44223607D01*
X80929262Y-44223607D01*
X80927187Y-44196985D01*
X80927187Y-43692990D01*
X80929223Y-43666428D01*
X81046194Y-43666428D01*
X81306618Y-44045799D01*
X81306618Y-43666428D01*
X81302978Y-43638867D01*
X81292201Y-43614176D01*
X81273707Y-43591507D01*
X81250128Y-43574168D01*
X81222734Y-43563661D01*
X81190420Y-43560000D01*
X81162393Y-43560000D01*
X81130079Y-43563661D01*
X81102684Y-43574168D01*
X81079106Y-43591507D01*
X81060612Y-43614176D01*
X81049835Y-43638867D01*
X81046194Y-43666428D01*
X80929223Y-43666428D01*
X80931693Y-43634201D01*
X80944214Y-43586237D01*
X80963785Y-43547077D01*
X80990202Y-43515181D01*
X81023315Y-43489622D01*
X81062242Y-43470922D01*
X81108110Y-43459147D01*
X81162393Y-43454975D01*
X81190420Y-43454975D01*
X81244702Y-43459147D01*
G37*
G36*
X80458973Y-44329975D02*
G01*
X80458973Y-43565617D01*
X80656383Y-43638401D01*
X80656383Y-43525012D01*
X80473017Y-43454975D01*
X80340027Y-43454975D01*
X80340027Y-44329975D01*
X80187375Y-44329975D01*
X80187375Y-44435000D01*
X80642400Y-44435000D01*
X80642400Y-44329975D01*
X80458973Y-44329975D01*
G37*
G36*
X79673000Y-43992615D02*
G01*
X79612122Y-43900901D01*
X79598503Y-43873080D01*
X79590446Y-43845642D01*
X79586462Y-43814463D01*
X79584828Y-43764370D01*
X79584828Y-43666428D01*
X79588416Y-43638844D01*
X79598981Y-43614404D01*
X79617007Y-43592240D01*
X79640116Y-43575391D01*
X79667704Y-43565049D01*
X79701027Y-43561404D01*
X79869005Y-43561404D01*
X79869005Y-43454975D01*
X79715010Y-43454975D01*
X79653785Y-43459252D01*
X79603439Y-43471147D01*
X79562055Y-43489684D01*
X79528103Y-43514509D01*
X79500807Y-43546191D01*
X79480606Y-43585338D01*
X79467674Y-43633559D01*
X79463012Y-43692990D01*
X79463012Y-43751791D01*
X79465770Y-43818510D01*
X79472843Y-43865242D01*
X79484984Y-43906893D01*
X79500809Y-43942240D01*
X79561015Y-44036029D01*
X79768194Y-44328571D01*
X79434985Y-44328571D01*
X79434985Y-44435000D01*
X79897032Y-44435000D01*
X79897032Y-44311779D01*
X79673000Y-43992615D01*
G37*
G36*
X78700791Y-44213777D02*
G01*
X78704977Y-44272557D01*
X78716388Y-44318690D01*
X78733809Y-44354680D01*
X78756784Y-44382487D01*
X78785903Y-44403672D01*
X78824314Y-44420068D01*
X78874334Y-44430967D01*
X78938806Y-44435000D01*
X79122232Y-44435000D01*
X79122232Y-44329975D01*
X78926228Y-44329975D01*
X78891542Y-44326804D01*
X78866169Y-44318341D01*
X78847826Y-44305490D01*
X78834582Y-44287490D01*
X78825875Y-44262389D01*
X78822607Y-44227821D01*
X78822607Y-44050012D01*
X78825943Y-44020373D01*
X78835350Y-43996283D01*
X78850634Y-43976495D01*
X78870779Y-43961616D01*
X78895114Y-43952447D01*
X78924823Y-43949200D01*
X79108188Y-43949200D01*
X79108188Y-43454975D01*
X78721796Y-43454975D01*
X78721796Y-43560000D01*
X78989181Y-43560000D01*
X78989181Y-43844176D01*
X78931784Y-43844176D01*
X78861792Y-43850741D01*
X78806374Y-43868884D01*
X78762402Y-43897421D01*
X78736644Y-43925955D01*
X78717535Y-43961812D01*
X78705245Y-44006625D01*
X78700791Y-44062590D01*
X78700791Y-44213777D01*
G37*
M02*
