%TF.GenerationSoftware,KiCad,Pcbnew,9.0.7*%
%TF.CreationDate,2026-02-24T11:04:31+09:00*%
%TF.ProjectId,display-with-ken-interface,64697370-6c61-4792-9d77-6974682d6b65,rev?*%
%TF.SameCoordinates,Original*%
%TF.FileFunction,Soldermask,Top*%
%TF.FilePolarity,Negative*%
%FSLAX46Y46*%
G04 Gerber Fmt 4.6, Leading zero omitted, Abs format (unit mm)*
G04 Created by KiCad (PCBNEW 9.0.7) date 2026-02-24 11:04:31*
%MOMM*%
%LPD*%
G01*
G04 APERTURE LIST*
G04 Aperture macros list*
%AMFreePoly0*
4,1,23,0.500000,-0.750000,0.000000,-0.750000,0.000000,-0.745722,-0.065263,-0.745722,-0.191342,-0.711940,-0.304381,-0.646677,-0.396677,-0.554381,-0.461940,-0.441342,-0.495722,-0.315263,-0.495722,-0.250000,-0.500000,-0.250000,-0.500000,0.250000,-0.495722,0.250000,-0.495722,0.315263,-0.461940,0.441342,-0.396677,0.554381,-0.304381,0.646677,-0.191342,0.711940,-0.065263,0.745722,0.000000,0.745722,
0.000000,0.750000,0.500000,0.750000,0.500000,-0.750000,0.500000,-0.750000,$1*%
%AMFreePoly1*
4,1,23,0.000000,0.745722,0.065263,0.745722,0.191342,0.711940,0.304381,0.646677,0.396677,0.554381,0.461940,0.441342,0.495722,0.315263,0.495722,0.250000,0.500000,0.250000,0.500000,-0.250000,0.495722,-0.250000,0.495722,-0.315263,0.461940,-0.441342,0.396677,-0.554381,0.304381,-0.646677,0.191342,-0.711940,0.065263,-0.745722,0.000000,-0.745722,0.000000,-0.750000,-0.500000,-0.750000,
-0.500000,0.750000,0.000000,0.750000,0.000000,0.745722,0.000000,0.745722,$1*%
G04 Aperture macros list end*
%ADD10C,5.600000*%
%ADD11FreePoly0,180.000000*%
%ADD12FreePoly1,180.000000*%
%ADD13R,1.700000X1.700000*%
%ADD14C,1.700000*%
G04 APERTURE END LIST*
%TO.C,JP1*%
G36*
X67714000Y-47486000D02*
G01*
X67414000Y-47486000D01*
X67414000Y-45986000D01*
X67714000Y-45986000D01*
X67714000Y-47486000D01*
G37*
%TD*%
D10*
%TO.C,H1*%
X105410000Y-116840000D03*
%TD*%
%TO.C,H2*%
X62230000Y-116840000D03*
%TD*%
%TO.C,H4*%
X105410000Y-43180000D03*
%TD*%
D11*
%TO.C,JP1*%
X68214000Y-46736000D03*
D12*
X66914000Y-46736000D03*
%TD*%
D13*
%TO.C,J5*%
X74930000Y-114300000D03*
D14*
X77470000Y-114300000D03*
X80010000Y-114300000D03*
X82550000Y-114300000D03*
X85090000Y-114300000D03*
X87630000Y-114300000D03*
X90170000Y-114300000D03*
X92710000Y-114300000D03*
%TD*%
D13*
%TO.C,J1*%
X76200000Y-106934000D03*
D14*
X78740000Y-106934000D03*
X81280000Y-106934000D03*
X83820000Y-106934000D03*
X86360000Y-106934000D03*
X88900000Y-106934000D03*
X91440000Y-106934000D03*
%TD*%
D10*
%TO.C,H3*%
X62230000Y-43180000D03*
%TD*%
D13*
%TO.C,U3*%
X62865000Y-71374000D03*
D14*
X65405000Y-71374000D03*
X62865000Y-73914000D03*
X65405000Y-73914000D03*
X62865000Y-76454000D03*
X65405000Y-76454000D03*
X62865000Y-78994000D03*
X65405000Y-78994000D03*
X62865000Y-81534000D03*
X65405000Y-81534000D03*
X62865000Y-84074000D03*
X65405000Y-84074000D03*
X62865000Y-86614000D03*
X65405000Y-86614000D03*
X62865000Y-89154000D03*
X65405000Y-89154000D03*
X62865000Y-91694000D03*
X65405000Y-91694000D03*
X62865000Y-94234000D03*
X65405000Y-94234000D03*
X62865000Y-96774000D03*
X65405000Y-96774000D03*
X62865000Y-99314000D03*
X65405000Y-99314000D03*
X62865000Y-101854000D03*
X65405000Y-101854000D03*
X62865000Y-104394000D03*
X65405000Y-104394000D03*
X62865000Y-106934000D03*
X65405000Y-106934000D03*
%TD*%
D13*
%TO.C,J4*%
X73660000Y-46736000D03*
D14*
X76200000Y-46736000D03*
X78740000Y-46736000D03*
X81280000Y-46736000D03*
X83820000Y-46736000D03*
X86360000Y-46736000D03*
X88900000Y-46736000D03*
X91440000Y-46736000D03*
X93980000Y-46736000D03*
%TD*%
D13*
%TO.C,U5*%
X99060000Y-106934000D03*
D14*
X96520000Y-106934000D03*
X99060000Y-104394000D03*
X96520000Y-104394000D03*
X99060000Y-101854000D03*
X96520000Y-101854000D03*
X99060000Y-99314000D03*
X96520000Y-99314000D03*
X99060000Y-96774000D03*
X96520000Y-96774000D03*
X99060000Y-94234000D03*
X96520000Y-94234000D03*
X99060000Y-91694000D03*
X96520000Y-91694000D03*
X99060000Y-89154000D03*
X96520000Y-89154000D03*
X99060000Y-86614000D03*
X96520000Y-86614000D03*
X99060000Y-84074000D03*
X96520000Y-84074000D03*
X99060000Y-81534000D03*
X96520000Y-81534000D03*
X99060000Y-78994000D03*
X96520000Y-78994000D03*
X99060000Y-76454000D03*
X96520000Y-76454000D03*
X99060000Y-73914000D03*
X96520000Y-73914000D03*
X99060000Y-71374000D03*
X96520000Y-71374000D03*
%TD*%
M02*
