M48
; DRILL file {KiCad 9.0.7} date 2026-02-24T10:58:49+0900
; FORMAT={-:-/ absolute / metric / decimal}
; #@! TF.CreationDate,2026-02-24T10:58:49+09:00
; #@! TF.GenerationSoftware,Kicad,Pcbnew,9.0.7
; #@! TF.FileFunction,Plated,1,4,PTH
FMAT,2
METRIC
; #@! TA.AperFunction,Plated,PTH,ViaDrill
T1C0.400
; #@! TA.AperFunction,Plated,PTH,ComponentDrill
T2C1.000
; #@! TA.AperFunction,Plated,PTH,ComponentDrill
T3C1.100
; #@! TA.AperFunction,Plated,PTH,ComponentDrill
T4C3.200
%
G90
G05
T1
X60.96Y-81.534
X65.532Y-49.276
X65.532Y-62.738
X68.072Y-49.276
X68.072Y-62.738
X68.072Y-70.104
X69.342Y-77.724
X69.342Y-89.154
X69.342Y-106.934
X69.342Y-109.474
X70.866Y-49.276
X70.866Y-62.738
X70.866Y-70.104
X74.168Y-72.019
X74.168Y-77.724
X74.93Y-45.466
X76.2Y-111.76
X77.47Y-49.276
X77.47Y-62.738
X77.47Y-70.104
X77.47Y-89.154
X78.74Y-111.76
X78.74Y-115.57
X78.74Y-119.126
X80.01Y-45.466
X80.01Y-49.276
X80.01Y-62.738
X80.01Y-70.104
X81.28Y-111.76
X81.28Y-115.57
X81.28Y-119.126
X82.55Y-45.466
X82.55Y-49.276
X82.55Y-62.738
X82.55Y-70.104
X82.55Y-89.154
X83.82Y-111.76
X85.09Y-45.466
X85.09Y-49.276
X85.09Y-62.738
X85.09Y-70.104
X85.09Y-77.724
X86.36Y-111.76
X86.36Y-115.57
X86.36Y-119.126
X87.63Y-49.276
X87.63Y-62.738
X87.63Y-70.104
X87.63Y-77.724
X87.63Y-89.154
X88.9Y-111.76
X90.17Y-45.466
X91.44Y-111.76
X91.44Y-115.57
X91.44Y-119.126
X92.71Y-49.276
X92.71Y-62.738
X92.71Y-77.724
X92.71Y-89.154
X94.488Y-106.934
X94.488Y-109.474
X95.25Y-49.276
X95.25Y-62.738
X97.79Y-77.724
X102.87Y-106.934
T2
X73.66Y-46.736
X74.93Y-114.3
X76.2Y-46.736
X76.2Y-106.934
X77.47Y-114.3
X78.74Y-46.736
X78.74Y-106.934
X80.01Y-114.3
X81.28Y-46.736
X81.28Y-106.934
X82.55Y-114.3
X83.82Y-46.736
X83.82Y-106.934
X85.09Y-114.3
X86.36Y-46.736
X86.36Y-106.934
X87.63Y-114.3
X88.9Y-46.736
X88.9Y-106.934
X90.17Y-114.3
X91.44Y-46.736
X91.44Y-106.934
X92.71Y-114.3
X93.98Y-46.736
T3
X62.865Y-71.374
X62.865Y-73.914
X62.865Y-76.454
X62.865Y-78.994
X62.865Y-81.534
X62.865Y-84.074
X62.865Y-86.614
X62.865Y-89.154
X62.865Y-91.694
X62.865Y-94.234
X62.865Y-96.774
X62.865Y-99.314
X62.865Y-101.854
X62.865Y-104.394
X62.865Y-106.934
X65.405Y-71.374
X65.405Y-73.914
X65.405Y-76.454
X65.405Y-78.994
X65.405Y-81.534
X65.405Y-84.074
X65.405Y-86.614
X65.405Y-89.154
X65.405Y-91.694
X65.405Y-94.234
X65.405Y-96.774
X65.405Y-99.314
X65.405Y-101.854
X65.405Y-104.394
X65.405Y-106.934
X96.52Y-71.374
X96.52Y-73.914
X96.52Y-76.454
X96.52Y-78.994
X96.52Y-81.534
X96.52Y-84.074
X96.52Y-86.614
X96.52Y-89.154
X96.52Y-91.694
X96.52Y-94.234
X96.52Y-96.774
X96.52Y-99.314
X96.52Y-101.854
X96.52Y-104.394
X96.52Y-106.934
X99.06Y-71.374
X99.06Y-73.914
X99.06Y-76.454
X99.06Y-78.994
X99.06Y-81.534
X99.06Y-84.074
X99.06Y-86.614
X99.06Y-89.154
X99.06Y-91.694
X99.06Y-94.234
X99.06Y-96.774
X99.06Y-99.314
X99.06Y-101.854
X99.06Y-104.394
X99.06Y-106.934
T4
X62.23Y-43.18
X62.23Y-116.84
X105.41Y-43.18
X105.41Y-116.84
M30
