%TF.GenerationSoftware,KiCad,Pcbnew,9.0.7*%
%TF.CreationDate,2026-02-11T09:08:59+09:00*%
%TF.ProjectId,pico-with-ken-interface,7069636f-2d77-4697-9468-2d6b656e2d69,rev?*%
%TF.SameCoordinates,Original*%
%TF.FileFunction,Soldermask,Top*%
%TF.FilePolarity,Negative*%
%FSLAX46Y46*%
G04 Gerber Fmt 4.6, Leading zero omitted, Abs format (unit mm)*
G04 Created by KiCad (PCBNEW 9.0.7) date 2026-02-11 09:08:59*
%MOMM*%
%LPD*%
G01*
G04 APERTURE LIST*
G04 Aperture macros list*
%AMRoundRect*
0 Rectangle with rounded corners*
0 $1 Rounding radius*
0 $2 $3 $4 $5 $6 $7 $8 $9 X,Y pos of 4 corners*
0 Add a 4 corners polygon primitive as box body*
4,1,4,$2,$3,$4,$5,$6,$7,$8,$9,$2,$3,0*
0 Add four circle primitives for the rounded corners*
1,1,$1+$1,$2,$3*
1,1,$1+$1,$4,$5*
1,1,$1+$1,$6,$7*
1,1,$1+$1,$8,$9*
0 Add four rect primitives between the rounded corners*
20,1,$1+$1,$2,$3,$4,$5,0*
20,1,$1+$1,$4,$5,$6,$7,0*
20,1,$1+$1,$6,$7,$8,$9,0*
20,1,$1+$1,$8,$9,$2,$3,0*%
G04 Aperture macros list end*
%ADD10C,5.600000*%
%ADD11RoundRect,0.250001X0.624999X-0.462499X0.624999X0.462499X-0.624999X0.462499X-0.624999X-0.462499X0*%
%ADD12RoundRect,0.237500X-0.237500X0.250000X-0.237500X-0.250000X0.237500X-0.250000X0.237500X0.250000X0*%
%ADD13R,1.400000X1.100000*%
%ADD14O,1.800000X1.800000*%
%ADD15O,1.500000X1.500000*%
%ADD16O,1.700000X1.700000*%
%ADD17R,3.500000X1.700000*%
%ADD18R,1.700000X1.700000*%
%ADD19R,1.700000X3.500000*%
%ADD20C,1.700000*%
G04 APERTURE END LIST*
D10*
%TO.C,H1*%
X135890000Y-116840000D03*
%TD*%
%TO.C,H2*%
X62230000Y-116840000D03*
%TD*%
%TO.C,H4*%
X135890000Y-43180000D03*
%TD*%
D11*
%TO.C,D3*%
X130048000Y-64733500D03*
X130048000Y-61758500D03*
%TD*%
D12*
%TO.C,R8*%
X130048000Y-56515000D03*
X130048000Y-58340000D03*
%TD*%
D13*
%TO.C,SW2*%
X122757000Y-64746000D03*
X116257000Y-64746000D03*
X122757000Y-61746000D03*
X116257000Y-61746000D03*
%TD*%
D10*
%TO.C,H3*%
X62230000Y-43180000D03*
%TD*%
D14*
%TO.C,U1*%
X96335000Y-41405000D03*
D15*
X96635000Y-44435000D03*
X101485000Y-44435000D03*
D14*
X101785000Y-41405000D03*
D16*
X90170000Y-41275000D03*
D17*
X89270000Y-41275000D03*
D16*
X90170000Y-43815000D03*
D17*
X89270000Y-43815000D03*
D18*
X90170000Y-46355000D03*
D17*
X89270000Y-46355000D03*
D16*
X90170000Y-48895000D03*
D17*
X89270000Y-48895000D03*
D16*
X90170000Y-51435000D03*
D17*
X89270000Y-51435000D03*
D16*
X90170000Y-53975000D03*
D17*
X89270000Y-53975000D03*
D16*
X90170000Y-56515000D03*
D17*
X89270000Y-56515000D03*
D18*
X90170000Y-59055000D03*
D17*
X89270000Y-59055000D03*
D16*
X90170000Y-61595000D03*
D17*
X89270000Y-61595000D03*
D16*
X90170000Y-64135000D03*
D17*
X89270000Y-64135000D03*
D16*
X90170000Y-66675000D03*
D17*
X89270000Y-66675000D03*
D16*
X90170000Y-69215000D03*
D17*
X89270000Y-69215000D03*
D18*
X90170000Y-71755000D03*
D17*
X89270000Y-71755000D03*
D16*
X90170000Y-74295000D03*
D17*
X89270000Y-74295000D03*
D16*
X90170000Y-76835000D03*
D17*
X89270000Y-76835000D03*
D16*
X90170000Y-79375000D03*
D17*
X89270000Y-79375000D03*
D16*
X90170000Y-81915000D03*
D17*
X89270000Y-81915000D03*
D18*
X90170000Y-84455000D03*
D17*
X89270000Y-84455000D03*
D16*
X90170000Y-86995000D03*
D17*
X89270000Y-86995000D03*
D16*
X90170000Y-89535000D03*
D17*
X89270000Y-89535000D03*
D16*
X107950000Y-89535000D03*
D17*
X108850000Y-89535000D03*
D16*
X107950000Y-86995000D03*
D17*
X108850000Y-86995000D03*
D18*
X107950000Y-84455000D03*
D17*
X108850000Y-84455000D03*
D16*
X107950000Y-81915000D03*
D17*
X108850000Y-81915000D03*
D16*
X107950000Y-79375000D03*
D17*
X108850000Y-79375000D03*
D16*
X107950000Y-76835000D03*
D17*
X108850000Y-76835000D03*
D16*
X107950000Y-74295000D03*
D17*
X108850000Y-74295000D03*
D18*
X107950000Y-71755000D03*
D17*
X108850000Y-71755000D03*
D16*
X107950000Y-69215000D03*
D17*
X108850000Y-69215000D03*
D16*
X107950000Y-66675000D03*
D17*
X108850000Y-66675000D03*
D16*
X107950000Y-64135000D03*
D17*
X108850000Y-64135000D03*
D16*
X107950000Y-61595000D03*
D17*
X108850000Y-61595000D03*
D18*
X107950000Y-59055000D03*
D17*
X108850000Y-59055000D03*
D16*
X107950000Y-56515000D03*
D17*
X108850000Y-56515000D03*
D16*
X107950000Y-53975000D03*
D17*
X108850000Y-53975000D03*
D16*
X107950000Y-51435000D03*
D17*
X108850000Y-51435000D03*
D16*
X107950000Y-48895000D03*
D17*
X108850000Y-48895000D03*
D18*
X107950000Y-46355000D03*
D17*
X108850000Y-46355000D03*
D16*
X107950000Y-43815000D03*
D17*
X108850000Y-43815000D03*
D16*
X107950000Y-41275000D03*
D17*
X108850000Y-41275000D03*
D16*
X96520000Y-89305000D03*
D19*
X96520000Y-90205000D03*
D18*
X99060000Y-89305000D03*
D19*
X99060000Y-90205000D03*
D16*
X101600000Y-89305000D03*
D19*
X101600000Y-90205000D03*
%TD*%
D18*
%TO.C,U3*%
X62865000Y-71374000D03*
D20*
X65405000Y-71374000D03*
X62865000Y-73914000D03*
X65405000Y-73914000D03*
X62865000Y-76454000D03*
X65405000Y-76454000D03*
X62865000Y-78994000D03*
X65405000Y-78994000D03*
X62865000Y-81534000D03*
X65405000Y-81534000D03*
X62865000Y-84074000D03*
X65405000Y-84074000D03*
X62865000Y-86614000D03*
X65405000Y-86614000D03*
X62865000Y-89154000D03*
X65405000Y-89154000D03*
X62865000Y-91694000D03*
X65405000Y-91694000D03*
X62865000Y-94234000D03*
X65405000Y-94234000D03*
X62865000Y-96774000D03*
X65405000Y-96774000D03*
X62865000Y-99314000D03*
X65405000Y-99314000D03*
X62865000Y-101854000D03*
X65405000Y-101854000D03*
X62865000Y-104394000D03*
X65405000Y-104394000D03*
X62865000Y-106934000D03*
X65405000Y-106934000D03*
%TD*%
D18*
%TO.C,U5*%
X129667000Y-106934000D03*
D20*
X127127000Y-106934000D03*
X129667000Y-104394000D03*
X127127000Y-104394000D03*
X129667000Y-101854000D03*
X127127000Y-101854000D03*
X129667000Y-99314000D03*
X127127000Y-99314000D03*
X129667000Y-96774000D03*
X127127000Y-96774000D03*
X129667000Y-94234000D03*
X127127000Y-94234000D03*
X129667000Y-91694000D03*
X127127000Y-91694000D03*
X129667000Y-89154000D03*
X127127000Y-89154000D03*
X129667000Y-86614000D03*
X127127000Y-86614000D03*
X129667000Y-84074000D03*
X127127000Y-84074000D03*
X129667000Y-81534000D03*
X127127000Y-81534000D03*
X129667000Y-78994000D03*
X127127000Y-78994000D03*
X129667000Y-76454000D03*
X127127000Y-76454000D03*
X129667000Y-73914000D03*
X127127000Y-73914000D03*
X129667000Y-71374000D03*
X127127000Y-71374000D03*
%TD*%
M02*
