M48
; DRILL file {KiCad 9.0.7} date 2026-02-11T09:08:56+0900
; FORMAT={-:-/ absolute / metric / decimal}
; #@! TF.CreationDate,2026-02-11T09:08:56+09:00
; #@! TF.GenerationSoftware,Kicad,Pcbnew,9.0.7
; #@! TF.FileFunction,Plated,1,4,PTH
FMAT,2
METRIC
; #@! TA.AperFunction,Plated,PTH,ViaDrill
T1C0.400
; #@! TA.AperFunction,Plated,PTH,ComponentDrill
T2C1.020
; #@! TA.AperFunction,Plated,PTH,ComponentDrill
T3C1.100
; #@! TA.AperFunction,Plated,PTH,ComponentDrill
T4C3.200
%
G90
G05
T1
X73.152Y-68.58
X74.676Y-64.516
X76.2Y-57.912
X77.724Y-58.928
X77.724Y-79.502
X79.248Y-80.518
X83.82Y-70.866
X83.82Y-74.295
X83.82Y-76.835
X83.82Y-79.248
X113.792Y-90.932
T2
X90.17Y-41.275
X90.17Y-43.815
X90.17Y-46.355
X90.17Y-48.895
X90.17Y-51.435
X90.17Y-53.975
X90.17Y-56.515
X90.17Y-59.055
X90.17Y-61.595
X90.17Y-64.135
X90.17Y-66.675
X90.17Y-69.215
X90.17Y-71.755
X90.17Y-74.295
X90.17Y-76.835
X90.17Y-79.375
X90.17Y-81.915
X90.17Y-84.455
X90.17Y-86.995
X90.17Y-89.535
X96.52Y-89.305
X99.06Y-89.305
X101.6Y-89.305
X107.95Y-41.275
X107.95Y-43.815
X107.95Y-46.355
X107.95Y-48.895
X107.95Y-51.435
X107.95Y-53.975
X107.95Y-56.515
X107.95Y-59.055
X107.95Y-61.595
X107.95Y-64.135
X107.95Y-66.675
X107.95Y-69.215
X107.95Y-71.755
X107.95Y-74.295
X107.95Y-76.835
X107.95Y-79.375
X107.95Y-81.915
X107.95Y-84.455
X107.95Y-86.995
X107.95Y-89.535
T3
X62.865Y-71.374
X62.865Y-73.914
X62.865Y-76.454
X62.865Y-78.994
X62.865Y-81.534
X62.865Y-84.074
X62.865Y-86.614
X62.865Y-89.154
X62.865Y-91.694
X62.865Y-94.234
X62.865Y-96.774
X62.865Y-99.314
X62.865Y-101.854
X62.865Y-104.394
X62.865Y-106.934
X65.405Y-71.374
X65.405Y-73.914
X65.405Y-76.454
X65.405Y-78.994
X65.405Y-81.534
X65.405Y-84.074
X65.405Y-86.614
X65.405Y-89.154
X65.405Y-91.694
X65.405Y-94.234
X65.405Y-96.774
X65.405Y-99.314
X65.405Y-101.854
X65.405Y-104.394
X65.405Y-106.934
X127.127Y-71.374
X127.127Y-73.914
X127.127Y-76.454
X127.127Y-78.994
X127.127Y-81.534
X127.127Y-84.074
X127.127Y-86.614
X127.127Y-89.154
X127.127Y-91.694
X127.127Y-94.234
X127.127Y-96.774
X127.127Y-99.314
X127.127Y-101.854
X127.127Y-104.394
X127.127Y-106.934
X129.667Y-71.374
X129.667Y-73.914
X129.667Y-76.454
X129.667Y-78.994
X129.667Y-81.534
X129.667Y-84.074
X129.667Y-86.614
X129.667Y-89.154
X129.667Y-91.694
X129.667Y-94.234
X129.667Y-96.774
X129.667Y-99.314
X129.667Y-101.854
X129.667Y-104.394
X129.667Y-106.934
T4
X62.23Y-43.18
X62.23Y-116.84
X135.89Y-43.18
X135.89Y-116.84
M30
