%TF.GenerationSoftware,KiCad,Pcbnew,9.0.6*%
%TF.CreationDate,2026-01-25T13:50:41+09:00*%
%TF.ProjectId,xiaozhi-with-ken-interface,7869616f-7a68-4692-9d77-6974682d6b65,rev?*%
%TF.SameCoordinates,Original*%
%TF.FileFunction,Soldermask,Bot*%
%TF.FilePolarity,Negative*%
%FSLAX46Y46*%
G04 Gerber Fmt 4.6, Leading zero omitted, Abs format (unit mm)*
G04 Created by KiCad (PCBNEW 9.0.6) date 2026-01-25 13:50:41*
%MOMM*%
%LPD*%
G01*
G04 APERTURE LIST*
G04 Aperture macros list*
%AMRoundRect*
0 Rectangle with rounded corners*
0 $1 Rounding radius*
0 $2 $3 $4 $5 $6 $7 $8 $9 X,Y pos of 4 corners*
0 Add a 4 corners polygon primitive as box body*
4,1,4,$2,$3,$4,$5,$6,$7,$8,$9,$2,$3,0*
0 Add four circle primitives for the rounded corners*
1,1,$1+$1,$2,$3*
1,1,$1+$1,$4,$5*
1,1,$1+$1,$6,$7*
1,1,$1+$1,$8,$9*
0 Add four rect primitives between the rounded corners*
20,1,$1+$1,$2,$3,$4,$5,0*
20,1,$1+$1,$4,$5,$6,$7,0*
20,1,$1+$1,$6,$7,$8,$9,0*
20,1,$1+$1,$8,$9,$2,$3,0*%
G04 Aperture macros list end*
%ADD10C,5.600000*%
%ADD11RoundRect,0.050800X-0.762000X-0.762000X0.762000X-0.762000X0.762000X0.762000X-0.762000X0.762000X0*%
%ADD12O,1.625600X1.625600*%
%ADD13O,1.851600X3.101600*%
%ADD14O,2.601600X4.101600*%
%ADD15R,1.700000X1.700000*%
%ADD16C,1.700000*%
%ADD17O,1.700000X1.700000*%
G04 APERTURE END LIST*
D10*
%TO.C,H1*%
X105410000Y-116840000D03*
%TD*%
%TO.C,H2*%
X62230000Y-116840000D03*
%TD*%
%TO.C,H4*%
X105410000Y-43180000D03*
%TD*%
D11*
%TO.C,M1*%
X87511900Y-63119000D03*
D12*
X79891900Y-63119000D03*
X79891900Y-68199000D03*
X87511900Y-68199000D03*
X87511900Y-65659000D03*
X79891900Y-65659000D03*
%TD*%
D13*
%TO.C,U6*%
X76200000Y-104386000D03*
X78740000Y-104386000D03*
X81280000Y-104386000D03*
X83820000Y-104386000D03*
X86360000Y-104386000D03*
X88900000Y-104386000D03*
X91440000Y-104386000D03*
D14*
X85620000Y-116840000D03*
X82120000Y-116840000D03*
%TD*%
D10*
%TO.C,H3*%
X62230000Y-43180000D03*
%TD*%
D15*
%TO.C,U3*%
X62865000Y-71374000D03*
D16*
X65405000Y-71374000D03*
X62865000Y-73914000D03*
X65405000Y-73914000D03*
X62865000Y-76454000D03*
X65405000Y-76454000D03*
X62865000Y-78994000D03*
X65405000Y-78994000D03*
X62865000Y-81534000D03*
X65405000Y-81534000D03*
X62865000Y-84074000D03*
X65405000Y-84074000D03*
X62865000Y-86614000D03*
X65405000Y-86614000D03*
X62865000Y-89154000D03*
X65405000Y-89154000D03*
X62865000Y-91694000D03*
X65405000Y-91694000D03*
X62865000Y-94234000D03*
X65405000Y-94234000D03*
X62865000Y-96774000D03*
X65405000Y-96774000D03*
X62865000Y-99314000D03*
X65405000Y-99314000D03*
X62865000Y-101854000D03*
X65405000Y-101854000D03*
X62865000Y-104394000D03*
X65405000Y-104394000D03*
X62865000Y-106934000D03*
X65405000Y-106934000D03*
%TD*%
D15*
%TO.C,U5*%
X99060000Y-106934000D03*
D16*
X96520000Y-106934000D03*
X99060000Y-104394000D03*
X96520000Y-104394000D03*
X99060000Y-101854000D03*
X96520000Y-101854000D03*
X99060000Y-99314000D03*
X96520000Y-99314000D03*
X99060000Y-96774000D03*
X96520000Y-96774000D03*
X99060000Y-94234000D03*
X96520000Y-94234000D03*
X99060000Y-91694000D03*
X96520000Y-91694000D03*
X99060000Y-89154000D03*
X96520000Y-89154000D03*
X99060000Y-86614000D03*
X96520000Y-86614000D03*
X99060000Y-84074000D03*
X96520000Y-84074000D03*
X99060000Y-81534000D03*
X96520000Y-81534000D03*
X99060000Y-78994000D03*
X96520000Y-78994000D03*
X99060000Y-76454000D03*
X96520000Y-76454000D03*
X99060000Y-73914000D03*
X96520000Y-73914000D03*
X99060000Y-71374000D03*
X96520000Y-71374000D03*
%TD*%
D15*
%TO.C,J1*%
X66205000Y-55511000D03*
D17*
X66205000Y-52971000D03*
X66205000Y-50431000D03*
X66205000Y-47891000D03*
%TD*%
M02*
