%TF.GenerationSoftware,KiCad,Pcbnew,9.0.7*%
%TF.CreationDate,2026-02-11T09:08:59+09:00*%
%TF.ProjectId,pico-with-ken-interface,7069636f-2d77-4697-9468-2d6b656e2d69,rev?*%
%TF.SameCoordinates,Original*%
%TF.FileFunction,Legend,Bot*%
%TF.FilePolarity,Positive*%
%FSLAX46Y46*%
G04 Gerber Fmt 4.6, Leading zero omitted, Abs format (unit mm)*
G04 Created by KiCad (PCBNEW 9.0.7) date 2026-02-11 09:08:59*
%MOMM*%
%LPD*%
G01*
G04 APERTURE LIST*
%ADD10C,0.150000*%
G04 APERTURE END LIST*
D10*
G36*
X107188034Y-114590000D02*
G01*
X106930358Y-114590000D01*
X106602829Y-115796803D01*
X106283603Y-114590000D01*
X106034353Y-114590000D01*
X106437598Y-115990000D01*
X106781981Y-115990000D01*
X107188034Y-114590000D01*
G37*
G36*
X105268611Y-114597978D02*
G01*
X105363434Y-114619495D01*
X105435721Y-114651834D01*
X105490058Y-114693681D01*
X105531850Y-114747953D01*
X105564151Y-114820175D01*
X105585646Y-114914937D01*
X105593617Y-115037941D01*
X105593617Y-115542058D01*
X105584995Y-115662471D01*
X105561551Y-115756405D01*
X105525844Y-115829191D01*
X105478823Y-115884975D01*
X105419220Y-115927638D01*
X105342079Y-115960421D01*
X105243237Y-115982048D01*
X105117588Y-115990000D01*
X104700421Y-115990000D01*
X104700421Y-115779951D01*
X105145554Y-115779951D01*
X105240464Y-115766874D01*
X105302480Y-115732445D01*
X105331335Y-115697453D01*
X105349205Y-115653531D01*
X105355602Y-115597990D01*
X105355602Y-115387941D01*
X104610784Y-115387941D01*
X104610784Y-115024019D01*
X104616013Y-114967965D01*
X104843181Y-114967965D01*
X104843181Y-115178014D01*
X105355602Y-115178014D01*
X105355602Y-114982009D01*
X105344431Y-114899884D01*
X105315058Y-114846210D01*
X105284531Y-114822274D01*
X105239229Y-114806208D01*
X105173641Y-114800048D01*
X105011220Y-114800048D01*
X104944123Y-114812195D01*
X104890808Y-114847676D01*
X104855332Y-114900889D01*
X104843181Y-114967965D01*
X104616013Y-114967965D01*
X104623692Y-114885658D01*
X104658759Y-114780397D01*
X104712999Y-114700642D01*
X104788112Y-114641272D01*
X104886108Y-114603691D01*
X105014029Y-114590000D01*
X105145554Y-114590000D01*
X105268611Y-114597978D01*
G37*
G36*
X103861935Y-115779951D02*
G01*
X103861935Y-114800048D01*
X104066367Y-114800048D01*
X104066367Y-114590000D01*
X103637965Y-114590000D01*
X103637965Y-114665593D01*
X103572906Y-114624009D01*
X103499043Y-114598754D01*
X103413994Y-114590000D01*
X103125543Y-114590000D01*
X103125543Y-114813970D01*
X103441960Y-114813970D01*
X103498958Y-114820932D01*
X103542705Y-114840224D01*
X103576415Y-114871367D01*
X103611366Y-114930699D01*
X103624043Y-114987627D01*
X103624043Y-115779951D01*
X103318739Y-115779951D01*
X103318739Y-115990000D01*
X104066367Y-115990000D01*
X104066367Y-115779951D01*
X103861935Y-115779951D01*
G37*
G36*
X101654346Y-115640000D02*
G01*
X101667571Y-115752530D01*
X101703976Y-115838068D01*
X101762180Y-115903171D01*
X101838894Y-115948910D01*
X101940590Y-115978896D01*
X102074444Y-115990000D01*
X102491611Y-115990000D01*
X102491611Y-115779951D01*
X102046356Y-115779951D01*
X101976858Y-115771051D01*
X101931562Y-115747833D01*
X101902669Y-115709461D01*
X101892361Y-115654043D01*
X101892361Y-115505544D01*
X101900761Y-115447816D01*
X101922906Y-115410654D01*
X101958509Y-115388071D01*
X102012773Y-115379637D01*
X102116454Y-115379637D01*
X102244509Y-115368595D01*
X102339387Y-115339049D01*
X102408935Y-115294274D01*
X102460122Y-115230715D01*
X102493225Y-115143276D01*
X102505533Y-115024019D01*
X102505533Y-114942808D01*
X102492065Y-114822613D01*
X102455800Y-114735388D01*
X102399165Y-114672676D01*
X102323655Y-114629416D01*
X102221707Y-114600716D01*
X102085557Y-114590000D01*
X101710400Y-114590000D01*
X101710400Y-114800048D01*
X102113645Y-114800048D01*
X102178638Y-114808700D01*
X102225630Y-114832288D01*
X102256708Y-114870818D01*
X102267640Y-114925956D01*
X102267640Y-115026828D01*
X102257494Y-115084575D01*
X102229905Y-115122083D01*
X102187955Y-115144789D01*
X102133184Y-115152857D01*
X102038052Y-115152857D01*
X101916111Y-115164320D01*
X101823104Y-115195506D01*
X101752410Y-115243838D01*
X101699908Y-115310707D01*
X101666541Y-115398583D01*
X101654346Y-115513970D01*
X101654346Y-115640000D01*
G37*
G36*
X100438017Y-114029951D02*
G01*
X100438017Y-114282009D01*
X100703997Y-114282009D01*
X100703997Y-114029951D01*
X100438017Y-114029951D01*
G37*
G36*
X101101625Y-114800048D02*
G01*
X101101625Y-114590000D01*
X100451939Y-114590000D01*
X100451939Y-115779951D01*
X100037581Y-115779951D01*
X100037581Y-115990000D01*
X100689953Y-115990000D01*
X100689953Y-114800048D01*
X101101625Y-114800048D01*
G37*
G36*
X99230662Y-114597986D02*
G01*
X99328879Y-114619796D01*
X99406240Y-114653022D01*
X99466663Y-114696489D01*
X99514455Y-114753009D01*
X99550565Y-114825963D01*
X99574158Y-114919258D01*
X99582801Y-115037941D01*
X99582801Y-115542058D01*
X99574160Y-115660737D01*
X99550570Y-115754057D01*
X99514459Y-115827055D01*
X99466663Y-115883632D01*
X99406249Y-115927045D01*
X99328891Y-115960233D01*
X99230671Y-115982020D01*
X99106771Y-115990000D01*
X99014447Y-115990000D01*
X98890542Y-115982019D01*
X98792347Y-115960228D01*
X98715034Y-115927040D01*
X98654678Y-115883632D01*
X98606826Y-115827047D01*
X98570678Y-115754044D01*
X98547067Y-115660727D01*
X98538418Y-115542058D01*
X98538418Y-115037941D01*
X98542495Y-114982009D01*
X98776433Y-114982009D01*
X98776433Y-115597990D01*
X98782842Y-115653522D01*
X98800750Y-115697443D01*
X98829678Y-115732445D01*
X98891576Y-115766874D01*
X98986360Y-115779951D01*
X99134737Y-115779951D01*
X99229648Y-115766874D01*
X99291663Y-115732445D01*
X99320519Y-115697453D01*
X99338389Y-115653531D01*
X99344786Y-115597990D01*
X99344786Y-114982009D01*
X99338386Y-114926471D01*
X99320514Y-114882594D01*
X99291663Y-114847676D01*
X99229636Y-114813155D01*
X99134737Y-114800048D01*
X98986360Y-114800048D01*
X98891587Y-114813155D01*
X98829678Y-114847676D01*
X98800755Y-114882604D01*
X98782845Y-114926481D01*
X98776433Y-114982009D01*
X98542495Y-114982009D01*
X98547069Y-114919268D01*
X98570683Y-114825976D01*
X98606830Y-114753018D01*
X98654678Y-114696489D01*
X98715043Y-114653026D01*
X98792359Y-114619801D01*
X98890552Y-114597988D01*
X99014447Y-114590000D01*
X99106771Y-114590000D01*
X99230662Y-114597986D01*
G37*
G36*
X97837197Y-114590000D02*
G01*
X97837197Y-114657166D01*
X97776054Y-114620871D01*
X97702431Y-114598104D01*
X97613226Y-114590000D01*
X97484388Y-114590000D01*
X97369727Y-114597862D01*
X97278007Y-114619454D01*
X97204935Y-114652627D01*
X97147089Y-114696489D01*
X97101802Y-114752619D01*
X97067356Y-114825392D01*
X97044749Y-114918808D01*
X97036447Y-115037941D01*
X97036447Y-115990000D01*
X97274339Y-115990000D01*
X97274339Y-114982009D01*
X97287234Y-114905094D01*
X97323432Y-114849019D01*
X97379497Y-114812915D01*
X97456422Y-114800048D01*
X97641192Y-114800048D01*
X97700838Y-114806222D01*
X97745371Y-114822957D01*
X97778457Y-114849019D01*
X97812457Y-114900898D01*
X97823153Y-114954043D01*
X97823153Y-115990000D01*
X98061168Y-115990000D01*
X98061168Y-114590000D01*
X97837197Y-114590000D01*
G37*
G36*
X95898397Y-114590000D02*
G01*
X95898397Y-114870024D01*
X96178422Y-114870024D01*
X96178422Y-114590000D01*
X95898397Y-114590000D01*
G37*
G36*
X95898397Y-115709975D02*
G01*
X95898397Y-115990000D01*
X96178422Y-115990000D01*
X96178422Y-115709975D01*
X95898397Y-115709975D01*
G37*
G36*
X94603544Y-115779951D02*
G01*
X94603544Y-114251235D01*
X94998362Y-114396803D01*
X94998362Y-114170024D01*
X94631632Y-114029951D01*
X94365651Y-114029951D01*
X94365651Y-115779951D01*
X94060348Y-115779951D01*
X94060348Y-115990000D01*
X94970397Y-115990000D01*
X94970397Y-115779951D01*
X94603544Y-115779951D01*
G37*
G36*
X92877602Y-115709975D02*
G01*
X92877602Y-115990000D01*
X93157626Y-115990000D01*
X93157626Y-115709975D01*
X92877602Y-115709975D01*
G37*
G36*
X91643808Y-114038295D02*
G01*
X91735545Y-114061845D01*
X91813398Y-114099244D01*
X91879625Y-114150362D01*
X91932459Y-114214154D01*
X91971602Y-114292474D01*
X91996644Y-114388403D01*
X92005655Y-114505980D01*
X92005655Y-115513970D01*
X91996629Y-115629865D01*
X91971449Y-115725155D01*
X91931906Y-115803651D01*
X91878282Y-115868244D01*
X91811242Y-115920153D01*
X91733236Y-115957951D01*
X91642159Y-115981639D01*
X91535243Y-115990000D01*
X91479189Y-115990000D01*
X91372271Y-115981638D01*
X91281216Y-115957947D01*
X91203254Y-115920149D01*
X91136272Y-115868244D01*
X91082592Y-115803643D01*
X91043012Y-115725143D01*
X91017810Y-115629857D01*
X91012928Y-115567215D01*
X91246792Y-115567215D01*
X91254073Y-115622337D01*
X91275627Y-115671720D01*
X91312616Y-115717058D01*
X91359763Y-115751664D01*
X91414552Y-115772641D01*
X91479189Y-115779951D01*
X91535243Y-115779951D01*
X91599880Y-115772641D01*
X91654669Y-115751664D01*
X91701817Y-115717058D01*
X91738805Y-115671720D01*
X91760359Y-115622337D01*
X91767640Y-115567215D01*
X91246792Y-114811161D01*
X91246792Y-115567215D01*
X91012928Y-115567215D01*
X91008778Y-115513970D01*
X91008778Y-114505980D01*
X91012849Y-114452857D01*
X91246792Y-114452857D01*
X91767640Y-115211598D01*
X91767640Y-114452857D01*
X91760359Y-114397735D01*
X91738805Y-114348352D01*
X91701817Y-114303014D01*
X91654660Y-114268336D01*
X91599872Y-114247322D01*
X91535243Y-114240000D01*
X91479189Y-114240000D01*
X91414561Y-114247322D01*
X91359772Y-114268336D01*
X91312616Y-114303014D01*
X91275627Y-114348352D01*
X91254073Y-114397735D01*
X91246792Y-114452857D01*
X91012849Y-114452857D01*
X91017789Y-114388403D01*
X91042831Y-114292474D01*
X91081973Y-114214154D01*
X91134807Y-114150362D01*
X91201034Y-114099244D01*
X91278887Y-114061845D01*
X91370624Y-114038295D01*
X91479189Y-114029951D01*
X91535243Y-114029951D01*
X91643808Y-114038295D01*
G37*
G36*
X108596827Y-117950000D02*
G01*
X108921548Y-117950000D01*
X109045439Y-117957986D01*
X109143656Y-117979796D01*
X109221017Y-118013022D01*
X109281440Y-118056489D01*
X109329232Y-118113009D01*
X109365342Y-118185963D01*
X109388935Y-118279258D01*
X109397578Y-118397941D01*
X109397578Y-118902058D01*
X109388956Y-119022471D01*
X109365512Y-119116405D01*
X109329805Y-119189191D01*
X109282784Y-119244975D01*
X109223180Y-119287638D01*
X109146040Y-119320421D01*
X109047197Y-119342048D01*
X108921548Y-119350000D01*
X108806754Y-119350000D01*
X108721089Y-119342421D01*
X108647170Y-119320746D01*
X108582784Y-119285642D01*
X108582784Y-119350000D01*
X108358813Y-119350000D01*
X108358813Y-118985956D01*
X108596827Y-118985956D01*
X108607549Y-119039092D01*
X108641646Y-119090980D01*
X108674658Y-119117037D01*
X108719145Y-119133773D01*
X108778788Y-119139951D01*
X108949636Y-119139951D01*
X109044440Y-119126878D01*
X109106440Y-119092445D01*
X109135296Y-119057453D01*
X109153166Y-119013531D01*
X109159563Y-118957990D01*
X109159563Y-118342009D01*
X109153163Y-118286471D01*
X109135291Y-118242594D01*
X109106440Y-118207676D01*
X109044428Y-118173151D01*
X108949636Y-118160048D01*
X108596827Y-118160048D01*
X108596827Y-118985956D01*
X108358813Y-118985956D01*
X108358813Y-117389951D01*
X108596827Y-117389951D01*
X108596827Y-117950000D01*
G37*
G36*
X107822822Y-118160048D02*
G01*
X107388802Y-118160048D01*
X107294010Y-118173151D01*
X107231998Y-118207676D01*
X107203075Y-118242604D01*
X107185166Y-118286481D01*
X107178753Y-118342009D01*
X107178753Y-118481960D01*
X107525945Y-118481960D01*
X107656699Y-118495292D01*
X107755739Y-118531606D01*
X107830578Y-118588349D01*
X107885636Y-118667150D01*
X107921501Y-118773511D01*
X107934807Y-118915980D01*
X107934807Y-118972034D01*
X107922006Y-119106710D01*
X107888461Y-119200602D01*
X107838209Y-119264637D01*
X107768383Y-119308806D01*
X107668584Y-119338639D01*
X107528753Y-119350000D01*
X107279626Y-119350000D01*
X107212754Y-119340494D01*
X107156726Y-119312915D01*
X107108778Y-119265980D01*
X107074767Y-119301075D01*
X107034650Y-119327651D01*
X106991428Y-119344830D01*
X106954783Y-119350000D01*
X106800788Y-119350000D01*
X106800788Y-119153995D01*
X106870328Y-119147751D01*
X106908621Y-119132990D01*
X106932511Y-119107119D01*
X106940739Y-119069975D01*
X106940739Y-119000000D01*
X107178753Y-119000000D01*
X107184829Y-119057965D01*
X107201224Y-119100750D01*
X107234447Y-119128357D01*
X107307592Y-119139951D01*
X107556841Y-119139951D01*
X107622827Y-119130570D01*
X107663209Y-119106367D01*
X107687412Y-119065985D01*
X107696793Y-119000000D01*
X107696793Y-118860048D01*
X107684637Y-118792867D01*
X107649165Y-118739637D01*
X107595851Y-118704156D01*
X107528753Y-118692009D01*
X107178753Y-118692009D01*
X107178753Y-119000000D01*
X106940739Y-119000000D01*
X106940739Y-118397941D01*
X106949389Y-118279268D01*
X106973004Y-118185976D01*
X107009151Y-118113018D01*
X107056998Y-118056489D01*
X107117363Y-118013026D01*
X107194680Y-117979801D01*
X107292873Y-117957988D01*
X107416768Y-117950000D01*
X107822822Y-117950000D01*
X107822822Y-118160048D01*
G37*
G36*
X105752375Y-119350000D02*
G01*
X105843214Y-119338927D01*
X105914491Y-119307975D01*
X105970850Y-119257676D01*
X106011627Y-119192197D01*
X106037273Y-119112234D01*
X106046444Y-119014043D01*
X106046444Y-118160048D01*
X106312424Y-118160048D01*
X106312424Y-117950000D01*
X106046444Y-117950000D01*
X106046444Y-117614043D01*
X105808429Y-117614043D01*
X105808429Y-117950000D01*
X105399566Y-117950000D01*
X105399566Y-118160048D01*
X105808429Y-118160048D01*
X105808429Y-119027965D01*
X105799791Y-119083062D01*
X105777654Y-119114794D01*
X105741399Y-119132833D01*
X105682400Y-119139951D01*
X105399566Y-119139951D01*
X105399566Y-119350000D01*
X105752375Y-119350000D01*
G37*
G36*
X104513412Y-117957978D02*
G01*
X104608235Y-117979495D01*
X104680522Y-118011834D01*
X104734860Y-118053681D01*
X104776652Y-118107953D01*
X104808953Y-118180175D01*
X104830447Y-118274937D01*
X104838419Y-118397941D01*
X104838419Y-118902058D01*
X104829797Y-119022471D01*
X104806353Y-119116405D01*
X104770646Y-119189191D01*
X104723624Y-119244975D01*
X104664021Y-119287638D01*
X104586881Y-119320421D01*
X104488038Y-119342048D01*
X104362389Y-119350000D01*
X103945222Y-119350000D01*
X103945222Y-119139951D01*
X104390355Y-119139951D01*
X104485266Y-119126874D01*
X104547281Y-119092445D01*
X104576137Y-119057453D01*
X104594007Y-119013531D01*
X104600404Y-118957990D01*
X104600404Y-118747941D01*
X103855585Y-118747941D01*
X103855585Y-118384019D01*
X103860815Y-118327965D01*
X104087982Y-118327965D01*
X104087982Y-118538014D01*
X104600404Y-118538014D01*
X104600404Y-118342009D01*
X104589232Y-118259884D01*
X104559860Y-118206210D01*
X104529332Y-118182274D01*
X104484031Y-118166208D01*
X104418443Y-118160048D01*
X104256021Y-118160048D01*
X104188924Y-118172195D01*
X104135610Y-118207676D01*
X104100133Y-118260889D01*
X104087982Y-118327965D01*
X103860815Y-118327965D01*
X103868494Y-118245658D01*
X103903560Y-118140397D01*
X103957801Y-118060642D01*
X104032913Y-118001272D01*
X104130910Y-117963691D01*
X104258830Y-117950000D01*
X104390355Y-117950000D01*
X104513412Y-117957978D01*
G37*
G36*
X102695188Y-117950000D02*
G01*
X102695188Y-118230024D01*
X102975212Y-118230024D01*
X102975212Y-117950000D01*
X102695188Y-117950000D01*
G37*
G36*
X102695188Y-119069975D02*
G01*
X102695188Y-119350000D01*
X102975212Y-119350000D01*
X102975212Y-119069975D01*
X102695188Y-119069975D01*
G37*
G36*
X99828387Y-118465230D02*
G01*
X99706632Y-118281803D01*
X99679393Y-118226161D01*
X99663279Y-118171284D01*
X99655311Y-118108927D01*
X99652044Y-118008740D01*
X99652044Y-117812857D01*
X99659220Y-117757689D01*
X99680349Y-117708809D01*
X99716402Y-117664480D01*
X99762620Y-117630782D01*
X99817794Y-117610099D01*
X99884441Y-117602808D01*
X100220397Y-117602808D01*
X100220397Y-117389951D01*
X99912407Y-117389951D01*
X99789956Y-117398504D01*
X99689266Y-117422295D01*
X99606497Y-117459369D01*
X99538593Y-117509019D01*
X99484001Y-117572382D01*
X99443599Y-117650677D01*
X99417734Y-117747119D01*
X99408412Y-117865980D01*
X99408412Y-117983583D01*
X99413927Y-118117020D01*
X99428073Y-118210484D01*
X99452355Y-118293787D01*
X99484005Y-118364480D01*
X99604416Y-118552058D01*
X100018774Y-119137142D01*
X99352358Y-119137142D01*
X99352358Y-119350000D01*
X100276451Y-119350000D01*
X100276451Y-119103558D01*
X99828387Y-118465230D01*
G37*
G36*
X98440599Y-117398295D02*
G01*
X98532336Y-117421845D01*
X98610188Y-117459244D01*
X98676416Y-117510362D01*
X98729250Y-117574154D01*
X98768392Y-117652474D01*
X98793434Y-117748403D01*
X98802445Y-117865980D01*
X98802445Y-118873970D01*
X98793419Y-118989865D01*
X98768239Y-119085155D01*
X98728696Y-119163651D01*
X98675072Y-119228244D01*
X98608032Y-119280153D01*
X98530027Y-119317951D01*
X98438949Y-119341639D01*
X98332033Y-119350000D01*
X98275980Y-119350000D01*
X98169061Y-119341638D01*
X98078007Y-119317947D01*
X98000044Y-119280149D01*
X97933063Y-119228244D01*
X97879382Y-119163643D01*
X97839802Y-119085143D01*
X97814601Y-118989857D01*
X97809718Y-118927215D01*
X98043583Y-118927215D01*
X98050864Y-118982337D01*
X98072417Y-119031720D01*
X98109406Y-119077058D01*
X98156554Y-119111664D01*
X98211343Y-119132641D01*
X98275980Y-119139951D01*
X98332033Y-119139951D01*
X98396670Y-119132641D01*
X98451459Y-119111664D01*
X98498607Y-119077058D01*
X98535596Y-119031720D01*
X98557149Y-118982337D01*
X98564430Y-118927215D01*
X98043583Y-118171161D01*
X98043583Y-118927215D01*
X97809718Y-118927215D01*
X97805568Y-118873970D01*
X97805568Y-117865980D01*
X97809639Y-117812857D01*
X98043583Y-117812857D01*
X98564430Y-118571598D01*
X98564430Y-117812857D01*
X98557149Y-117757735D01*
X98535596Y-117708352D01*
X98498607Y-117663014D01*
X98451450Y-117628336D01*
X98396662Y-117607322D01*
X98332033Y-117600000D01*
X98275980Y-117600000D01*
X98211351Y-117607322D01*
X98156563Y-117628336D01*
X98109406Y-117663014D01*
X98072417Y-117708352D01*
X98050864Y-117757735D01*
X98043583Y-117812857D01*
X97809639Y-117812857D01*
X97814579Y-117748403D01*
X97839621Y-117652474D01*
X97878763Y-117574154D01*
X97931597Y-117510362D01*
X97997825Y-117459244D01*
X98075677Y-117421845D01*
X98167414Y-117398295D01*
X98275980Y-117389951D01*
X98332033Y-117389951D01*
X98440599Y-117398295D01*
G37*
G36*
X96807592Y-118465230D02*
G01*
X96685837Y-118281803D01*
X96658597Y-118226161D01*
X96642483Y-118171284D01*
X96634516Y-118108927D01*
X96631248Y-118008740D01*
X96631248Y-117812857D01*
X96638424Y-117757689D01*
X96659554Y-117708809D01*
X96695606Y-117664480D01*
X96741824Y-117630782D01*
X96796999Y-117610099D01*
X96863645Y-117602808D01*
X97199601Y-117602808D01*
X97199601Y-117389951D01*
X96891611Y-117389951D01*
X96769161Y-117398504D01*
X96668470Y-117422295D01*
X96585702Y-117459369D01*
X96517797Y-117509019D01*
X96463205Y-117572382D01*
X96422803Y-117650677D01*
X96396939Y-117747119D01*
X96387616Y-117865980D01*
X96387616Y-117983583D01*
X96393131Y-118117020D01*
X96407278Y-118210484D01*
X96431559Y-118293787D01*
X96463209Y-118364480D01*
X96583621Y-118552058D01*
X96997979Y-119137142D01*
X96331562Y-119137142D01*
X96331562Y-119350000D01*
X97255655Y-119350000D01*
X97255655Y-119103558D01*
X96807592Y-118465230D01*
G37*
G36*
X95391769Y-117398548D02*
G01*
X95491911Y-117422398D01*
X95573669Y-117459469D01*
X95640233Y-117509019D01*
X95693522Y-117572192D01*
X95733076Y-117650406D01*
X95758450Y-117746910D01*
X95767606Y-117865980D01*
X95767606Y-118873970D01*
X95758722Y-118988382D01*
X95733870Y-119083064D01*
X95694739Y-119161618D01*
X95641576Y-119226779D01*
X95551155Y-119294816D01*
X95447048Y-119335789D01*
X95325160Y-119350000D01*
X95227218Y-119350000D01*
X95105330Y-119335789D01*
X95001223Y-119294816D01*
X94910802Y-119226779D01*
X94857639Y-119161618D01*
X94818507Y-119083064D01*
X94793656Y-118988382D01*
X94784772Y-118873970D01*
X94784772Y-118565980D01*
X94788599Y-118512857D01*
X95022787Y-118512857D01*
X95022787Y-118927215D01*
X95029514Y-118984609D01*
X95049035Y-119034405D01*
X95081650Y-119078401D01*
X95124360Y-119111953D01*
X95176633Y-119132614D01*
X95241262Y-119139951D01*
X95311238Y-119139951D01*
X95375788Y-119132620D01*
X95428068Y-119111963D01*
X95470850Y-119078401D01*
X95503392Y-119034414D01*
X95522876Y-118984617D01*
X95529591Y-118927215D01*
X95529591Y-118327965D01*
X95227218Y-118327965D01*
X95161712Y-118334168D01*
X95112052Y-118351004D01*
X95074566Y-118377058D01*
X95036410Y-118433743D01*
X95022787Y-118512857D01*
X94788599Y-118512857D01*
X94793334Y-118447119D01*
X94816690Y-118353756D01*
X94852394Y-118280830D01*
X94899566Y-118224406D01*
X94959311Y-118180949D01*
X95035769Y-118147770D01*
X95132804Y-118126006D01*
X95255184Y-118118039D01*
X95529591Y-118118039D01*
X95529591Y-117812857D01*
X95522415Y-117757689D01*
X95501286Y-117708809D01*
X95465233Y-117664480D01*
X95418942Y-117630772D01*
X95363761Y-117610093D01*
X95297194Y-117602808D01*
X94919228Y-117602808D01*
X94919228Y-117389951D01*
X95269228Y-117389951D01*
X95391769Y-117398548D01*
G37*
G36*
X93909405Y-117398295D02*
G01*
X94001142Y-117421845D01*
X94078995Y-117459244D01*
X94145222Y-117510362D01*
X94198056Y-117574154D01*
X94237199Y-117652474D01*
X94262241Y-117748403D01*
X94271252Y-117865980D01*
X94271252Y-118873970D01*
X94262226Y-118989865D01*
X94237046Y-119085155D01*
X94197503Y-119163651D01*
X94143879Y-119228244D01*
X94076839Y-119280153D01*
X93998833Y-119317951D01*
X93907756Y-119341639D01*
X93800840Y-119350000D01*
X93744786Y-119350000D01*
X93637868Y-119341638D01*
X93546813Y-119317947D01*
X93468851Y-119280149D01*
X93401869Y-119228244D01*
X93348189Y-119163643D01*
X93308609Y-119085143D01*
X93283407Y-118989857D01*
X93278525Y-118927215D01*
X93512389Y-118927215D01*
X93519670Y-118982337D01*
X93541224Y-119031720D01*
X93578213Y-119077058D01*
X93625360Y-119111664D01*
X93680149Y-119132641D01*
X93744786Y-119139951D01*
X93800840Y-119139951D01*
X93865477Y-119132641D01*
X93920266Y-119111664D01*
X93967414Y-119077058D01*
X94004402Y-119031720D01*
X94025956Y-118982337D01*
X94033237Y-118927215D01*
X93512389Y-118171161D01*
X93512389Y-118927215D01*
X93278525Y-118927215D01*
X93274375Y-118873970D01*
X93274375Y-117865980D01*
X93278446Y-117812857D01*
X93512389Y-117812857D01*
X94033237Y-118571598D01*
X94033237Y-117812857D01*
X94025956Y-117757735D01*
X94004402Y-117708352D01*
X93967414Y-117663014D01*
X93920257Y-117628336D01*
X93865469Y-117607322D01*
X93800840Y-117600000D01*
X93744786Y-117600000D01*
X93680158Y-117607322D01*
X93625369Y-117628336D01*
X93578213Y-117663014D01*
X93541224Y-117708352D01*
X93519670Y-117757735D01*
X93512389Y-117812857D01*
X93278446Y-117812857D01*
X93283386Y-117748403D01*
X93308428Y-117652474D01*
X93347570Y-117574154D01*
X93400404Y-117510362D01*
X93466631Y-117459244D01*
X93544484Y-117421845D01*
X93636221Y-117398295D01*
X93744786Y-117389951D01*
X93800840Y-117389951D01*
X93909405Y-117398295D01*
G37*
G36*
X92276398Y-118465230D02*
G01*
X92154643Y-118281803D01*
X92127404Y-118226161D01*
X92111290Y-118171284D01*
X92103322Y-118108927D01*
X92100055Y-118008740D01*
X92100055Y-117812857D01*
X92107231Y-117757689D01*
X92128360Y-117708809D01*
X92164413Y-117664480D01*
X92210631Y-117630782D01*
X92265806Y-117610099D01*
X92332452Y-117602808D01*
X92668408Y-117602808D01*
X92668408Y-117389951D01*
X92360418Y-117389951D01*
X92237968Y-117398504D01*
X92137277Y-117422295D01*
X92054508Y-117459369D01*
X91986604Y-117509019D01*
X91932012Y-117572382D01*
X91891610Y-117650677D01*
X91865745Y-117747119D01*
X91856423Y-117865980D01*
X91856423Y-117983583D01*
X91861938Y-118117020D01*
X91876084Y-118210484D01*
X91900366Y-118293787D01*
X91932016Y-118364480D01*
X92052428Y-118552058D01*
X92466786Y-119137142D01*
X91800369Y-119137142D01*
X91800369Y-119350000D01*
X92724462Y-119350000D01*
X92724462Y-119103558D01*
X92276398Y-118465230D01*
G37*
G36*
X90827550Y-119139951D02*
G01*
X90827550Y-117611235D01*
X91222368Y-117756803D01*
X91222368Y-117530024D01*
X90855638Y-117389951D01*
X90589657Y-117389951D01*
X90589657Y-119139951D01*
X90284354Y-119139951D01*
X90284354Y-119350000D01*
X91194402Y-119350000D01*
X91194402Y-119139951D01*
X90827550Y-119139951D01*
G37*
G36*
X89317152Y-119139951D02*
G01*
X89317152Y-117611235D01*
X89711971Y-117756803D01*
X89711971Y-117530024D01*
X89345240Y-117389951D01*
X89079259Y-117389951D01*
X89079259Y-119139951D01*
X88773956Y-119139951D01*
X88773956Y-119350000D01*
X89684005Y-119350000D01*
X89684005Y-119139951D01*
X89317152Y-119139951D01*
G37*
M02*
